<?xml version="1.0" encoding="utf-8"?>
<!-- Generator: Adobe Illustrator 23.0.5, SVG Export Plug-In . SVG Version: 6.00 Build 0)  -->
<svg version="1.1" id="Layer_1" xmlns="http://www.w3.org/2000/svg" xmlns:xlink="http://www.w3.org/1999/xlink" x="0px" y="0px"
	 viewBox="0 0 500 500" style="enable-background:new 0 0 500 500;" xml:space="preserve">
<style type="text/css">
	.st0{fill:none;stroke:#FFFFFF;stroke-width:2;stroke-miterlimit:10;}
	.st1{fill:#FFFFFF;}
</style>
<g>
	<polyline class="st0" points="130.6,98.85 147.12,98.76 147.27,126.12 162.16,140.86 162.4,186.47 	"/>
	<polyline class="st0" points="116.97,109.75 126.69,115.97 139.22,112.77 139.36,139.84 151.91,142.63 152.03,165.43 	"/>
	<polyline class="st0" points="170.44,197.82 152.2,197.92 152.08,174.55 130.81,140.46 130.74,127.35 	"/>
	<polyline class="st0" points="117.04,122.29 117.12,137.68 130.89,154.71 130.97,170.1 138.97,174.62 139.17,213.38 131.2,215.7 
		131.25,225.39 	"/>
	<polyline class="st0" points="117.57,225.46 117.5,211.21 128.3,205.45 128.2,186.64 117.37,186.7 117.29,171.31 104.65,151.99 
		104.5,122.35 	"/>
	<polyline class="st0" points="112.03,146.26 122.38,162.73 122.45,177.55 	"/>
	<polyline class="st0" points="116.59,200.38 107.74,198.15 107.61,173.92 92.08,146.36 92.01,133.25 	"/>
	<line class="st0" x1="76.69" y1="146.44" x2="95.64" y2="173.99"/>
	<polyline class="st0" points="64.77,156.76 72.75,156.72 81.39,174.06 89.94,174.02 	"/>
	<polyline class="st0" points="60.25,163.06 68.89,180.68 100.81,180.52 	"/>
	<polyline class="st0" points="100.84,186.79 92.32,191.96 73.51,192.06 73.55,200.61 98.63,200.48 	"/>
	<polyline class="st0" points="67.82,193.8 59.58,180.68 54.64,180.76 54.78,207.55 104.94,207.29 	"/>
	<polyline class="st0" points="44.48,200.76 44.56,216.15 87.31,215.93 95.91,225.57 109.02,225.51 	"/>
	<polyline class="st0" points="44.59,222.42 71.39,222.28 80.84,231.35 80.97,257.57 	"/>
	<line class="st0" x1="44.65" y1="232.68" x2="68.02" y2="232.56"/>
	<polyline class="st0" points="44.69,240.09 70.91,239.95 73.87,262.17 90.47,275.76 105.29,275.69 	"/>
	<line class="st0" x1="62.84" y1="250.26" x2="44.74" y2="250.35"/>
	<polyline class="st0" points="62.88,257.67 62.93,268.5 75.08,275.84 	"/>
	<polyline class="st0" points="90.43,266.64 116.93,266.51 117.07,292.15 	"/>
	<polyline class="st0" points="90.38,257.81 122.87,257.36 122.81,245.38 96.02,245.52 90.35,251.68 	"/>
	<polyline class="st0" points="90.25,232.44 146.96,232.15 146.91,221.89 152.25,207.04 	"/>
	<polyline class="st0" points="128.47,237.94 146.99,237.85 147.03,245.26 128.51,245.35 128.7,282.97 	"/>
	<polyline class="st0" points="138.01,292.05 137.86,262.98 155.96,262.88 155.84,239.51 196.42,260.11 	"/>
	<line class="st0" x1="139.34" y1="245.3" x2="139.4" y2="257.27"/>
	<polyline class="st0" points="152.38,232.12 202.54,231.86 219.59,221.51 219.3,166.22 224.4,161.35 	"/>
	<polyline class="st0" points="152.33,221.86 162.54,212.69 209.28,212.44 196.23,225.05 162.6,225.23 	"/>
	<line class="st0" x1="180.81" y1="218.86" x2="180.84" y2="225.13"/>
	<polyline class="st0" points="162.51,206.99 211.53,206.73 211.41,183.36 	"/>
	<polyline class="st0" points="177.3,202.35 177.23,188.67 170.38,186.42 170.2,151.65 177.1,162.45 	"/>
	<polyline class="st0" points="186.98,200.02 186.91,186.34 177.19,180.12 177.14,171.28 191.96,171.21 177.03,148.77 	"/>
	<polyline class="st0" points="196.1,199.97 202.37,199.94 202.27,179.99 192.01,180.04 196.05,190 	"/>
	<polyline class="st0" points="138.53,90.82 161.9,90.7 162.07,122.06 151.77,114.13 151.7,101.02 	"/>
	<polyline class="st0" points="162.09,127.18 176.97,137.37 176.9,124.83 184.32,127.07 184.42,145.88 197.07,166.34 	"/>
	<polyline class="st0" points="170.06,124.86 169.9,93.51 184.16,95.15 184.26,115.1 176.86,116.28 176.79,103.17 	"/>
	<polyline class="st0" points="151.61,83.92 180.11,83.77 201.92,112.73 202.06,140.09 	"/>
	<polyline class="st0" points="191.67,115.06 191.81,142.42 206.19,166.29 	"/>
	<polyline class="st0" points="202.09,145.5 224.32,145.39 211.29,161.41 211.36,174.24 	"/>
	<line class="st0" x1="213.21" y1="145.44" x2="206.11" y2="151.47"/>
	<polyline class="st0" points="173.21,72.98 187.77,76.89 195.55,93.38 224.2,121.73 224.3,140.54 209.61,140.05 	"/>
	<line class="st0" x1="216.23" y1="124.62" x2="216.31" y2="140.01"/>
	<polyline class="st0" points="177.78,239.4 202.58,239.27 202.65,253.52 190.22,246.46 	"/>
	<polyline class="st0" points="162.75,253.73 162.86,275.39 147.19,275.47 147.33,302.26 	"/>
	<polyline class="st0" points="152.71,296.53 170.95,296.44 170.8,266.22 	"/>
	<line class="st0" x1="170.9" y1="285.61" x2="157.79" y2="285.67"/>
	<polyline class="st0" points="170.75,257.11 192.47,268.96 192.67,307.72 181.84,307.78 181.67,275.29 	"/>
	<polyline class="st0" points="155.2,307.92 171.01,307.84 171.06,317.53 192.72,317.41 	"/>
	<polyline class="st0" points="199.9,326.5 199.6,269.5 216.88,249.45 231.7,249.38 231.61,231.71 238.97,221.41 	"/>
	<line class="st0" x1="210.13" y1="239.23" x2="224.81" y2="239.15"/>
	<polyline class="st0" points="217.47,239.19 233.81,215.74 233.64,183.24 	"/>
	<polyline class="st0" points="225.49,199.82 225.38,177.02 233.55,166.15 233.47,151.32 	"/>
	<polyline class="st0" points="262.08,62.82 262.15,75.93 274.17,85.56 274.34,118.05 259.56,126.68 259.72,155.75 	"/>
	<polyline class="st0" points="251.04,132.42 251.22,166.05 267.18,165.97 267.23,176.51 284.33,176.43 284.58,224.59 274.95,234.9 
		275.11,265.68 	"/>
	<polyline class="st0" points="259.84,179.69 244.45,179.77 244.34,159.68 233.4,137.07 	"/>
	<polyline class="st0" points="191.42,67.18 198.65,87.09 229.17,114.87 229.26,132.25 244.2,132.17 	"/>
	<polyline class="st0" points="252.96,62.87 253.03,75.98 266.79,90.16 266.9,111.53 253.25,117.59 	"/>
	<polyline class="st0" points="251,124.44 238.46,124.51 238.37,105.98 229.12,106.03 	"/>
	<polyline class="st0" points="239.79,62.94 239.88,80.04 259.39,93.05 	"/>
	<polyline class="st0" points="259.46,105.87 244.11,114.79 244,93.13 255.43,99.48 	"/>
	<polyline class="st0" points="238.33,98.29 238.26,86.32 229,83.52 228.9,62.99 	"/>
	<polyline class="st0" points="198.55,67.14 201.77,83.66 210.89,83.61 210.78,63.09 	"/>
	<polyline class="st0" points="218.33,63.05 218.48,90.41 210.92,90.45 224.92,90.38 224.97,99.64 233.71,99.6 	"/>
	<polyline class="st0" points="274.69,185.88 257.02,185.97 257.19,218.46 246.98,227.64 247.04,239.04 239.06,239.08 	"/>
	<polyline class="st0" points="246.76,186.03 246.87,206.55 240.57,212.28 	"/>
	<polyline class="st0" points="274.75,196.28 274.88,221.51 264.62,221.56 264.49,196.34 	"/>
	<polyline class="st0" points="256.98,231.58 268.09,231.52 267.7,265.15 257.15,265.2 257.01,238.98 	"/>
	<polyline class="st0" points="240.74,246.2 229.92,259.93 230.04,282.45 240.94,285.24 241.09,312.32 	"/>
	<polyline class="st0" points="230.2,312.37 230.09,291.57 219.49,285.35 219.34,257.14 205.76,275.16 206.02,326.46 217.28,326.41 
			"/>
	<polyline class="st0" points="219.67,319.55 212.12,319.59 211.94,285.39 219.55,296.18 219.61,307.58 	"/>
	<polyline class="st0" points="247.09,248.44 239.2,265.3 239.26,277.55 250.63,277.49 247.18,265.26 	"/>
	<polyline class="st0" points="247.4,307.44 247.28,285.21 260.39,285.14 260.42,291.41 	"/>
	<polyline class="st0" points="252.75,296.01 252.75,304.34 270.18,304.47 281.17,335.19 	"/>
	<polyline class="st0" points="257.2,273.76 275.15,273.66 275.27,296.18 264.94,281.98 	"/>
	<polyline class="st0" points="274.61,170.78 274.51,151.11 265.53,151.16 265.46,136.91 287.5,126.53 287.44,114.99 280.02,114.6 
		279.83,77.84 271.2,62.77 	"/>
	<polyline class="st0" points="292.64,348.82 292.53,326.01 285.08,319.21 284.78,262.78 295.6,259.59 	"/>
	<polyline class="st0" points="284.73,253.09 284.65,237.13 295.48,237.08 295.57,253.03 	"/>
	<polyline class="st0" points="295.66,270.71 295.9,316.88 304.54,335.07 300.4,360.17 	"/>
	<polyline class="st0" points="433.52,144.3 390.77,144.8 383.31,136.29 338.85,136.52 330.85,131.72 	"/>
	<polyline class="st0" points="425.49,136.07 395.86,138.08 386.68,126.02 346.21,126.23 346.16,117.11 314.24,117.27 
		314.37,141.78 320.1,148.02 	"/>
	<polyline class="st0" points="415.75,125.86 396.37,125.96 399.82,132.22 409.51,132.17 	"/>
	<line class="st0" x1="358.13" y1="117.05" x2="406.01" y2="116.8"/>
	<polyline class="st0" points="322.22,117.23 322.34,139.46 334.33,145.1 314.49,164.58 314.58,182.82 	"/>
	<polyline class="st0" points="269.3,135.1 284.19,148.21 284.3,170.72 	"/>
	<polyline class="st0" points="289.72,170.7 289.85,196.2 299.54,196.15 299.72,229.07 292.02,229.11 292.49,208.8 	"/>
	<polyline class="st0" points="283.74,62.71 298.99,89.99 299.49,163.31 291.78,155.58 291.67,134.98 284.12,135.02 	"/>
	<polyline class="st0" points="287.29,87.2 287.39,105.73 299.07,105.67 	"/>
	<polyline class="st0" points="307.01,152.76 307.24,196.11 343.72,195.92 361.32,182.58 	"/>
	<polyline class="st0" points="324.59,189.33 341.98,189.24 358.43,173.47 388.06,172.46 387.99,158.93 378.84,152.38 
		378.23,144.58 344.6,145.04 	"/>
	<polyline class="st0" points="337.8,152.6 343.53,159.16 356.19,155.25 383.41,155.66 	"/>
	<line class="st0" x1="320.19" y1="165.69" x2="388.02" y2="164.2"/>
	<polyline class="st0" points="346.47,164.95 337.95,182.7 324.56,182.77 324.5,172.8 334.2,172.75 	"/>
	<polyline class="st0" points="401.41,108.55 378.04,108.67 364.86,96.06 379.68,95.99 	"/>
	<polyline class="st0" points="367.22,111.01 353.75,96.12 314.14,97.89 314.04,77.66 319.7,69.93 	"/>
	<path class="st0" d="M306.57,66.58c0.01,1.71,0.31,59.85,0.31,59.85"/>
	<polyline class="st0" points="306.78,106.97 346.67,105.99 350.71,114.23 	"/>
	<polyline class="st0" points="360.82,86.82 324.08,90.57 319.75,80.19 328.57,77.58 	"/>
	<path class="st0" d="M340.27,80.73"/>
	<path class="st0" d="M396.51,152.29c0-0.67,39.9-0.21,39.9-0.21l0.07,14.43l-39.88,3.63l-0.06-11.26l26.23,1.43"/>
	<polyline class="st0" points="447.3,165.03 447.47,196.38 456.64,205.45 456.88,252.19 	"/>
	<line class="st0" x1="447.85" y1="269.91" x2="447.55" y2="211.49"/>
	<polyline class="st0" points="447.65,230.58 436.82,230.64 436.72,211.54 413.34,211.38 	"/>
	<polyline class="st0" points="436.82,230.64 436.93,252.3 416.41,252.4 416.47,264.95 	"/>
	<polyline class="st0" points="430.28,178.8 418.87,178.86 418.99,201.09 383.65,201.28 378.01,211.85 378.17,244.05 410.67,245.31 
			"/>
	<path class="st0" d="M396.79,205.77c0.59,2.85,0.13,25.08,0.13,25.08l7.45,7.37l32.49-0.17"/>
	<polyline class="st0" points="396.64,217.74 386.02,217.79 386.11,236.6 	"/>
	<line class="st0" x1="396.98" y1="227.14" x2="420.27" y2="227.02"/>
	<line class="st0" x1="426.34" y1="188.8" x2="426.46" y2="212.02"/>
	<line class="st0" x1="426.4" y1="200.41" x2="438.94" y2="200.99"/>
	<polyline class="st0" points="413.19,182.31 401.85,194.05 370.22,194.22 370.54,256.07 408.77,255.87 	"/>
	<polyline class="st0" points="413.16,176.04 374.41,179.09 347.17,201.47 	"/>
	<line class="st0" x1="365.33" y1="186.55" x2="396.48" y2="186.39"/>
	<polyline class="st0" points="309,206.22 338.07,206.07 347.24,215.72 365.49,215.62 365.6,236.71 	"/>
	<polyline class="st0" points="340.99,218.6 307.36,219.63 307.32,211.93 	"/>
	<polyline class="st0" points="309.11,227.6 356.57,227.35 356.67,247.87 365.65,247.83 	"/>
	<polyline class="st0" points="304.03,237.03 347.35,236.8 347.44,252.76 304.12,252.99 304.08,245.87 331.43,244.3 	"/>
	<polyline class="st0" points="304.15,259.55 304.42,311.99 315.17,322.62 	"/>
	<polyline class="st0" points="307.92,325.93 315.41,340.72 315.46,352.12 378.73,351.79 	"/>
	<polyline class="st0" points="381.73,344.36 383.12,318.7 426.99,314.77 	"/>
	<polyline class="st0" points="417.36,325.37 388.86,325.51 388.93,338.62 397.3,344.28 	"/>
	<line class="st0" x1="397.25" y1="334.59" x2="409.18" y2="334.53"/>
	<polyline class="st0" points="444.49,281.33 426.21,274.02 426.13,258.91 	"/>
	<line class="st0" x1="426.74" y1="267.17" x2="437.01" y2="267.12"/>
	<polyline class="st0" points="439.46,300.74 430.88,295.08 430.82,284.11 402.25,270.29 402.21,262.17 	"/>
	<polyline class="st0" points="356.72,256.14 358.91,267.53 392.12,267.35 392.21,284.31 	"/>
	<polyline class="st0" points="342.93,262.48 343,277.01 381.38,276.81 	"/>
	<polyline class="st0" points="334.65,259.39 314.84,259.49 312.92,301.4 320.99,319.02 	"/>
	<polyline class="st0" points="324.12,344.66 361.59,344.47 374.8,334.99 374.65,306.78 397.39,306.66 	"/>
	<polyline class="st0" points="409.04,306.6 430.94,306.48 417.2,295.44 417.16,286.6 402.3,280.12 	"/>
	<polyline class="st0" points="406.93,293.35 384.13,293.47 381.42,284.51 354.73,284.65 	"/>
	<polyline class="st0" points="378.47,301.05 365.93,301.12 366.09,331.9 	"/>
	<line class="st0" x1="324.04" y1="329.98" x2="366.04" y2="322.35"/>
	<polyline class="st0" points="325.87,270.55 325.98,291 372.15,290.76 	"/>
	<line class="st0" x1="359.04" y1="291.04" x2="359.16" y2="315.12"/>
	<line class="st0" x1="359.12" y1="306.86" x2="334.98" y2="322.51"/>
	<line class="st0" x1="320.9" y1="301.35" x2="359.09" y2="301.16"/>
	<polyline class="st0" points="329.74,301.88 329.8,314.78 338.17,306.97 	"/>
	<polyline class="st0" points="354.94,324.37 355.01,338.8 331.93,338.92 341.86,332.03 	"/>
	<polyline class="st0" points="308.1,360.13 324.91,360.05 325.06,387.98 	"/>
	<polyline class="st0" points="332.25,401.05 332.09,369.7 341.76,366.23 341.68,351.98 	"/>
	<polyline class="st0" points="347.24,351.95 348.02,365.63 359.47,373.83 359.79,435.11 	"/>
	<polyline class="st0" points="360.93,359.86 371.14,371.21 371.41,422.51 366.33,422.53 	"/>
	<polyline class="st0" points="349.54,383.29 349.7,413.5 344.41,413.5 339.04,391.32 	"/>
	<line class="st0" x1="374.93" y1="359.79" x2="383.33" y2="359.74"/>
</g>
<g>
	<path class="st1" d="M95.77,132.84c0.01,1.82-1.46,3.3-3.27,3.31c-1.82,0.01-3.3-1.46-3.31-3.27c-0.01-1.82,1.46-3.3,3.27-3.31
		C94.28,129.56,95.76,131.02,95.77,132.84z"/>
	<path class="st1" d="M121.66,200.79c0.01,1.82-1.46,3.3-3.27,3.31c-1.82,0.01-3.3-1.46-3.31-3.27c-0.01-1.81,1.46-3.3,3.27-3.3
		C120.17,197.51,121.65,198.97,121.66,200.79z"/>
	<path class="st1" d="M102.87,199.89c0.01,1.81-1.46,3.3-3.27,3.31c-1.82,0.01-3.3-1.46-3.31-3.27c-0.01-1.82,1.46-3.3,3.27-3.31
		C101.38,196.61,102.86,198.07,102.87,199.89z"/>
	<path class="st1" d="M104.64,186.77c0.01,1.82-1.46,3.3-3.27,3.31c-1.82,0.01-3.3-1.46-3.31-3.27c-0.01-1.82,1.46-3.3,3.27-3.31
		C103.15,183.49,104.63,184.95,104.64,186.77z"/>
	<path class="st1" d="M92.69,174.01c0.01,1.82-1.46,3.3-3.27,3.31c-1.82,0.01-3.3-1.45-3.31-3.27c-0.01-1.81,1.46-3.3,3.27-3.31
		C91.2,170.72,92.68,172.19,92.69,174.01z"/>
	<path class="st1" d="M101.29,173.96c0.01,1.82-1.46,3.3-3.27,3.31c-1.82,0.01-3.3-1.45-3.31-3.27c-0.01-1.81,1.46-3.3,3.27-3.31
		C99.8,170.68,101.28,172.15,101.29,173.96z"/>
	<path class="st1" d="M81.06,146.42c0.01,1.82-1.46,3.3-3.27,3.31c-1.82,0.01-3.3-1.45-3.31-3.27c-0.01-1.81,1.46-3.3,3.27-3.31
		C79.57,143.14,81.05,144.6,81.06,146.42z"/>
	<path class="st1" d="M68.58,156.75c0.01,1.82-1.46,3.3-3.27,3.31c-1.82,0.01-3.3-1.46-3.31-3.27c-0.01-1.82,1.46-3.3,3.27-3.31
		C67.08,153.46,68.57,154.93,68.58,156.75z"/>
	<path class="st1" d="M63.07,163.91c0.01,1.81-1.46,3.3-3.27,3.31c-1.82,0.01-3.3-1.46-3.31-3.27c-0.01-1.82,1.46-3.3,3.27-3.31
		C61.57,160.63,63.06,162.1,63.07,163.91z"/>
	<path class="st1" d="M71.62,193.78c0.01,1.82-1.46,3.3-3.27,3.31c-1.82,0.01-3.3-1.46-3.31-3.27c-0.01-1.81,1.46-3.3,3.27-3.31
		C70.13,190.5,71.61,191.97,71.62,193.78z"/>
	<path class="st1" d="M110.17,207.43c0.01,1.82-1.46,3.3-3.27,3.31c-1.82,0.01-3.3-1.46-3.31-3.27c-0.01-1.82,1.46-3.3,3.27-3.31
		C108.68,204.14,110.16,205.61,110.17,207.43z"/>
	<path class="st1" d="M112.82,225.49c0.01,1.82-1.46,3.3-3.27,3.31c-1.82,0.01-3.3-1.46-3.31-3.27c-0.01-1.82,1.46-3.3,3.27-3.31
		C111.33,222.21,112.82,223.67,112.82,225.49z"/>
	<path class="st1" d="M94.05,232.43c0.01,1.82-1.46,3.3-3.27,3.31c-1.82,0.01-3.3-1.46-3.31-3.27c-0.01-1.81,1.46-3.3,3.27-3.31
		C92.56,229.15,94.04,230.61,94.05,232.43z"/>
	<path class="st1" d="M94.15,251.52c0.01,1.82-1.46,3.3-3.27,3.31c-1.82,0.01-3.3-1.45-3.31-3.27c-0.01-1.82,1.46-3.3,3.27-3.31
		C92.66,248.24,94.14,249.7,94.15,251.52z"/>
	<path class="st1" d="M120.88,293.58c0.01,1.82-1.46,3.3-3.27,3.31c-1.82,0.01-3.3-1.46-3.31-3.27c-0.01-1.82,1.46-3.3,3.27-3.31
		C119.38,290.29,120.87,291.76,120.88,293.58z"/>
	<path class="st1" d="M132.51,282.96c0.01,1.82-1.46,3.3-3.27,3.31c-1.82,0.01-3.3-1.46-3.31-3.27c-0.01-1.82,1.46-3.3,3.27-3.31
		C131.01,279.68,132.5,281.14,132.51,282.96z"/>
	<path class="st1" d="M143.2,257.54c0.01,1.82-1.46,3.3-3.27,3.31c-1.82,0.01-3.3-1.46-3.31-3.27c-0.01-1.82,1.46-3.3,3.27-3.31
		C141.71,254.25,143.19,255.72,143.2,257.54z"/>
	<path class="st1" d="M131.83,237.93c0.01,1.82-1.46,3.3-3.27,3.31c-1.82,0.01-3.3-1.46-3.31-3.27c-0.01-1.82,1.46-3.3,3.27-3.31
		C130.34,234.65,131.82,236.11,131.83,237.93z"/>
	<path class="st1" d="M94.23,266.63c0.01,1.82-1.46,3.3-3.27,3.31c-1.82,0.01-3.3-1.46-3.31-3.27c-0.01-1.82,1.46-3.3,3.27-3.31
		C92.74,263.34,94.22,264.81,94.23,266.63z"/>
	<path class="st1" d="M78.88,275.83c0.01,1.82-1.46,3.3-3.27,3.31c-1.82,0.01-3.3-1.46-3.31-3.27c-0.01-1.82,1.46-3.3,3.27-3.31
		C77.39,272.54,78.88,274.01,78.88,275.83z"/>
	<path class="st1" d="M66.68,257.93c0.01,1.82-1.46,3.3-3.27,3.31c-1.82,0.01-3.3-1.46-3.31-3.27c-0.01-1.82,1.46-3.3,3.27-3.31
		C65.19,254.65,66.67,256.12,66.68,257.93z"/>
	<path class="st1" d="M48.54,249.48c0.01,1.82-1.46,3.3-3.27,3.31c-1.82,0.01-3.3-1.46-3.31-3.27c-0.01-1.82,1.46-3.3,3.27-3.31
		C47.05,246.2,48.53,247.66,48.54,249.48z"/>
	<path class="st1" d="M71.82,232.54c0.01,1.82-1.46,3.3-3.27,3.31c-1.82,0.01-3.3-1.46-3.31-3.27c-0.01-1.81,1.46-3.3,3.27-3.31
		C70.33,229.26,71.81,230.73,71.82,232.54z"/>
	<path class="st1" d="M48.45,233.67c0.01,1.82-1.46,3.3-3.27,3.31c-1.82,0.01-3.3-1.46-3.31-3.27c-0.01-1.82,1.46-3.3,3.27-3.31
		C46.96,230.39,48.44,231.86,48.45,233.67z"/>
	<path class="st1" d="M47.26,222.98c0.01,1.82-1.46,3.3-3.27,3.31c-1.82,0.01-3.3-1.46-3.31-3.27c-0.01-1.81,1.46-3.3,3.27-3.31
		C45.77,219.7,47.25,221.16,47.26,222.98z"/>
	<path class="st1" d="M135.05,225.37c0.01,1.82-1.46,3.3-3.27,3.31c-1.82,0.01-3.3-1.46-3.31-3.27c-0.01-1.82,1.46-3.3,3.27-3.31
		C133.56,222.09,135.04,223.56,135.05,225.37z"/>
	<path class="st1" d="M156.05,207.19c0.01,1.82-1.46,3.3-3.27,3.31c-1.82,0.01-3.3-1.46-3.31-3.27c-0.01-1.82,1.46-3.3,3.27-3.31
		C154.56,203.91,156.04,205.37,156.05,207.19z"/>
	<path class="st1" d="M174.24,197.81c0.01,1.82-1.46,3.3-3.27,3.31c-1.82,0.01-3.3-1.46-3.31-3.27c-0.01-1.82,1.46-3.3,3.27-3.31
		C172.75,194.53,174.23,195.99,174.24,197.81z"/>
	<path class="st1" d="M165.06,186.45c0.01,1.82-1.46,3.3-3.27,3.31c-1.82,0.01-3.3-1.46-3.31-3.27c-0.01-1.82,1.46-3.3,3.27-3.31
		C163.57,183.17,165.05,184.64,165.06,186.45z"/>
	<path class="st1" d="M180.9,163.3c0.01,1.81-1.46,3.3-3.27,3.31c-1.82,0.01-3.3-1.46-3.31-3.27c-0.01-1.82,1.46-3.3,3.27-3.31
		C179.41,160.02,180.89,161.48,180.9,163.3z"/>
	<path class="st1" d="M165.91,129.18c0.01,1.82-1.46,3.3-3.27,3.31c-1.82,0.01-3.3-1.45-3.31-3.27c-0.01-1.81,1.46-3.3,3.27-3.31
		C164.41,125.9,165.9,127.37,165.91,129.18z"/>
	<path class="st1" d="M195.47,115.47c0.01,1.81-1.46,3.3-3.27,3.31c-1.82,0.01-3.3-1.46-3.31-3.27c-0.01-1.82,1.46-3.3,3.27-3.31
		C193.98,112.19,195.47,113.66,195.47,115.47z"/>
	<path class="st1" d="M134.4,98.83c0.01,1.82-1.46,3.3-3.27,3.31c-1.82,0.01-3.3-1.46-3.31-3.27c-0.01-1.82,1.46-3.3,3.27-3.31
		C132.9,95.55,134.39,97.01,134.4,98.83z"/>
	<path class="st1" d="M120.77,109.45c0.01,1.82-1.46,3.3-3.27,3.31c-1.82,0.01-3.3-1.46-3.31-3.27c-0.01-1.82,1.46-3.3,3.27-3.31
		C119.28,106.16,120.76,107.63,120.77,109.45z"/>
	<path class="st1" d="M134.54,127.33c0.01,1.82-1.46,3.3-3.27,3.31c-1.82,0.01-3.3-1.46-3.31-3.27c-0.01-1.81,1.46-3.3,3.27-3.31
		C133.05,124.05,134.53,125.52,134.54,127.33z"/>
	<path class="st1" d="M126.25,177.54c0.01,1.81-1.46,3.3-3.27,3.31c-1.82,0.01-3.3-1.46-3.31-3.27c-0.01-1.82,1.46-3.3,3.27-3.31
		C124.76,174.25,126.25,175.72,126.25,177.54z"/>
	<path class="st1" d="M120.84,122.27c0.01,1.82-1.46,3.3-3.27,3.31c-1.82,0.01-3.3-1.45-3.31-3.27c-0.01-1.82,1.46-3.3,3.27-3.31
		C119.35,118.99,120.83,120.46,120.84,122.27z"/>
	<path class="st1" d="M180.59,103.36c0.01,1.82-1.46,3.3-3.27,3.31c-1.82,0.01-3.3-1.46-3.31-3.27c-0.01-1.82,1.46-3.3,3.27-3.31
		C179.1,100.08,180.58,101.55,180.59,103.36z"/>
	<path class="st1" d="M202.87,167.73c0.01,1.82-1.46,3.3-3.27,3.31c-1.82,0.01-3.3-1.46-3.31-3.27c-0.01-1.81,1.46-3.3,3.27-3.31
		C201.38,164.45,202.86,165.92,202.87,167.73z"/>
	<path class="st1" d="M199.85,189.98c0.01,1.82-1.46,3.3-3.27,3.31c-1.82,0.01-3.3-1.45-3.31-3.27c-0.01-1.81,1.46-3.3,3.27-3.31
		C198.36,186.7,199.84,188.16,199.85,189.98z"/>
	<path class="st1" d="M190.79,200.43c0.01,1.82-1.46,3.3-3.27,3.31c-1.82,0.01-3.3-1.46-3.31-3.27c-0.01-1.81,1.46-3.3,3.27-3.31
		C189.3,197.15,190.78,198.61,190.79,200.43z"/>
	<path class="st1" d="M155.55,223.27c0.01,1.82-1.46,3.3-3.27,3.31c-1.82,0.01-3.3-1.45-3.31-3.27c-0.01-1.81,1.46-3.3,3.27-3.31
		C154.05,219.99,155.54,221.46,155.55,223.27z"/>
	<path class="st1" d="M181.3,239.38c0.01,1.82-1.46,3.3-3.27,3.31c-1.82,0.01-3.3-1.45-3.31-3.27c-0.01-1.82,1.46-3.3,3.27-3.31
		C179.81,236.1,181.29,237.57,181.3,239.38z"/>
	<path class="st1" d="M194.32,247.71c0.01,1.81-1.46,3.3-3.27,3.3c-1.82,0.01-3.3-1.46-3.31-3.27c-0.01-1.82,1.46-3.3,3.27-3.31
		C192.83,244.43,194.31,245.9,194.32,247.71z"/>
	<path class="st1" d="M174.55,257.09c0.01,1.81-1.46,3.3-3.27,3.3c-1.82,0.01-3.3-1.46-3.31-3.27c-0.01-1.82,1.46-3.3,3.27-3.31
		C173.06,253.81,174.54,255.27,174.55,257.09z"/>
	<path class="st1" d="M166.55,252.15c0.01,1.82-1.46,3.3-3.27,3.31c-1.82,0.01-3.3-1.46-3.31-3.27c-0.01-1.82,1.46-3.3,3.27-3.31
		C165.06,248.87,166.54,250.34,166.55,252.15z"/>
	<path class="st1" d="M151.13,302.81c0.01,1.82-1.46,3.3-3.27,3.31c-1.82,0.01-3.3-1.46-3.31-3.27c-0.01-1.81,1.46-3.3,3.27-3.31
		C149.64,299.53,151.12,301,151.13,302.81z"/>
	<path class="st1" d="M162.29,286.09c0.01,1.81-1.46,3.3-3.27,3.3c-1.82,0.01-3.3-1.46-3.31-3.27c-0.01-1.82,1.46-3.3,3.27-3.31
		C160.8,282.81,162.28,284.28,162.29,286.09z"/>
	<path class="st1" d="M158.94,296.5c0.01,1.82-1.46,3.3-3.27,3.31c-1.82,0.01-3.3-1.46-3.31-3.27s1.46-3.3,3.27-3.31
		C157.45,293.22,158.93,294.69,158.94,296.5z"/>
	<path class="st1" d="M159.87,309.22c0.01,1.82-1.46,3.3-3.27,3.3c-1.82,0.01-3.3-1.46-3.31-3.27c-0.01-1.82,1.46-3.3,3.27-3.31
		C158.38,305.93,159.86,307.4,159.87,309.22z"/>
	<path class="st1" d="M184.91,275.27c0.01,1.82-1.46,3.3-3.27,3.31c-1.82,0.01-3.3-1.46-3.31-3.27c-0.01-1.82,1.46-3.3,3.27-3.31
		C183.42,271.99,184.9,273.46,184.91,275.27z"/>
	<path class="st1" d="M196.53,317.4c0.01,1.82-1.46,3.3-3.27,3.31c-1.82,0.01-3.3-1.45-3.31-3.27c-0.01-1.82,1.46-3.3,3.27-3.31
		C195.04,314.12,196.52,315.58,196.53,317.4z"/>
	<path class="st1" d="M223.42,308.89c0.01,1.82-1.46,3.3-3.27,3.3c-1.82,0.01-3.3-1.46-3.31-3.27c-0.01-1.82,1.46-3.3,3.27-3.31
		C221.93,305.6,223.41,307.07,223.42,308.89z"/>
	<path class="st1" d="M221.95,326.81c0.01,1.82-1.46,3.3-3.27,3.31c-1.82,0.01-3.3-1.46-3.31-3.27c-0.01-1.81,1.46-3.3,3.27-3.31
		C220.46,323.53,221.94,325,221.95,326.81z"/>
	<path class="st1" d="M234.01,315.28c0.01,1.82-1.46,3.3-3.27,3.31c-1.82,0.01-3.3-1.46-3.31-3.27c-0.01-1.82,1.46-3.3,3.27-3.31
		C232.52,312,234,313.46,234.01,315.28z"/>
	<path class="st1" d="M244.54,246.18c0.01,1.81-1.46,3.3-3.27,3.3c-1.82,0.01-3.3-1.46-3.31-3.27c-0.01-1.82,1.46-3.3,3.27-3.31
		C243.05,242.9,244.53,244.36,244.54,246.18z"/>
	<path class="st1" d="M213.22,239.21c0.01,1.82-1.46,3.3-3.27,3.31c-1.82,0.01-3.3-1.46-3.31-3.27c-0.01-1.81,1.46-3.3,3.27-3.31
		C211.73,235.93,213.21,237.4,213.22,239.21z"/>
	<path class="st1" d="M242.77,221.52c0.01,1.82-1.46,3.3-3.27,3.31c-1.82,0.01-3.3-1.45-3.31-3.27c-0.01-1.81,1.46-3.3,3.27-3.31
		C241.28,218.24,242.76,219.71,242.77,221.52z"/>
	<path class="st1" d="M250.57,186.43c0.01,1.82-1.46,3.3-3.27,3.31c-1.82,0.01-3.3-1.46-3.31-3.27c-0.01-1.81,1.46-3.3,3.27-3.31
		C249.08,183.14,250.56,184.61,250.57,186.43z"/>
	<path class="st1" d="M236.61,182.79c0.01,1.82-1.46,3.3-3.27,3.31c-1.82,0.01-3.3-1.45-3.31-3.27c-0.01-1.82,1.46-3.3,3.27-3.31
		C235.12,179.51,236.6,180.98,236.61,182.79z"/>
	<path class="st1" d="M230.13,201.44c0.01,1.81-1.46,3.3-3.27,3.31c-1.82,0.01-3.3-1.46-3.31-3.27c-0.01-1.82,1.46-3.3,3.27-3.31
		C228.64,198.15,230.12,199.62,230.13,201.44z"/>
	<path class="st1" d="M228.2,161.33c0.01,1.82-1.46,3.3-3.27,3.31c-1.82,0.01-3.3-1.46-3.31-3.27c-0.01-1.82,1.46-3.3,3.27-3.31
		C226.71,158.05,228.2,159.51,228.2,161.33z"/>
	<path class="st1" d="M254.85,132.98c0.01,1.82-1.46,3.3-3.27,3.31c-1.82,0.01-3.3-1.45-3.31-3.27c-0.01-1.81,1.46-3.3,3.27-3.31
		C253.36,129.7,254.84,131.16,254.85,132.98z"/>
	<path class="st1" d="M237.27,151.31c0.01,1.82-1.46,3.3-3.27,3.31c-1.82,0.01-3.3-1.45-3.31-3.27c-0.01-1.81,1.46-3.3,3.27-3.31
		C235.78,148.03,237.26,149.49,237.27,151.31z"/>
	<path class="st1" d="M215.21,183.34c0.01,1.82-1.46,3.3-3.27,3.31c-1.82,0.01-3.3-1.46-3.31-3.27c-0.01-1.82,1.46-3.3,3.27-3.31
		C213.72,180.06,215.2,181.53,215.21,183.34z"/>
	<path class="st1" d="M205.89,145.77c0.01,1.82-1.46,3.3-3.27,3.31c-1.82,0.01-3.3-1.45-3.31-3.27c-0.01-1.81,1.46-3.3,3.27-3.31
		C204.4,142.49,205.88,143.95,205.89,145.77z"/>
	<path class="st1" d="M220.03,124.61c0.01,1.82-1.46,3.3-3.27,3.31c-1.82,0.01-3.3-1.46-3.31-3.27c-0.01-1.82,1.46-3.3,3.27-3.31
		C218.54,121.32,220.02,122.79,220.03,124.61z"/>
	<path class="st1" d="M177.15,73.53c0.01,1.82-1.46,3.3-3.27,3.31c-1.82,0.01-3.3-1.46-3.31-3.27c-0.01-1.82,1.46-3.3,3.27-3.31
		C175.66,70.25,177.14,71.71,177.15,73.53z"/>
	<path class="st1" d="M214.58,63.07c0.01,1.82-1.46,3.3-3.27,3.31c-1.82,0.01-3.3-1.45-3.31-3.27c-0.01-1.81,1.46-3.3,3.27-3.31
		C213.09,59.79,214.57,61.26,214.58,63.07z"/>
	<path class="st1" d="M232.7,62.98c0.01,1.82-1.46,3.3-3.27,3.31c-1.82,0.01-3.3-1.45-3.31-3.27c-0.01-1.81,1.46-3.3,3.27-3.31
		C231.21,59.7,232.69,61.16,232.7,62.98z"/>
	<path class="st1" d="M256.84,62.85c0.01,1.82-1.46,3.3-3.27,3.31c-1.82,0.01-3.3-1.46-3.31-3.27c-0.01-1.81,1.46-3.3,3.27-3.31
		C255.35,59.57,256.83,61.04,256.84,62.85z"/>
	<path class="st1" d="M291.09,87.19c0.01,1.82-1.46,3.3-3.27,3.31c-1.82,0.01-3.3-1.46-3.31-3.27c-0.01-1.81,1.46-3.3,3.27-3.31
		C289.6,83.91,291.08,85.37,291.09,87.19z"/>
	<path class="st1" d="M310.37,66.56c0.01,1.82-1.46,3.3-3.27,3.31c-1.82,0.01-3.3-1.45-3.31-3.27c-0.01-1.82,1.46-3.3,3.27-3.31
		C308.88,63.28,310.36,64.75,310.37,66.56z"/>
	<path class="st1" d="M310.68,126.41c0.01,1.82-1.46,3.3-3.27,3.31c-1.82,0.01-3.3-1.46-3.31-3.27c-0.01-1.81,1.46-3.3,3.27-3.31
		C309.19,123.13,310.67,124.6,310.68,126.41z"/>
	<path class="st1" d="M287.92,136.09c0.01,1.82-1.46,3.3-3.27,3.31c-1.82,0.01-3.3-1.46-3.31-3.27c-0.01-1.81,1.46-3.3,3.27-3.31
		C286.43,132.81,287.91,134.28,287.92,136.09z"/>
	<path class="st1" d="M310.82,154.21c0.01,1.82-1.46,3.3-3.27,3.31c-1.82,0.01-3.3-1.46-3.31-3.27c-0.01-1.82,1.46-3.3,3.27-3.31
		C309.33,150.93,310.81,152.4,310.82,154.21z"/>
	<path class="st1" d="M295.86,209.75c0.01,1.81-1.46,3.3-3.27,3.31c-1.82,0.01-3.3-1.46-3.31-3.27c-0.01-1.82,1.46-3.3,3.27-3.31
		C294.37,206.47,295.85,207.93,295.86,209.75z"/>
	<path class="st1" d="M311.13,212.63c0.01,1.82-1.46,3.3-3.27,3.31c-1.82,0.01-3.3-1.46-3.31-3.27c-0.01-1.81,1.46-3.3,3.27-3.31
		C309.64,209.35,311.12,210.81,311.13,212.63z"/>
	<path class="st1" d="M288.54,253.8c0.01,1.82-1.46,3.3-3.27,3.31c-1.82,0.01-3.3-1.46-3.31-3.27c-0.01-1.81,1.46-3.3,3.27-3.31
		C287.05,250.52,288.53,251.98,288.54,253.8z"/>
	<path class="st1" d="M299.38,253.74c0.01,1.82-1.46,3.3-3.27,3.31c-1.82,0.01-3.3-1.46-3.31-3.27c-0.01-1.81,1.46-3.3,3.27-3.31
		C297.89,250.46,299.37,251.93,299.38,253.74z"/>
	<path class="st1" d="M307.84,237.87c0.01,1.82-1.46,3.3-3.27,3.31c-1.82,0.01-3.3-1.46-3.31-3.27c-0.01-1.82,1.46-3.3,3.27-3.31
		C306.35,234.59,307.83,236.05,307.84,237.87z"/>
	<path class="st1" d="M313.13,228c0.01,1.81-1.46,3.3-3.27,3.31s-3.3-1.46-3.31-3.27c-0.01-1.82,1.46-3.3,3.27-3.31
		S313.12,226.18,313.13,228z"/>
	<path class="st1" d="M327.82,188.9c0.01,1.81-1.46,3.3-3.27,3.31c-1.82,0.01-3.3-1.46-3.31-3.27c-0.01-1.82,1.46-3.3,3.27-3.31
		C326.33,185.61,327.81,187.08,327.82,188.9z"/>
	<path class="st1" d="M337.07,173.15c0.01,1.82-1.46,3.3-3.27,3.31c-1.82,0.01-3.3-1.46-3.31-3.27c-0.01-1.82,1.46-3.3,3.27-3.31
		C335.58,169.87,337.06,171.33,337.07,173.15z"/>
	<path class="st1" d="M341.17,152.58c0.01,1.81-1.46,3.3-3.27,3.31c-1.82,0.01-3.3-1.46-3.31-3.27c-0.01-1.82,1.46-3.3,3.27-3.31
		C339.68,149.3,341.16,150.76,341.17,152.58z"/>
	<path class="st1" d="M354.51,114.22c0.01,1.82-1.46,3.3-3.27,3.31c-1.82,0.01-3.3-1.46-3.31-3.27c-0.01-1.82,1.46-3.3,3.27-3.31
		C353.02,110.93,354.5,112.4,354.51,114.22z"/>
	<path class="st1" d="M364.06,86.81c0.01,1.82-1.46,3.3-3.27,3.31c-1.82,0.01-3.3-1.45-3.31-3.27c-0.01-1.81,1.46-3.3,3.27-3.31
		C362.57,83.53,364.05,84.99,364.06,86.81z"/>
	<path class="st1" d="M333.28,76c0.01,1.81-1.46,3.3-3.27,3.31c-1.82,0.01-3.3-1.46-3.31-3.27c-0.01-1.82,1.46-3.3,3.27-3.31
		C331.79,72.72,333.27,74.19,333.28,76z"/>
	<path class="st1" d="M334.65,131.59c0.01,1.82-1.46,3.3-3.27,3.31c-1.82,0.01-3.3-1.46-3.31-3.27c-0.01-1.82,1.46-3.3,3.27-3.31
		C333.16,128.31,334.64,129.78,334.65,131.59z"/>
	<path class="st1" d="M323.91,148.45c0.01,1.82-1.46,3.3-3.27,3.31c-1.82,0.01-3.3-1.46-3.31-3.27c-0.01-1.82,1.46-3.3,3.27-3.31
		C322.42,145.16,323.9,146.63,323.91,148.45z"/>
	<path class="st1" d="M347.9,145.03c0.01,1.82-1.46,3.3-3.27,3.31c-1.82,0.01-3.3-1.45-3.31-3.27c-0.01-1.81,1.46-3.3,3.27-3.31
		C346.41,141.75,347.89,143.22,347.9,145.03z"/>
	<path class="st1" d="M413.18,131.58c0.01,1.82-1.46,3.3-3.27,3.31c-1.82,0.01-3.3-1.46-3.31-3.27c-0.01-1.81,1.46-3.3,3.27-3.31
		C411.69,128.3,413.17,129.77,413.18,131.58z"/>
	<path class="st1" d="M405.78,108.77c0.01,1.82-1.46,3.3-3.27,3.31c-1.82,0.01-3.3-1.45-3.31-3.27c-0.01-1.81,1.46-3.3,3.27-3.31
		C404.29,105.49,405.77,106.96,405.78,108.77z"/>
	<path class="st1" d="M368.74,111.28c0.01,1.82-1.46,3.3-3.27,3.31c-1.82,0.01-3.3-1.46-3.31-3.27c-0.01-1.82,1.46-3.3,3.27-3.31
		C367.25,108,368.73,109.46,368.74,111.28z"/>
	<path class="st1" d="M383.49,96.11c0.01,1.82-1.46,3.3-3.27,3.31c-1.82,0.01-3.3-1.46-3.31-3.27c-0.01-1.81,1.46-3.3,3.27-3.31
		C381.99,92.83,383.48,94.29,383.49,96.11z"/>
	<path class="st1" d="M400.1,151.34c0.01,1.81-1.46,3.3-3.27,3.3c-1.82,0.01-3.3-1.46-3.31-3.27c-0.01-1.82,1.46-3.3,3.27-3.31
		C398.61,148.06,400.09,149.52,400.1,151.34z"/>
	<path class="st1" d="M427.01,160.29c0.01,1.82-1.46,3.3-3.27,3.31s-3.3-1.46-3.31-3.27c-0.01-1.82,1.46-3.3,3.27-3.31
		C425.52,157.01,427,158.48,427.01,160.29z"/>
	<path class="st1" d="M416.96,176.1c0.01,1.82-1.46,3.3-3.27,3.31c-1.82,0.01-3.3-1.46-3.31-3.27c-0.01-1.81,1.46-3.3,3.27-3.3
		C415.47,172.82,416.95,174.29,416.96,176.1z"/>
	<path class="st1" d="M369.45,247.81c0.01,1.82-1.46,3.3-3.27,3.31c-1.82,0.01-3.3-1.46-3.31-3.27c-0.01-1.82,1.46-3.3,3.27-3.31
		C367.96,244.53,369.45,245.99,369.45,247.81z"/>
	<path class="st1" d="M361.65,256.71c0.01,1.82-1.46,3.3-3.27,3.31c-1.82,0.01-3.3-1.46-3.31-3.27c-0.01-1.82,1.46-3.3,3.27-3.31
		C360.16,253.42,361.64,254.89,361.65,256.71z"/>
	<path class="st1" d="M335.23,244.28c0.01,1.82-1.46,3.3-3.27,3.31c-1.82,0.01-3.3-1.46-3.31-3.27c-0.01-1.81,1.46-3.3,3.27-3.31
		C333.75,241,335.23,242.47,335.23,244.28z"/>
	<path class="st1" d="M343.37,219.44c0.01,1.82-1.46,3.3-3.27,3.31s-3.3-1.46-3.31-3.27c-0.01-1.81,1.46-3.3,3.27-3.31
		C341.88,216.16,343.36,217.63,343.37,219.44z"/>
	<path class="st1" d="M350.27,202.89c0.01,1.82-1.46,3.3-3.27,3.31c-1.82,0.01-3.3-1.45-3.31-3.27c-0.01-1.82,1.46-3.3,3.27-3.31
		C348.78,199.61,350.26,201.07,350.27,202.89z"/>
	<path class="st1" d="M400.28,186.37c0.01,1.82-1.46,3.3-3.27,3.31c-1.82,0.01-3.3-1.46-3.31-3.27c-0.01-1.81,1.46-3.3,3.27-3.31
		C398.79,183.09,400.27,184.55,400.28,186.37z"/>
	<path class="st1" d="M389.92,237.44c0.01,1.82-1.46,3.3-3.27,3.31c-1.82,0.01-3.3-1.46-3.31-3.27c-0.01-1.82,1.46-3.3,3.27-3.31
		C388.43,234.16,389.91,235.62,389.92,237.44z"/>
	<path class="st1" d="M424.35,227c0.01,1.82-1.46,3.3-3.27,3.31c-1.82,0.01-3.3-1.45-3.31-3.27c-0.01-1.82,1.46-3.3,3.27-3.31
		C422.86,223.72,424.34,225.19,424.35,227z"/>
	<path class="st1" d="M443.75,201.4c0.01,1.82-1.46,3.3-3.27,3.31c-1.82,0.01-3.3-1.45-3.31-3.27c-0.01-1.81,1.46-3.3,3.27-3.31
		C442.26,198.12,443.74,199.59,443.75,201.4z"/>
	<path class="st1" d="M451.11,165.56c0.01,1.81-1.46,3.3-3.27,3.31c-1.82,0.01-3.3-1.46-3.31-3.27c-0.01-1.82,1.46-3.3,3.27-3.31
		C449.62,162.28,451.1,163.75,451.11,165.56z"/>
	<path class="st1" d="M451.65,269.18c0.01,1.82-1.46,3.3-3.27,3.31c-1.82,0.01-3.3-1.45-3.31-3.27c-0.01-1.82,1.46-3.3,3.27-3.31
		C450.16,265.9,451.64,267.37,451.65,269.18z"/>
	<path class="st1" d="M404.06,280.12c0.01,1.82-1.46,3.3-3.27,3.31c-1.82,0.01-3.3-1.46-3.31-3.27c-0.01-1.81,1.46-3.3,3.27-3.31
		C402.57,276.84,404.05,278.3,404.06,280.12z"/>
	<path class="st1" d="M406.02,264c0.01,1.82-1.46,3.3-3.27,3.31c-1.82,0.01-3.3-1.46-3.31-3.27c-0.01-1.81,1.46-3.3,3.27-3.31
		C404.53,260.71,406.01,262.18,406.02,264z"/>
	<path class="st1" d="M358.51,284.63c0.01,1.82-1.46,3.3-3.27,3.31c-1.82,0.01-3.3-1.46-3.31-3.27c-0.01-1.82,1.46-3.3,3.27-3.31
		C357.02,281.35,358.5,282.81,358.51,284.63z"/>
	<path class="st1" d="M329.67,271.23c0.01,1.82-1.46,3.3-3.27,3.31c-1.82,0.01-3.3-1.46-3.31-3.27c-0.01-1.81,1.46-3.3,3.27-3.3
		C328.18,267.95,329.66,269.42,329.67,271.23z"/>
	<path class="st1" d="M342.4,306.95c0.01,1.82-1.46,3.3-3.27,3.31c-1.82,0.01-3.3-1.46-3.31-3.27c-0.01-1.82,1.46-3.3,3.27-3.31
		C340.91,303.66,342.39,305.13,342.4,306.95z"/>
	<path class="st1" d="M324.79,319.01c0.01,1.82-1.46,3.3-3.27,3.31c-1.82,0.01-3.3-1.46-3.31-3.27c-0.01-1.82,1.46-3.3,3.27-3.31
		C323.3,315.73,324.78,317.19,324.79,319.01z"/>
	<path class="st1" d="M299.47,270.83c0.01,1.82-1.46,3.3-3.27,3.31c-1.82,0.01-3.3-1.46-3.31-3.27c-0.01-1.81,1.46-3.3,3.27-3.31
		C297.98,267.55,299.46,269.02,299.47,270.83z"/>
	<path class="st1" d="M345.46,262.47c0.01,1.82-1.46,3.3-3.27,3.31c-1.82,0.01-3.3-1.46-3.31-3.27c-0.01-1.82,1.46-3.3,3.27-3.31
		C343.97,259.19,345.45,260.65,345.46,262.47z"/>
	<path class="st1" d="M410.74,294.06c0.01,1.82-1.46,3.3-3.27,3.31c-1.82,0.01-3.3-1.46-3.31-3.27c-0.01-1.82,1.46-3.3,3.27-3.31
		C409.24,290.78,410.73,292.25,410.74,294.06z"/>
	<path class="st1" d="M401.19,306.64c0.01,1.82-1.46,3.3-3.27,3.31c-1.81,0.01-3.3-1.46-3.31-3.27c-0.01-1.82,1.46-3.3,3.27-3.31
		C399.7,303.36,401.18,304.82,401.19,306.64z"/>
	<path class="st1" d="M369.89,331.89c0.01,1.81-1.46,3.3-3.27,3.31c-1.82,0.01-3.3-1.46-3.31-3.27c-0.01-1.82,1.46-3.3,3.27-3.31
		C368.4,328.6,369.88,330.07,369.89,331.89z"/>
	<path class="st1" d="M430.8,315.17c0.01,1.82-1.46,3.3-3.27,3.31c-1.82,0.01-3.3-1.46-3.31-3.27c-0.01-1.81,1.46-3.3,3.27-3.31
		C429.31,311.89,430.79,313.35,430.8,315.17z"/>
	<path class="st1" d="M443.26,300.72c0.01,1.82-1.46,3.3-3.27,3.31c-1.82,0.01-3.3-1.46-3.31-3.27c-0.01-1.82,1.46-3.3,3.27-3.31
		C441.77,297.44,443.25,298.9,443.26,300.72z"/>
	<path class="st1" d="M439.8,267.11c0.01,1.82-1.46,3.3-3.27,3.31c-1.82,0.01-3.3-1.46-3.31-3.27c-0.01-1.82,1.46-3.3,3.27-3.31
		C438.3,263.83,439.79,265.29,439.8,267.11z"/>
	<path class="st1" d="M460.68,252.18c0.01,1.82-1.46,3.3-3.27,3.3c-1.82,0.01-3.3-1.45-3.31-3.27c-0.01-1.82,1.46-3.3,3.27-3.31
		C459.19,248.9,460.67,250.36,460.68,252.18z"/>
	<path class="st1" d="M420.28,265.37c0.01,1.82-1.46,3.3-3.27,3.31c-1.82,0.01-3.3-1.46-3.31-3.27c-0.01-1.82,1.46-3.3,3.27-3.31
		C418.79,262.09,420.27,263.55,420.28,265.37z"/>
	<path class="st1" d="M414.04,245.65c0.01,1.82-1.46,3.3-3.27,3.31c-1.82,0.01-3.3-1.46-3.31-3.27c-0.01-1.82,1.46-3.3,3.27-3.31
		C412.54,242.37,414.03,243.84,414.04,245.65z"/>
	<path class="st1" d="M386.7,276.79c0.01,1.82-1.45,3.3-3.27,3.31c-1.82,0.01-3.3-1.46-3.31-3.27c-0.01-1.82,1.46-3.3,3.27-3.31
		C385.21,273.51,386.69,274.97,386.7,276.79z"/>
	<path class="st1" d="M326.77,344.65c0.01,1.82-1.46,3.3-3.27,3.31c-1.82,0.01-3.3-1.46-3.31-3.27c-0.01-1.81,1.46-3.3,3.27-3.31
		C325.28,341.37,326.76,342.83,326.77,344.65z"/>
	<path class="st1" d="M345.39,332.01c0.01,1.81-1.46,3.3-3.27,3.3c-1.82,0.01-3.3-1.46-3.31-3.27c-0.01-1.82,1.46-3.3,3.27-3.31
		C343.9,328.73,345.38,330.2,345.39,332.01z"/>
	<path class="st1" d="M363,316.53c0.01,1.82-1.46,3.3-3.27,3.31c-1.82,0.01-3.3-1.45-3.31-3.27c-0.01-1.82,1.46-3.3,3.27-3.31
		C361.51,313.25,362.99,314.71,363,316.53z"/>
	<path class="st1" d="M311.72,327.02c0.01,1.82-1.46,3.3-3.27,3.31c-1.82,0.01-3.3-1.46-3.31-3.27c-0.01-1.81,1.46-3.3,3.27-3.31
		C310.23,323.74,311.72,325.2,311.72,327.02z"/>
	<path class="st1" d="M311.9,360.12c0.01,1.82-1.46,3.3-3.27,3.31c-1.82,0.01-3.3-1.46-3.31-3.27c-0.01-1.82,1.46-3.3,3.27-3.31
		C310.41,356.84,311.89,358.3,311.9,360.12z"/>
	<path class="st1" d="M342.84,391.31c0.01,1.82-1.46,3.3-3.27,3.31c-1.82,0.01-3.3-1.46-3.31-3.27c-0.01-1.81,1.46-3.3,3.27-3.31
		C341.35,388.03,342.83,389.49,342.84,391.31z"/>
	<path class="st1" d="M363.59,435.09c0.01,1.82-1.46,3.3-3.27,3.3c-1.82,0.01-3.3-1.46-3.31-3.27c-0.01-1.82,1.46-3.3,3.27-3.31
		C362.1,431.81,363.58,433.28,363.59,435.09z"/>
	<path class="st1" d="M370.14,422.52c0.01,1.82-1.46,3.3-3.27,3.31c-1.82,0.01-3.3-1.46-3.31-3.27c-0.01-1.82,1.46-3.3,3.27-3.31
		C368.65,419.23,370.13,420.7,370.14,422.52z"/>
	<path class="st1" d="M296.59,348.8c0.01,1.82-1.46,3.3-3.27,3.31c-1.82,0.01-3.3-1.46-3.31-3.27c-0.01-1.82,1.46-3.3,3.27-3.31
		C295.1,345.52,296.58,346.98,296.59,348.8z"/>
	<path class="st1" d="M307.96,261.22c0.01,1.82-1.46,3.3-3.27,3.3c-1.82,0.01-3.3-1.46-3.31-3.27c-0.01-1.82,1.46-3.3,3.27-3.31
		C306.47,257.94,307.95,259.4,307.96,261.22z"/>
	<path class="st1" d="M369.17,237.55c0.01,1.82-1.46,3.3-3.27,3.31c-1.82,0.01-3.3-1.46-3.31-3.27c-0.01-1.82,1.46-3.3,3.27-3.31
		C367.68,234.27,369.16,235.73,369.17,237.55z"/>
	<path class="st1" d="M400.39,208.24c0.01,1.82-1.46,3.3-3.27,3.31c-1.82,0.01-3.3-1.45-3.31-3.27c-0.01-1.81,1.46-3.3,3.27-3.31
		C398.9,204.96,400.38,206.43,400.39,208.24z"/>
	<path class="st1" d="M416.71,211.65c0.01,1.81-1.46,3.3-3.27,3.31c-1.82,0.01-3.3-1.46-3.31-3.27c-0.01-1.82,1.46-3.3,3.27-3.31
		C415.22,208.37,416.7,209.83,416.71,211.65z"/>
	<path class="st1" d="M451.34,211.18c0.01,1.82-1.46,3.3-3.27,3.31c-1.82,0.01-3.3-1.45-3.31-3.27c-0.01-1.81,1.46-3.3,3.27-3.31
		C449.86,207.9,451.34,209.37,451.34,211.18z"/>
	<path class="st1" d="M436.36,179.29c0.01,1.82-1.46,3.3-3.27,3.31c-1.82,0.01-3.3-1.46-3.31-3.27c-0.01-1.82,1.46-3.3,3.27-3.31
		C434.87,176.01,436.35,177.48,436.36,179.29z"/>
	<path class="st1" d="M437.32,144.56c0.01,1.82-1.46,3.3-3.27,3.31c-1.82,0.01-3.3-1.45-3.31-3.27c-0.01-1.81,1.46-3.3,3.27-3.31
		C435.83,141.28,437.31,142.75,437.32,144.56z"/>
	<path class="st1" d="M365.5,182.12c0.01,1.82-1.46,3.3-3.27,3.31c-1.82,0.01-3.3-1.46-3.31-3.27c-0.01-1.81,1.46-3.3,3.27-3.31
		C364.01,178.84,365.49,180.31,365.5,182.12z"/>
	<path class="st1" d="M293.52,170.68c0.01,1.82-1.46,3.3-3.27,3.31c-1.82,0.01-3.3-1.46-3.31-3.27c-0.01-1.81,1.46-3.3,3.27-3.31
		C292.03,167.4,293.51,168.87,293.52,170.68z"/>
	<path class="st1" d="M244.89,312.3c0.01,1.82-1.46,3.3-3.27,3.31c-1.82,0.01-3.3-1.46-3.31-3.27c-0.01-1.82,1.46-3.3,3.27-3.31
		C243.4,309.02,244.88,310.48,244.89,312.3z"/>
	<path class="st1" d="M200.22,259.93c0.01,1.82-1.46,3.3-3.27,3.31c-1.82,0.01-3.3-1.46-3.31-3.27c-0.01-1.81,1.46-3.3,3.27-3.31
		C198.73,256.65,200.21,258.12,200.22,259.93z"/>
	<path class="st1" d="M155.83,164.69c0.01,1.82-1.46,3.3-3.27,3.31c-1.82,0.01-3.3-1.45-3.31-3.27c-0.01-1.81,1.46-3.3,3.27-3.31
		C154.34,161.41,155.82,162.87,155.83,164.69z"/>
	<path class="st1" d="M121.79,225.29c0.01,1.82-1.46,3.3-3.27,3.31c-1.82,0.01-3.3-1.46-3.31-3.27c-0.01-1.82,1.46-3.3,3.27-3.31
		C120.3,222.01,121.78,223.47,121.79,225.29z"/>
	<path class="st1" d="M115.7,146.24c0.01,1.82-1.46,3.3-3.27,3.31c-1.82,0.01-3.3-1.45-3.31-3.27c-0.01-1.81,1.46-3.3,3.27-3.31
		C114.21,142.96,115.69,144.42,115.7,146.24z"/>
	<path class="st1" d="M48.28,200.17c0.01,1.81-1.46,3.3-3.27,3.31c-1.82,0.01-3.3-1.46-3.31-3.27c-0.01-1.82,1.46-3.3,3.27-3.31
		C46.79,196.89,48.27,198.36,48.28,200.17z"/>
	<path class="st1" d="M84.77,257.42c0.01,1.82-1.46,3.3-3.27,3.31c-1.82,0.01-3.3-1.46-3.31-3.27c-0.01-1.81,1.46-3.3,3.27-3.31
		C83.28,254.14,84.77,255.61,84.77,257.42z"/>
	<path class="st1" d="M287.54,63.39c0.01,1.82-1.45,3.3-3.27,3.31c-1.82,0.01-3.3-1.45-3.31-3.27c-0.01-1.81,1.46-3.3,3.27-3.31
		C286.06,60.11,287.54,61.58,287.54,63.39z"/>
	<path class="st1" d="M214.73,90.43c0.01,1.82-1.46,3.3-3.27,3.31c-1.82,0.01-3.3-1.46-3.31-3.27c-0.01-1.81,1.46-3.3,3.27-3.31
		C213.23,87.15,214.72,88.62,214.73,90.43z"/>
	<path class="st1" d="M263.19,93.45c0.01,1.82-1.46,3.3-3.27,3.31c-1.82,0.01-3.3-1.45-3.31-3.27c-0.01-1.81,1.46-3.3,3.27-3.31
		C261.7,90.17,263.18,91.63,263.19,93.45z"/>
	<path class="st1" d="M324,165.84c0.01,1.82-1.46,3.3-3.27,3.31c-1.82,0.01-3.3-1.45-3.31-3.27c-0.01-1.81,1.46-3.3,3.27-3.3
		C322.51,162.56,323.99,164.03,324,165.84z"/>
	<path class="st1" d="M450.21,282.81c0.01,1.82-1.46,3.3-3.27,3.31c-1.82,0.01-3.3-1.46-3.31-3.27c-0.01-1.82,1.46-3.3,3.27-3.31
		C448.72,279.53,450.2,280.99,450.21,282.81z"/>
	<path class="st1" d="M420.6,326.45c0.01,1.82-1.46,3.3-3.27,3.31c-1.82,0.01-3.3-1.46-3.31-3.27c-0.01-1.81,1.46-3.3,3.27-3.31
		C419.1,323.17,420.59,324.64,420.6,326.45z"/>
	<path class="st1" d="M381.53,351.78c0.01,1.82-1.46,3.3-3.27,3.31c-1.82,0.01-3.3-1.46-3.31-3.27c-0.01-1.82,1.46-3.3,3.27-3.31
		C380.04,348.49,381.52,349.96,381.53,351.78z"/>
	<path class="st1" d="M324.7,301.34c0.01,1.82-1.46,3.3-3.27,3.31c-1.82,0.01-3.3-1.46-3.31-3.27c-0.01-1.82,1.46-3.3,3.27-3.31
		C323.21,298.06,324.69,299.52,324.7,301.34z"/>
	<path class="st1" d="M383.54,301.03c0.01,1.82-1.46,3.3-3.27,3.31c-1.82,0.01-3.3-1.46-3.31-3.27c-0.01-1.82,1.46-3.3,3.27-3.31
		C382.05,297.75,383.53,299.22,383.54,301.03z"/>
	<path class="st1" d="M264.13,273.45c0.01,1.82-1.46,3.3-3.27,3.31c-1.82,0.01-3.3-1.46-3.31-3.27c-0.01-1.82,1.46-3.3,3.27-3.31
		C262.64,270.17,264.12,271.63,264.13,273.45z"/>
	<path class="st1" d="M303.22,360.16c0.01,1.82-1.46,3.3-3.27,3.31c-1.82,0.01-3.3-1.46-3.31-3.27c-0.01-1.82,1.46-3.3,3.27-3.31
		C301.73,356.88,303.21,358.35,303.22,360.16z"/>
	<path class="st1" d="M326.99,387.97c0.01,1.82-1.46,3.3-3.27,3.31c-1.82,0.01-3.3-1.45-3.31-3.27c-0.01-1.82,1.46-3.3,3.27-3.31
		C325.5,384.69,326.98,386.15,326.99,387.97z"/>
	<path class="st1" d="M336.05,401.03c0.01,1.82-1.46,3.3-3.27,3.31c-1.82,0.01-3.3-1.46-3.31-3.27c-0.01-1.82,1.46-3.3,3.27-3.31
		C334.56,397.75,336.04,399.22,336.05,401.03z"/>
	<path class="st1" d="M353.34,383.27c0.01,1.81-1.46,3.3-3.27,3.3c-1.82,0.01-3.3-1.46-3.31-3.27c-0.01-1.82,1.46-3.3,3.27-3.31
		C351.85,379.99,353.33,381.46,353.34,383.27z"/>
	<path class="st1" d="M365.48,359.84c0.01,1.82-1.46,3.3-3.27,3.31c-1.82,0.01-3.3-1.46-3.31-3.27c-0.01-1.82,1.46-3.3,3.27-3.31
		C363.99,356.56,365.47,358.02,365.48,359.84z"/>
	<path class="st1" d="M389.05,359.72c0.01,1.82-1.46,3.3-3.27,3.31c-1.81,0.01-3.3-1.46-3.31-3.27c-0.01-1.82,1.46-3.3,3.27-3.31
		C387.56,356.43,389.04,357.9,389.05,359.72z"/>
	<path class="st1" d="M401.05,334.86c0.01,1.82-1.46,3.3-3.27,3.31c-1.82,0.01-3.3-1.46-3.31-3.27c-0.01-1.82,1.46-3.3,3.27-3.31
		C399.56,331.58,401.04,333.04,401.05,334.86z"/>
	<path class="st1" d="M385.68,344.34c0.01,1.82-1.46,3.3-3.27,3.31c-1.82,0.01-3.3-1.46-3.31-3.27c-0.01-1.82,1.46-3.3,3.27-3.31
		C384.19,341.06,385.67,342.53,385.68,344.34z"/>
	<path class="st1" d="M326.69,330.23c0.01,1.82-1.46,3.3-3.27,3.31c-1.82,0.01-3.3-1.46-3.31-3.27c-0.01-1.82,1.46-3.3,3.27-3.31
		C325.2,326.95,326.68,328.41,326.69,330.23z"/>
	<path class="st1" d="M274.56,62.76c0.01,1.82-1.46,3.3-3.27,3.31c-1.82,0.01-3.3-1.46-3.31-3.27c-0.01-1.81,1.46-3.3,3.27-3.31
		C273.07,59.48,274.55,60.94,274.56,62.76z"/>
	<path class="st1" d="M233.75,106.38c0.01,1.82-1.46,3.3-3.27,3.31c-1.82,0.01-3.3-1.46-3.31-3.27c-0.01-1.82,1.46-3.3,3.27-3.31
		C232.26,103.1,233.74,104.56,233.75,106.38z"/>
	<path class="st1" d="M263.26,106.22c0.01,1.81-1.46,3.3-3.27,3.31c-1.82,0.01-3.3-1.46-3.31-3.27c-0.01-1.82,1.46-3.3,3.27-3.31
		C261.77,102.94,263.25,104.41,263.26,106.22z"/>
	<path class="st1" d="M263.53,157.86c0.01,1.82-1.46,3.3-3.27,3.31c-1.82,0.01-3.3-1.45-3.31-3.27c-0.01-1.81,1.46-3.3,3.27-3.31
		C262.04,154.58,263.52,156.04,263.53,157.86z"/>
	<path class="st1" d="M278.41,169.75c0.01,1.82-1.46,3.3-3.27,3.31c-1.82,0.01-3.3-1.46-3.31-3.27c-0.01-1.81,1.46-3.3,3.27-3.31
		C276.92,166.47,278.4,167.93,278.41,169.75z"/>
	<path class="st1" d="M280.57,186.29c0.01,1.81-1.46,3.3-3.27,3.31c-1.82,0.01-3.3-1.46-3.31-3.27c-0.01-1.82,1.46-3.3,3.27-3.31
		C279.07,183.01,280.56,184.48,280.57,186.29z"/>
	<path class="st1" d="M268.07,196.32c0.01,1.82-1.46,3.3-3.27,3.31c-1.82,0.01-3.3-1.46-3.31-3.27c-0.01-1.81,1.46-3.3,3.27-3.31
		C266.58,193.04,268.06,194.51,268.07,196.32z"/>
	<path class="st1" d="M278.92,267.95c0.01,1.82-1.46,3.3-3.27,3.31c-1.82,0.01-3.3-1.46-3.31-3.27c-0.01-1.82,1.46-3.3,3.27-3.31
		C277.43,264.66,278.91,266.13,278.92,267.95z"/>
	<path class="st1" d="M250.98,265.81c0.01,1.82-1.46,3.3-3.27,3.31c-1.82,0.01-3.3-1.46-3.31-3.27c-0.01-1.82,1.46-3.3,3.27-3.31
		C249.49,262.53,250.97,263.99,250.98,265.81z"/>
	<path class="st1" d="M264.22,291.53c0.01,1.82-1.46,3.3-3.27,3.31c-1.82,0.01-3.3-1.46-3.31-3.27c-0.01-1.82,1.46-3.3,3.27-3.31
		C262.73,288.25,264.21,289.72,264.22,291.53z"/>
	<path class="st1" d="M284.98,335.46c0.01,1.82-1.46,3.3-3.27,3.31c-1.82,0.01-3.3-1.46-3.31-3.27c-0.01-1.82,1.46-3.3,3.27-3.31
		C283.49,332.18,284.97,333.64,284.98,335.46z"/>
	<path class="st1" d="M260.62,231.56c0.01,1.82-1.46,3.3-3.27,3.31c-1.82,0.01-3.3-1.45-3.31-3.27c-0.01-1.81,1.46-3.3,3.27-3.31
		C259.13,228.28,260.61,229.74,260.62,231.56z"/>
	<path class="st1" d="M184.48,218.85c0.01,1.81-1.46,3.3-3.27,3.31c-1.82,0.01-3.3-1.46-3.31-3.27c-0.01-1.82,1.46-3.3,3.27-3.31
		C182.99,215.56,184.47,217.03,184.48,218.85z"/>
</g>
</svg>
