<?xml version="1.0" encoding="utf-8"?>
<!-- Generator: Adobe Illustrator 23.0.5, SVG Export Plug-In . SVG Version: 6.00 Build 0)  -->
<svg version="1.1" id="Layer_1" xmlns="http://www.w3.org/2000/svg" xmlns:xlink="http://www.w3.org/1999/xlink" x="0px" y="0px"
	 viewBox="0 0 500 500" style="enable-background:new 0 0 500 500;" xml:space="preserve">
<style type="text/css">
	.st0{fill:#F1F1F2;}
	.st1{fill:#FFFFFF;}
	.st2{fill:#D0D2D3;}
	.st3{fill:url(#SVGID_1_);}
	.st4{fill:url(#SVGID_2_);}
	.st5{fill:url(#SVGID_3_);}
	.st6{fill:url(#SVGID_4_);}
	.st7{fill:url(#SVGID_5_);}
	.st8{fill:#EBEBEB;}
	.st9{fill:url(#SVGID_6_);}
</style>
<g>
	<g>
		<g>
			<g>
				<polygon class="st0" points="98.74,261.82 106.28,305.76 164.16,332.98 				"/>
				<path class="st1" d="M164.9,333.52l-0.81-0.38l-57.96-27.25l-0.01-0.09l-7.64-44.52L164.9,333.52z M106.44,305.64l56.99,26.8
					l-64.41-70.06L106.44,305.64z"/>
			</g>
			<g>
				<polygon class="st2" points="164.16,363.27 164.16,332.98 106.28,305.76 				"/>
				<path class="st1" d="M164.34,363.69l-0.3-0.29l-58.59-58.22l0.92,0.43l57.98,27.26V363.69z M107.13,306.35l56.86,56.5v-29.76
					L107.13,306.35z"/>
			</g>
			<g>
				<linearGradient id="SVGID_1_" gradientUnits="userSpaceOnUse" x1="114.0287" y1="283.4602" x2="266.3519" y2="305.6342">
					<stop  offset="0" style="stop-color:#D9D9D9"/>
					<stop  offset="0.2251" style="stop-color:#CCCCCC"/>
					<stop  offset="0.6335" style="stop-color:#ACACAC"/>
					<stop  offset="1" style="stop-color:#8A8A8A"/>
				</linearGradient>
				<polygon class="st3" points="164.16,332.98 98.74,261.82 273.94,264.52 				"/>
				<path class="st1" d="M164.13,333.2l-0.1-0.11l-65.69-71.45l0.41,0l175.79,2.71l-0.5,0.31L164.13,333.2z M99.15,262l65.04,70.75
					l109.15-68.07L99.15,262z"/>
			</g>
			<g>
				<linearGradient id="SVGID_2_" gradientUnits="userSpaceOnUse" x1="336.5994" y1="201.2599" x2="358.8891" y2="173.3974">
					<stop  offset="0" style="stop-color:#9C9EA1"/>
					<stop  offset="0.2337" style="stop-color:#999B9E"/>
					<stop  offset="0.4321" style="stop-color:#8F9193"/>
					<stop  offset="0.6174" style="stop-color:#7E8082"/>
					<stop  offset="0.7949" style="stop-color:#676869"/>
					<stop  offset="0.9654" style="stop-color:#494949"/>
					<stop  offset="1" style="stop-color:#424242"/>
				</linearGradient>
				<polygon class="st4" points="319.23,137.69 396.49,211.68 297.38,177.45 				"/>
				<path class="st1" d="M397.19,212.11l-100.07-34.55l0.1-0.18l21.96-39.97l0.16,0.16L397.19,212.11z M297.63,177.36l98.16,33.9
					l-76.52-73.28L297.63,177.36z"/>
			</g>
			<g>
				<linearGradient id="SVGID_3_" gradientUnits="userSpaceOnUse" x1="291.1317" y1="185.0863" x2="365.966" y2="246.3143">
					<stop  offset="0" style="stop-color:#C4C4C4"/>
					<stop  offset="0.2852" style="stop-color:#C1C1C1"/>
					<stop  offset="0.4995" style="stop-color:#B8B8B8"/>
					<stop  offset="0.6906" style="stop-color:#A8A8A8"/>
					<stop  offset="0.8672" style="stop-color:#919191"/>
					<stop  offset="1" style="stop-color:#7A7A7A"/>
				</linearGradient>
				<polygon class="st5" points="335.08,280.66 297.38,177.45 396.49,211.68 				"/>
				<path class="st1" d="M335.02,280.99l-0.1-0.28l-37.83-103.55l0.35,0.12l99.36,34.31l-0.18,0.2L335.02,280.99z M297.67,177.74
					l37.48,102.58l61.03-68.56L297.67,177.74z"/>
			</g>
			<g>
				<linearGradient id="SVGID_4_" gradientUnits="userSpaceOnUse" x1="279.7377" y1="211.1216" x2="325.0325" y2="286.6128">
					<stop  offset="0" style="stop-color:#9C9EA1"/>
					<stop  offset="0.2845" style="stop-color:#959699"/>
					<stop  offset="0.7142" style="stop-color:#808285"/>
					<stop  offset="1" style="stop-color:#6F7073"/>
				</linearGradient>
				<polygon class="st6" points="312.75,219.54 297.38,177.45 289.88,205.06 273.94,264.52 335.08,280.66 				"/>
				<path class="st1" d="M335.36,280.91l-61.64-16.27l0.04-0.17l15.95-59.45l7.64-28.14l15.57,42.6L335.36,280.91z M274.15,264.39
					l60.65,16.01l-37.4-102.37l-7.35,27.08L274.15,264.39z"/>
			</g>
			<g>
				<linearGradient id="SVGID_5_" gradientUnits="userSpaceOnUse" x1="253.6246" y1="337.719" x2="239.4763" y2="282.0103">
					<stop  offset="0" style="stop-color:#6F7073"/>
					<stop  offset="0.4738" style="stop-color:#7A7B7C"/>
					<stop  offset="1" style="stop-color:#828282"/>
				</linearGradient>
				<polygon class="st7" points="164.16,363.27 335.08,280.66 273.94,264.52 164.16,332.98 				"/>
				<path class="st1" d="M163.99,363.55v-30.67l0.08-0.05l109.84-68.5l0.07,0.02l61.61,16.26l-0.43,0.21L163.99,363.55z
					 M164.34,333.08v29.91l170.24-82.28l-60.61-16L164.34,333.08z"/>
			</g>
		</g>
		<g>
			<g>
				<polygon class="st8" points="164.16,150.12 98.74,261.82 273.94,264.52 297.38,177.45 				"/>
				<path class="st1" d="M274.07,264.7l-0.14,0l-175.49-2.7l0.15-0.26l65.48-111.81l0.12,0.02l133.4,27.38l-0.05,0.18L274.07,264.7z
					 M99.05,261.65l174.76,2.69l23.35-86.75l-132.91-27.27L99.05,261.65z"/>
			</g>
			<g>
				<linearGradient id="SVGID_6_" gradientUnits="userSpaceOnUse" x1="234.5577" y1="161.6497" x2="308.8806" y2="119.7498">
					<stop  offset="0" style="stop-color:#DBDCDD"/>
					<stop  offset="0.1963" style="stop-color:#D4D5D6"/>
					<stop  offset="0.4889" style="stop-color:#BFC1C2"/>
					<stop  offset="0.84" style="stop-color:#9EA0A2"/>
					<stop  offset="1" style="stop-color:#8D8F91"/>
				</linearGradient>
				<polygon class="st9" points="164.16,150.12 297.38,177.45 319.23,137.69 				"/>
				<path class="st1" d="M297.47,177.65l-0.13-0.03l-134.42-27.59l1.23-0.1l155.39-12.45L297.47,177.65z M165.41,150.19
					l131.88,27.06l21.63-39.37L165.41,150.19z"/>
			</g>
		</g>
	</g>
	<g>
		<path class="st1" d="M461.34,264.63l1.38,0.27l-1.25-0.57v-62.08l-132.15-36.92l34.43-103.24l-0.17-0.07l-0.05-0.15l-172.93,64.7
			l-85.36-23.85l-0.3-0.14l0.05,0.25l-0.08,0.1l-0.03,0.01l0.01,0.02l-64.66,79.83l-0.25-0.05l0.11,0.22l-0.33,0.41l0.46-0.17
			l129.73,252.3l0.57,1.1l-0.42-2.17l68.39,2.88l0.13,0l0.03-0.07L461.34,264.63z M105.41,103.18l66.75,30.28l-47.61,17.81
			l-19.07-47.77L105.41,103.18z M124.22,151.4l-8.75,3.28l-9.63-49.32L124.22,151.4z M124.35,151.72l20.48,51.31l-20.71-4.01
			l-8.59-44L124.35,151.72z M124.67,151.6l47.94-17.93l124.24,56.37l-20.03,38.54l-131.58-25.46L124.67,151.6z M317.58,199.43
			l-11.6,34.78l-28.8-5.57l20-38.46L317.58,199.43z M297.33,189.87l15.03-28.91l16.51,4.61l-11.19,33.54L297.33,189.87z
			 M317.9,199.58l141.97,64.41l-153.54-29.71L317.9,199.58z M276.65,228.9l-68.5,131.78L145.39,203.5L276.65,228.9z M277.01,228.97
			l28.85,5.58l-67.4,202.07l-30.15-75.52L277.01,228.97z M306.21,234.62l154.67,29.93l-222.05,172.1L306.21,234.62z M461.12,202.52
			v61.66l-143.11-64.93l11.2-33.59L461.12,202.52z M328.98,165.23l-16.45-4.6l50.19-96.56L328.98,165.23z M363.22,62.35
			l-51.04,98.19l-121.02-33.81L363.22,62.35z M190.61,126.93l121.41,33.92l-15,28.87l-123.94-56.23L190.61,126.93z M172.62,133.29
			l-65.3-29.63l82.72,23.11L172.62,133.29z M105.03,103.33l0.11,0.27l10,51.19l-74.3,27.8L105.03,103.33z M115.2,155.15l8.55,43.81
			l-82.82-16.03L115.2,155.15z M40.61,183.22l83.21,16.1l45.87,234.92L40.61,183.22z M124.19,199.4l20.79,4.02l62.95,157.67
			l-37.93,72.96L124.19,199.4z M208.11,361.52l30.11,75.43l-67.84-2.86L208.11,361.52z"/>
		<g>
			<path class="st1" d="M365.3,62.43c0,0.94-0.76,1.71-1.71,1.71c-0.94,0-1.71-0.76-1.71-1.71c0-0.94,0.76-1.71,1.71-1.71
				C364.53,60.72,365.3,61.49,365.3,62.43z"/>
			<path class="st1" d="M463,202.38c0,0.94-0.77,1.71-1.71,1.71c-0.94,0-1.71-0.77-1.71-1.71c0-0.94,0.77-1.71,1.71-1.71
				C462.23,200.67,463,201.44,463,202.38z"/>
			<path class="st1" d="M463,264.44c0,0.94-0.77,1.71-1.71,1.71c-0.94,0-1.71-0.76-1.71-1.71c0-0.94,0.77-1.71,1.71-1.71
				C462.23,262.74,463,263.5,463,264.44z"/>
			<path class="st1" d="M240.19,437.13c0,0.94-0.77,1.71-1.71,1.71c-0.94,0-1.71-0.77-1.71-1.71c0-0.94,0.76-1.71,1.71-1.71
				C239.43,435.42,240.19,436.19,240.19,437.13z"/>
			<path class="st1" d="M171.81,433.71c0,0.94-0.77,1.71-1.71,1.71c-0.94,0-1.71-0.76-1.71-1.71c0-0.94,0.77-1.71,1.71-1.71
				C171.04,432.01,171.81,432.77,171.81,433.71z"/>
			<path class="st1" d="M42,182.98c0,0.94-0.77,1.71-1.71,1.71c-0.94,0-1.71-0.76-1.71-1.71c0-0.94,0.77-1.71,1.71-1.71
				C41.23,181.27,42,182.04,42,182.98z"/>
			<path class="st1" d="M106.74,102.88c0,0.94-0.77,1.71-1.71,1.71c-0.94,0-1.71-0.77-1.71-1.71c0-0.94,0.77-1.71,1.71-1.71
				C105.98,101.17,106.74,101.93,106.74,102.88z"/>
		</g>
	</g>
</g>
</svg>
