<?xml version="1.0" encoding="utf-8"?>
<!-- Generator: Adobe Illustrator 23.0.5, SVG Export Plug-In . SVG Version: 6.00 Build 0)  -->
<svg version="1.1" id="Layer_1" xmlns="http://www.w3.org/2000/svg" xmlns:xlink="http://www.w3.org/1999/xlink" x="0px" y="0px"
	 viewBox="0 0 500 500" style="enable-background:new 0 0 500 500;" xml:space="preserve">
<style type="text/css">
	.st0{fill:#333333;}
	.st1{fill:#D4D4D4;}
	.st2{fill:#E3E3E3;}
	.st3{fill:#FFFFFF;}
	.st4{fill:#808080;}
	.st5{fill:none;stroke:#DEDEDE;stroke-linecap:round;stroke-linejoin:round;stroke-miterlimit:10;}
	.st6{fill:#DEDEDE;}
	.st7{font-family:'Montserrat-Bold';}
	.st8{font-size:10.1487px;}
	.st9{fill:none;stroke:#DEDEDE;stroke-linecap:round;stroke-linejoin:round;}
	.st10{fill:none;stroke:#DEDEDE;stroke-linecap:round;stroke-linejoin:round;stroke-dasharray:2.6215,2.6215;}
	.st11{fill:none;stroke:#DEDEDE;stroke-linecap:round;stroke-linejoin:round;stroke-dasharray:2.7346,2.7346;}
	.st12{fill:none;stroke:#DEDEDE;stroke-linecap:round;stroke-linejoin:round;stroke-miterlimit:10;stroke-dasharray:3,3;}
	.st13{font-size:5.6229px;}
	.st14{letter-spacing:1;}
	.st15{font-size:9.149px;}
	.st16{fill:#CCCCCC;}
	.st17{fill:#FFF2F4;}
	.st18{fill:#B3B3B3;}
	.st19{fill:#F2F2F2;}
</style>
<g>
	<rect x="-11.5" y="-1.5" class="st0" width="518" height="508"/>
	<path d="M506-1v507H-11V-1H506 M507-2H-12v509h519V-2L507-2z"/>
</g>
<polygon class="st1" points="433,276.95 433,336.45 419.53,358.19 377.38,426.2 350.26,417.05 346.08,415.64 173.59,357.46 
	156.82,351.8 33,310.03 47.98,300.1 61.96,290.83 193.3,203.73 326.79,244.51 330.76,245.72 "/>
<polygon class="st2" points="326.79,244.51 433,297.98 433,347.65 419.53,358.19 366.07,400 346.08,415.64 329.47,428.64 
	305.52,447.37 156.82,351.8 146.06,344.88 61.96,290.83 40.31,276.92 27.4,268.62 133.6,223.08 204.6,192.64 214.95,188.2 
	321.25,241.72 "/>
<polygon class="st3" points="330.76,245.72 433,288.74 433,327.83 366.07,400 350.26,417.05 336.53,431.86 329.47,428.64 
	173.59,357.46 146.06,344.88 47.98,300.1 21.27,287.9 40.31,276.92 133.6,223.08 194.05,188.2 204.6,192.64 321.25,241.72 "/>
<polygon class="st4" points="344.51,284.12 320.28,311.08 315.07,309.14 339.3,282.18 "/>
<polygon class="st4" points="350.39,294.5 331.68,315.33 326.47,313.39 345.18,292.56 "/>
<g>
	<g>
		<polygon class="st5" points="213.04,252.47 177.21,281.32 136.97,261.78 		"/>
		<path class="st5" d="M184.31,275.6c-4.4-2.14-11.15-1.31-15.08,1.84l7.98,3.87L184.31,275.6z"/>
		<path class="st5" d="M147.62,260.48c0.17,1.74-0.71,3.6-2.67,5.18l-7.98-3.87L147.62,260.48z"/>
		<path class="st5" d="M213.04,252.47l-7.1,5.72c-2.2-1.07-3.4-2.67-3.54-4.42L213.04,252.47z"/>
	</g>
	<text transform="matrix(0.8009 -0.6449 0.8995 0.4369 175.3906 252.4831)" class="st6 st7 st8">a</text>
	<text transform="matrix(0.8009 -0.6449 0.8995 0.4369 150.9031 280.1852)" class="st6 st7 st8">b</text>
	<text transform="matrix(0.8009 -0.6449 0.8995 0.4369 201.6589 274.3769)" class="st6 st7 st8">c</text>
</g>
<g>
	<line class="st5" x1="238.61" y1="289.98" x2="272.62" y2="312.83"/>
	<line class="st5" x1="265.08" y1="313.83" x2="297.27" y2="266.36"/>
	<path class="st5" d="M249.22,301.59c-1.15-7.61-1.43-14.34,1.1-18.08c4.63-6.82,13.73-0.7,19.81-9.67
		c5.52-8.13-1.99-15.54-4.05-18.43"/>
	<polyline class="st5" points="239.93,294.34 239.27,292.16 238.61,289.98 240.89,289.77 243.17,289.57 	"/>
	<polyline class="st5" points="292.88,267.54 295.07,266.95 297.27,266.36 297.54,268.61 297.81,270.86 	"/>
	<line class="st5" x1="248.53" y1="289.18" x2="271.38" y2="304.53"/>
	<line class="st5" x1="252.69" y1="281.22" x2="276.39" y2="297.15"/>
	<line class="st5" x1="264.53" y1="278.42" x2="281.4" y2="289.76"/>
	<line class="st5" x1="271.13" y1="272.1" x2="286.41" y2="282.37"/>
	<line class="st5" x1="269.76" y1="260.43" x2="291.42" y2="274.98"/>
</g>
<g>
	<polygon class="st5" points="278.77,351.94 265.15,340.11 243.09,341.99 234.65,355.71 248.26,367.54 270.33,365.66 	"/>
	<polyline class="st5" points="234.65,355.71 256.71,353.83 265.15,340.11 	"/>
	<g>
		<g>
			<line class="st9" x1="248.26" y1="367.54" x2="249.05" y2="366.26"/>
			<line class="st10" x1="250.42" y1="364.03" x2="255.24" y2="356.22"/>
			<polyline class="st9" points="255.92,355.1 256.71,353.83 258.2,353.7 			"/>
			<line class="st11" x1="260.93" y1="353.47" x2="275.91" y2="352.19"/>
			<line class="st9" x1="277.28" y1="352.07" x2="278.77" y2="351.94"/>
		</g>
	</g>
	<line class="st12" x1="243.09" y1="341.99" x2="256.71" y2="353.83"/>
	<line class="st5" x1="256.71" y1="353.83" x2="270.33" y2="365.66"/>
</g>
<g>
	<text transform="matrix(0.5016 -0.8651 0.8651 0.5016 286.2667 308.3575)" class="st6 st7 st13 st14">2x2</text>
</g>
<g>
	<g>
		<text transform="matrix(0.6496 -0.741 0.853 0.5219 297.5966 344.1899)"><tspan x="0" y="0" class="st6 st7 st15">3</tspan><tspan x="0" y="12.2" class="st6 st7 st15">5</tspan></text>
	</g>
	<line class="st5" x1="298.44" y1="346.97" x2="304.54" y2="340"/>
</g>
<g>
	<g>
		<line class="st5" x1="185.87" y1="313.9" x2="218.51" y2="335.82"/>
		<line class="st5" x1="197.65" y1="354.62" x2="230.64" y2="310.53"/>
		<polyline class="st5" points="186.65,318.52 186.26,316.21 185.87,313.9 188.3,313.49 190.73,313.07 		"/>
		<polyline class="st5" points="225.84,312.19 228.24,311.36 230.64,310.53 230.61,312.95 230.57,315.37 		"/>
	</g>
	<path class="st5" d="M206.83,301.41c11.06,7.43,14.09,21.36,6.79,31.13c-7.31,9.77-22.19,11.67-33.25,4.24"/>
</g>
<path class="st16" d="M291.98,177.93l-56.85,25.6l-12.06,45.77c0,0,7.36,5.56,15.6-0.05c8.48-5.78,10.61-16.43,10.98-27.51
	l26.33-13.78l25.84,7.49l19.37-19.9L291.98,177.93z"/>
<polygon class="st17" points="223.07,249.3 235.13,203.53 291.98,177.93 291.98,181.29 237.22,205.5 "/>
<g>
	
		<rect x="188.99" y="219.32" transform="matrix(0.6486 -0.7611 0.7611 0.6486 -80.1093 279.8075)" class="st18" width="147.97" height="14.67"/>
	<path class="st18" d="M308.15,167.96l5.58,4.76l4.53-5.31c1.31-1.54,1.13-3.86-0.41-5.17l0,0c-1.54-1.31-3.86-1.13-5.17,0.41
		L308.15,167.96z"/>
	<path class="st18" d="M295.1,174.1L295.1,174.1c-7.57-1.21-15.23,1.61-20.2,7.45l-24.21,28.41l0,0c2.22,1.89,5.54,1.62,7.43-0.59
		l20.53-24.09c2.13-2.5,5.64-3.33,8.67-2.04l0,0L295.1,174.1z"/>
	<path class="st18" d="M220.57,287.74l-11.17-9.52l-3.67,10.25c-1.16,3.23,2.3,6.18,5.31,4.52L220.57,287.74z"/>
	<polygon class="st18" points="217.34,268.91 228.5,278.43 255,247.57 243.83,238.06 	"/>
</g>
<path class="st16" d="M431.71,290.07l-58.28-17.97c0,0-41.33,5.25-71.29-19.79l-21.04,0.04c0,0-20.28,13.33-28.02,14.82
	c-7.75,1.49-18.62,1.52-21.35-8.73l49.04-33.89l25.87-37.78l64.11,38.66l60.85,12.43L431.71,290.07z"/>
<polygon class="st17" points="306.64,186.77 370.75,225.43 431.6,237.85 431.6,242.54 369.13,228.02 305.12,188.53 "/>
<path class="st19" d="M281.59,193.53l11.23,9.57c0.95,0.81,2.37,0.69,3.17-0.25l16.13-19.04c0.81-0.95,0.69-2.37-0.25-3.17
	l-11.23-9.57c-0.95-0.81-2.37-0.69-3.17,0.25l-16.13,19.04C280.53,191.3,280.64,192.72,281.59,193.53z"/>
</svg>
