<?xml version="1.0" standalone="no"?>
<!DOCTYPE svg PUBLIC "-//W3C//DTD SVG 20010904//EN"
 "http://www.w3.org/TR/2001/REC-SVG-20010904/DTD/svg10.dtd">
<svg version="1.0" xmlns="http://www.w3.org/2000/svg"
 width="562.000000pt" height="404.000000pt" viewBox="0 0 562.000000 404.000000"
 preserveAspectRatio="xMidYMid meet">
<metadata>
Created by potrace 1.15, written by Peter Selinger 2001-2017
</metadata>
<g transform="translate(0.000000,404.000000) scale(0.100000,-0.100000)"
fill="#000000" stroke="none">
<path d="M3920 3993 c-74 -25 -136 -47 -138 -48 -1 -1 48 -194 109 -430 91
-348 109 -429 98 -436 -37 -23 -44 -11 -78 136 -19 81 -37 148 -41 150 -7 4
-116 -28 -125 -37 -3 -3 17 -67 45 -142 27 -76 50 -141 50 -146 0 -5 -16 -14
-35 -20 -19 -6 -37 -15 -39 -19 -3 -4 23 -154 58 -332 l62 -324 -105 -7 c-58
-3 -239 -11 -401 -18 -594 -22 -810 -45 -810 -83 0 -6 10 -21 21 -33 l22 -23
-37 4 c-20 3 -51 7 -69 9 -24 3 -36 -1 -44 -14 -10 -15 -177 -90 -202 -90 -5
0 -23 36 -42 80 -42 103 -72 132 -141 138 -71 5 -1187 -85 -1214 -99 -11 -6
-33 -29 -47 -52 -37 -56 -35 -108 4 -202 18 -42 30 -78 27 -81 -3 -2 -182 -51
-399 -108 -370 -97 -394 -105 -421 -135 -21 -24 -28 -41 -28 -74 0 -80 39 -99
340 -161 l165 -35 640 -302 640 -303 90 -3 90 -4 330 185 330 185 47 -87 c26
-48 44 -90 40 -94 -4 -3 -227 -133 -497 -288 -269 -155 -493 -287 -497 -293
-22 -34 -5 -45 230 -156 l237 -113 66 13 67 14 276 265 c153 146 281 266 285
268 5 1 14 -11 21 -28 15 -36 21 -37 178 -11 62 10 111 15 110 11 -2 -4 -43
-118 -92 -254 -97 -267 -98 -279 -46 -317 22 -16 73 -20 420 -35 217 -10 412
-14 433 -10 43 8 103 62 113 102 4 17 -17 130 -61 318 -37 160 -70 296 -72
301 -2 6 75 22 189 39 106 16 202 34 214 40 37 19 123 91 124 102 0 6 18 24
40 39 39 27 51 45 30 45 -6 0 -10 28 -10 63 0 56 -12 99 -23 87 -3 -3 -14 -24
-26 -47 -27 -54 -32 -56 -65 -29 l-28 22 95 61 96 62 212 -170 c116 -93 218
-169 226 -169 54 0 80 29 302 329 130 177 219 306 215 313 -4 6 -3 8 3 5 14
-9 37 19 27 34 -4 7 -3 9 4 6 16 -11 114 128 110 155 -3 23 -6 23 -163 29 -88
4 -275 7 -415 8 -239 2 -252 3 -208 17 46 14 47 15 58 72 6 31 13 63 15 69 2
7 -28 52 -67 99 l-71 86 -86 -6 c-47 -4 -92 -13 -99 -19 -10 -8 -12 -24 -8
-59 l7 -47 -63 -3 c-60 -3 -63 -4 -66 -30 l-3 -27 -37 22 c-117 73 -305 115
-590 133 -62 4 -110 9 -108 11 2 3 150 22 328 43 398 48 463 65 472 124 4 26
66 808 66 828 0 4 -16 10 -35 14 -19 3 -35 7 -35 9 0 1 33 82 74 179 74 175
75 178 66 233 -5 31 -11 58 -13 60 -4 4 -86 -13 -92 -19 -2 -2 -33 -99 -69
-217 -36 -118 -67 -215 -69 -217 -2 -2 -27 -1 -56 3 l-53 6 5 51 c4 28 9 85
13 126 l6 75 -35 17 c-19 9 -38 14 -41 11 -3 -4 -6 -36 -6 -72 0 -36 -3 -96
-6 -133 -6 -61 -9 -67 -33 -71 -14 -3 -27 -5 -28 -4 0 1 -17 187 -37 412 -48
538 -45 515 -65 514 -9 0 -77 -21 -151 -46z m160 0 c0 -16 20 -246 44 -513 28
-311 40 -487 34 -491 -18 -12 -200 -21 -210 -11 -6 6 5 12 32 17 31 5 45 4 51
-6 14 -23 11 8 -10 89 l-19 72 60 111 60 111 -9 67 -9 66 -63 -125 c-57 -111
-65 -122 -72 -101 -8 19 4 49 62 163 l71 140 -12 122 c-6 66 -13 123 -15 125
-2 2 -39 -67 -82 -153 -43 -86 -80 -156 -83 -156 -8 0 -113 411 -107 417 8 7
239 81 260 82 12 1 17 -7 17 -26z m4 -325 l7 -86 -62 -124 -62 -123 -24 85
-24 85 73 148 c81 165 80 164 92 15z m551 -180 c6 -50 1 -65 -68 -233 -66
-158 -79 -182 -107 -196 -19 -11 -26 -19 -18 -22 7 -3 9 -6 3 -6 -5 0 -16 3
-24 8 -11 7 0 54 60 250 75 243 77 247 126 250 19 1 22 -6 28 -51z m-330 -152
c-2 -12 -9 -84 -15 -161 -13 -161 -16 -175 -36 -175 -13 0 -14 19 -9 128 3 70
8 155 11 189 5 61 6 62 30 51 17 -8 22 -17 19 -32z m-399 -161 c23 -94 39
-173 37 -177 -5 -10 -91 -4 -100 7 -5 4 0 5 10 2 9 -4 17 -5 17 -3 0 2 -25 72
-55 156 -31 84 -53 155 -50 159 11 10 69 30 85 28 10 -2 27 -51 56 -172z m654
-158 c0 -102 -63 -803 -73 -809 -6 -4 -12 -6 -13 -5 -1 2 52 776 58 828 3 38
28 25 28 -14z m-44 -49 c-3 -35 -15 -205 -26 -378 -27 -424 -22 -395 -69 -409
-50 -15 -53 -14 -41 7 5 9 28 199 51 422 25 238 47 408 53 412 31 21 38 9 32
-54z m-61 -30 c-37 -391 -82 -752 -93 -756 -10 -3 -12 78 -10 399 l3 402 35
13 c70 25 73 23 65 -58z m-649 55 c-4 -5 16 -15 46 -23 l53 -16 45 -379 c25
-209 42 -381 39 -383 -4 -2 -20 3 -36 11 -28 15 -29 19 -101 397 -59 308 -71
385 -60 391 16 11 24 11 14 2z m534 -417 c0 -315 3 -405 13 -409 6 -2 -16 -7
-51 -12 -35 -4 -65 -5 -67 -3 -2 2 3 168 10 368 8 201 15 382 15 402 0 34 3
38 33 47 17 5 35 10 40 10 4 1 7 -181 7 -403z m-90 345 c0 -27 -28 -747 -30
-770 0 -2 -35 -1 -77 2 -43 3 -62 2 -43 -2 54 -12 25 -18 -232 -47 l-236 -27
-225 52 c-192 44 -237 51 -308 49 -45 -2 -84 -7 -85 -13 -2 -5 25 -29 60 -53
61 -41 73 -45 322 -98 276 -59 296 -64 277 -71 -6 -2 -116 15 -244 38 l-233
41 -121 -17 -121 -18 -105 58 c-111 61 -200 119 -236 154 -22 21 -31 51 -15
51 4 0 34 4 67 9 139 22 863 61 1131 61 l102 0 7 -56 c6 -53 8 -56 49 -73 23
-10 57 -21 76 -25 33 -5 34 -5 7 5 -15 6 -29 20 -32 32 -9 43 -88 737 -84 741
2 2 29 6 59 9 36 4 48 3 35 -3 -13 -6 11 -8 75 -8 65 0 87 3 70 8 -17 6 -9 7
24 3 35 -4 47 -2 42 6 -5 7 -1 9 8 5 11 -4 16 -19 16 -43z m-2095 -653 c7 -7
36 -67 64 -133 29 -66 61 -132 72 -147 19 -27 14 -39 -7 -18 -8 8 -150 -30
-470 -123 -609 -179 -724 -211 -729 -205 -3 2 -61 119 -129 258 -131 268 -134
280 -83 299 19 7 26 2 50 -43 15 -28 32 -55 36 -59 5 -5 68 6 140 23 111 27
131 35 131 51 0 10 1 22 3 27 1 4 -47 9 -108 12 -103 5 -82 7 325 41 456 37
681 43 705 17z m421 -100 c52 -10 135 -47 109 -48 -5 -1 51 -32 125 -70 115
-58 131 -69 110 -74 -14 -4 -158 -5 -320 -4 l-295 3 -19 38 c-10 21 -17 40
-15 41 2 2 78 13 169 25 91 12 181 26 200 31 l35 10 -40 -5 c-22 -3 -109 -14
-193 -26 -85 -11 -158 -19 -164 -17 -6 2 23 17 63 32 41 16 92 39 114 52 47
28 44 27 121 12z m877 -60 c154 -35 227 -56 227 -65 0 -7 -4 -13 -8 -13 -5 0
-116 25 -248 56 -131 31 -254 59 -271 61 -19 3 -30 10 -27 15 9 15 69 5 327
-54z m-347 41 c36 -9 43 -15 39 -29 -7 -23 -25 -18 275 -80 305 -64 293 -61
283 -71 -4 -4 -133 19 -287 52 -253 55 -283 64 -332 96 -30 20 -54 37 -54 39
0 7 31 4 76 -7z m-2153 -268 l115 -243 384 -336 c267 -234 385 -343 389 -361
11 -42 10 -101 -1 -101 -5 0 -10 24 -10 53 l0 52 -379 330 -379 330 -126 261
c-69 143 -126 264 -126 269 0 23 26 -28 133 -254z m-1 -52 c88 -185 101 -219
99 -259 -5 -121 -10 -115 -129 175 -117 285 -129 322 -117 352 8 22 6 26 147
-268z m3838 216 c18 -19 31 -38 27 -41 -3 -4 -38 -9 -77 -12 -70 -5 -72 -4
-108 29 -20 19 -6 1 33 -39 l70 -72 78 6 78 7 -7 -39 c-17 -93 -13 -89 -87
-92 l-67 -3 -2 48 -1 48 -6 -44 -6 -45 -58 67 c-54 61 -59 71 -64 125 -7 70
-3 74 82 83 33 3 65 7 71 7 5 1 25 -14 44 -33z m-724 -30 c234 -35 401 -113
419 -196 13 -58 1 -69 -76 -69 -40 0 -68 4 -65 9 4 5 2 21 -4 35 -9 25 -7 26
36 37 44 11 44 12 27 31 -15 17 -26 19 -70 14 -44 -5 -61 -2 -115 24 -34 16
-70 30 -78 30 -12 0 96 -50 109 -50 2 0 1 -6 -2 -14 -8 -19 36 -58 56 -50 12
4 20 -2 27 -21 6 -15 8 -31 4 -36 -3 -5 -76 -9 -162 -9 l-157 0 -42 105 c-47
120 -51 115 68 90 40 -9 74 -13 76 -11 3 2 -22 10 -54 16 -32 6 -74 15 -94 19
-28 7 -41 4 -60 -10 -35 -27 -46 -23 -18 7 14 15 31 23 41 21 10 -3 21 -1 24
4 3 5 -6 9 -20 9 -14 0 -28 -4 -31 -10 -7 -11 -51 -13 -117 -4 -38 5 -44 10
-46 32 l-2 25 109 -6 c61 -4 158 -14 217 -22z m-776 -19 l65 -13 -40 -7 c-81
-14 -84 -14 -91 6 -8 26 -49 20 -49 -7 0 -12 -8 -21 -20 -23 -11 -1 -75 -14
-143 -29 -107 -22 -128 -24 -163 -14 -32 10 -44 10 -55 0 -13 -11 -12 -14 7
-25 l22 -12 -21 -6 c-31 -10 -141 13 -120 25 33 18 266 80 373 98 133 23 152
23 235 7z m-997 -44 c15 -17 -2 -22 -365 -110 -209 -51 -382 -91 -384 -89 -3
3 699 214 722 216 6 1 18 -7 27 -17z m1199 8 c29 -6 63 -13 76 -16 17 -3 22
-11 22 -38 l0 -33 -137 -6 c-76 -4 -156 -11 -178 -16 -22 -6 -41 -8 -43 -6 -2
2 11 28 29 59 27 44 39 56 64 59 62 8 115 7 167 -3z m378 0 c0 -5 -5 -10 -12
-10 -9 0 -9 -3 0 -12 9 -9 17 -8 37 2 14 7 27 11 29 9 6 -6 76 -182 76 -191 0
-4 -13 -8 -29 -8 -53 0 -61 -37 -18 -77 19 -17 24 -19 13 -5 -25 29 -9 28 29
-3 l29 -24 -89 3 c-50 2 -101 8 -115 14 l-25 9 23 7 c37 12 82 56 82 81 0 28
-45 69 -95 85 -26 8 -35 17 -35 33 0 12 -3 39 -6 60 l-7 37 57 0 c31 0 56 -4
56 -10z m-1125 -33 c-91 -30 -168 -77 -153 -93 3 -3 46 -12 94 -22 l89 -16
-55 -7 c-30 -4 -82 -9 -116 -11 l-61 -2 -94 80 c-52 44 -101 84 -109 89 -22
12 -28 17 305 -265 171 -145 313 -268 317 -274 24 -35 7 -43 -464 -237 -462
-189 -475 -194 -543 -194 -76 1 -110 14 -170 66 -19 17 -38 28 -43 25 -5 -3
-22 9 -38 27 l-29 32 30 -25 c28 -23 28 -22 -2 8 -19 18 -37 31 -42 28 -4 -3
-19 7 -32 22 l-24 27 26 -20 c14 -11 10 -5 -9 12 -19 18 -38 30 -42 28 -4 -2
-18 8 -31 23 l-24 27 26 -20 c14 -11 10 -5 -9 12 -19 18 -38 30 -43 28 -7 -5
-24 13 -24 26 0 3 -85 79 -188 167 -104 89 -185 163 -180 164 4 0 19 2 33 4
39 4 78 13 174 40 138 39 971 244 990 244 13 0 16 5 11 19 -6 19 2 20 262 20
l268 1 -100 -33z m533 25 c-1 -4 -16 -31 -33 -59 -28 -49 -34 -54 -96 -73
l-66 -20 -139 28 c-101 21 -133 31 -116 36 12 4 31 5 41 1 11 -3 26 1 35 10
20 20 51 29 185 55 82 16 107 18 118 8 12 -10 17 -9 24 5 10 16 54 25 47 9z
m1324 -37 c13 -19 46 -57 72 -85 43 -46 51 -50 94 -51 l47 0 -45 -15 c-25 -7
-70 -14 -100 -14 l-55 0 -80 78 c-76 73 -67 56 19 -35 l40 -43 -46 0 c-41 0
-46 2 -41 19 7 26 -13 85 -36 105 -29 26 -16 64 23 69 76 9 82 8 108 -28z
m-1832 -64 c153 -28 875 -169 945 -185 l60 -14 -99 -1 c-85 -1 -157 10 -540
84 -242 47 -454 88 -471 91 -16 3 -38 8 -48 11 -18 5 -18 5 0 19 23 17 29 17
153 -5z m-1819 -206 c98 -241 119 -282 156 -316 15 -14 190 -136 388 -270
l360 -243 71 -4 72 -4 196 102 c108 56 196 100 196 97 0 -2 -94 -57 -209 -121
l-208 -116 -90 0 -90 0 -619 291 c-340 160 -634 298 -652 305 -17 8 -107 30
-200 49 -165 34 -257 58 -278 72 -40 28 -43 92 -7 133 26 29 56 38 423 134
217 57 398 101 402 97 4 -3 43 -96 89 -206z m2821 195 c90 -22 140 -76 107
-116 -7 -9 -30 -24 -52 -36 -31 -15 -50 -18 -88 -13 -55 8 -59 15 -26 39 16
13 13 12 -13 -2 -23 -12 -45 -17 -65 -13 -28 6 -30 9 -33 59 -2 28 1 52 6 52
5 0 31 -7 57 -15 27 -8 51 -12 53 -10 2 2 -20 11 -49 19 -37 11 -87 15 -173
14 l-121 -2 108 -3 107 -4 0 -50 c0 -48 -1 -51 -22 -46 -13 3 -87 18 -166 33
-78 15 -140 29 -137 32 2 3 28 10 57 18 29 7 44 13 32 13 -11 1 -45 -6 -74
-15 -55 -16 -166 -12 -155 6 6 9 119 36 208 50 72 12 382 4 439 -10z m-887
-85 c98 -2 165 -11 360 -49 132 -26 247 -49 255 -52 42 -15 -137 -62 -242 -63
-32 -1 -58 -5 -58 -11 0 -5 11 -10 24 -10 13 0 37 -3 53 -6 26 -5 28 -9 25
-40 -8 -68 68 -114 183 -112 l70 1 -80 7 c-78 6 -129 24 -154 54 -17 21 -10
81 9 79 64 -7 86 -15 95 -35 6 -13 30 -34 55 -48 l45 -25 463 -3 c444 -3 462
-4 462 -22 0 -13 -72 -63 -262 -184 -145 -91 -272 -172 -283 -182 -17 -14 -16
-14 9 1 34 20 473 298 594 375 45 29 85 50 88 47 3 -3 -150 -109 -340 -236
-190 -127 -346 -237 -346 -244 0 -18 21 -37 40 -37 8 0 200 114 425 253 299
185 411 259 413 274 3 21 -38 62 -99 98 -49 28 -57 31 -30 8 l25 -20 -32 -5
c-32 -5 -49 12 -35 35 3 7 -5 0 -20 -15 -32 -34 8 -33 -631 -13 -258 8 -471
13 -473 11 -6 -5 217 -15 657 -27 212 -6 387 -13 389 -15 2 -2 16 3 32 11 37
20 40 19 33 -9 -4 -17 0 -27 13 -34 28 -17 3 -35 -30 -23 -21 8 -34 6 -69 -14
-28 -16 -46 -21 -54 -14 -7 6 -96 8 -220 6 l-209 -2 213 -3 c116 -1 212 -5
212 -9 0 -5 -99 -7 -220 -5 -127 2 -218 7 -215 12 3 5 -7 6 -22 1 -16 -4 -129
-7 -253 -6 -221 0 -226 0 -270 25 -49 27 -59 54 -41 104 19 48 54 54 256 45
99 -4 286 -8 415 -8 273 -1 430 -10 430 -24 0 -10 -143 -8 -780 10 -129 3
-226 10 -215 14 13 5 15 8 5 8 -17 1 -47 -16 -40 -22 5 -4 825 -27 968 -27 65
0 72 2 72 20 0 18 7 20 58 20 46 0 70 -7 130 -37 98 -50 114 -66 110 -111 -3
-36 -6 -38 -423 -309 -407 -264 -422 -273 -470 -273 -32 0 -45 3 -37 9 10 6 3
14 -27 27 -44 21 -49 34 -26 78 14 25 14 27 0 16 -8 -7 -18 -30 -21 -51 -5
-30 -16 -47 -46 -71 -43 -34 -60 -29 -60 16 0 60 29 85 317 268 154 97 284
184 290 192 6 10 6 19 0 25 -7 7 -158 11 -397 13 -212 2 -381 0 -375 -4 7 -4
109 -8 227 -8 l215 0 32 -52 c18 -29 42 -67 53 -84 l20 -31 -170 -107 c-167
-106 -205 -137 -216 -182 -7 -25 -30 -34 -96 -34 -37 0 -89 -19 -258 -96 -117
-52 -214 -94 -215 -92 -2 2 67 119 153 260 85 142 154 260 151 262 -2 2 -155
-38 -339 -90 -184 -52 -338 -93 -343 -91 -4 1 72 69 168 151 96 82 175 150
175 152 0 2 -62 35 -137 74 -118 59 -157 85 -265 179 l-128 109 88 7 c129 9
132 15 7 11 -60 -1 -87 0 -60 3 l50 5 -55 7 c-30 3 -12 4 40 1 52 -3 149 -6
215 -7z m2717 -34 c4 -3 -12 -5 -35 -3 -29 2 -38 0 -28 -6 9 -7 12 -19 7 -38
-4 -16 -7 -36 -8 -44 -1 -8 -23 -44 -49 -79 -27 -35 -46 -68 -42 -74 3 -6 1
-7 -5 -3 -7 4 -13 2 -13 -3 -1 -6 -2 -15 -3 -20 0 -5 -5 -13 -10 -18 -5 -5 -6
-2 -2 7 4 8 1 6 -8 -4 -8 -10 -13 -22 -11 -27 3 -4 0 -11 -6 -15 -8 -5 -10 -2
-5 7 4 8 1 5 -8 -5 -8 -10 -13 -22 -11 -27 3 -4 0 -11 -6 -15 -8 -5 -10 -2 -5
7 4 8 1 5 -8 -5 -8 -10 -13 -22 -11 -27 3 -4 0 -11 -6 -15 -8 -5 -10 -2 -4 7
4 8 -4 1 -19 -16 -14 -16 -24 -35 -21 -42 2 -6 -4 -17 -13 -25 -16 -12 -16
-11 -2 7 14 19 14 19 -3 6 -10 -8 -16 -20 -13 -27 3 -7 -3 -18 -12 -26 -16
-12 -16 -11 -2 7 14 19 14 19 -3 6 -10 -8 -16 -20 -13 -27 3 -7 -3 -18 -12
-26 -16 -12 -16 -11 -2 7 14 19 14 19 -3 6 -10 -8 -16 -20 -13 -27 3 -7 0 -16
-6 -20 -7 -5 -8 -2 -4 7 4 8 1 5 -8 -5 -8 -10 -13 -22 -11 -27 3 -4 0 -11 -6
-15 -8 -5 -10 -2 -5 7 4 8 1 5 -8 -5 -8 -10 -13 -22 -11 -27 3 -4 0 -11 -6
-15 -8 -5 -9 -3 -4 6 6 9 4 11 -4 6 -7 -5 -10 -14 -7 -21 3 -8 -3 -19 -12 -27
-16 -12 -16 -11 -2 7 14 19 14 19 -3 6 -10 -8 -16 -20 -13 -27 3 -7 -3 -18
-12 -26 -16 -12 -16 -11 -2 7 14 19 14 19 -3 6 -10 -8 -16 -20 -13 -27 5 -14
-41 -61 -50 -51 -4 3 -13 0 -20 -8 -10 -9 -22 -11 -36 -6 -12 4 -111 79 -219
167 -152 122 -195 162 -187 171 6 8 15 10 22 5 196 -150 415 -310 428 -315 10
-3 25 1 35 11 10 9 14 14 9 10 -28 -22 -67 0 -261 145 -112 83 -204 155 -205
158 0 6 116 85 156 107 20 10 32 4 112 -58 50 -39 97 -70 105 -70 14 0 234
297 244 329 2 9 -3 4 -12 -12 -13 -22 -19 -25 -35 -17 -10 5 -35 10 -54 10
-63 0 -39 20 27 22 l62 2 -55 3 c-69 5 -81 16 -51 47 29 31 23 65 -16 87 -20
12 -54 16 -123 16 -92 0 -93 0 -25 -6 l70 -6 -105 -57 -104 -56 -41 20 c-22
11 -42 23 -45 27 -3 3 -149 8 -325 10 l-320 4 -37 29 c-20 15 -42 27 -49 26
-13 -3 -19 19 -11 36 5 9 1653 -3 1664 -13z m-539 -49 c20 -18 22 -45 3 -61
-7 -6 -60 -26 -117 -44 -103 -33 -105 -33 -134 -15 -17 10 -29 21 -28 25 0 3
50 32 110 64 111 60 129 63 166 31z m-3621 -399 l373 -326 3 -44 c2 -23 0 -43
-3 -43 -8 0 -683 456 -709 479 -10 9 -27 33 -38 55 -17 33 -19 50 -13 122 4
46 9 84 11 84 1 0 171 -147 376 -327z m3253 287 c-5 -8 10 -15 18 -8 7 8 67
-46 67 -61 0 -23 -793 -515 -830 -516 -68 -1 -26 34 320 265 193 128 355 239
361 247 6 7 23 14 38 14 20 1 21 2 6 6 -11 2 -30 6 -42 9 -13 2 -23 11 -23 19
0 8 10 17 23 19 12 3 31 7 42 9 11 3 21 5 23 6 2 0 0 -3 -3 -9z m419 -77 c-93
-144 -168 -253 -174 -253 -6 0 -141 102 -173 130 -5 4 9 18 30 30 21 13 45 32
54 42 22 27 163 75 228 77 l53 1 -18 -27z m-1997 -117 c1 -1 -81 -73 -183
-160 -102 -87 -184 -160 -181 -162 2 -2 59 12 126 30 114 32 159 37 145 15 -3
-5 -10 -9 -15 -9 -6 0 -7 5 -3 11 8 14 -9 5 -142 -72 -55 -33 -104 -59 -107
-59 -4 0 -18 22 -32 50 -14 27 -39 65 -55 84 -23 25 -27 37 -18 43 7 4 82 47
168 94 l155 86 3 41 c3 37 -1 46 -35 78 l-38 35 105 -51 c58 -29 106 -53 107
-54z m1187 16 c16 -18 13 -21 -59 -65 -42 -26 -79 -47 -83 -47 -4 0 -20 19
-35 43 -15 23 -35 52 -44 65 l-15 22 109 0 c94 0 112 -3 127 -18z m-1334 -45
c0 -7 -103 -67 -229 -133 -126 -65 -227 -123 -223 -128 3 -5 0 -6 -6 -2 -11 6
-92 -28 -92 -39 0 -3 14 1 30 10 17 9 30 13 30 11 0 -11 -55 -33 -69 -28 -9 3
-11 0 -6 -8 5 -9 4 -11 -4 -6 -6 4 -95 -36 -200 -91 -104 -54 -192 -95 -195
-92 -9 9 6 109 17 109 24 0 495 214 490 223 -3 6 -1 7 5 3 6 -4 109 36 229 88
120 53 219 96 221 96 1 0 2 -6 2 -13z m477 -120 c-3 -7 -73 -125 -156 -262
-83 -137 -149 -250 -147 -252 2 -2 102 41 223 96 196 88 228 99 287 102 58 3
67 1 81 -18 14 -20 13 -23 -16 -43 -39 -28 -32 -36 16 -16 21 9 58 16 84 16
25 0 66 9 90 20 24 11 55 20 68 20 14 0 41 9 59 21 25 15 46 19 86 17 l53 -3
-29 -16 -29 -16 54 -13 c30 -7 60 -16 67 -19 7 -4 -99 -24 -235 -44 -194 -28
-294 -38 -458 -43 -228 -7 -225 -7 -315 -66 -14 -9 -79 -24 -152 -34 -105 -15
-129 -16 -142 -5 -9 8 -16 19 -16 25 0 6 86 95 192 198 170 164 191 188 178
201 -14 13 -117 43 -170 49 -13 2 50 24 140 50 183 51 194 54 187 35z m-270
-110 l102 -22 -479 -450 c-399 -376 -484 -451 -513 -456 -30 -5 -69 10 -253
93 -119 54 -219 99 -221 102 -2 2 74 47 169 101 95 54 232 134 304 177 131 77
156 90 136 66 -5 -7 -26 -65 -47 -128 l-37 -115 -98 -75 c-55 -41 -99 -78 -99
-81 -1 -4 8 -9 18 -12 13 -3 40 12 81 45 34 28 64 48 67 45 3 -3 -6 -40 -20
-81 -28 -84 -24 -97 30 -89 46 7 285 232 297 280 5 22 13 32 21 29 8 -3 18 1
24 8 8 10 5 16 -14 24 -23 11 -25 15 -19 54 4 24 14 49 23 56 9 7 28 21 43 33
l27 20 -5 -77 -6 -77 29 21 c50 36 56 48 54 121 l-1 69 192 153 c106 84 187
154 180 157 -7 2 -18 0 -25 -6 -99 -77 -325 -250 -334 -255 -9 -6 -11 5 -6 41
l5 49 -31 0 c-22 0 -28 -3 -19 -10 9 -6 8 -7 -5 -3 -18 6 -133 -52 -123 -61 3
-3 28 9 57 26 28 18 53 30 55 28 3 -2 1 -33 -3 -67 -7 -58 -11 -65 -52 -99
l-44 -36 7 73 c6 70 5 72 -13 62 -11 -5 -26 -8 -33 -5 -7 3 -22 -2 -33 -10
-19 -16 -19 -16 5 -10 19 5 22 4 10 -4 -8 -6 -24 -8 -35 -5 -17 4 -17 3 -5 -6
12 -9 11 -10 -6 -6 -11 4 -29 -1 -40 -9 -18 -15 -18 -16 6 -10 19 5 22 4 10
-4 -8 -6 -24 -8 -35 -5 -17 4 -18 3 -5 -6 13 -10 12 -11 -3 -6 -25 8 -43 -4
-26 -16 11 -7 9 -8 -4 -4 -13 4 -62 -18 -145 -65 -70 -40 -147 -83 -172 -97
-25 -14 -40 -21 -35 -15 23 24 906 524 915 518 14 -9 52 14 44 27 -4 7 -3 8 4
4 7 -4 20 -2 29 4 17 11 17 11 1 6 -10 -3 -18 -1 -18 4 0 13 -3 13 117 -13z
m1281 -75 c5 -34 7 -60 4 -57 -9 8 -81 -56 -76 -68 2 -7 -19 -31 -48 -53 l-53
-41 -205 -32 c-113 -18 -215 -34 -227 -36 -12 -2 -24 3 -27 11 -3 8 -3 14 0
14 47 0 473 76 491 87 25 17 31 28 9 20 -7 -3 17 48 53 113 36 65 67 115 68
112 2 -4 7 -35 11 -70z m-1318 44 c-8 -7 -198 -158 -422 -336 -233 -183 -405
-327 -401 -333 3 -6 1 -7 -6 -3 -7 4 -31 -9 -59 -31 -76 -62 -80 -65 -86 -55
-3 6 127 112 288 237 198 153 293 232 289 241 -11 29 8 104 29 115 20 11 21
10 14 -42 -4 -31 -14 -58 -24 -66 -9 -7 -14 -13 -10 -13 3 0 93 67 200 150
175 136 228 174 188 136z m140 -20 c0 -11 -957 -919 -975 -926 -11 -4 -41 -13
-67 -19 l-47 -11 -233 111 c-128 61 -234 112 -236 113 -12 13 29 44 146 112
75 43 152 87 170 97 17 10 32 17 32 14 0 -3 -61 -41 -136 -83 -86 -49 -140
-86 -147 -101 -5 -13 -8 -25 -6 -28 11 -10 452 -216 455 -212 3 2 -28 19 -68
37 -205 94 -382 183 -372 186 6 3 99 -36 208 -86 108 -50 202 -87 208 -84 7 4
8 2 4 -4 -4 -7 -4 -13 1 -13 75 -11 119 -6 108 12 -4 5 -3 9 2 8 13 -3 43 13
38 20 -4 8 126 142 135 138 3 -1 16 6 30 16 13 9 20 17 15 17 -5 0 19 29 54
64 36 36 67 64 71 63 3 -1 21 10 39 26 18 15 29 27 25 27 -5 0 16 25 45 54 30
30 57 54 61 53 3 -1 23 13 44 31 20 17 33 32 29 32 -4 0 15 22 41 49 27 28 52
49 56 48 4 -1 28 17 53 41 26 23 43 42 40 42 -4 0 10 18 32 40 21 21 41 37 45
35 4 -2 26 16 50 40 43 44 50 50 50 41z m-646 -275 c-3 -25 -7 -55 -9 -67 -4
-21 -252 -220 -262 -211 -9 10 58 201 76 215 9 7 15 18 13 23 -1 6 2 8 7 4 15
-9 73 24 65 37 -4 7 -3 8 4 4 13 -8 75 21 68 32 -2 4 7 8 20 8 22 2 23 -1 18
-45z m1190 -40 c4 -5 33 -111 66 -236 68 -258 76 -336 38 -356 -17 -9 -81 -10
-243 -6 -419 13 -540 15 -510 12 17 -3 200 -12 408 -20 402 -18 406 -17 408
29 1 19 2 18 8 -4 4 -14 5 -36 1 -50 -5 -20 -15 -27 -54 -34 -38 -7 -50 -5
-65 9 -16 14 -22 14 -39 4 -17 -10 -23 -10 -36 0 -13 11 -19 11 -31 1 -11 -9
-19 -10 -26 -3 -7 7 -34 9 -67 6 -85 -8 -585 27 -594 40 -6 9 -8 9 -8 1 0 -7
8 -22 19 -35 21 -26 58 -29 566 -52 242 -12 275 -15 240 -25 -32 -9 -127 -7
-438 7 -438 21 -437 21 -437 84 0 41 187 558 210 581 11 11 22 18 24 15 3 -2
-37 -121 -89 -264 -52 -143 -94 -269 -94 -280 1 -16 3 -14 8 5 13 52 144 410
149 406 2 -3 -26 -91 -63 -196 -66 -185 -67 -192 -50 -208 18 -16 18 -16 6 0
-11 15 1 56 78 275 51 141 89 263 87 270 -3 7 -2 12 2 11 4 -1 14 2 22 5 33
14 496 21 504 8z m-1208 -126 c-5 -19 -12 -25 -28 -23 -31 4 -33 -17 -2 -31
23 -10 25 -15 19 -47 -5 -28 -26 -55 -98 -123 -134 -127 -158 -147 -193 -154
-18 -3 -34 -4 -37 -1 -3 3 9 47 26 99 l32 93 140 110 c77 61 141 109 143 107
3 -2 1 -16 -2 -30z m889 -529 c110 -6 202 -8 203 -4 2 5 10 8 18 8 9 0 13 -4
10 -9 -8 -12 32 -17 141 -16 51 0 88 -4 84 -8 -5 -5 -58 -6 -117 -4 -60 3
-131 6 -159 6 -176 3 -557 29 -568 40 -10 10 9 11 88 6 55 -4 190 -12 300 -19z"/>
<path d="M1550 2139 c-278 -43 -508 -78 -512 -79 -14 0 -8 -41 26 -189 18 -80
37 -146 43 -148 12 -4 1095 295 1104 305 3 4 -13 49 -37 100 l-44 92 -38 -1
c-20 -1 -264 -36 -542 -80z m614 -14 c21 -47 36 -88 33 -91 -6 -6 -1065 -303
-1082 -304 -11 0 -81 307 -72 316 8 9 709 115 722 110 5 -2 1 -5 -11 -5 -18
-1 -25 -17 -54 -121 -18 -67 -30 -123 -27 -126 6 -7 77 14 90 26 7 6 56 199
57 222 0 3 -8 8 -17 10 -20 4 232 45 287 47 35 1 36 0 74 -84z m-359 3 c-31
-135 -45 -191 -47 -193 -9 -6 -72 -25 -75 -21 -3 3 24 111 53 208 5 16 22 25
57 27 13 1 16 -4 12 -21z"/>
<path d="M1580 2120 c-19 -4 -52 -11 -72 -14 -36 -7 -39 -10 -103 -143 -36
-75 -65 -139 -65 -144 0 -7 213 45 239 59 7 4 30 63 51 130 l38 122 -27 -1
c-14 -1 -42 -5 -61 -9z m70 -7 c0 -5 -15 -57 -34 -117 l-33 -109 -104 -28
c-57 -16 -109 -29 -116 -29 -8 0 89 223 112 258 2 3 135 29 158 31 9 0 17 -2
17 -6z"/>
<path d="M2180 1858 c0 -10 -8 -18 -17 -18 -13 0 -6 -11 24 -42 l41 -41 64 18
c95 26 96 27 49 64 -41 32 -42 33 -92 21 -43 -10 -53 -10 -60 1 -7 11 -9 10
-9 -3z"/>
<path d="M2095 1824 c-5 -1 -54 -12 -107 -24 -54 -12 -98 -25 -98 -30 0 -5 21
-26 46 -46 l46 -38 61 17 c47 12 63 13 69 4 5 -8 8 -7 8 4 0 9 13 20 29 25
l29 9 -36 41 c-21 22 -41 40 -47 38z m42 -46 l26 -27 -27 -10 c-14 -6 -55 -18
-90 -28 l-64 -17 -41 33 c-23 19 -40 36 -37 39 10 9 151 40 179 39 16 -1 38
-13 54 -29z"/>
<path d="M2340 1754 c-25 -8 -51 -16 -59 -19 -11 -4 -3 -18 28 -49 l43 -44 51
23 c28 13 53 22 56 21 3 -2 11 2 18 9 10 11 5 20 -23 44 -38 34 -48 35 -114
15z"/>
<path d="M2091 1682 l-84 -27 54 -49 c30 -26 57 -58 61 -70 4 -14 6 -16 7 -5
1 21 98 63 105 46 2 -7 5 -5 5 4 1 9 13 21 27 28 l26 12 -38 43 c-22 24 -48
44 -59 44 -11 0 -58 -12 -104 -26z m114 10 c-18 -12 -75 -107 -67 -110 10 -3
122 45 122 53 0 2 -25 -6 -55 -20 -30 -13 -55 -22 -55 -19 0 14 51 78 64 80 8
1 26 -10 41 -25 l26 -28 -71 -31 c-38 -18 -74 -32 -78 -32 -4 0 -30 20 -57 44
-56 49 -58 44 42 76 60 19 106 25 88 12z"/>
<path d="M1400 1667 c-68 -15 -126 -30 -128 -32 -4 -4 56 -60 103 -97 l26 -20
112 32 c62 18 117 35 123 39 6 3 -16 28 -50 57 l-61 50 -125 -29z m209 -79
c-12 -5 -27 -7 -33 -4 -6 2 -3 5 7 5 26 1 21 15 -22 49 l-39 32 -42 -51 c-24
-27 -40 -52 -37 -56 3 -3 29 0 57 7 81 20 67 6 -20 -19 l-79 -23 -38 30 c-39
31 -79 71 -72 73 2 0 56 13 119 28 l115 27 53 -45 c51 -43 53 -45 31 -53z"/>
<path d="M2461 1624 l-54 -25 46 -47 c41 -42 87 -63 87 -40 0 4 18 20 40 34
22 15 40 29 40 33 -1 9 -85 71 -96 71 -5 -1 -33 -12 -63 -26z"/>
<path d="M1847 1612 l-88 -26 68 -68 c37 -37 71 -68 76 -68 16 0 177 73 177
81 0 14 -112 109 -128 108 -9 -1 -57 -13 -105 -27z m175 -31 l53 -49 -70 -31
c-107 -49 -102 -49 -170 19 -33 33 -57 60 -55 61 3 0 39 11 80 24 41 12 83 23
92 24 9 1 40 -21 70 -48z"/>
<path d="M2261 1536 l-83 -42 33 -28 c19 -16 39 -40 46 -55 7 -14 12 -20 13
-12 0 11 4 10 19 -3 18 -16 22 -15 90 28 39 25 71 48 71 52 0 12 -84 104 -94
103 -6 0 -49 -19 -95 -43z m142 -10 c20 -25 37 -47 37 -49 0 -3 -30 -23 -66
-46 l-65 -41 -55 47 c-29 27 -54 50 -54 53 0 7 141 79 155 79 6 1 27 -19 48
-43z"/>
<path d="M1630 1551 c-8 -5 -51 -19 -95 -31 -44 -13 -84 -26 -88 -30 -5 -4 32
-41 82 -81 49 -41 90 -81 91 -89 0 -11 2 -12 8 -3 4 7 53 32 107 56 55 24 100
48 100 54 0 6 -33 38 -73 72 -71 59 -100 70 -132 52z m128 -58 c39 -32 71 -61
71 -64 2 -12 -198 -91 -211 -83 -7 4 -48 37 -91 73 l-78 65 108 32 c59 18 113
33 120 33 6 1 43 -25 81 -56z"/>
<path d="M2621 1543 c-30 -12 -282 -204 -279 -212 7 -19 79 -91 90 -91 22 1
391 165 394 175 3 11 -156 129 -178 132 -7 1 -20 -1 -27 -4z m106 -55 c38 -29
71 -57 72 -63 2 -5 -30 -22 -71 -37 -87 -32 -88 -32 -88 -13 0 8 -3 15 -7 15
-5 1 -25 16 -45 34 l-38 33 22 19 c12 10 19 14 15 8 -7 -13 84 -94 105 -94 7
1 24 7 37 14 24 13 23 14 -48 56 -70 40 -72 42 -55 61 9 10 20 19 24 19 3 0
38 -24 77 -52z m-157 8 c0 -2 -24 -23 -52 -46 -29 -23 -52 -45 -51 -48 1 -4
-11 -20 -27 -37 -28 -30 -28 -30 -10 -52 10 -13 29 -23 42 -23 18 0 20 2 8 9
-8 6 -18 7 -24 4 -5 -3 -6 -1 -2 6 4 6 3 17 -2 24 -8 9 4 25 43 60 59 52 68
52 113 4 l23 -24 -80 -29 c-49 -17 -75 -31 -68 -36 7 -4 19 -8 27 -8 13 0 13
1 0 10 -11 8 -7 9 15 4 24 -4 27 -3 15 6 -12 9 -10 10 10 5 20 -5 22 -4 10 5
-12 8 -8 9 15 4 23 -4 26 -3 15 5 -18 12 -1 15 18 2 9 -5 -2 -14 -35 -26 -26
-10 -70 -29 -98 -42 l-49 -23 -38 37 c-21 21 -37 41 -35 46 2 7 204 163 215
166 1 1 2 -1 2 -3z"/>
<path d="M2115 1472 c-6 -5 -39 -21 -75 -36 -36 -16 -69 -32 -73 -36 -5 -4 24
-39 64 -77 l73 -70 78 49 c43 27 84 46 89 42 6 -4 9 0 7 8 -4 18 -128 128
-143 128 -6 0 -15 -4 -20 -8z m89 -53 c32 -29 54 -55 49 -60 -5 -5 -41 -29
-80 -53 l-70 -43 -68 66 c-37 36 -63 67 -59 68 5 2 43 19 84 38 41 18 77 34
81 34 3 1 31 -22 63 -50z"/>
<path d="M1800 1329 c-58 -26 -105 -51 -105 -57 0 -5 40 -43 90 -84 l89 -75
98 60 c74 45 96 63 88 72 -6 7 -43 40 -83 72 l-72 59 -105 -47z m254 -88 c2
-3 -37 -31 -88 -62 l-92 -56 -86 71 c-48 39 -87 73 -87 76 -1 3 45 26 102 51
l102 45 73 -60 c40 -33 75 -62 76 -65z"/>
<path d="M3510 718 c-96 -6 -178 -13 -181 -16 -12 -13 -149 -405 -144 -410 3
-3 75 -10 160 -15 85 -6 155 -14 155 -19 0 -4 -10 -8 -22 -8 -25 0 -63 -20
-40 -20 8 0 10 -5 6 -12 -6 -10 -4 -10 7 -2 25 19 68 25 109 14 99 -27 -8 -64
-110 -39 -8 2 -18 11 -22 19 -5 12 -7 12 -7 -3 -1 -27 63 -50 118 -44 25 3 47
10 49 16 2 6 7 9 12 6 4 -3 14 2 21 11 11 14 10 19 -10 35 -13 11 -35 19 -49
19 -14 0 -23 3 -20 6 3 3 90 0 192 -7 102 -7 188 -10 191 -7 5 4 -54 252 -106
451 l-10 37 -62 -2 c-34 0 -141 -5 -237 -10z m263 -25 c-3 -22 -2 -24 5 -9 7
15 14 0 30 -67 22 -87 30 -245 16 -316 -6 -29 -9 -31 -50 -31 -33 0 -44 4 -44
15 0 9 9 90 20 182 12 91 19 173 18 182 -2 9 -15 -75 -28 -186 l-24 -203 -30
0 c-17 0 -41 3 -52 6 -21 6 -21 8 33 221 44 173 52 217 41 224 -8 6 2 9 28 9
39 0 41 -1 37 -27z m86 -198 c28 -116 54 -218 57 -227 5 -15 -1 -18 -39 -18
l-44 0 4 138 c5 123 3 147 -20 236 -14 54 -22 95 -18 90 5 -5 32 -103 60 -219z
m-153 181 c-4 -12 -27 -104 -53 -206 -25 -102 -47 -186 -48 -187 -3 -5 -377
26 -382 31 -3 3 7 42 23 86 23 68 40 95 103 168 42 49 83 97 90 108 14 17 13
18 -1 4 -49 -46 -172 -198 -180 -223 -6 -15 -12 -26 -14 -24 -4 4 49 158 79
229 l14 34 187 0 c186 1 188 1 182 -20z"/>
</g>
</svg>
