<?xml version="1.0" encoding="utf-8"?>
<!-- Generator: Adobe Illustrator 23.0.5, SVG Export Plug-In . SVG Version: 6.00 Build 0)  -->
<svg version="1.1" id="Layer_1" xmlns="http://www.w3.org/2000/svg" xmlns:xlink="http://www.w3.org/1999/xlink" x="0px" y="0px"
	 viewBox="0 0 500 500" style="enable-background:new 0 0 500 500;" xml:space="preserve">
<style type="text/css">
	.st0{fill:#E3E4E6;}
	.st1{font-family:'Bebas';}
	.st2{font-size:88.0856px;}
	.st3{fill:#FFFFFF;}
	.st4{fill:#E6E7E8;}
	.st5{fill:#DEDFE0;}
	.st6{fill:#DADBDC;}
	.st7{opacity:0.1;fill:#FFFFFF;}
	.st8{opacity:0.1;}
	.st9{fill-rule:evenodd;clip-rule:evenodd;fill:#999999;}
	.st10{fill:#999999;}
	.st11{fill:#808080;}
	.st12{fill:#A0A2A4;}
	.st13{opacity:0.4;fill:#FFFFFF;}
	.st14{opacity:0.2;fill:#FFFFFF;}
</style>
<g>
	<g>
		<text transform="matrix(0.9845 -0.1756 0.1756 0.9845 255.0945 146.1217)" class="st0 st1 st2">@</text>
	</g>
</g>
<path class="st3" d="M363.13,95.15c41.87-4.17,79.01,24.56,82.95,64.17c1.56,15.64-2.3,30.65-10.12,43.33
	c-0.36,0.59-0.76,1.15-1.13,1.73l8.95,42.66l-25.95-24.38c-11.21,8.63-25.06,14.4-40.44,15.93c-41.87,4.17-79.01-24.56-82.95-64.17
	C290.51,134.8,321.26,99.31,363.13,95.15z"/>
<path class="st3" d="M479.52,197.16l0.18-1.71l-2.14-0.22c-0.01-0.33-0.03-0.66-0.08-0.98l2.06-0.59l-0.47-1.65l-2.06,0.59
	c-0.13-0.31-0.28-0.6-0.45-0.88l1.69-1.32l-1.06-1.36l-1.69,1.32c-0.23-0.23-0.48-0.45-0.74-0.65l1.07-1.86l-1.49-0.86l-1.07,1.86
	c-0.45-0.19-0.93-0.34-1.42-0.43l0.32-2.07l-1.7-0.26l-0.34,2.22c-0.5,0.03-0.98,0.11-1.45,0.23l-0.8-1.99l-1.6,0.65l0.8,1.99
	c-0.29,0.16-0.57,0.34-0.83,0.54l-1.49-1.55l-1.24,1.2l1.49,1.55c-0.21,0.25-0.4,0.53-0.57,0.81l-1.96-0.87l-0.7,1.57l1.96,0.87
	c-0.1,0.31-0.17,0.63-0.22,0.96l-2.15-0.07l-0.06,1.72l2.15,0.08c0.03,0.33,0.08,0.66,0.15,0.97l-2.02,0.74l0.59,1.62l2.02-0.73
	c0.15,0.29,0.32,0.58,0.51,0.85l-1.6,1.44l1.15,1.28l1.6-1.44c0.25,0.22,0.51,0.41,0.79,0.6l-0.94,1.93l1.55,0.75l0.94-1.93
	c0.31,0.11,0.63,0.19,0.95,0.26l-0.15,2.14l1.72,0.12l0.15-2.14c0.33-0.02,0.66-0.06,0.98-0.12l0.66,2.04l1.64-0.53l-0.66-2.04
	c0.3-0.14,0.59-0.3,0.86-0.48l1.38,1.65l1.32-1.11l-1.38-1.65c0.22-0.24,0.43-0.5,0.62-0.77l1.9,1.01l0.81-1.52l-1.9-1.01
	c0.12-0.31,0.21-0.62,0.29-0.94L479.52,197.16z M470.51,198.78c-1.92,0-3.47-1.56-3.47-3.47c0-1.92,1.55-3.47,3.47-3.47
	c1.92,0,3.47,1.55,3.47,3.47C473.98,197.23,472.42,198.78,470.51,198.78z"/>
<path class="st4" d="M264.08,211.15l0.85-8.13l-10.15-1.07c-0.03-1.59-0.16-3.15-0.4-4.67l9.8-2.81l-2.25-7.85l-9.8,2.81
	c-0.61-1.45-1.33-2.84-2.13-4.18l8.03-6.28l-5.03-6.44l-8.04,6.28c-1.11-1.11-2.29-2.13-3.54-3.08l5.1-8.83l-7.07-4.09l-5.1,8.83
	c-2.14-0.91-4.41-1.6-6.75-2.05l1.53-9.82l-8.08-1.26l-1.63,10.51c-2.36,0.13-4.66,0.5-6.87,1.09l-3.82-9.46l-7.58,3.07l3.82,9.45
	c-1.37,0.76-2.68,1.62-3.93,2.56l-7.09-7.34l-5.88,5.68l7.08,7.34c-0.98,1.21-1.88,2.49-2.69,3.84l-9.31-4.15l-3.33,7.46l9.31,4.15
	c-0.45,1.48-0.81,3.01-1.06,4.57l-10.19-0.36l-0.29,8.16l10.2,0.36c0.14,1.58,0.38,3.12,0.73,4.62l-9.59,3.49l2.8,7.68l9.58-3.49
	c0.71,1.4,1.52,2.74,2.42,4.01l-7.59,6.82l5.47,6.08l7.59-6.83c1.17,1.02,2.42,1.97,3.74,2.82l-4.47,9.17l7.35,3.58l4.47-9.17
	c1.47,0.51,2.98,0.92,4.53,1.22l-0.71,10.17l8.15,0.57l0.71-10.17c1.58-0.08,3.14-0.27,4.65-0.57l3.15,9.7l7.77-2.53l-3.15-9.7
	c1.43-0.66,2.79-1.43,4.1-2.28l6.56,7.82l6.26-5.25l-6.56-7.82c1.07-1.15,2.05-2.36,2.95-3.64l9.01,4.79l3.84-7.22l-9-4.79
	c0.56-1.45,1.01-2.94,1.36-4.48L264.08,211.15z M221.28,218.86c-9.1,0-16.48-7.38-16.48-16.48c0-9.11,7.38-16.48,16.48-16.48
	c9.1,0,16.48,7.37,16.48,16.48C237.76,211.47,230.38,218.86,221.28,218.86z"/>
<path class="st3" d="M320.94,324.05l0.31-2.95l-3.68-0.39c-0.01-0.58-0.06-1.14-0.15-1.69l3.56-1.02l-0.82-2.85l-3.55,1.02
	c-0.22-0.52-0.48-1.03-0.77-1.51l2.91-2.28l-1.83-2.34l-2.91,2.28c-0.4-0.4-0.83-0.77-1.28-1.12l1.85-3.2l-2.57-1.48l-1.85,3.2
	c-0.78-0.33-1.6-0.58-2.45-0.75l0.55-3.56l-2.93-0.46l-0.59,3.81c-0.86,0.05-1.69,0.18-2.49,0.4l-1.39-3.43l-2.75,1.11l1.39,3.43
	c-0.5,0.28-0.97,0.59-1.42,0.93l-2.57-2.66l-2.13,2.06l2.57,2.66c-0.35,0.44-0.68,0.9-0.98,1.39l-3.38-1.5l-1.21,2.71l3.38,1.5
	c-0.16,0.54-0.29,1.09-0.38,1.66l-3.7-0.13l-0.1,2.96l3.7,0.13c0.05,0.57,0.14,1.13,0.26,1.68l-3.48,1.27l1.02,2.79l3.48-1.26
	c0.26,0.51,0.55,0.99,0.88,1.46l-2.75,2.47l1.99,2.2l2.75-2.48c0.42,0.37,0.88,0.71,1.36,1.02l-1.62,3.32l2.66,1.3l1.62-3.33
	c0.53,0.18,1.08,0.33,1.64,0.44l-0.26,3.69l2.96,0.21l0.26-3.69c0.57-0.03,1.14-0.1,1.69-0.21l1.14,3.52l2.82-0.92l-1.14-3.52
	c0.52-0.24,1.01-0.52,1.49-0.83l2.38,2.84l2.27-1.9l-2.38-2.83c0.39-0.42,0.74-0.86,1.07-1.32l3.27,1.74l1.39-2.62l-3.27-1.74
	c0.2-0.52,0.37-1.07,0.49-1.62L320.94,324.05z M305.41,326.85c-3.3,0-5.98-2.68-5.98-5.98c0-3.3,2.68-5.98,5.98-5.98
	c3.3,0,5.98,2.67,5.98,5.98C311.39,324.17,308.71,326.85,305.41,326.85z"/>
<path class="st3" d="M375.83,99.66l0.43-4.12L371.12,95c-0.01-0.8-0.08-1.59-0.2-2.37l4.97-1.42l-1.14-3.98l-4.96,1.42
	c-0.31-0.73-0.67-1.44-1.08-2.12l4.07-3.18l-2.55-3.26l-4.07,3.18c-0.56-0.56-1.16-1.08-1.8-1.56l2.58-4.48l-3.58-2.07l-2.58,4.47
	c-1.09-0.46-2.23-0.81-3.42-1.04l0.77-4.98l-4.09-0.64l-0.83,5.33c-1.2,0.07-2.36,0.25-3.48,0.55l-1.94-4.79l-3.84,1.55l1.94,4.79
	c-0.69,0.39-1.36,0.82-1.99,1.3L340.3,78l-2.98,2.88l3.59,3.72c-0.5,0.61-0.96,1.26-1.37,1.94l-4.72-2.1l-1.69,3.78l4.72,2.1
	c-0.23,0.75-0.41,1.52-0.54,2.31l-5.16-0.18l-0.14,4.14l5.17,0.18c0.07,0.8,0.19,1.58,0.37,2.34l-4.86,1.77l1.42,3.89l4.86-1.77
	c0.36,0.71,0.77,1.39,1.22,2.03l-3.84,3.46l2.77,3.08l3.84-3.46c0.59,0.52,1.23,1,1.89,1.43l-2.27,4.65l3.72,1.81l2.26-4.65
	c0.74,0.26,1.51,0.46,2.29,0.62l-0.36,5.15l4.13,0.29l0.36-5.15c0.8-0.04,1.59-0.14,2.36-0.29l1.59,4.91l3.94-1.28l-1.6-4.91
	c0.72-0.34,1.41-0.72,2.08-1.15l3.32,3.96l3.17-2.66l-3.33-3.96c0.54-0.58,1.04-1.2,1.5-1.85l4.57,2.43l1.94-3.66l-4.56-2.43
	c0.28-0.73,0.51-1.49,0.69-2.27L375.83,99.66z M354.14,103.56c-4.61,0-8.35-3.74-8.35-8.35c0-4.62,3.74-8.35,8.35-8.35
	c4.61,0,8.35,3.74,8.35,8.35C362.49,99.82,358.75,103.56,354.14,103.56z"/>
<path class="st5" d="M301.9,212.81l0.37-3.57l-4.45-0.47c-0.01-0.7-0.07-1.38-0.17-2.05l4.3-1.23l-0.99-3.45l-4.3,1.23
	c-0.27-0.64-0.58-1.25-0.94-1.83l3.52-2.75l-2.21-2.83l-3.53,2.76c-0.48-0.49-1-0.94-1.55-1.35l2.24-3.87l-3.1-1.79l-2.24,3.87
	c-0.94-0.4-1.93-0.7-2.96-0.9l0.67-4.31l-3.54-0.55l-0.72,4.61c-1.04,0.06-2.05,0.22-3.01,0.48l-1.68-4.15l-3.32,1.34l1.68,4.15
	c-0.6,0.34-1.18,0.71-1.72,1.12l-3.11-3.22l-2.58,2.49l3.11,3.22c-0.43,0.53-0.83,1.09-1.18,1.68l-4.09-1.82l-1.46,3.27l4.09,1.82
	c-0.2,0.65-0.36,1.32-0.46,2l-4.47-0.16l-0.13,3.58l4.47,0.16c0.06,0.69,0.17,1.37,0.32,2.03l-4.21,1.53l1.23,3.37l4.21-1.53
	c0.31,0.61,0.67,1.2,1.06,1.76l-3.33,2.99l2.4,2.67l3.33-3c0.51,0.45,1.07,0.86,1.64,1.24l-1.96,4.02l3.22,1.57l1.96-4.02
	c0.64,0.22,1.31,0.4,1.99,0.53l-0.31,4.46l3.58,0.25l0.31-4.46c0.69-0.04,1.38-0.12,2.04-0.25l1.38,4.25l3.41-1.11l-1.38-4.25
	c0.63-0.29,1.22-0.63,1.8-1l2.88,3.43l2.75-2.3l-2.88-3.43c0.47-0.5,0.9-1.04,1.29-1.6l3.95,2.1l1.68-3.17l-3.95-2.1
	c0.24-0.64,0.44-1.29,0.6-1.96L301.9,212.81z M283.13,216.19c-3.99,0-7.23-3.24-7.23-7.23c0-4,3.24-7.23,7.23-7.23
	c3.99,0,7.23,3.24,7.23,7.23C290.36,212.95,287.12,216.19,283.13,216.19z"/>
<path class="st6" d="M335.42,239.74l0.23-2.22l-2.77-0.29c-0.01-0.43-0.04-0.86-0.11-1.28l2.68-0.77l-0.61-2.15l-2.68,0.77
	c-0.17-0.39-0.36-0.78-0.58-1.14l2.2-1.71l-1.38-1.76l-2.2,1.72c-0.3-0.3-0.63-0.58-0.97-0.84l1.39-2.41l-1.93-1.12l-1.39,2.41
	c-0.58-0.25-1.2-0.44-1.84-0.56l0.42-2.68l-2.21-0.34l-0.45,2.87c-0.65,0.03-1.27,0.14-1.87,0.3l-1.05-2.58l-2.07,0.84l1.04,2.58
	c-0.37,0.21-0.73,0.44-1.07,0.7l-1.94-2.01l-1.61,1.55l1.94,2.01c-0.27,0.33-0.52,0.68-0.74,1.05l-2.54-1.13l-0.91,2.04l2.54,1.13
	c-0.13,0.41-0.22,0.82-0.29,1.25l-2.78-0.1l-0.08,2.23l2.79,0.1c0.04,0.43,0.1,0.85,0.2,1.26l-2.62,0.95l0.77,2.1l2.62-0.95
	c0.19,0.38,0.42,0.75,0.66,1.1l-2.07,1.86l1.5,1.66l2.07-1.87c0.32,0.28,0.66,0.54,1.02,0.77l-1.22,2.5l2.01,0.98l1.22-2.5
	c0.4,0.14,0.81,0.25,1.24,0.33l-0.2,2.78l2.23,0.16l0.19-2.78c0.43-0.02,0.86-0.08,1.27-0.16l0.86,2.65l2.12-0.69l-0.86-2.65
	c0.39-0.18,0.76-0.39,1.12-0.62l1.79,2.14l1.71-1.43l-1.79-2.14c0.29-0.31,0.56-0.65,0.81-0.99l2.46,1.31l1.05-1.97l-2.46-1.31
	c0.15-0.4,0.28-0.8,0.37-1.22L335.42,239.74z M323.72,241.85c-2.49,0-4.5-2.02-4.5-4.5c0-2.49,2.02-4.5,4.5-4.5
	c2.49,0,4.5,2.01,4.5,4.5C328.23,239.83,326.21,241.85,323.72,241.85z"/>
<path class="st0" d="M285.24,229.79c-24.87-4.61-48.2,8.79-52.12,29.93c-1.55,8.35,0.17,16.66,4.34,23.94
	c0.19,0.34,0.41,0.66,0.61,0.99l-7.04,22.5l16.47-11.68c6.36,5.28,14.41,9.18,23.54,10.87c24.87,4.61,48.2-8.79,52.12-29.93
	C327.08,255.27,310.1,234.4,285.24,229.79z"/>
<g>
	<polygon class="st3" points="150.99,476.05 132.8,491.79 63.5,450.96 72.73,435.29 	"/>
	<polygon class="st7" points="74.25,436 72.79,435.24 63.56,450.91 132.85,491.75 136.74,488.38 67.44,447.55 	"/>
	<path class="st7" d="M63.5,450.96l21.11,12.44c6.6-3.3,12.53-7.49,17.08-10.68c0.64-0.45,1.28-0.9,1.92-1.34l-30.88-16.09
		L63.5,450.96z"/>
	<path class="st3" d="M40.44,453.79c4.87,5.63,6.16,12.5,2.87,15.35c-3.29,2.85-9.91,0.59-14.78-5.04
		c-4.87-5.63-6.16-12.5-2.87-15.35C28.95,445.9,35.56,448.16,40.44,453.79z"/>
	
		<rect x="31.14" y="440.2" transform="matrix(0.7561 -0.6544 0.6544 0.7561 -287.0089 137.1836)" class="st3" width="18.84" height="26.96"/>
	
		<rect x="37.89" y="458.31" transform="matrix(0.7561 -0.6544 0.6544 0.7561 -290.4664 143.5032)" class="st7" width="18.84" height="6.33"/>
	<path class="st3" d="M152.5,356.43c8.45,9.76,7.39,24.53-2.38,32.98c-9.76,8.45-24.53,7.39-32.98-2.37
		c-8.45-9.77-7.39-24.53,2.38-32.99C129.29,345.6,144.05,346.66,152.5,356.43z"/>
	<path class="st7" d="M145.27,383.8c-8.81,7.63-21.69,7.5-30.33,0.23c0.65,1.04,1.38,2.04,2.21,3c8.45,9.76,23.22,10.83,32.98,2.37
		c9.76-8.45,10.83-23.22,2.38-32.98c-0.83-0.96-1.72-1.83-2.65-2.61C155.81,363.41,154.08,376.18,145.27,383.8z"/>
	<g>
		<g>
			<path class="st3" d="M40.14,454.1C39.94,453.89,40.41,454.42,40.14,454.1L40.14,454.1z"/>
		</g>
		<g>
			<path class="st3" d="M94.16,312.86c-2.88,7.3-2.73,16-4.75,23.34c-6.01,22.52-19.25,43.13-36.05,60.93
				c-11.23,12.04-32.92,34.85-13.23,56.98c19.18,22.57,44.78,4.26,58.26-5.19c19.95-14.17,42.2-24.41,65.34-27.25
				c7.55-0.98,16.14,0.37,23.77-1.46L94.16,312.86z"/>
		</g>
	</g>
	<g class="st8">
		<path class="st3" d="M154.82,405.9c-23.14,2.83-45.39,13.08-65.34,27.25c-13.14,9.21-37.79,26.84-56.79,6.82
			c0.94,4.67,3.25,9.42,7.45,14.14c19.18,22.57,44.78,4.26,58.26-5.19c19.95-14.17,42.2-24.41,65.34-27.25
			c7.55-0.98,16.14,0.37,23.77-1.46l-13.1-15.05C167.92,405.86,161.02,405.1,154.82,405.9z"/>
	</g>
	<g class="st8">
		<path class="st3" d="M187.51,420.2L94.16,312.86c-1.35,3.42-2.03,7.14-2.58,10.89l84.79,97.5
			C180.15,421.22,183.93,421.06,187.51,420.2z"/>
	</g>
	<path class="st3" d="M151.73,475.26c0.7,0.81,0.62,2.04-0.2,2.75l-20.63,17.86c-0.81,0.7-2.04,0.62-2.75-0.2l-3.97-4.59
		c-0.7-0.81-0.61-2.04,0.2-2.75l20.63-17.86c0.81-0.7,2.04-0.61,2.75,0.2L151.73,475.26z"/>
	<path class="st7" d="M131.06,492.73c-0.81,0.71-2.04,0.62-2.75-0.2l-3.75-4.34l-0.16,0.14c-0.81,0.7-0.9,1.93-0.2,2.75l3.97,4.59
		c0.7,0.81,1.94,0.9,2.75,0.2l20.63-17.86c0.81-0.7,0.9-1.93,0.2-2.75l-0.21-0.25L131.06,492.73z"/>
	<g>
		<path class="st3" d="M51.87,398.72c-0.72,0.77-1.48,1.59-2.26,2.44l44.13,50.98c0.95-0.65,1.86-1.28,2.73-1.89L51.87,398.72z"/>
	</g>
	<g>
		<path class="st3" d="M56.75,393.46c-0.72,0.78-1.47,1.59-2.25,2.44l45.13,52.15c0.95-0.65,1.86-1.28,2.73-1.89L56.75,393.46z"/>
	</g>
	<path class="st3" d="M193.73,419.94c0.7,0.82,0.61,2.04-0.2,2.75l-4.42,3.83c-0.81,0.7-2.04,0.61-2.75-0.2L88.19,312.9
		c-0.71-0.81-0.62-2.04,0.2-2.75l4.42-3.83c0.82-0.7,2.04-0.62,2.75,0.2L193.73,419.94z"/>
</g>
<path class="st3" d="M418.14,307.64l-67.76-51.24l-5.06-3.82l-3.83,5.06L311,297.96l-3.82,5.06l5.05,3.82L380,358.08l5.06,3.83
	l3.82-5.06l30.5-40.33l3.83-5.06L418.14,307.64z M407.84,307.79l-40.39-3.53l-14.41-37.9L407.84,307.79z M316.06,301.79l29.06-38.43
	l17.82,46.87l49.95,4.37l-29.06,38.43L316.06,301.79z"/>
<g>
	
		<rect x="394.75" y="118.33" transform="matrix(0.32 -0.9474 0.9474 0.32 152.3392 508.8321)" class="st9" width="71.78" height="59.92"/>
	<path class="st10" d="M447.45,98.5c7.96,2.69,11.34,14,7.55,25.22l2.58,0.87c4.27-12.64,0.11-25.51-9.27-28.68
		c-9.38-3.17-20.49,4.54-24.76,17.19l2.58,0.87C429.94,102.76,439.5,95.82,447.45,98.5z"/>
</g>
<path class="st3" d="M292.16,217.71c0.22,1.41-0.73,2.73-2.14,2.96l-67.32,10.73c-1.41,0.22-2.73-0.74-2.96-2.14l-15.75-98.87
	c-0.22-1.41,0.74-2.73,2.14-2.96l67.32-10.73c1.41-0.22,2.73,0.74,2.96,2.14L292.16,217.71z"/>
<path class="st11" d="M282.17,204.59c0.18,1.11-0.58,2.15-1.69,2.33l-52.99,8.44c-1.11,0.18-2.15-0.58-2.33-1.69l-12.4-77.81
	c-0.18-1.11,0.58-2.15,1.69-2.33l52.98-8.44c1.11-0.18,2.15,0.58,2.33,1.69L282.17,204.59z"/>
<path class="st3" d="M259.94,217.32c0.43,2.68-1.4,5.19-4.07,5.62c-2.67,0.43-5.19-1.4-5.62-4.07c-0.43-2.67,1.4-5.19,4.07-5.62
	C257,212.82,259.51,214.64,259.94,217.32z"/>
<path class="st3" d="M257.01,217.79c0.17,1.06-0.55,2.05-1.61,2.22c-1.06,0.17-2.05-0.55-2.22-1.61c-0.17-1.06,0.55-2.05,1.61-2.22
	C255.85,216.01,256.84,216.73,257.01,217.79z"/>
<path class="st3" d="M241.71,125.52c0.12,0.74-0.38,1.43-1.12,1.55c-0.74,0.12-1.43-0.39-1.55-1.12c-0.12-0.74,0.39-1.43,1.12-1.55
	C240.91,124.28,241.6,124.78,241.71,125.52z"/>
<rect x="220.3" y="137.88" transform="matrix(0.9875 -0.1573 0.1573 0.9875 -19.2142 38.2061)" class="st3" width="22.82" height="5.16"/>
<rect x="221.54" y="145.7" transform="matrix(0.9875 -0.1573 0.1573 0.9875 -20.4269 38.4943)" class="st3" width="22.82" height="5.16"/>
<rect x="222.79" y="153.52" transform="matrix(0.9875 -0.1574 0.1574 0.9875 -21.6458 38.7971)" class="st3" width="22.82" height="5.16"/>
<rect x="224.03" y="161.34" transform="matrix(0.9875 -0.1574 0.1574 0.9875 -22.863 39.095)" class="st3" width="22.82" height="5.16"/>
<rect x="225.28" y="169.16" transform="matrix(0.9875 -0.1573 0.1573 0.9875 -24.0733 39.3788)" class="st3" width="22.82" height="5.16"/>
<rect x="228.28" y="177.31" transform="matrix(0.9875 -0.1573 0.1573 0.9875 -26.7441 41.7044)" class="st3" width="43.51" height="24.92"/>
<path class="st3" d="M264.89,141.14c0.8,5.02-2.62,9.74-7.65,10.54c-5.02,0.8-9.74-2.62-10.54-7.65c-0.8-5.02,2.62-9.74,7.65-10.54
	C259.37,132.69,264.09,136.12,264.89,141.14z"/>
<path class="st3" d="M267.99,160.6c0.8,5.02-2.62,9.74-7.64,10.54c-5.02,0.8-9.74-2.62-10.55-7.65c-0.8-5.02,2.62-9.74,7.65-10.54
	C262.47,152.16,267.19,155.58,267.99,160.6z"/>
<path class="st3" d="M343.8,268.53c3.01,8.1-1.12,17.11-9.22,20.13c-8.1,3.01-17.12-1.12-20.13-9.22
	c-3.01-8.11,1.12-17.11,9.22-20.13C331.78,256.29,340.79,260.42,343.8,268.53z"/>
<g>
	<path class="st3" d="M333.43,285.87c-6.5,2.35-13.75-1-16.16-7.49c-2.43-6.54,0.92-13.83,7.45-16.26l0.1-0.04
		c6.5-2.35,13.75,1,16.16,7.49c1.18,3.17,1.05,6.6-0.35,9.67c-1.41,3.07-3.93,5.41-7.1,6.59L333.43,285.87z M325.29,263.37
		c-5.93,2.2-8.91,8.71-6.74,14.55c2.15,5.79,8.62,8.78,14.42,6.68l0.09-0.04c2.83-1.05,5.08-3.14,6.33-5.88
		c1.26-2.74,1.37-5.8,0.32-8.63C337.56,264.26,331.09,261.26,325.29,263.37z"/>
</g>
<path class="st3" d="M150.99,311.01c0,0,54.13-0.3,51.57,56.04C202.56,367.05,199.08,325.13,150.99,311.01z"/>
<path class="st3" d="M144.74,286.52c0,0,81.14-2.35,81.14,89.01C225.88,375.53,243.13,279.93,144.74,286.52z"/>
<path class="st3" d="M150.99,248.8c0,0,113.83-3.3,113.83,124.87C264.82,373.68,289.02,239.56,150.99,248.8z"/>
<g>
	<path class="st3" d="M474.89,286.1c-0.48,1.49-2.08,2.31-3.57,1.83l-96.98-31.16c-1.49-0.48-2.31-2.08-1.83-3.57l17.97-55.92
		c0.48-1.49,2.08-2.32,3.57-1.83l96.98,31.16c1.49,0.48,2.32,2.08,1.83,3.57L474.89,286.1z"/>
	<path class="st3" d="M471.14,279.43c-0.39,1.23-1.8,1.88-3.14,1.45l-86.85-27.91c-1.34-0.43-2.1-1.77-1.71-3l14.79-46.02
		c0.39-1.23,1.8-1.88,3.14-1.45l86.85,27.91c1.34,0.43,2.1,1.77,1.71,3L471.14,279.43z"/>
	<path class="st3" d="M442.78,214.4c-0.21,0.66-0.92,1.03-1.59,0.81c-0.66-0.21-1.03-0.92-0.81-1.59c0.21-0.66,0.92-1.03,1.59-0.82
		C442.63,213.02,442.99,213.73,442.78,214.4z"/>
	<path class="st7" d="M380.35,247.15l-0.91,2.82c-0.39,1.23,0.37,2.57,1.71,3L468,280.88c1.34,0.43,2.74-0.22,3.14-1.45l0.9-2.82
		L380.35,247.15z"/>
	<path class="st3" d="M473.87,315.7c0,0.68-1.41,0.79-3.14,0.23l-112.22-36.06c-1.73-0.55-2.81-1.46-2.41-2.02l14.82-20.94
		c0.39-0.56,1.93-0.62,3.42-0.14l96.98,31.16c1.49,0.48,2.7,1.42,2.7,2.11L473.87,315.7z"/>
	<path class="st3" d="M473.82,318.9c-0.48,1.49-2.09,2.31-3.61,1.83l-114.07-36.66c-1.51-0.49-2.35-2.09-1.87-3.58l0.6-1.86
		c0.48-1.49,2.09-2.31,3.61-1.82l114.07,36.66c1.51,0.49,2.35,2.09,1.87,3.58L473.82,318.9z"/>
	<polygon class="st3" points="373.62,259.88 371.75,262.44 470.54,294.19 470.5,291.01 	"/>
	<polygon class="st3" points="370.87,264.04 369.03,266.62 470.58,299.25 470.51,296.06 	"/>
	<polygon class="st3" points="368.37,268.06 366.55,270.64 470.45,304.03 470.57,300.9 	"/>
	<polygon class="st3" points="401.71,283.39 399.66,288 433.11,298.75 434,293.76 	"/>
	
		<rect x="417.8" y="290.45" transform="matrix(0.3063 -0.9519 0.9519 0.3063 14.7806 603.2715)" class="st3" width="7.01" height="2.1"/>
</g>
<path class="st10" d="M305.14,298.2c0.85,2.29-0.32,4.84-2.62,5.69l-22.42,8.28c-2.29,0.85-4.84-0.33-5.68-2.62l-18.44-49.91
	c-0.85-2.29,0.33-4.84,2.62-5.68l22.42-8.28c2.29-0.85,4.84,0.32,5.68,2.62L305.14,298.2z"/>
<path class="st3" d="M292.27,302.85c0.51,1.4-0.2,2.95-1.59,3.46c-1.4,0.51-2.94-0.2-3.46-1.59c-0.52-1.4,0.2-2.94,1.59-3.46
	C290.21,300.74,291.76,301.46,292.27,302.85z"/>
<path class="st3" d="M290.74,303.41c0.21,0.55-0.07,1.16-0.63,1.37c-0.55,0.2-1.16-0.08-1.36-0.63c-0.2-0.55,0.08-1.16,0.63-1.37
	C289.93,302.58,290.54,302.86,290.74,303.41z"/>
<path class="st3" d="M271.39,251.97c0.14,0.38-0.05,0.81-0.44,0.95c-0.38,0.14-0.81-0.05-0.95-0.44c-0.14-0.38,0.06-0.81,0.44-0.95
	C270.82,251.39,271.25,251.58,271.39,251.97z"/>
<rect x="266.09" y="253.56" transform="matrix(0.938 -0.3466 0.3466 0.938 -78.8677 114.2853)" class="st3" width="28" height="48.17"/>
<rect x="264.83" y="264.54" transform="matrix(0.938 -0.3466 0.3466 0.938 -74.8934 112.0091)" class="st3" width="21.8" height="1.73"/>
<rect x="266.06" y="267.88" transform="matrix(0.938 -0.3466 0.3466 0.938 -75.9751 112.646)" class="st3" width="21.8" height="1.73"/>
<rect x="267.3" y="271.21" transform="matrix(0.938 -0.3467 0.3467 0.938 -77.0685 113.3095)" class="st3" width="21.8" height="1.73"/>
<rect x="268.53" y="274.55" transform="matrix(0.938 -0.3466 0.3466 0.938 -78.1374 113.9182)" class="st3" width="21.8" height="1.73"/>
<rect x="269.76" y="277.89" transform="matrix(0.938 -0.3466 0.3466 0.938 -79.2209 114.5585)" class="st3" width="21.8" height="1.73"/>
<rect x="271" y="281.23" transform="matrix(0.938 -0.3465 0.3465 0.938 -80.2858 115.159)" class="st3" width="21.8" height="1.73"/>
<rect x="272.23" y="284.57" transform="matrix(0.938 -0.3466 0.3466 0.938 -81.3784 115.8195)" class="st3" width="21.8" height="1.73"/>
<rect x="262.79" y="256.54" transform="matrix(0.938 -0.3466 0.3466 0.938 -73.1052 110.9593)" class="st3" width="21.79" height="6.68"/>
<rect x="274.91" y="288.32" transform="matrix(0.938 -0.3466 0.3466 0.938 -83.7204 117.1875)" class="st3" width="21.79" height="8.73"/>
<rect x="385.57" y="219.09" transform="matrix(0.3124 -0.9499 0.9499 0.3124 60.858 541.84)" class="st4" width="38.33" height="19.58"/>
<rect x="426.61" y="213.55" transform="matrix(0.3124 -0.9499 0.9499 0.3124 76.109 590.2074)" class="st12" width="38.33" height="57.95"/>
<path class="st3" d="M285.64,339.03c0,3.07-2.49,5.55-5.56,5.55s-5.55-2.49-5.55-5.55s2.49-5.55,5.55-5.55
	S285.64,335.96,285.64,339.03z"/>
<path class="st3" d="M304.45,351.85c0,1.98-1.61,3.59-3.59,3.59c-1.98,0-3.59-1.61-3.59-3.59c0-1.98,1.61-3.59,3.59-3.59
	C302.84,348.26,304.45,349.87,304.45,351.85z"/>
<path class="st13" d="M237.05,135.23c0,0,166.73-4.84,166.73,182.9C403.78,318.13,439.23,121.69,237.05,135.23z"/>
<path class="st14" d="M322.61,101.91c0,0,116.66-3.38,116.66,127.97C439.27,229.88,464.07,92.43,322.61,101.91z"/>
</svg>
