<?xml version="1.0" encoding="utf-8"?>
<!-- Generator: Adobe Illustrator 23.0.5, SVG Export Plug-In . SVG Version: 6.00 Build 0)  -->
<svg version="1.1" id="Layer_1" xmlns="http://www.w3.org/2000/svg" xmlns:xlink="http://www.w3.org/1999/xlink" x="0px" y="0px"
	 viewBox="0 0 500 500" style="enable-background:new 0 0 500 500;" xml:space="preserve">
<style type="text/css">
	.st0{fill:#F2F2F4;}
	.st1{fill:#DCDCDE;}
	.st2{fill:#E0E0E3;}
	.st3{fill:none;stroke:#F2F2F4;stroke-width:2.0974;stroke-linecap:round;stroke-linejoin:round;stroke-miterlimit:10;}
	.st4{fill:none;stroke:url(#SVGID_1_);stroke-width:0.75;stroke-miterlimit:10;}
	.st5{fill:#FFFFFF;}
	.st6{fill:none;stroke:url(#SVGID_2_);stroke-width:0.75;stroke-miterlimit:10;}
	.st7{fill:none;stroke:url(#SVGID_3_);stroke-width:0.75;stroke-miterlimit:10;}
	.st8{fill:none;stroke:url(#SVGID_4_);stroke-width:0.75;stroke-miterlimit:10;}
	.st9{fill:none;stroke:url(#SVGID_5_);stroke-width:0.75;stroke-miterlimit:10;}
	.st10{fill:none;stroke:url(#SVGID_6_);stroke-width:0.75;stroke-miterlimit:10;}
	.st11{opacity:0.17;}
	.st12{fill:none;stroke:#FFFFFF;stroke-width:3;stroke-linecap:round;stroke-miterlimit:10;}
	.st13{fill:none;stroke:#FFFFFF;stroke-width:0.3728;stroke-miterlimit:10;}
	.st14{fill:none;stroke:#FFFFFF;stroke-width:1.0987;stroke-miterlimit:10;}
	.st15{opacity:0.18;}
	.st16{opacity:0.71;}
	.st17{opacity:0.4;}
	.st18{fill:none;stroke:#FFFFFF;stroke-width:2;stroke-linecap:round;stroke-miterlimit:10;}
</style>
<g>
	<g>
		<polygon class="st0" points="206.22,170.7 230.21,184.41 208.78,198.34 184.41,184.52 		"/>
		<polyline class="st1" points="208.78,198.34 208.24,221.91 230.21,209.05 230.21,184.41 		"/>
		<polyline class="st2" points="208.24,221.91 208.78,198.34 184.41,184.52 184.92,209.39 208.24,221.91 		"/>
		<polyline class="st2" points="145.76,258.05 146.3,234.48 121.92,220.66 122.44,245.53 145.76,258.05 		"/>
	</g>
	<g>
		<polygon class="st0" points="143.73,206.9 167.73,220.6 146.3,234.53 121.92,220.72 		"/>
		<polyline class="st1" points="167.73,220.6 167.73,245.25 145.76,258.11 146.3,234.53 		"/>
	</g>
	<polyline class="st2" points="203.02,293.6 203.56,270.03 179.18,256.21 179.7,281.08 203.02,293.6 	"/>
	<g>
		<polygon class="st0" points="200.99,242.45 224.99,256.15 203.56,270.08 179.18,256.27 		"/>
		<polyline class="st1" points="224.99,256.15 224.99,280.8 203.02,293.66 203.56,270.08 		"/>
	</g>
	<path class="st3" d="M219.23,203.22"/>
	<line class="st3" x1="157.31" y1="240.69" x2="182.95" y2="254.9"/>
	<line class="st3" x1="196.33" y1="203.16" x2="163.83" y2="220.72"/>
</g>
<linearGradient id="SVGID_1_" gradientUnits="userSpaceOnUse" x1="419.154" y1="326.4543" x2="447.7352" y2="326.4543">
	<stop  offset="0" style="stop-color:#7200AA"/>
	<stop  offset="0.5668" style="stop-color:#4A0BC4"/>
	<stop  offset="1" style="stop-color:#006AD4"/>
</linearGradient>
<ellipse transform="matrix(0.5424 -0.8401 0.8401 0.5424 -75.9254 513.5072)" class="st4" cx="433.44" cy="326.45" rx="13.92" ry="13.92"/>
<g>
	<path class="st5" d="M434.46,327.6h-1.64v3.7h1.7c0.89,0,1.72-0.68,1.72-1.83C436.24,328.39,435.62,327.6,434.46,327.6z"/>
	<path class="st5" d="M435.56,323.57c0-0.98-0.59-1.55-1.4-1.55h-1.34v3.19h1.3C435.24,325.2,435.56,324.59,435.56,323.57z"/>
	<path class="st5" d="M433.44,308.98c-9.65,0-17.47,7.82-17.47,17.47c0,9.65,7.82,17.47,17.47,17.47c9.65,0,17.47-7.82,17.47-17.47
		C450.91,316.81,443.09,308.98,433.44,308.98z M435.26,334.06h-0.32v2.5h-1.71v-2.5h-1.48v2.5h-1.71v-2.5h-2.86v-2.76h1.23v-9.35
		h-1.23v-2.74h2.86v-2.87h1.71v2.87h1.48v-2.87h1.71v2.87h0.18c3.53,0,5.2,1.32,5.2,3.63c0,1.78-0.49,2.66-2.08,3.29
		c1.53,0.42,2.8,1.55,2.8,3.61C441.04,332.74,439.36,334.06,435.26,334.06z"/>
</g>
<linearGradient id="SVGID_2_" gradientUnits="userSpaceOnUse" x1="415.5994" y1="361.9388" x2="429.35" y2="361.9388">
	<stop  offset="0" style="stop-color:#7200AA"/>
	<stop  offset="0.5668" style="stop-color:#4A0BC4"/>
	<stop  offset="1" style="stop-color:#006AD4"/>
</linearGradient>
<path class="st6" d="M428.98,361.94c0,3.59-2.91,6.5-6.5,6.5c-3.59,0-6.5-2.91-6.5-6.5c0-3.59,2.91-6.5,6.5-6.5
	C426.06,355.44,428.98,358.35,428.98,361.94z"/>
<g>
	<path class="st5" d="M422.95,362.48h-0.76v1.73h0.79c0.42,0,0.8-0.32,0.8-0.85C423.78,362.84,423.49,362.48,422.95,362.48z"/>
	<path class="st5" d="M423.46,360.59c0-0.46-0.28-0.72-0.65-0.72h-0.63v1.49h0.61C423.31,361.35,423.46,361.07,423.46,360.59z"/>
	<path class="st5" d="M422.47,353.78c-4.51,0-8.16,3.65-8.16,8.16c0,4.51,3.65,8.16,8.16,8.16c4.51,0,8.16-3.65,8.16-8.16
		C430.64,357.43,426.98,353.78,422.47,353.78z M423.32,365.49h-0.15v1.17h-0.8v-1.17h-0.69v1.17h-0.8v-1.17h-1.34v-1.29h0.58v-4.37
		h-0.58v-1.28h1.34v-1.34h0.8v1.34h0.69v-1.34h0.8v1.34h0.08c1.65,0,2.43,0.62,2.43,1.7c0,0.83-0.23,1.24-0.97,1.54
		c0.71,0.2,1.31,0.72,1.31,1.69C426.02,364.88,425.24,365.49,423.32,365.49z"/>
</g>
<linearGradient id="SVGID_3_" gradientUnits="userSpaceOnUse" x1="383.0281" y1="342.2335" x2="401.3729" y2="342.2335">
	<stop  offset="0" style="stop-color:#7200AA"/>
	<stop  offset="0.5668" style="stop-color:#4A0BC4"/>
	<stop  offset="1" style="stop-color:#006AD4"/>
</linearGradient>
<ellipse transform="matrix(0.7071 -0.7071 0.7071 0.7071 -127.1228 377.5655)" class="st7" cx="392.2" cy="342.23" rx="8.8" ry="8.8"/>
<g>
	<path class="st5" d="M392.84,342.96h-1.03v2.34h1.07c0.56,0,1.09-0.43,1.09-1.15C393.97,343.46,393.58,342.96,392.84,342.96z"/>
	<path class="st5" d="M392.2,331.19c-6.1,0-11.04,4.94-11.04,11.04c0,6.1,4.94,11.04,11.04,11.04c6.1,0,11.04-4.94,11.04-11.04
		C403.25,336.13,398.3,331.19,392.2,331.19z M393.35,347.04h-0.2v1.58h-1.08v-1.58h-0.93v1.58h-1.08v-1.58h-1.81v-1.75h0.78v-5.91
		h-0.78v-1.73h1.81v-1.81h1.08v1.81h0.93v-1.81h1.08v1.81h0.11c2.23,0,3.29,0.83,3.29,2.3c0,1.13-0.31,1.68-1.32,2.08
		c0.97,0.27,1.77,0.98,1.77,2.28C397,346.21,395.94,347.04,393.35,347.04z"/>
	<path class="st5" d="M393.54,340.41c0-0.62-0.38-0.98-0.89-0.98h-0.85v2.01h0.82C393.34,341.44,393.54,341.05,393.54,340.41z"/>
</g>
<linearGradient id="SVGID_4_" gradientUnits="userSpaceOnUse" x1="86.1934" y1="120.56" x2="114.9175" y2="120.56">
	<stop  offset="0" style="stop-color:#7200AA"/>
	<stop  offset="0.5668" style="stop-color:#4A0BC4"/>
	<stop  offset="1" style="stop-color:#006AD4"/>
</linearGradient>
<ellipse transform="matrix(0.7248 -0.6889 0.6889 0.7248 -55.3878 102.4545)" class="st8" cx="100.56" cy="120.56" rx="13.99" ry="13.99"/>
<g>
	<path class="st5" d="M101.57,121.71h-1.64v3.72h1.71c0.9,0,1.73-0.68,1.73-1.84C103.37,122.5,102.75,121.71,101.57,121.71z"/>
	<path class="st5" d="M102.68,117.66c0-0.98-0.6-1.56-1.41-1.56h-1.35v3.2h1.3C102.36,119.3,102.68,118.68,102.68,117.66z"/>
	<path class="st5" d="M100.56,103c-9.7,0-17.56,7.86-17.56,17.56c0,9.7,7.86,17.56,17.56,17.56c9.7,0,17.56-7.86,17.56-17.56
		C118.12,110.86,110.25,103,100.56,103z M102.38,128.21h-0.33v2.51h-1.71v-2.51h-1.49v2.51h-1.71v-2.51h-2.87v-2.78h1.24v-9.39
		h-1.24v-2.75h2.87v-2.88h1.71v2.88h1.49v-2.88h1.71v2.88h0.18c3.54,0,5.23,1.32,5.23,3.65c0,1.79-0.49,2.67-2.09,3.31
		c1.54,0.43,2.82,1.56,2.82,3.63C108.19,126.88,106.5,128.21,102.38,128.21z"/>
</g>
<linearGradient id="SVGID_5_" gradientUnits="userSpaceOnUse" x1="82.6205" y1="156.2269" x2="96.4379" y2="156.2269">
	<stop  offset="0" style="stop-color:#7200AA"/>
	<stop  offset="0.5668" style="stop-color:#4A0BC4"/>
	<stop  offset="1" style="stop-color:#006AD4"/>
</linearGradient>
<path class="st9" d="M96.06,156.23c0,3.61-2.93,6.53-6.53,6.53c-3.61,0-6.53-2.93-6.53-6.53c0-3.61,2.93-6.53,6.53-6.53
	C93.14,149.69,96.06,152.62,96.06,156.23z"/>
<g>
	<path class="st5" d="M90,156.77h-0.77v1.74h0.8c0.42,0,0.81-0.32,0.81-0.86C90.84,157.14,90.55,156.77,90,156.77z"/>
	<path class="st5" d="M90.52,154.87c0-0.46-0.28-0.73-0.66-0.73h-0.63v1.5h0.61C90.37,155.64,90.52,155.35,90.52,154.87z"/>
	<path class="st5" d="M89.53,148.02c-4.53,0-8.2,3.67-8.2,8.2c0,4.53,3.67,8.2,8.2,8.2c4.53,0,8.2-3.67,8.2-8.2
		C97.73,151.7,94.06,148.02,89.53,148.02z M90.38,159.8h-0.15v1.17h-0.8v-1.17h-0.69v1.17h-0.8v-1.17h-1.34v-1.3h0.58v-4.39h-0.58
		v-1.29h1.34v-1.35h0.8v1.35h0.69v-1.35h0.8v1.35h0.08c1.66,0,2.44,0.62,2.44,1.71c0,0.84-0.23,1.25-0.98,1.55
		c0.72,0.2,1.32,0.73,1.32,1.7C93.1,159.18,92.31,159.8,90.38,159.8z"/>
</g>
<linearGradient id="SVGID_6_" gradientUnits="userSpaceOnUse" x1="49.8819" y1="136.4203" x2="68.317" y2="136.4203">
	<stop  offset="0" style="stop-color:#7200AA"/>
	<stop  offset="0.5668" style="stop-color:#4A0BC4"/>
	<stop  offset="1" style="stop-color:#006AD4"/>
</linearGradient>
<ellipse transform="matrix(0.1597 -0.9872 0.9872 0.1597 -85.0091 172.9714)" class="st10" cx="59.1" cy="136.42" rx="8.84" ry="8.84"/>
<g>
	<path class="st5" d="M60.44,134.59c0-0.62-0.38-0.99-0.89-0.99H58.7v2.02h0.82C60.24,135.63,60.44,135.23,60.44,134.59z"/>
	<path class="st5" d="M59.74,137.15H58.7v2.35h1.08c0.57,0,1.09-0.43,1.09-1.16C60.88,137.65,60.48,137.15,59.74,137.15z"/>
	<path class="st5" d="M59.1,125.32c-6.13,0-11.1,4.97-11.1,11.1c0,6.13,4.97,11.1,11.1,11.1s11.1-4.97,11.1-11.1
		C70.2,130.29,65.23,125.32,59.1,125.32z M60.26,141.25h-0.21v1.59h-1.08v-1.59h-0.94v1.59h-1.08v-1.59h-1.82v-1.75h0.78v-5.94
		h-0.78v-1.74h1.82V130h1.08v1.82h0.94V130h1.08v1.82h0.11c2.24,0,3.31,0.84,3.31,2.31c0,1.13-0.31,1.69-1.32,2.09
		c0.97,0.27,1.78,0.99,1.78,2.29C63.93,140.42,62.86,141.25,60.26,141.25z"/>
</g>
<g class="st11">
	<path class="st12" d="M202.93,133c0,0,43.25-56.48,97.8,0"/>
	<path class="st12" d="M218.56,145.98c0,0,30.85-38.96,67.2,0"/>
	<path class="st12" d="M231.87,161.19c0,0,20.29-23.87,39.59,0"/>
</g>
<path class="st13" d="M112.41,226.6c-0.73-2.72-2.87-4.68-5.42-5.31c-0.4-3.75-3.58-6.67-7.43-6.67c-1.39,0-2.69,0.39-3.81,1.05
	c-1.34-1.28-3.16-2.08-5.16-2.08c-3.81,0-6.95,2.86-7.41,6.54c-3.93,0.23-7.04,3.47-7.04,7.46c0,4.13,3.35,7.48,7.48,7.48
	c1.66,0,3.19-0.55,4.43-1.47c1.37,1.48,3.32,2.42,5.5,2.42c2.36,0,4.46-1.09,5.83-2.8c1.8,2.24,4.82,3.33,7.77,2.54
	C111.12,234.69,113.48,230.58,112.41,226.6z"/>
<path class="st13" d="M387.11,170.35c-0.73-2.72-2.87-4.68-5.42-5.31c-0.4-3.75-3.58-6.67-7.43-6.67c-1.39,0-2.69,0.39-3.81,1.05
	c-1.34-1.28-3.16-2.08-5.16-2.08c-3.81,0-6.95,2.86-7.41,6.54c-3.93,0.23-7.04,3.47-7.04,7.46c0,4.13,3.35,7.48,7.48,7.48
	c1.66,0,3.19-0.55,4.43-1.47c1.37,1.48,3.32,2.42,5.5,2.42c2.36,0,4.46-1.09,5.83-2.8c1.8,2.24,4.82,3.33,7.77,2.54
	C385.82,178.44,388.18,174.33,387.11,170.35z"/>
<path class="st13" d="M180.96,145.69c-0.73-2.72-2.87-4.68-5.42-5.31c-0.4-3.75-3.58-6.67-7.43-6.67c-1.39,0-2.69,0.39-3.81,1.05
	c-1.34-1.28-3.16-2.08-5.16-2.08c-3.81,0-6.95,2.86-7.41,6.54c-3.93,0.23-7.04,3.47-7.04,7.46c0,4.13,3.35,7.48,7.48,7.48
	c1.66,0,3.19-0.55,4.43-1.47c1.37,1.48,3.32,2.42,5.5,2.42c2.36,0,4.46-1.09,5.83-2.8c1.8,2.24,4.82,3.33,7.77,2.54
	C179.67,153.78,182.03,149.68,180.96,145.69z"/>
<path class="st13" d="M408.23,248.71c-0.73-2.72-2.87-4.68-5.42-5.31c-0.4-3.75-3.58-6.67-7.43-6.67c-1.39,0-2.69,0.39-3.81,1.05
	c-1.34-1.28-3.16-2.08-5.16-2.08c-3.81,0-6.95,2.86-7.41,6.54c-3.93,0.23-7.04,3.47-7.04,7.46c0,4.13,3.35,7.48,7.48,7.48
	c1.66,0,3.19-0.55,4.43-1.47c1.37,1.48,3.32,2.42,5.5,2.42c2.36,0,4.46-1.09,5.83-2.8c1.8,2.24,4.82,3.33,7.77,2.54
	C406.94,256.8,409.3,252.7,408.23,248.71z"/>
<g>
	<line class="st14" x1="58.91" y1="168.55" x2="58.91" y2="175.59"/>
	<line class="st14" x1="62.43" y1="172.07" x2="55.39" y2="172.07"/>
</g>
<g>
	<line class="st14" x1="272.07" y1="157.5" x2="272.07" y2="164.54"/>
	<line class="st14" x1="275.59" y1="161.02" x2="268.55" y2="161.02"/>
</g>
<g>
	<line class="st14" x1="81.72" y1="295.91" x2="81.72" y2="302.95"/>
	<line class="st14" x1="85.24" y1="299.43" x2="78.2" y2="299.43"/>
</g>
<g>
	<line class="st14" x1="415.46" y1="207.47" x2="415.46" y2="214.51"/>
	<line class="st14" x1="418.98" y1="210.99" x2="411.94" y2="210.99"/>
</g>
<g>
	<line class="st14" x1="233.34" y1="303.32" x2="233.34" y2="310.36"/>
	<line class="st14" x1="236.86" y1="306.84" x2="229.82" y2="306.84"/>
</g>
<g>
	<line class="st14" x1="398.76" y1="306.84" x2="398.76" y2="313.88"/>
	<line class="st14" x1="402.28" y1="310.36" x2="395.24" y2="310.36"/>
</g>
<g>
	<g class="st15">
		<path class="st0" d="M132.67,161.05c0,1.69-0.81,2.63-2.26,2.63c-1.46,0-2.26-0.94-2.26-2.63c0-1.69,0.8-2.62,2.26-2.62
			C131.86,158.43,132.67,159.36,132.67,161.05z M129.35,161.05c0,1.22,0.33,1.74,1.06,1.74c0.72,0,1.06-0.52,1.06-1.74
			c0-1.21-0.33-1.72-1.06-1.72C129.68,159.32,129.35,159.84,129.35,161.05z"/>
		<path class="st0" d="M139.31,161.05c0,1.69-0.81,2.63-2.26,2.63c-1.46,0-2.26-0.94-2.26-2.63c0-1.69,0.8-2.62,2.26-2.62
			C138.51,158.43,139.31,159.36,139.31,161.05z M135.99,161.05c0,1.22,0.33,1.74,1.07,1.74c0.73,0,1.06-0.52,1.06-1.74
			c0-1.21-0.33-1.72-1.06-1.72C136.32,159.32,135.99,159.84,135.99,161.05z"/>
		<path class="st0" d="M142.16,163.64v-4.19h-0.98v-0.98h2.14v5.18H142.16z"/>
	</g>
	<g class="st15">
		<path class="st0" d="M140.26,154.25c0,1.69-0.81,2.63-2.26,2.63c-1.46,0-2.26-0.94-2.26-2.63c0-1.69,0.8-2.62,2.26-2.62
			C139.45,151.63,140.26,152.56,140.26,154.25z M136.94,154.25c0,1.22,0.33,1.74,1.06,1.74c0.72,0,1.06-0.52,1.06-1.74
			c0-1.21-0.33-1.72-1.06-1.72C137.27,152.52,136.94,153.03,136.94,154.25z"/>
		<path class="st0" d="M146.9,154.25c0,1.69-0.81,2.63-2.26,2.63c-1.46,0-2.26-0.94-2.26-2.63c0-1.69,0.8-2.62,2.26-2.62
			C146.1,151.63,146.9,152.56,146.9,154.25z M143.58,154.25c0,1.22,0.33,1.74,1.07,1.74c0.72,0,1.06-0.52,1.06-1.74
			c0-1.21-0.33-1.72-1.06-1.72C143.91,152.52,143.58,153.03,143.58,154.25z"/>
		<path class="st0" d="M149.74,156.84v-4.19h-0.98v-0.98h2.14v5.18H149.74z"/>
	</g>
	<g class="st15">
		<path class="st0" d="M147.84,147.44c0,1.69-0.81,2.63-2.26,2.63c-1.46,0-2.26-0.94-2.26-2.63c0-1.69,0.8-2.62,2.26-2.62
			C147.04,144.83,147.84,145.76,147.84,147.44z M144.52,147.44c0,1.22,0.33,1.74,1.06,1.74c0.73,0,1.06-0.52,1.06-1.74
			c0-1.21-0.33-1.72-1.06-1.72C144.86,145.72,144.52,146.23,144.52,147.44z"/>
		<path class="st0" d="M154.49,147.44c0,1.69-0.81,2.63-2.26,2.63c-1.46,0-2.26-0.94-2.26-2.63c0-1.69,0.8-2.62,2.26-2.62
			C153.68,144.83,154.49,145.76,154.49,147.44z M151.17,147.44c0,1.22,0.33,1.74,1.07,1.74c0.72,0,1.06-0.52,1.06-1.74
			c0-1.21-0.33-1.72-1.06-1.72C151.5,145.72,151.17,146.23,151.17,147.44z"/>
		<path class="st0" d="M157.33,150.04v-4.19h-0.98v-0.98h2.14v5.18H157.33z"/>
	</g>
	<g class="st15">
		<path class="st0" d="M155.43,140.64c0,1.69-0.81,2.63-2.26,2.63c-1.46,0-2.26-0.94-2.26-2.63c0-1.69,0.8-2.62,2.26-2.62
			C154.63,138.02,155.43,138.96,155.43,140.64z M152.11,140.64c0,1.22,0.33,1.74,1.06,1.74c0.72,0,1.06-0.52,1.06-1.74
			c0-1.21-0.33-1.72-1.06-1.72C152.44,138.92,152.11,139.43,152.11,140.64z"/>
		<path class="st0" d="M162.08,140.64c0,1.69-0.81,2.63-2.26,2.63c-1.46,0-2.26-0.94-2.26-2.63c0-1.69,0.8-2.62,2.26-2.62
			C161.27,138.02,162.08,138.96,162.08,140.64z M158.76,140.64c0,1.22,0.33,1.74,1.07,1.74c0.72,0,1.06-0.52,1.06-1.74
			c0-1.21-0.33-1.72-1.06-1.72C159.09,138.92,158.76,139.43,158.76,140.64z"/>
		<path class="st0" d="M164.92,143.24v-4.19h-0.98v-0.98h2.14v5.18H164.92z"/>
	</g>
	<g class="st15">
		<path class="st0" d="M163.02,133.84c0,1.69-0.81,2.63-2.26,2.63c-1.46,0-2.26-0.94-2.26-2.63c0-1.69,0.8-2.62,2.26-2.62
			C162.21,131.22,163.02,132.15,163.02,133.84z M159.7,133.84c0,1.22,0.33,1.74,1.06,1.74c0.72,0,1.06-0.52,1.06-1.74
			c0-1.21-0.33-1.72-1.06-1.72C160.03,132.12,159.7,132.63,159.7,133.84z"/>
		<path class="st0" d="M169.67,133.84c0,1.69-0.81,2.63-2.26,2.63c-1.46,0-2.26-0.94-2.26-2.63c0-1.69,0.8-2.62,2.26-2.62
			C168.86,131.22,169.67,132.15,169.67,133.84z M166.35,133.84c0,1.22,0.33,1.74,1.07,1.74c0.72,0,1.06-0.52,1.06-1.74
			c0-1.21-0.33-1.72-1.06-1.72C166.68,132.12,166.35,132.63,166.35,133.84z"/>
		<path class="st0" d="M172.51,136.44v-4.19h-0.98v-0.98h2.14v5.18H172.51z"/>
	</g>
	<g class="st15">
		<path class="st0" d="M142.52,170.44c0,1.69-0.81,2.63-2.26,2.63c-1.46,0-2.26-0.94-2.26-2.63c0-1.69,0.8-2.62,2.26-2.62
			C141.71,167.82,142.52,168.75,142.52,170.44z M139.19,170.44c0,1.22,0.33,1.74,1.06,1.74c0.73,0,1.06-0.52,1.06-1.74
			c0-1.21-0.33-1.72-1.06-1.72C139.53,168.72,139.19,169.23,139.19,170.44z"/>
		<path class="st0" d="M149.16,170.44c0,1.69-0.81,2.63-2.26,2.63c-1.46,0-2.26-0.94-2.26-2.63c0-1.69,0.8-2.62,2.26-2.62
			C148.35,167.82,149.16,168.75,149.16,170.44z M145.84,170.44c0,1.22,0.33,1.74,1.07,1.74c0.72,0,1.06-0.52,1.06-1.74
			c0-1.21-0.33-1.72-1.06-1.72C146.17,168.72,145.84,169.23,145.84,170.44z"/>
		<path class="st0" d="M152,173.03v-4.19h-0.98v-0.98h2.14v5.18H152z"/>
	</g>
	<g class="st15">
		<path class="st0" d="M150.1,163.64c0,1.69-0.81,2.63-2.26,2.63c-1.46,0-2.26-0.94-2.26-2.63c0-1.69,0.8-2.62,2.26-2.62
			C149.3,161.02,150.1,161.95,150.1,163.64z M146.78,163.64c0,1.22,0.33,1.74,1.06,1.74c0.72,0,1.06-0.52,1.06-1.74
			c0-1.21-0.33-1.72-1.06-1.72C147.12,161.91,146.78,162.42,146.78,163.64z"/>
		<path class="st0" d="M156.75,163.64c0,1.69-0.81,2.63-2.26,2.63c-1.46,0-2.26-0.94-2.26-2.63c0-1.69,0.8-2.62,2.26-2.62
			C155.94,161.02,156.75,161.95,156.75,163.64z M153.43,163.64c0,1.22,0.33,1.74,1.07,1.74c0.72,0,1.06-0.52,1.06-1.74
			c0-1.21-0.33-1.72-1.06-1.72C153.76,161.91,153.43,162.42,153.43,163.64z"/>
		<path class="st0" d="M159.59,166.23v-4.19h-0.98v-0.98h2.14v5.18H159.59z"/>
	</g>
	<g class="st15">
		<path class="st0" d="M157.69,156.83c0,1.69-0.81,2.63-2.26,2.63c-1.46,0-2.26-0.94-2.26-2.63c0-1.69,0.8-2.62,2.26-2.62
			C156.89,154.22,157.69,155.15,157.69,156.83z M154.37,156.83c0,1.22,0.33,1.74,1.06,1.74c0.72,0,1.06-0.52,1.06-1.74
			c0-1.21-0.33-1.72-1.06-1.72C154.7,155.11,154.37,155.62,154.37,156.83z"/>
		<path class="st0" d="M164.34,156.83c0,1.69-0.81,2.63-2.26,2.63c-1.46,0-2.26-0.94-2.26-2.63c0-1.69,0.8-2.62,2.26-2.62
			C163.53,154.22,164.34,155.15,164.34,156.83z M161.02,156.83c0,1.22,0.33,1.74,1.07,1.74c0.72,0,1.06-0.52,1.06-1.74
			c0-1.21-0.33-1.72-1.06-1.72C161.35,155.11,161.02,155.62,161.02,156.83z"/>
		<path class="st0" d="M167.18,159.43v-4.19h-0.98v-0.98h2.14v5.18H167.18z"/>
	</g>
	<g class="st15">
		<path class="st0" d="M165.28,150.03c0,1.69-0.81,2.63-2.26,2.63c-1.46,0-2.26-0.94-2.26-2.63c0-1.69,0.8-2.62,2.26-2.62
			C164.47,147.41,165.28,148.35,165.28,150.03z M161.96,150.03c0,1.22,0.33,1.74,1.06,1.74c0.72,0,1.06-0.52,1.06-1.74
			c0-1.21-0.33-1.72-1.06-1.72C162.29,148.31,161.96,148.82,161.96,150.03z"/>
		<path class="st0" d="M171.93,150.03c0,1.69-0.81,2.63-2.26,2.63c-1.46,0-2.26-0.94-2.26-2.63c0-1.69,0.8-2.62,2.26-2.62
			C171.12,147.41,171.93,148.35,171.93,150.03z M168.6,150.03c0,1.22,0.33,1.74,1.07,1.74c0.72,0,1.06-0.52,1.06-1.74
			c0-1.21-0.33-1.72-1.06-1.72C168.94,148.31,168.6,148.82,168.6,150.03z"/>
		<path class="st0" d="M174.77,152.63v-4.19h-0.98v-0.98h2.14v5.18H174.77z"/>
	</g>
	<g class="st15">
		<path class="st0" d="M172.87,143.23c0,1.69-0.81,2.63-2.26,2.63c-1.46,0-2.26-0.94-2.26-2.63c0-1.69,0.8-2.62,2.26-2.62
			C172.06,140.61,172.87,141.54,172.87,143.23z M169.55,143.23c0,1.22,0.33,1.74,1.06,1.74c0.72,0,1.06-0.52,1.06-1.74
			c0-1.21-0.33-1.72-1.06-1.72C169.88,141.51,169.55,142.02,169.55,143.23z"/>
		<path class="st0" d="M179.51,143.23c0,1.69-0.81,2.63-2.26,2.63c-1.46,0-2.26-0.94-2.26-2.63c0-1.69,0.8-2.62,2.26-2.62
			C178.71,140.61,179.51,141.54,179.51,143.23z M176.19,143.23c0,1.22,0.33,1.74,1.07,1.74c0.73,0,1.06-0.52,1.06-1.74
			c0-1.21-0.33-1.72-1.06-1.72C176.53,141.51,176.19,142.02,176.19,143.23z"/>
		<path class="st0" d="M182.36,145.83v-4.19h-0.98v-0.98h2.14v5.18H182.36z"/>
	</g>
</g>
<g class="st16">
	<g class="st17">
		<path class="st0" d="M202.06,330.27c0,1.69-0.81,2.63-2.26,2.63c-1.46,0-2.26-0.94-2.26-2.63c0-1.69,0.8-2.62,2.26-2.62
			C201.25,327.65,202.06,328.58,202.06,330.27z M198.74,330.27c0,1.22,0.33,1.74,1.06,1.74c0.72,0,1.06-0.52,1.06-1.74
			c0-1.21-0.33-1.72-1.06-1.72C199.07,328.55,198.74,329.06,198.74,330.27z"/>
		<path class="st0" d="M208.71,330.27c0,1.69-0.81,2.63-2.26,2.63c-1.46,0-2.26-0.94-2.26-2.63c0-1.69,0.8-2.62,2.26-2.62
			C207.9,327.65,208.71,328.58,208.71,330.27z M205.38,330.27c0,1.22,0.33,1.74,1.07,1.74c0.73,0,1.06-0.52,1.06-1.74
			c0-1.21-0.33-1.72-1.06-1.72C205.72,328.55,205.38,329.06,205.38,330.27z"/>
		<path class="st0" d="M211.55,332.87v-4.19h-0.98v-0.98h2.14v5.18H211.55z"/>
	</g>
	<g class="st17">
		<path class="st0" d="M209.65,337.31c0,1.69-0.81,2.63-2.26,2.63c-1.46,0-2.26-0.94-2.26-2.63c0-1.69,0.8-2.62,2.26-2.62
			C208.84,334.69,209.65,335.62,209.65,337.31z M206.33,337.31c0,1.22,0.33,1.74,1.06,1.74c0.72,0,1.06-0.52,1.06-1.74
			c0-1.21-0.33-1.72-1.06-1.72C206.66,335.59,206.33,336.1,206.33,337.31z"/>
		<path class="st0" d="M216.29,337.31c0,1.69-0.81,2.63-2.26,2.63c-1.46,0-2.26-0.94-2.26-2.63c0-1.69,0.8-2.62,2.26-2.62
			C215.49,334.69,216.29,335.62,216.29,337.31z M212.97,337.31c0,1.22,0.33,1.74,1.07,1.74c0.72,0,1.06-0.52,1.06-1.74
			c0-1.21-0.33-1.72-1.06-1.72C213.3,335.59,212.97,336.1,212.97,337.31z"/>
		<path class="st0" d="M219.14,339.91v-4.19h-0.98v-0.98h2.14v5.18H219.14z"/>
	</g>
	<g class="st17">
		<path class="st0" d="M217.24,344.35c0,1.69-0.81,2.63-2.26,2.63c-1.46,0-2.26-0.94-2.26-2.63c0-1.69,0.8-2.62,2.26-2.62
			C216.43,341.73,217.24,342.66,217.24,344.35z M213.92,344.35c0,1.22,0.33,1.74,1.06,1.74c0.72,0,1.06-0.52,1.06-1.74
			c0-1.21-0.33-1.72-1.06-1.72C214.25,342.63,213.92,343.14,213.92,344.35z"/>
		<path class="st0" d="M223.88,344.35c0,1.69-0.81,2.63-2.26,2.63c-1.46,0-2.26-0.94-2.26-2.63c0-1.69,0.8-2.62,2.26-2.62
			C223.08,341.73,223.88,342.66,223.88,344.35z M220.56,344.35c0,1.22,0.33,1.74,1.07,1.74c0.72,0,1.06-0.52,1.06-1.74
			c0-1.21-0.33-1.72-1.06-1.72C220.89,342.63,220.56,343.14,220.56,344.35z"/>
		<path class="st0" d="M226.73,346.95v-4.19h-0.98v-0.98h2.14v5.18H226.73z"/>
	</g>
	<g class="st17">
		<path class="st0" d="M224.82,351.39c0,1.69-0.81,2.63-2.26,2.63c-1.46,0-2.26-0.94-2.26-2.63c0-1.69,0.8-2.62,2.26-2.62
			C224.02,348.77,224.82,349.71,224.82,351.39z M221.5,351.39c0,1.22,0.33,1.74,1.06,1.74c0.72,0,1.06-0.52,1.06-1.74
			c0-1.21-0.33-1.72-1.06-1.72C221.84,349.67,221.5,350.18,221.5,351.39z"/>
		<path class="st0" d="M231.47,351.39c0,1.69-0.81,2.63-2.26,2.63c-1.46,0-2.26-0.94-2.26-2.63c0-1.69,0.8-2.62,2.26-2.62
			C230.66,348.77,231.47,349.71,231.47,351.39z M228.15,351.39c0,1.22,0.33,1.74,1.07,1.74c0.72,0,1.06-0.52,1.06-1.74
			c0-1.21-0.33-1.72-1.06-1.72C228.48,349.67,228.15,350.18,228.15,351.39z"/>
		<path class="st0" d="M234.31,353.99v-4.19h-0.98v-0.98h2.14v5.18H234.31z"/>
	</g>
	<g class="st17">
		<path class="st0" d="M232.41,358.43c0,1.69-0.81,2.63-2.26,2.63c-1.46,0-2.26-0.94-2.26-2.63c0-1.69,0.8-2.62,2.26-2.62
			C231.61,355.81,232.41,356.75,232.41,358.43z M229.09,358.43c0,1.22,0.33,1.74,1.06,1.74c0.72,0,1.06-0.52,1.06-1.74
			c0-1.21-0.33-1.72-1.06-1.72C229.42,356.71,229.09,357.22,229.09,358.43z"/>
		<path class="st0" d="M239.06,358.43c0,1.69-0.81,2.63-2.26,2.63c-1.46,0-2.26-0.94-2.26-2.63c0-1.69,0.8-2.62,2.26-2.62
			C238.25,355.81,239.06,356.75,239.06,358.43z M235.74,358.43c0,1.22,0.33,1.74,1.07,1.74c0.72,0,1.06-0.52,1.06-1.74
			c0-1.21-0.33-1.72-1.06-1.72C236.07,356.71,235.74,357.22,235.74,358.43z"/>
		<path class="st0" d="M241.9,361.03v-4.19h-0.98v-0.98h2.14v5.18H241.9z"/>
	</g>
	<g class="st17">
		<path class="st0" d="M189.14,337.83c0,1.69-0.81,2.63-2.26,2.63c-1.46,0-2.26-0.94-2.26-2.63c0-1.69,0.8-2.62,2.26-2.62
			C188.34,335.21,189.14,336.14,189.14,337.83z M185.82,337.83c0,1.22,0.33,1.74,1.06,1.74c0.72,0,1.06-0.52,1.06-1.74
			c0-1.21-0.33-1.72-1.06-1.72C186.15,336.1,185.82,336.61,185.82,337.83z"/>
		<path class="st0" d="M195.79,337.83c0,1.69-0.81,2.63-2.26,2.63c-1.46,0-2.26-0.94-2.26-2.63c0-1.69,0.8-2.62,2.26-2.62
			C194.98,335.21,195.79,336.14,195.79,337.83z M192.47,337.83c0,1.22,0.33,1.74,1.07,1.74c0.72,0,1.06-0.52,1.06-1.74
			c0-1.21-0.33-1.72-1.06-1.72C192.8,336.1,192.47,336.61,192.47,337.83z"/>
		<path class="st0" d="M198.63,340.42v-4.19h-0.98v-0.98h2.14v5.18H198.63z"/>
	</g>
	<g class="st17">
		<path class="st0" d="M204.32,351.91c0,1.69-0.81,2.63-2.26,2.63c-1.46,0-2.26-0.94-2.26-2.63c0-1.69,0.8-2.62,2.26-2.62
			C203.51,349.29,204.32,350.22,204.32,351.91z M201,351.91c0,1.22,0.33,1.74,1.06,1.74c0.72,0,1.06-0.52,1.06-1.74
			c0-1.21-0.33-1.72-1.06-1.72C201.33,350.18,201,350.69,201,351.91z"/>
		<path class="st0" d="M210.96,351.91c0,1.69-0.81,2.63-2.26,2.63c-1.46,0-2.26-0.94-2.26-2.63c0-1.69,0.8-2.62,2.26-2.62
			C210.16,349.29,210.96,350.22,210.96,351.91z M207.64,351.91c0,1.22,0.33,1.74,1.07,1.74c0.72,0,1.06-0.52,1.06-1.74
			c0-1.21-0.33-1.72-1.06-1.72C207.98,350.18,207.64,350.69,207.64,351.91z"/>
		<path class="st0" d="M213.81,354.5v-4.19h-0.98v-0.98h2.14v5.18H213.81z"/>
	</g>
	<g class="st17">
		<path class="st0" d="M211.91,358.95c0,1.69-0.81,2.63-2.26,2.63c-1.46,0-2.26-0.94-2.26-2.63c0-1.69,0.8-2.62,2.26-2.62
			C211.1,356.33,211.91,357.26,211.91,358.95z M208.59,358.95c0,1.22,0.33,1.74,1.06,1.74c0.72,0,1.06-0.52,1.06-1.74
			c0-1.21-0.33-1.72-1.06-1.72C208.92,357.22,208.59,357.73,208.59,358.95z"/>
		<path class="st0" d="M218.55,358.95c0,1.69-0.81,2.63-2.26,2.63c-1.46,0-2.26-0.94-2.26-2.63c0-1.69,0.8-2.62,2.26-2.62
			C217.75,356.33,218.55,357.26,218.55,358.95z M215.23,358.95c0,1.22,0.33,1.74,1.07,1.74c0.72,0,1.06-0.52,1.06-1.74
			c0-1.21-0.33-1.72-1.06-1.72C215.56,357.22,215.23,357.73,215.23,358.95z"/>
		<path class="st0" d="M221.4,361.54v-4.19h-0.98v-0.98h2.14v5.18H221.4z"/>
	</g>
	<g class="st17">
		<path class="st0" d="M219.5,365.99c0,1.69-0.81,2.63-2.26,2.63c-1.46,0-2.26-0.94-2.26-2.63c0-1.69,0.8-2.62,2.26-2.62
			C218.69,363.37,219.5,364.3,219.5,365.99z M216.17,365.99c0,1.22,0.33,1.74,1.06,1.74c0.72,0,1.06-0.52,1.06-1.74
			c0-1.21-0.33-1.72-1.06-1.72C216.51,364.26,216.17,364.77,216.17,365.99z"/>
		<path class="st0" d="M226.14,365.99c0,1.69-0.81,2.63-2.26,2.63c-1.46,0-2.26-0.94-2.26-2.63c0-1.69,0.8-2.62,2.26-2.62
			C225.33,363.37,226.14,364.3,226.14,365.99z M222.82,365.99c0,1.22,0.33,1.74,1.07,1.74c0.72,0,1.06-0.52,1.06-1.74
			c0-1.21-0.33-1.72-1.06-1.72C223.15,364.26,222.82,364.77,222.82,365.99z"/>
		<path class="st0" d="M228.98,368.58v-4.19h-0.98v-0.98h2.14v5.18H228.98z"/>
	</g>
</g>
<g>
	<g class="st17">
		<path class="st0" d="M391.38,245.76c0,1.69-0.81,2.63-2.26,2.63c-1.46,0-2.26-0.94-2.26-2.63c0-1.69,0.8-2.62,2.26-2.62
			C390.57,243.14,391.38,244.07,391.38,245.76z M388.06,245.76c0,1.22,0.33,1.74,1.06,1.74c0.73,0,1.06-0.52,1.06-1.74
			c0-1.21-0.33-1.72-1.06-1.72C388.39,244.04,388.06,244.55,388.06,245.76z"/>
		<path class="st0" d="M398.03,245.76c0,1.69-0.81,2.63-2.26,2.63c-1.46,0-2.26-0.94-2.26-2.63c0-1.69,0.8-2.62,2.26-2.62
			C397.22,243.14,398.03,244.07,398.03,245.76z M394.7,245.76c0,1.22,0.33,1.74,1.07,1.74c0.73,0,1.06-0.52,1.06-1.74
			c0-1.21-0.33-1.72-1.06-1.72C395.04,244.04,394.7,244.55,394.7,245.76z"/>
		<path class="st0" d="M400.87,248.36v-4.19h-0.98v-0.98h2.14v5.18H400.87z"/>
	</g>
	<g class="st17">
		<path class="st0" d="M398.97,252.8c0,1.69-0.81,2.63-2.26,2.63c-1.46,0-2.26-0.94-2.26-2.63c0-1.69,0.8-2.62,2.26-2.62
			C398.16,250.18,398.97,251.11,398.97,252.8z M395.65,252.8c0,1.22,0.33,1.74,1.06,1.74c0.72,0,1.06-0.52,1.06-1.74
			c0-1.21-0.33-1.72-1.06-1.72C395.98,251.08,395.65,251.59,395.65,252.8z"/>
		<path class="st0" d="M405.61,252.8c0,1.69-0.81,2.63-2.26,2.63c-1.46,0-2.26-0.94-2.26-2.63c0-1.69,0.8-2.62,2.26-2.62
			C404.81,250.18,405.61,251.11,405.61,252.8z M402.29,252.8c0,1.22,0.33,1.74,1.07,1.74c0.72,0,1.06-0.52,1.06-1.74
			c0-1.21-0.33-1.72-1.06-1.72C402.63,251.08,402.29,251.59,402.29,252.8z"/>
		<path class="st0" d="M408.46,255.4v-4.19h-0.98v-0.98h2.14v5.18H408.46z"/>
	</g>
	<g class="st17">
		<path class="st0" d="M406.56,259.84c0,1.69-0.81,2.63-2.26,2.63c-1.46,0-2.26-0.94-2.26-2.63c0-1.69,0.8-2.62,2.26-2.62
			C405.75,257.22,406.56,258.15,406.56,259.84z M403.24,259.84c0,1.22,0.33,1.74,1.06,1.74c0.72,0,1.06-0.52,1.06-1.74
			c0-1.21-0.33-1.72-1.06-1.72C403.57,258.12,403.24,258.63,403.24,259.84z"/>
		<path class="st0" d="M413.2,259.84c0,1.69-0.81,2.63-2.26,2.63c-1.46,0-2.26-0.94-2.26-2.63c0-1.69,0.8-2.62,2.26-2.62
			C412.4,257.22,413.2,258.15,413.2,259.84z M409.88,259.84c0,1.22,0.33,1.74,1.07,1.74c0.72,0,1.06-0.52,1.06-1.74
			c0-1.21-0.33-1.72-1.06-1.72C410.21,258.12,409.88,258.63,409.88,259.84z"/>
		<path class="st0" d="M416.05,262.44v-4.19h-0.98v-0.98h2.14v5.18H416.05z"/>
	</g>
	<g class="st17">
		<path class="st0" d="M414.15,266.88c0,1.69-0.81,2.63-2.26,2.63c-1.46,0-2.26-0.94-2.26-2.63c0-1.69,0.8-2.62,2.26-2.62
			C413.34,264.26,414.15,265.19,414.15,266.88z M410.82,266.88c0,1.22,0.33,1.74,1.06,1.74c0.72,0,1.06-0.52,1.06-1.74
			c0-1.21-0.33-1.72-1.06-1.72C411.16,265.16,410.82,265.67,410.82,266.88z"/>
		<path class="st0" d="M420.79,266.88c0,1.69-0.81,2.63-2.26,2.63c-1.46,0-2.26-0.94-2.26-2.63c0-1.69,0.8-2.62,2.26-2.62
			C419.98,264.26,420.79,265.19,420.79,266.88z M417.47,266.88c0,1.22,0.33,1.74,1.07,1.74c0.72,0,1.06-0.52,1.06-1.74
			c0-1.21-0.33-1.72-1.06-1.72C417.8,265.16,417.47,265.67,417.47,266.88z"/>
		<path class="st0" d="M423.63,269.48v-4.19h-0.98v-0.98h2.14v5.18H423.63z"/>
	</g>
	<g class="st17">
		<path class="st0" d="M421.73,273.92c0,1.69-0.81,2.63-2.26,2.63c-1.46,0-2.26-0.94-2.26-2.63c0-1.69,0.8-2.62,2.26-2.62
			C420.93,271.3,421.73,272.23,421.73,273.92z M418.41,273.92c0,1.22,0.33,1.74,1.06,1.74c0.72,0,1.06-0.52,1.06-1.74
			c0-1.21-0.33-1.72-1.06-1.72C418.75,272.2,418.41,272.71,418.41,273.92z"/>
		<path class="st0" d="M428.38,273.92c0,1.69-0.81,2.63-2.26,2.63c-1.46,0-2.26-0.94-2.26-2.63c0-1.69,0.8-2.62,2.26-2.62
			C427.57,271.3,428.38,272.23,428.38,273.92z M425.06,273.92c0,1.22,0.33,1.74,1.07,1.74c0.73,0,1.06-0.52,1.06-1.74
			c0-1.21-0.33-1.72-1.06-1.72C425.39,272.2,425.06,272.71,425.06,273.92z"/>
		<path class="st0" d="M431.22,276.52v-4.19h-0.98v-0.98h2.14v5.18H431.22z"/>
	</g>
	<g class="st17">
		<path class="st0" d="M378.46,253.31c0,1.69-0.81,2.63-2.26,2.63c-1.46,0-2.26-0.94-2.26-2.63c0-1.69,0.8-2.62,2.26-2.62
			C377.66,250.7,378.46,251.63,378.46,253.31z M375.14,253.31c0,1.22,0.33,1.74,1.06,1.74c0.72,0,1.06-0.52,1.06-1.74
			c0-1.21-0.33-1.72-1.06-1.72C375.47,251.59,375.14,252.1,375.14,253.31z"/>
		<path class="st0" d="M385.11,253.31c0,1.69-0.81,2.63-2.26,2.63c-1.46,0-2.26-0.94-2.26-2.63c0-1.69,0.8-2.62,2.26-2.62
			C384.3,250.7,385.11,251.63,385.11,253.31z M381.79,253.31c0,1.22,0.33,1.74,1.07,1.74c0.72,0,1.06-0.52,1.06-1.74
			c0-1.21-0.33-1.72-1.06-1.72C382.12,251.59,381.79,252.1,381.79,253.31z"/>
		<path class="st0" d="M387.95,255.91v-4.19h-0.98v-0.98h2.14v5.18H387.95z"/>
	</g>
	<g class="st17">
		<path class="st0" d="M393.64,267.39c0,1.69-0.81,2.63-2.26,2.63c-1.46,0-2.26-0.94-2.26-2.63c0-1.69,0.8-2.62,2.26-2.62
			C392.83,264.78,393.64,265.71,393.64,267.39z M390.32,267.39c0,1.22,0.33,1.74,1.06,1.74c0.72,0,1.06-0.52,1.06-1.74
			c0-1.21-0.33-1.72-1.06-1.72C390.65,265.67,390.32,266.18,390.32,267.39z"/>
		<path class="st0" d="M400.29,267.39c0,1.69-0.81,2.63-2.26,2.63c-1.46,0-2.26-0.94-2.26-2.63c0-1.69,0.8-2.62,2.26-2.62
			C399.48,264.78,400.29,265.71,400.29,267.39z M396.96,267.39c0,1.22,0.33,1.74,1.07,1.74c0.72,0,1.06-0.52,1.06-1.74
			c0-1.21-0.33-1.72-1.06-1.72C397.3,265.67,396.96,266.18,396.96,267.39z"/>
		<path class="st0" d="M403.13,269.99v-4.19h-0.98v-0.98h2.14v5.18H403.13z"/>
	</g>
	<g class="st17">
		<path class="st0" d="M401.23,274.43c0,1.69-0.81,2.63-2.26,2.63c-1.46,0-2.26-0.94-2.26-2.63c0-1.69,0.8-2.62,2.26-2.62
			C400.42,271.82,401.23,272.75,401.23,274.43z M397.91,274.43c0,1.22,0.33,1.74,1.06,1.74c0.72,0,1.06-0.52,1.06-1.74
			c0-1.21-0.33-1.72-1.06-1.72C398.24,272.71,397.91,273.22,397.91,274.43z"/>
		<path class="st0" d="M407.87,274.43c0,1.69-0.81,2.63-2.26,2.63c-1.46,0-2.26-0.94-2.26-2.63c0-1.69,0.8-2.62,2.26-2.62
			C407.07,271.82,407.87,272.75,407.87,274.43z M404.55,274.43c0,1.22,0.33,1.74,1.07,1.74c0.72,0,1.06-0.52,1.06-1.74
			c0-1.21-0.33-1.72-1.06-1.72C404.89,272.71,404.55,273.22,404.55,274.43z"/>
		<path class="st0" d="M410.72,277.03v-4.19h-0.98v-0.98h2.14v5.18H410.72z"/>
	</g>
	<g class="st17">
		<path class="st0" d="M408.82,281.47c0,1.69-0.81,2.63-2.26,2.63c-1.46,0-2.26-0.94-2.26-2.63c0-1.69,0.8-2.62,2.26-2.62
			C408.01,278.86,408.82,279.79,408.82,281.47z M405.5,281.47c0,1.22,0.33,1.74,1.06,1.74c0.72,0,1.06-0.52,1.06-1.74
			c0-1.21-0.33-1.72-1.06-1.72C405.83,279.75,405.5,280.26,405.5,281.47z"/>
		<path class="st0" d="M415.46,281.47c0,1.69-0.81,2.63-2.26,2.63c-1.46,0-2.26-0.94-2.26-2.63c0-1.69,0.8-2.62,2.26-2.62
			C414.66,278.86,415.46,279.79,415.46,281.47z M412.14,281.47c0,1.22,0.33,1.74,1.07,1.74c0.72,0,1.06-0.52,1.06-1.74
			c0-1.21-0.33-1.72-1.06-1.72C412.47,279.75,412.14,280.26,412.14,281.47z"/>
		<path class="st0" d="M418.31,284.07v-4.19h-0.98v-0.98h2.14v5.18H418.31z"/>
	</g>
</g>
<g>
	<g class="st17">
		<path class="st0" d="M78.66,274.41c0,1.69-0.81,2.63-2.26,2.63c-1.46,0-2.26-0.94-2.26-2.63c0-1.69,0.8-2.62,2.26-2.62
			C77.85,271.79,78.66,272.72,78.66,274.41z M75.34,274.41c0,1.22,0.33,1.74,1.06,1.74c0.72,0,1.06-0.52,1.06-1.74
			c0-1.21-0.33-1.72-1.06-1.72C75.67,272.68,75.34,273.2,75.34,274.41z"/>
		<path class="st0" d="M85.3,274.41c0,1.69-0.81,2.63-2.26,2.63c-1.46,0-2.26-0.94-2.26-2.63c0-1.69,0.8-2.62,2.26-2.62
			C84.5,271.79,85.3,272.72,85.3,274.41z M81.98,274.41c0,1.22,0.33,1.74,1.07,1.74c0.72,0,1.06-0.52,1.06-1.74
			c0-1.21-0.33-1.72-1.06-1.72C82.31,272.68,81.98,273.2,81.98,274.41z"/>
		<path class="st0" d="M88.15,277v-4.19h-0.98v-0.98h2.14V277H88.15z"/>
	</g>
	<g class="st17">
		<path class="st0" d="M86.25,267.61c0,1.69-0.81,2.63-2.26,2.63c-1.46,0-2.26-0.94-2.26-2.63c0-1.69,0.8-2.62,2.26-2.62
			C85.44,264.99,86.25,265.92,86.25,267.61z M82.92,267.61c0,1.22,0.33,1.74,1.06,1.74c0.72,0,1.06-0.52,1.06-1.74
			c0-1.21-0.33-1.72-1.06-1.72C83.26,265.88,82.92,266.39,82.92,267.61z"/>
		<path class="st0" d="M92.89,267.61c0,1.69-0.81,2.63-2.26,2.63c-1.46,0-2.26-0.94-2.26-2.63c0-1.69,0.8-2.62,2.26-2.62
			C92.08,264.99,92.89,265.92,92.89,267.61z M89.57,267.61c0,1.22,0.33,1.74,1.07,1.74c0.72,0,1.06-0.52,1.06-1.74
			c0-1.21-0.33-1.72-1.06-1.72C89.9,265.88,89.57,266.39,89.57,267.61z"/>
		<path class="st0" d="M95.73,270.2v-4.19h-0.98v-0.98h2.14v5.18H95.73z"/>
	</g>
	<g class="st17">
		<path class="st0" d="M93.83,260.8c0,1.69-0.81,2.63-2.26,2.63c-1.46,0-2.26-0.94-2.26-2.63c0-1.69,0.8-2.62,2.26-2.62
			C93.03,258.19,93.83,259.12,93.83,260.8z M90.51,260.8c0,1.22,0.33,1.74,1.06,1.74c0.72,0,1.06-0.52,1.06-1.74
			c0-1.21-0.33-1.72-1.06-1.72C90.85,259.08,90.51,259.59,90.51,260.8z"/>
		<path class="st0" d="M100.48,260.8c0,1.69-0.81,2.63-2.26,2.63c-1.46,0-2.26-0.94-2.26-2.63c0-1.69,0.8-2.62,2.26-2.62
			C99.67,258.19,100.48,259.12,100.48,260.8z M97.16,260.8c0,1.22,0.33,1.74,1.07,1.74c0.72,0,1.06-0.52,1.06-1.74
			c0-1.21-0.33-1.72-1.06-1.72C97.49,259.08,97.16,259.59,97.16,260.8z"/>
		<path class="st0" d="M103.32,263.4v-4.19h-0.98v-0.98h2.14v5.18H103.32z"/>
	</g>
	<g class="st17">
		<path class="st0" d="M101.42,254c0,1.69-0.81,2.63-2.26,2.63c-1.46,0-2.26-0.94-2.26-2.63c0-1.69,0.8-2.62,2.26-2.62
			C100.62,251.38,101.42,252.32,101.42,254z M98.1,254c0,1.22,0.33,1.74,1.06,1.74c0.72,0,1.06-0.52,1.06-1.74
			c0-1.21-0.33-1.72-1.06-1.72C98.43,252.28,98.1,252.79,98.1,254z"/>
		<path class="st0" d="M108.07,254c0,1.69-0.81,2.63-2.26,2.63c-1.46,0-2.26-0.94-2.26-2.63c0-1.69,0.8-2.62,2.26-2.62
			C107.26,251.38,108.07,252.32,108.07,254z M104.75,254c0,1.22,0.33,1.74,1.07,1.74c0.73,0,1.06-0.52,1.06-1.74
			c0-1.21-0.33-1.72-1.06-1.72C105.08,252.28,104.75,252.79,104.75,254z"/>
		<path class="st0" d="M110.91,256.6v-4.19h-0.98v-0.98h2.14v5.18H110.91z"/>
	</g>
	<g class="st17">
		<path class="st0" d="M109.01,247.2c0,1.69-0.81,2.63-2.26,2.63c-1.46,0-2.26-0.94-2.26-2.63c0-1.69,0.8-2.62,2.26-2.62
			C108.2,244.58,109.01,245.51,109.01,247.2z M105.69,247.2c0,1.22,0.33,1.74,1.06,1.74c0.72,0,1.06-0.52,1.06-1.74
			c0-1.21-0.33-1.72-1.06-1.72C106.02,245.48,105.69,245.99,105.69,247.2z"/>
		<path class="st0" d="M115.66,247.2c0,1.69-0.81,2.63-2.26,2.63c-1.46,0-2.26-0.94-2.26-2.63c0-1.69,0.8-2.62,2.26-2.62
			C114.85,244.58,115.66,245.51,115.66,247.2z M112.33,247.2c0,1.22,0.33,1.74,1.07,1.74c0.72,0,1.06-0.52,1.06-1.74
			c0-1.21-0.33-1.72-1.06-1.72C112.67,245.48,112.33,245.99,112.33,247.2z"/>
		<path class="st0" d="M118.5,249.8v-4.19h-0.98v-0.98h2.14v5.18H118.5z"/>
	</g>
	<g class="st17">
		<path class="st0" d="M88.5,283.8c0,1.69-0.81,2.63-2.26,2.63c-1.46,0-2.26-0.94-2.26-2.63c0-1.69,0.8-2.62,2.26-2.62
			C87.7,281.18,88.5,282.11,88.5,283.8z M85.18,283.8c0,1.22,0.33,1.74,1.06,1.74c0.72,0,1.06-0.52,1.06-1.74
			c0-1.21-0.33-1.72-1.06-1.72C85.52,282.08,85.18,282.59,85.18,283.8z"/>
		<path class="st0" d="M95.15,283.8c0,1.69-0.81,2.63-2.26,2.63c-1.46,0-2.26-0.94-2.26-2.63c0-1.69,0.8-2.62,2.26-2.62
			C94.34,281.18,95.15,282.11,95.15,283.8z M91.83,283.8c0,1.22,0.33,1.74,1.07,1.74c0.72,0,1.06-0.52,1.06-1.74
			c0-1.21-0.33-1.72-1.06-1.72C92.16,282.08,91.83,282.59,91.83,283.8z"/>
		<path class="st0" d="M97.99,286.39v-4.19h-0.98v-0.98h2.14v5.18H97.99z"/>
	</g>
	<g class="st17">
		<path class="st0" d="M96.09,277c0,1.69-0.81,2.63-2.26,2.63c-1.46,0-2.26-0.94-2.26-2.63c0-1.69,0.8-2.62,2.26-2.62
			C95.29,274.38,96.09,275.31,96.09,277z M92.77,277c0,1.22,0.33,1.74,1.06,1.74c0.72,0,1.06-0.52,1.06-1.74
			c0-1.21-0.33-1.72-1.06-1.72C93.1,275.27,92.77,275.78,92.77,277z"/>
		<path class="st0" d="M102.74,277c0,1.69-0.81,2.63-2.26,2.63c-1.46,0-2.26-0.94-2.26-2.63c0-1.69,0.8-2.62,2.26-2.62
			C101.93,274.38,102.74,275.31,102.74,277z M99.42,277c0,1.22,0.33,1.74,1.07,1.74c0.73,0,1.06-0.52,1.06-1.74
			c0-1.21-0.33-1.72-1.06-1.72C99.75,275.27,99.42,275.78,99.42,277z"/>
		<path class="st0" d="M105.58,279.59v-4.19h-0.98v-0.98h2.14v5.18H105.58z"/>
	</g>
	<g class="st17">
		<path class="st0" d="M103.68,270.19c0,1.69-0.81,2.63-2.26,2.63c-1.46,0-2.26-0.94-2.26-2.63c0-1.69,0.8-2.62,2.26-2.62
			C102.88,267.58,103.68,268.51,103.68,270.19z M100.36,270.19c0,1.22,0.33,1.74,1.06,1.74c0.72,0,1.06-0.52,1.06-1.74
			c0-1.21-0.33-1.72-1.06-1.72C100.69,268.47,100.36,268.98,100.36,270.19z"/>
		<path class="st0" d="M110.33,270.19c0,1.69-0.81,2.63-2.26,2.63c-1.46,0-2.26-0.94-2.26-2.63c0-1.69,0.8-2.62,2.26-2.62
			C109.52,267.58,110.33,268.51,110.33,270.19z M107.01,270.19c0,1.22,0.33,1.74,1.07,1.74c0.72,0,1.06-0.52,1.06-1.74
			c0-1.21-0.33-1.72-1.06-1.72C107.34,268.47,107.01,268.98,107.01,270.19z"/>
		<path class="st0" d="M113.17,272.79v-4.19h-0.98v-0.98h2.14v5.18H113.17z"/>
	</g>
	<g class="st17">
		<path class="st0" d="M111.27,263.39c0,1.69-0.81,2.63-2.26,2.63c-1.46,0-2.26-0.94-2.26-2.63c0-1.69,0.8-2.62,2.26-2.62
			C110.46,260.77,111.27,261.71,111.27,263.39z M107.95,263.39c0,1.22,0.33,1.74,1.06,1.74c0.73,0,1.06-0.52,1.06-1.74
			c0-1.21-0.33-1.72-1.06-1.72C108.28,261.67,107.95,262.18,107.95,263.39z"/>
		<path class="st0" d="M117.92,263.39c0,1.69-0.81,2.63-2.26,2.63c-1.46,0-2.26-0.94-2.26-2.63c0-1.69,0.8-2.62,2.26-2.62
			C117.11,260.77,117.92,261.71,117.92,263.39z M114.59,263.39c0,1.22,0.33,1.74,1.07,1.74c0.72,0,1.06-0.52,1.06-1.74
			c0-1.21-0.33-1.72-1.06-1.72C114.93,261.67,114.59,262.18,114.59,263.39z"/>
		<path class="st0" d="M120.76,265.99v-4.19h-0.98v-0.98h2.14v5.18H120.76z"/>
	</g>
	<g class="st17">
		<path class="st0" d="M118.86,256.59c0,1.69-0.81,2.63-2.26,2.63c-1.46,0-2.26-0.94-2.26-2.63c0-1.69,0.8-2.62,2.26-2.62
			C118.05,253.97,118.86,254.9,118.86,256.59z M115.54,256.59c0,1.22,0.33,1.74,1.06,1.74c0.72,0,1.06-0.52,1.06-1.74
			c0-1.21-0.33-1.72-1.06-1.72C115.87,254.87,115.54,255.38,115.54,256.59z"/>
		<path class="st0" d="M125.5,256.59c0,1.69-0.81,2.63-2.26,2.63c-1.46,0-2.26-0.94-2.26-2.63c0-1.69,0.8-2.62,2.26-2.62
			C124.7,253.97,125.5,254.9,125.5,256.59z M122.18,256.59c0,1.22,0.33,1.74,1.07,1.74c0.72,0,1.06-0.52,1.06-1.74
			c0-1.21-0.33-1.72-1.06-1.72C122.52,254.87,122.18,255.38,122.18,256.59z"/>
		<path class="st0" d="M128.35,259.19v-4.19h-0.98v-0.98h2.14v5.18H128.35z"/>
	</g>
</g>
<g>
	<polyline class="st14" points="109.53,147.95 162.94,147.95 162.94,185.03 	"/>
	<path class="st14" d="M168.6,190.25c0,3.12-2.53,5.65-5.65,5.65s-5.65-2.53-5.65-5.65s2.53-5.65,5.65-5.65
		S168.6,187.13,168.6,190.25z"/>
</g>
<g>
	<polyline class="st14" points="377.07,357.92 323.66,357.92 323.66,320.84 	"/>
	<path class="st14" d="M318,315.62c0-3.12,2.53-5.65,5.65-5.65c3.12,0,5.65,2.53,5.65,5.65c0,3.12-2.53,5.65-5.65,5.65
		C320.53,321.27,318,318.74,318,315.62z"/>
</g>
<polyline class="st18" points="120.08,349.66 131.21,368.46 166.39,311.34 "/>
<g>
	<g>
		<polygon class="st0" points="280.6,211.67 256.61,225.37 278.04,239.3 302.41,225.48 		"/>
		<polyline class="st1" points="278.04,239.3 278.58,262.87 256.61,250.01 256.61,225.37 		"/>
		<polyline class="st2" points="278.58,262.87 278.04,239.3 302.41,225.48 301.9,250.35 278.58,262.87 		"/>
		<polyline class="st2" points="341.06,299.01 340.52,275.44 364.9,261.62 364.38,286.49 341.06,299.01 		"/>
	</g>
	<g>
		<polygon class="st0" points="343.09,247.86 319.09,261.57 340.52,275.5 364.9,261.68 		"/>
		<polyline class="st1" points="319.09,261.57 319.09,286.21 341.06,299.07 340.52,275.5 		"/>
	</g>
	<polyline class="st2" points="283.8,334.56 283.26,310.99 307.64,297.17 307.12,322.04 283.8,334.56 	"/>
	<g>
		<polygon class="st0" points="285.83,283.41 261.83,297.12 283.26,311.05 307.64,297.23 		"/>
		<polyline class="st1" points="261.83,297.12 261.83,321.76 283.8,334.62 283.26,311.05 		"/>
	</g>
	<path class="st3" d="M267.59,244.18"/>
	<line class="st3" x1="329.51" y1="281.65" x2="303.87" y2="295.86"/>
	<line class="st3" x1="290.49" y1="244.12" x2="322.99" y2="261.68"/>
</g>
<line class="st14" x1="168.41" y1="112.01" x2="177.33" y2="112.01"/>
<line class="st14" x1="348.75" y1="128.97" x2="357.67" y2="128.97"/>
<line class="st14" x1="435.34" y1="254.19" x2="444.26" y2="254.19"/>
<line class="st14" x1="44.36" y1="239.27" x2="53.28" y2="239.27"/>
<line class="st14" x1="333.79" y1="200.9" x2="342.72" y2="200.9"/>
<line class="st14" x1="276.12" y1="358.44" x2="285.04" y2="358.44"/>
<line class="st14" x1="69.68" y1="354.02" x2="78.6" y2="354.02"/>
<line class="st14" x1="146.26" y1="279.38" x2="155.18" y2="279.38"/>
</svg>
