<?xml version="1.0" encoding="utf-8"?>
<!-- Generator: Adobe Illustrator 23.0.5, SVG Export Plug-In . SVG Version: 6.00 Build 0)  -->
<svg version="1.1" id="Layer_1" xmlns="http://www.w3.org/2000/svg" xmlns:xlink="http://www.w3.org/1999/xlink" x="0px" y="0px"
	 viewBox="0 0 500 500" style="enable-background:new 0 0 500 500;" xml:space="preserve">
<style type="text/css">
	.st0{fill:#FFFFFF;}
</style>
<g>
	<g>
		<path class="st0" d="M243.85,111c-9.42,0-17.09,7.66-17.09,17.09c0,9.42,7.66,17.09,17.09,17.09c9.42,0,17.09-7.66,17.09-17.09
			C260.94,118.67,253.27,111,243.85,111z M243.85,142.44c-7.91,0-14.35-6.44-14.35-14.35c0-7.91,6.44-14.35,14.35-14.35
			c7.91,0,14.35,6.43,14.35,14.35C258.19,136,251.76,142.44,243.85,142.44z"/>
	</g>
	<g>
		<path class="st0" d="M243.85,115.64c-6.87,0-12.45,5.58-12.45,12.45c0,2.92,1.03,5.76,2.91,7.99l0.7-0.59
			c-0.34-0.41-0.65-0.85-0.93-1.29l0.81-0.47c-0.15-0.23-0.28-0.47-0.41-0.71l-0.81,0.47c-0.34-0.65-0.62-1.33-0.84-2.03l0.9-0.24
			c-0.08-0.26-0.15-0.52-0.21-0.79l-0.9,0.24c-0.16-0.71-0.26-1.44-0.29-2.17h0.94c-0.01-0.13-0.01-0.27-0.01-0.41
			c0-0.14,0-0.27,0.01-0.41h-0.95c0.03-0.75,0.12-1.47,0.29-2.18l0.91,0.25c0.06-0.27,0.13-0.53,0.21-0.79l-0.91-0.24
			c0.22-0.71,0.5-1.38,0.84-2.03l0.81,0.47c0.13-0.24,0.27-0.48,0.41-0.71l-0.81-0.47c0.39-0.62,0.84-1.2,1.34-1.74l0.66,0.66
			c0.19-0.2,0.38-0.39,0.58-0.58l-0.66-0.66c0.53-0.5,1.12-0.95,1.74-1.34l0.47,0.81c0.23-0.14,0.47-0.28,0.71-0.41l-0.47-0.81
			c0.64-0.34,1.32-0.63,2.03-0.84l0.25,0.91c0.26-0.08,0.53-0.15,0.79-0.21l-0.25-0.91c0.7-0.16,1.43-0.26,2.18-0.29v0.95
			c0.14-0.01,0.27-0.01,0.41-0.01c0.14,0,0.27,0,0.41,0.01v-0.95c0.75,0.03,1.47,0.12,2.18,0.29l-0.25,0.91
			c0.27,0.06,0.53,0.13,0.8,0.21l0.24-0.91c0.71,0.22,1.39,0.5,2.03,0.84l-0.47,0.81c0.25,0.13,0.48,0.27,0.71,0.41l0.47-0.82
			c0.62,0.39,1.2,0.84,1.74,1.34l-0.67,0.66c0.2,0.19,0.4,0.38,0.58,0.58l0.66-0.66c0.5,0.53,0.95,1.12,1.34,1.74l-0.81,0.47
			c0.14,0.23,0.28,0.47,0.41,0.71l0.81-0.47c0.34,0.64,0.63,1.32,0.85,2.03l-0.91,0.24c0.08,0.26,0.15,0.53,0.21,0.79l0.91-0.25
			c0.16,0.7,0.26,1.43,0.29,2.18h-0.95c0.01,0.14,0.01,0.27,0.01,0.41c0,0.14-0.01,0.27-0.01,0.41h0.94
			c-0.03,0.74-0.12,1.46-0.29,2.17l-0.9-0.24c-0.06,0.27-0.13,0.54-0.21,0.8l0.9,0.24c-0.21,0.7-0.49,1.38-0.84,2.03l-0.81-0.47
			c-0.13,0.24-0.27,0.48-0.41,0.71l0.81,0.47c-0.28,0.45-0.58,0.88-0.92,1.29l0.7,0.59c1.87-2.24,2.9-5.08,2.9-7.99
			C256.3,121.22,250.71,115.64,243.85,115.64z"/>
	</g>
	<g>
		<path class="st0" d="M249.88,121.41l-5.18,5.18c-0.25-0.14-0.54-0.23-0.85-0.23c-0.96,0-1.73,0.77-1.73,1.73
			c0,0.31,0.09,0.6,0.23,0.85l-1.17,1.17c-0.18,0.18-0.18,0.47,0,0.64c0.09,0.09,0.21,0.13,0.32,0.13c0.12,0,0.24-0.04,0.32-0.13
			l1.17-1.17c0.25,0.15,0.54,0.23,0.85,0.23c0.95,0,1.73-0.77,1.73-1.73c0-0.31-0.09-0.6-0.23-0.85l5.18-5.18
			c0.18-0.18,0.18-0.47,0-0.65C250.34,121.23,250.06,121.23,249.88,121.41z"/>
	</g>
	<g>
		<path class="st0" d="M238.7,136.14v2.23c0,0.18,0.15,0.33,0.33,0.33h2.76v-2.89h-2.76C238.85,135.81,238.7,135.96,238.7,136.14z"
			/>
	</g>
	<g>
		<rect x="242.48" y="135.81" class="st0" width="2.74" height="2.89"/>
	</g>
	<g>
		<path class="st0" d="M248.66,135.81h-2.76v2.89h2.76c0.18,0,0.33-0.15,0.33-0.33v-2.23C248.99,135.96,248.85,135.81,248.66,135.81
			z"/>
	</g>
</g>
<g>
	<g>
		<path class="st0" d="M430.85,362.14l1.64,0.38l0.31-1.01l-1.59-0.37l5.85-1.37c0.88-0.2,1.32-0.54,1.32-1c0-0.46-0.44-0.79-1.32-1
			l-1.64-0.38l-0.31,1.01l1.59,0.37l-2.07,0.49v-4.61h-1.33v4.92l-2.44,0.57c-0.87,0.2-1.32,0.54-1.32,1
			S429.98,361.94,430.85,362.14z"/>
	</g>
	<g>
		<path class="st0" d="M430.85,366.17l0.77,0.18l0.31-1.01l-0.71-0.17l5.85-1.37c0.88-0.21,1.32-0.54,1.32-1s-0.44-0.8-1.32-1
			l-0.77-0.18l-0.31,1.01l0.71,0.17l-1.83,0.43h-0.25v-1.81l-1.33,0.32v1.5h-0.68l-0.08,0.26v0.29l-1.68,0.39
			c-0.87,0.21-1.32,0.54-1.32,1C429.53,365.63,429.98,365.96,430.85,366.17z"/>
	</g>
	<g>
		<path class="st0" d="M430.85,374.22l0.77,0.18l0.31-1.01l-0.71-0.17l5.85-1.37c0.88-0.21,1.32-0.54,1.32-1
			c0-0.46-0.44-0.79-1.32-1l-0.77-0.18l-0.31,1.01l0.71,0.17l-1.31,0.31v-1.87l-2.86,0.67v1.87l-1.68,0.39
			c-0.87,0.21-1.32,0.54-1.32,1C429.53,373.68,429.98,374.02,430.85,374.22z"/>
	</g>
	<g>
		<path class="st0" d="M430.85,370.2l0.77,0.18l0.31-1.01l-0.71-0.17l5.85-1.37c0.88-0.21,1.32-0.54,1.32-1s-0.44-0.8-1.32-1
			l-0.77-0.18l-0.31,1.01l0.71,0.17l-1.31,0.31v-1.87l-2.86,0.67v1.87l-1.68,0.39c-0.87,0.21-1.32,0.54-1.32,1
			C429.53,369.65,429.98,369.99,430.85,370.2z"/>
	</g>
	<g>
		<path class="st0" d="M449.8,365.3h-8.84c-0.58,0-1.05,0.47-1.05,1.05v9.39h-4.52v-2.41l-2.86,0.67v1.74h-5.05v2.66h12.43v9.39
			c0,0.58,0.47,1.05,1.05,1.05h8.84c0.58,0,1.05-0.47,1.05-1.05v-21.43C450.85,365.77,450.38,365.3,449.8,365.3z M447.73,367.02
			l0.82-0.82h1.25c0.01,0,0.01,0.01,0.02,0.01l-2.09,2.09V367.02z M443.21,387.9l-2.39-2.39v-1.28l2.39,2.39V387.9z M443.21,384.64
			l-2.39-2.39v-1.28l2.39,2.39V384.64z M443.21,381.39l-2.39-2.39v-1.28l2.39,2.39V381.39z M443.21,378.13l-2.39-2.39v-1.28
			l2.39,2.39V378.13z M443.21,374.88l-2.39-2.39v-1.28l2.39,2.39V374.88z M443.21,371.62l-2.39-2.39v-1.28l2.39,2.39V371.62z
			 M443.21,368.37l-2.17-2.16h1.28l0.89,0.88V368.37z M445.01,387.92h-0.9V366.2h0.9V387.92z M446.83,387.92h-0.91V366.2h0.91
			V387.92z M449.94,385.62l-2.21,2.21v-1.28l2.21-2.21V385.62z M449.94,382.36l-2.21,2.21v-1.28l2.21-2.21V382.36z M449.94,379.11
			l-2.21,2.21v-1.28l2.21-2.21V379.11z M449.94,375.85l-2.21,2.21v-1.28l2.21-2.21V375.85z M449.94,372.6l-2.21,2.21v-1.28
			l2.21-2.21V372.6z M449.94,369.34l-2.21,2.21v-1.28l2.21-2.21V369.34z"/>
	</g>
</g>
<g>
	<g>
		<path class="st0" d="M86.83,121.53v-0.73c0-0.25-0.2-0.45-0.46-0.45H83.9c-0.25,0-0.46,0.2-0.46,0.45v0.73
			c0,0.25-0.2,0.46-0.46,0.46H68.24c-0.25,0-0.46-0.21-0.46-0.46v-0.73c0-0.25-0.2-0.45-0.46-0.45h-2.48c-0.25,0-0.46,0.2-0.46,0.45
			v0.73c0,0.25-0.2,0.46-0.45,0.46h-4.96c-0.25,0-0.45,0.2-0.45,0.46v2.12H92.7v-2.12c0-0.25-0.2-0.46-0.45-0.46h-4.96
			C87.04,121.98,86.83,121.78,86.83,121.53z"/>
	</g>
	<g>
		<path class="st0" d="M60.47,127.11h0.6c0.25,0,0.46,0.2,0.46,0.45v2.48c0,0.25-0.2,0.46-0.46,0.46h-0.6
			c-0.25,0-0.45,0.2-0.45,0.46v13.76c0,0.25,0.2,0.45,0.45,0.45h30.28c0.25,0,0.45-0.2,0.45-0.45v-13.76c0-0.25-0.2-0.46-0.45-0.46
			h-0.6c-0.25,0-0.46-0.2-0.46-0.46v-2.48c0-0.25,0.2-0.45,0.46-0.45h0.6c0.25,0,0.45-0.21,0.45-0.46v-1.19H60.02v1.19
			C60.02,126.91,60.22,127.11,60.47,127.11z M83.28,133.46h1.41v-1.4c0-0.25,0.2-0.46,0.46-0.46l0,0c0.25,0,0.46,0.21,0.46,0.46v1.4
			H87c0.25,0,0.45,0.2,0.45,0.46l0,0c0,0.25-0.2,0.45-0.45,0.45H85.6v1.41c0,0.25-0.2,0.46-0.46,0.46l0,0
			c-0.25,0-0.46-0.21-0.46-0.46v-1.41h-1.41c-0.25,0-0.45-0.2-0.45-0.45l0,0C82.82,133.66,83.03,133.46,83.28,133.46z M64.23,133.46
			h3.72c0.25,0,0.45,0.2,0.45,0.46l0,0c0,0.25-0.2,0.45-0.45,0.45h-3.72c-0.25,0-0.46-0.2-0.46-0.45l0,0
			C63.77,133.66,63.97,133.46,64.23,133.46z"/>
	</g>
</g>
<g>
	<g>
		<path class="st0" d="M107.89,141.19h24.43c0.27,0,0.5-0.22,0.5-0.5v-2.49H107.4v2.49C107.4,140.97,107.62,141.19,107.89,141.19z"
			/>
	</g>
	<g>
		<path class="st0" d="M107.4,111.5v2.49h25.42v-2.49c0-0.27-0.22-0.5-0.5-0.5h-24.43C107.62,111,107.4,111.22,107.4,111.5z"/>
	</g>
	<g>
		<polygon class="st0" points="120.75,115.77 120.75,136.43 122.9,137.21 122.9,114.98 		"/>
	</g>
	<g>
		<polygon class="st0" points="124.05,115.77 124.05,136.43 126.19,137.21 126.19,114.98 		"/>
	</g>
	<g>
		<polygon class="st0" points="127.33,115.77 127.33,136.43 129.49,137.21 129.49,114.98 		"/>
	</g>
	<g>
		<polygon class="st0" points="130.63,115.77 130.63,136.43 132.78,137.21 132.78,114.98 		"/>
	</g>
	<g>
		<polygon class="st0" points="117.31,114.98 117.31,137.21 119.46,136.43 119.46,115.77 		"/>
	</g>
	<g>
		<polygon class="st0" points="114.02,114.98 114.02,137.21 116.17,136.43 116.17,115.77 		"/>
	</g>
	<g>
		<polygon class="st0" points="110.73,114.98 110.73,137.21 112.88,136.43 112.88,115.77 		"/>
	</g>
	<g>
		<polygon class="st0" points="107.44,114.98 107.44,137.21 109.59,136.43 109.59,115.77 		"/>
	</g>
	<g>
		<path class="st0" d="M111.99,145.18h16.23c0.27,0,0.5-0.22,0.5-0.5v-2.49H111.5v2.49C111.5,144.95,111.72,145.18,111.99,145.18z"
			/>
	</g>
</g>
<g>
	<g>
		<path class="st0" d="M292.95,375.23C292.95,375.23,292.95,375.23,292.95,375.23c1.55-1.04,2.95-2.08,3.76-2.89
			c0.41-0.41,0.67-0.77,0.71-1.04c0.13-0.8-1.34-3-3.11-5.33c0,0-0.01-0.01-0.01-0.01c-0.27-0.35-0.54-0.71-0.82-1.06
			c-2.73,3.11-3.28,7.46-1.67,11.08c0.35-0.23,0.7-0.46,1.04-0.69C292.89,375.27,292.92,375.25,292.95,375.23z M293.81,366.69
			c2.5,3.31,2.76,4.29,2.79,4.48c-0.03,0.06-0.14,0.24-0.47,0.58c-0.65,0.65-1.83,1.56-3.45,2.66
			C291.88,371.83,292.26,368.99,293.81,366.69z"/>
	</g>
	<g>
		<path class="st0" d="M295.54,364.75c2.33,1.77,4.54,3.24,5.33,3.11c0.27-0.04,0.62-0.3,1.04-0.71c0.81-0.81,1.84-2.21,2.89-3.77
			c0,0,0,0,0,0c0.02-0.03,0.03-0.05,0.05-0.08c0.23-0.35,0.46-0.7,0.7-1.05c-3.62-1.61-7.97-1.06-11.08,1.67
			C294.82,364.2,295.18,364.47,295.54,364.75C295.54,364.74,295.54,364.75,295.54,364.75z M303.98,363.1
			c-1.09,1.62-2.01,2.8-2.66,3.45c-0.33,0.33-0.51,0.44-0.58,0.47c-0.2-0.03-1.17-0.29-4.48-2.79
			C298.56,362.69,301.41,362.31,303.98,363.1z"/>
	</g>
	<g>
		<path class="st0" d="M299.64,375.65c-0.7-0.36-3.16,0.27-5.85,1.15c0,0,0,0,0,0c-0.01,0-0.01,0.01-0.02,0.01
			c-0.43,0.14-0.86,0.28-1.29,0.43c0.41,0.66,0.9,1.29,1.47,1.86c2.28,2.28,5.38,3.28,8.37,2.99
			C301.46,379,300.45,376.06,299.64,375.65z M294.9,378.14c-0.21-0.21-0.4-0.42-0.58-0.64c3.8-1.22,4.76-1.15,4.94-1.11
			c0.13,0.11,0.71,0.82,1.8,4.38C298.83,380.72,296.61,379.85,294.9,378.14z"/>
	</g>
	<g>
		<path class="st0" d="M304.46,374.88c-0.54,0.55-0.7,2.9-0.7,5.57c0,0.45,0,0.91,0.01,1.37c1.79-0.43,3.5-1.34,4.9-2.74
			c1.4-1.4,2.3-3.1,2.74-4.9C308.2,374.14,305.09,374.25,304.46,374.88z M307.72,378.14c-0.92,0.92-1.98,1.58-3.12,2.02
			c0.02-3.71,0.37-4.54,0.46-4.68c0.14-0.08,0.97-0.44,4.68-0.46C309.29,376.16,308.63,377.23,307.72,378.14z"/>
	</g>
	<g>
		<path class="st0" d="M306.8,362.92c-1.09,3.16-2,6.34-1.58,7.16c0.41,0.8,3.35,1.81,6.43,2.68c0.29-2.99-0.71-6.08-2.99-8.37
			C308.09,363.81,307.46,363.33,306.8,362.92z M305.97,369.69c-0.04-0.18-0.11-1.13,1.1-4.94c0.22,0.18,0.43,0.37,0.64,0.58
			c1.71,1.7,2.58,3.92,2.64,6.16C306.79,370.4,306.09,369.82,305.97,369.69z"/>
	</g>
	<g>
		<path class="st0" d="M300.3,372.11c0,0.54,0.44,0.98,0.97,0.98c0.54,0,0.97-0.44,0.97-0.98c0-0.54-0.44-0.97-0.97-0.97
			C300.74,371.14,300.3,371.57,300.3,372.11z"/>
	</g>
	<g>
		<path class="st0" d="M301.84,369.52c0-0.28-0.23-0.51-0.51-0.51c-0.28,0-0.51,0.23-0.51,0.51c0,0.28,0.23,0.51,0.51,0.51
			C301.61,370.03,301.84,369.8,301.84,369.52z"/>
	</g>
	<g>
		<path class="st0" d="M298.98,370.77c-0.27-0.09-0.55,0.06-0.64,0.33c-0.09,0.27,0.06,0.55,0.33,0.64
			c0.27,0.09,0.55-0.06,0.64-0.32C299.4,371.15,299.25,370.86,298.98,370.77z"/>
	</g>
	<g>
		<path class="st0" d="M300.12,374.48c0.17-0.23,0.11-0.55-0.11-0.71c-0.23-0.17-0.55-0.11-0.71,0.11
			c-0.16,0.23-0.11,0.55,0.11,0.71C299.64,374.76,299.96,374.71,300.12,374.48z"/>
	</g>
	<g>
		<path class="st0" d="M302.46,373.83c-0.23,0.16-0.28,0.48-0.11,0.71c0.17,0.23,0.48,0.28,0.71,0.11c0.23-0.16,0.28-0.48,0.11-0.71
			C303.01,373.71,302.69,373.66,302.46,373.83z"/>
	</g>
	<g>
		<path class="st0" d="M304.25,371.2c-0.09-0.27-0.37-0.41-0.64-0.32c-0.27,0.09-0.41,0.37-0.33,0.64c0.09,0.27,0.37,0.41,0.64,0.32
			C304.19,371.76,304.34,371.47,304.25,371.2z"/>
	</g>
	<g>
		<path class="st0" d="M317.9,371.1c0.27-0.06,0.47-0.32,0.45-0.61c-0.07-0.98-0.23-1.96-0.46-2.91c-0.07-0.28-0.34-0.46-0.62-0.44
			c0.25-0.13,0.38-0.42,0.29-0.7c-0.3-0.93-0.69-1.85-1.15-2.71c-0.14-0.26-0.43-0.37-0.7-0.28c0.21-0.18,0.27-0.5,0.11-0.74
			c-0.52-0.83-1.11-1.62-1.77-2.36c-0.19-0.22-0.51-0.25-0.75-0.1c0.16-0.23,0.14-0.55-0.07-0.75c-0.7-0.69-1.47-1.31-2.27-1.87
			c-0.24-0.17-0.56-0.12-0.75,0.08c0.11-0.26,0.01-0.57-0.24-0.72c-0.85-0.5-1.74-0.93-2.66-1.27c-0.27-0.1-0.57,0.01-0.71,0.26
			c0.04-0.28-0.13-0.55-0.41-0.64c-0.94-0.28-1.91-0.48-2.88-0.59c-0.29-0.04-0.55,0.15-0.63,0.42c-0.03-0.28-0.26-0.51-0.55-0.52
			c-0.97-0.05-1.97-0.01-2.94,0.11c-0.29,0.03-0.5,0.28-0.51,0.56c-0.09-0.27-0.37-0.43-0.66-0.38c-0.96,0.19-1.91,0.46-2.83,0.81
			c-0.27,0.1-0.42,0.39-0.36,0.66c-0.16-0.23-0.46-0.32-0.73-0.2c-0.89,0.41-1.75,0.91-2.55,1.47c-0.24,0.17-0.32,0.48-0.19,0.73
			c-0.21-0.19-0.53-0.21-0.76-0.03c-0.76,0.61-1.48,1.3-2.13,2.03c-0.19,0.22-0.19,0.54-0.01,0.75c-0.25-0.13-0.56-0.07-0.74,0.16
			c-0.6,0.78-1.13,1.61-1.58,2.48c-0.14,0.26-0.06,0.57,0.17,0.74c-0.27-0.07-0.57,0.06-0.68,0.33c-0.39,0.9-0.71,1.84-0.94,2.79
			c-0.07,0.28,0.08,0.57,0.34,0.67c-0.3,0-0.53,0.2-0.58,0.48c-0.16,0.95-0.24,1.93-0.24,2.9v0.03c0,0.32,0.25,0.55,0.56,0.57
			c-0.31,0.03-0.54,0.3-0.52,0.61c0.07,0.98,0.22,1.96,0.46,2.91c0.07,0.28,0.34,0.46,0.62,0.44c-0.25,0.13-0.38,0.42-0.29,0.69
			c0.3,0.94,0.68,1.85,1.14,2.72c0.14,0.26,0.44,0.37,0.7,0.28c-0.21,0.18-0.27,0.5-0.11,0.75c0.52,0.83,1.11,1.63,1.76,2.36
			c0.2,0.22,0.51,0.26,0.75,0.1c-0.16,0.23-0.14,0.55,0.07,0.75c0.7,0.69,1.46,1.32,2.27,1.87c0.24,0.16,0.56,0.12,0.75-0.08
			c-0.11,0.26-0.01,0.57,0.24,0.72c0.85,0.5,1.74,0.93,2.65,1.28c0.27,0.1,0.58-0.01,0.71-0.26c-0.04,0.28,0.13,0.56,0.41,0.64
			c0.94,0.28,1.91,0.48,2.88,0.6c0.28,0.03,0.55-0.15,0.63-0.42c0.03,0.28,0.26,0.51,0.55,0.52c0.29,0.01,0.58,0.02,0.87,0.02
			c0.69,0,1.39-0.04,2.08-0.13c0.29-0.03,0.5-0.28,0.51-0.56c0.09,0.26,0.37,0.43,0.65,0.38c0.96-0.19,1.92-0.46,2.83-0.8
			c0.27-0.1,0.42-0.39,0.36-0.66c0.15,0.23,0.46,0.32,0.72,0.2c0.89-0.41,1.75-0.9,2.55-1.46c0.24-0.17,0.32-0.48,0.19-0.73
			c0.21,0.19,0.53,0.21,0.75,0.03c0.77-0.61,1.49-1.29,2.14-2.03c0.19-0.22,0.19-0.54,0.01-0.76c0.25,0.14,0.56,0.08,0.74-0.15
			c0.6-0.78,1.14-1.61,1.59-2.48c0.14-0.26,0.06-0.57-0.17-0.74c0.27,0.08,0.57-0.06,0.68-0.32c0.4-0.9,0.72-1.84,0.95-2.79
			c0.07-0.28-0.08-0.57-0.35-0.67c0.3,0,0.54-0.2,0.59-0.48c0.17-0.96,0.25-1.95,0.25-2.93v-0.07
			C318.4,371.38,318.18,371.14,317.9,371.1z M309.85,380.28c-4.71,4.71-12.38,4.71-17.09,0c-4.71-4.71-4.71-12.38,0-17.09
			c4.71-4.71,12.37-4.71,17.09,0C314.56,367.9,314.56,375.57,309.85,380.28z"/>
	</g>
</g>
<g>
	<g>
		<path class="st0" d="M291.2,127.64c-1.44,0-2.6,1.16-2.6,2.6c0,1.43,1.16,2.6,2.6,2.6c1.43,0,2.6-1.16,2.6-2.6
			C293.8,128.81,292.64,127.64,291.2,127.64z M291.2,131.48c-0.69,0-1.24-0.56-1.24-1.24c0-0.69,0.55-1.24,1.24-1.24
			c0.69,0,1.24,0.56,1.24,1.24C292.44,130.93,291.89,131.48,291.2,131.48z"/>
	</g>
	<g>
		<path class="st0" d="M309.66,127.64c-1.43,0-2.6,1.16-2.6,2.6c0,1.43,1.16,2.6,2.6,2.6c1.44,0,2.6-1.16,2.6-2.6
			C312.26,128.81,311.1,127.64,309.66,127.64z M309.66,131.48c-0.69,0-1.24-0.56-1.24-1.24c0-0.69,0.55-1.24,1.24-1.24
			c0.69,0,1.24,0.56,1.24,1.24C310.91,130.93,310.35,131.48,309.66,131.48z"/>
	</g>
	<g>
		<path class="st0" d="M315.76,128.87v-5.46c0-0.22-0.17-0.46-0.38-0.53l-2.08-0.71c-0.21-0.07-0.53-0.25-0.69-0.39l-3.14-2.6
			c-0.17-0.14-0.49-0.25-0.72-0.25L298.31,119c-0.22,0-0.54,0.12-0.71,0.26l-4.08,3.48c-0.17,0.14-0.48,0.31-0.7,0.38l-5.53,1.7
			c-0.21,0.06-0.47,0.28-0.56,0.48l-1.09,2.17c-0.1,0.2-0.14,0.54-0.1,0.75l0.32,1.62c0.05,0.22,0.27,0.4,0.49,0.4h1.46
			c0-1.88,1.52-3.4,3.4-3.4s3.4,1.52,3.4,3.4h11.66c0-1.88,1.52-3.4,3.4-3.4c1.72,0,3.15,1.29,3.37,2.96l2.33-0.44
			C315.58,129.31,315.76,129.09,315.76,128.87z M289.41,125.59c-1.04,1.38-2.49,1.38-2.49,1.38c-0.22,0-0.32-0.16-0.22-0.36
			l0.39-0.77c0.1-0.2,0.36-0.38,0.58-0.4l1.56-0.15C289.46,125.27,289.55,125.41,289.41,125.59z M294.51,122.96l3.62-3.08
			c0.04-0.03,0.15-0.07,0.2-0.07l3.9-0.03l0.26,2.93L294.51,122.96z M303.29,122.68l-0.26-2.91l5.05-0.04l0.24,2.78L303.29,122.68z
			 M309.13,122.49l-0.24-2.73c0.03,0.01,0.05,0.02,0.06,0.03l3.13,2.59L309.13,122.49z"/>
	</g>
	<g>
		<path class="st0" d="M307.82,141.5c0,0.13-0.1,0.23-0.23,0.23h-13.9c-0.12,0-0.23-0.1-0.23-0.23v-1.15h-17.83v4.02
			c0,0.44,0.36,0.81,0.8,0.81h48.41c0.44,0,0.8-0.36,0.8-0.81v-4.02h-17.83V141.5z"/>
	</g>
	<g>
		<path class="st0" d="M280.06,138.97h41.16c0.33,0,0.61-0.27,0.61-0.61V113.4c0-0.34-0.28-0.61-0.61-0.61h-41.16
			c-0.34,0-0.62,0.27-0.62,0.61v24.95C279.44,138.69,279.72,138.97,280.06,138.97z M280.59,113.93h40.1v23.89h-40.1V113.93z"/>
	</g>
	<g>
		<polygon class="st0" points="318.24,132.42 316.27,131.89 314.29,131.36 314.82,133.34 315.35,135.32 316.01,134.65 
			317.97,136.62 319.54,135.05 317.58,133.08 		"/>
	</g>
	<g>
		<path class="st0" d="M333.03,115.43h-0.36v-1.74c0-0.32-0.25-0.57-0.57-0.57h-3.97c-0.31,0-0.57,0.26-0.57,0.57v1.74h-0.36v3.09
			l2.34,2.11v21.56h-3.77v1.14h4.34c0.32,0,0.57-0.25,0.57-0.57v-22.13l2.34-2.11V115.43z M328.71,114.26h2.82v1.11h-2.82V114.26z"
			/>
	</g>
</g>
<g>
	<g>
		<path class="st0" d="M194.97,123.17c-2.71,0-4.92,2.21-4.92,4.92c0,2.71,2.21,4.92,4.92,4.92c2.71,0,4.92-2.21,4.92-4.92
			C199.9,125.38,197.69,123.17,194.97,123.17z"/>
	</g>
	<g>
		<path class="st0" d="M194.98,111c-9.43,0-17.09,7.67-17.09,17.09c0,9.42,7.67,17.09,17.09,17.09c9.42,0,17.09-7.67,17.09-17.09
			C212.06,118.67,204.4,111,194.98,111z M191.35,140.56c0,0.57-0.45,0.92-0.99,0.73c-3.83-1.34-6.91-4.31-8.4-8.08
			c-0.21-0.53,0.12-0.98,0.69-0.98h6.72c0.53,0.72,1.2,1.34,1.97,1.81V140.56z M194.97,134.04c-3.29,0-5.95-2.67-5.95-5.95
			c0-3.29,2.67-5.95,5.95-5.95c3.29,0,5.96,2.67,5.96,5.95C200.93,131.38,198.26,134.04,194.97,134.04z M207.99,133.21
			c-1.49,3.77-4.56,6.73-8.4,8.08c-0.54,0.19-0.99-0.16-0.99-0.73v-6.52c0.77-0.47,1.44-1.08,1.98-1.81h6.72
			C207.87,132.23,208.2,132.68,207.99,133.21z M207.57,124.98h-6.36c-1.14-2.29-3.5-3.87-6.24-3.87c-2.73,0-5.09,1.58-6.24,3.87
			h-6.35c-0.57,0-0.94-0.45-0.77-1c1.76-5.71,7.08-9.87,13.36-9.87c6.28,0,11.6,4.16,13.36,9.87
			C208.51,124.53,208.14,124.98,207.57,124.98z"/>
	</g>
</g>
<g>
	<g>
		<g>
			<path class="st0" d="M162.85,111.65c0,0,0-0.15,0-0.33c0-0.18-0.17-0.32-0.38-0.32H147.9c-0.21,0-0.38,0.14-0.38,0.32v0.33v0.11
				h15.33V111.65z"/>
		</g>
		<g>
			<polygon class="st0" points="147.52,112.52 147.52,112.95 147.52,113.28 162.85,113.28 162.85,112.95 162.85,112.52 			"/>
		</g>
		<g>
			<path class="st0" d="M147.52,115.89v9.86c0,0.21,0.17,0.38,0.38,0.38h1.55c0.21,0,0.4-0.17,0.42-0.38l0.11-0.94
				c0.02-0.21,0.22-0.38,0.43-0.38h9.55c0.21,0,0.4,0.17,0.42,0.38l0.11,0.94c0.02,0.21,0.21,0.38,0.43,0.38h1.55
				c0.21,0,0.38-0.17,0.38-0.38v-9.86v-1.85h-15.33V115.89z M155.18,121.46c-1.3,0-2.36-1.06-2.36-2.36c0-1.3,1.06-2.36,2.36-2.36
				c1.3,0,2.36,1.05,2.36,2.36C157.54,120.4,156.48,121.46,155.18,121.46z"/>
		</g>
	</g>
	<g>
		<g>
			<path class="st0" d="M150.86,139.74h-1.7v5.05c0,0.21,0.17,0.38,0.38,0.38h11.28c0.21,0,0.38-0.17,0.38-0.38v-5.05h-1.7
				c-0.25,2.16-2.09,3.84-4.32,3.84C152.95,143.59,151.12,141.91,150.86,139.74z"/>
		</g>
		<g>
			<path class="st0" d="M157.54,133.17v-7.94h-4.71v7.94c0,0.21-0.17,0.38-0.38,0.38h-2.9c-0.21,0-0.38,0.17-0.38,0.38v5.05h1.68
				c0.13-2.29,2.02-4.1,4.34-4.1c2.32,0,4.21,1.81,4.34,4.1h1.68v-5.05c0-0.21-0.17-0.38-0.38-0.38h-2.9
				C157.71,133.55,157.54,133.38,157.54,133.17z"/>
		</g>
	</g>
</g>
<g>
	<g>
		<path class="st0" d="M43.43,126.1l-11.53-9.74c-0.22-0.18-0.63-0.34-0.92-0.34h-10.4c-0.29,0-0.64,0.2-0.78,0.45l-3.64,6.18
			c-0.14,0.25-0.26,0.68-0.26,0.97v21.03c0,0.29,0.23,0.52,0.52,0.52h26.89c0.29,0,0.52-0.24,0.52-0.52v-17.69
			C43.83,126.68,43.65,126.29,43.43,126.1z M39.6,128.72c-0.36,0.43-0.87,0.65-1.39,0.65c-0.42,0-0.83-0.14-1.18-0.43l-6.3-5.32
			c-0.77-0.65-0.87-1.8-0.22-2.57c0.65-0.77,1.8-0.87,2.57-0.22l6.3,5.32C40.16,126.8,40.25,127.95,39.6,128.72z"/>
	</g>
	<g>
		<path class="st0" d="M29.61,111.52c0-0.29-0.23-0.52-0.52-0.52h-6.93c-0.29,0-0.52,0.23-0.52,0.52v3.47h7.97V111.52z"/>
	</g>
</g>
<g>
	<g>
		<path class="st0" d="M144.05,356.21v3.7c0,0.92-0.73,1.68-1.65,1.74c-4.66,0.27-8.61,3.48-9.85,7.98
			c-0.21,0.76-0.9,1.29-1.68,1.29c-0.13,0-0.25-0.01-0.38-0.04l-3.6-0.82c-0.12,0.8-0.18,1.62-0.18,2.45
			c0,9.02,7.31,16.33,16.33,16.33c9.02,0,16.33-7.31,16.33-16.33C159.36,363.83,152.59,356.73,144.05,356.21z M143.03,381.61
			c-5.02,0-9.11-4.08-9.11-9.11c0-5.02,4.09-9.11,9.11-9.11c5.02,0,9.11,4.09,9.11,9.11C152.14,377.52,148.06,381.61,143.03,381.61z
			"/>
	</g>
	<g>
		<path class="st0" d="M143.03,364.54c-4.39,0-7.96,3.57-7.96,7.96c0,4.39,3.57,7.96,7.96,7.96c4.39,0,7.96-3.57,7.96-7.96
			C151,368.11,147.43,364.54,143.03,364.54z M143.03,366.16c0.58,0,1.05,0.47,1.05,1.05c0,0.58-0.47,1.05-1.05,1.05
			c-0.58,0-1.05-0.47-1.05-1.05C141.99,366.63,142.45,366.16,143.03,366.16z M137.68,371.86c-0.55-0.18-0.85-0.77-0.67-1.32
			c0.18-0.55,0.77-0.85,1.32-0.67c0.55,0.18,0.85,0.77,0.67,1.32C138.82,371.74,138.23,372.04,137.68,371.86z M140.77,377.4
			c-0.34,0.47-1,0.57-1.47,0.23c-0.47-0.34-0.57-1-0.23-1.47c0.34-0.47,1-0.57,1.47-0.23C141.01,376.27,141.12,376.92,140.77,377.4z
			 M143.03,375.13c-1.45,0-2.63-1.18-2.63-2.63c0-1.45,1.18-2.63,2.63-2.63c1.45,0,2.63,1.18,2.63,2.63
			C145.66,373.95,144.49,375.13,143.03,375.13z M146.76,377.63c-0.47,0.34-1.13,0.24-1.47-0.23c-0.34-0.47-0.24-1.13,0.23-1.46
			c0.47-0.34,1.13-0.24,1.47,0.23C147.33,376.63,147.23,377.29,146.76,377.63z M149.06,370.54c0.18,0.55-0.12,1.15-0.67,1.32
			c-0.55,0.18-1.14-0.12-1.32-0.67c-0.18-0.55,0.12-1.14,0.67-1.32C148.29,369.69,148.88,369.99,149.06,370.54z"/>
	</g>
	<g>
		<path class="st0" d="M131.44,369.32c1.34-4.88,5.67-8.52,10.89-8.82c0.32-0.02,0.57-0.28,0.57-0.59v-4.59
			c0-0.32-0.26-0.57-0.57-0.56c-2.17,0.09-4.23,0.56-6.13,1.35c-0.29,0.12-0.72,0.07-0.97-0.13l-1.43-1.18
			c-0.24-0.2-0.64-0.2-0.88,0.01l-5.62,4.8c-0.24,0.2-0.31,0.59-0.15,0.87l0.91,1.55c0.16,0.27,0.14,0.71-0.03,0.97
			c-0.98,1.54-1.73,3.24-2.19,5.05c-0.08,0.31,0.12,0.61,0.42,0.69l4.48,1.01C131.05,369.81,131.36,369.62,131.44,369.32z
			 M140.41,356.62c0.58,0,1.05,0.47,1.05,1.05c0,0.58-0.47,1.05-1.05,1.05c-0.58,0-1.05-0.47-1.05-1.05
			C139.35,357.09,139.83,356.62,140.41,356.62z M129.3,367.43c-0.58,0-1.05-0.47-1.05-1.05c0-0.58,0.47-1.05,1.05-1.05
			c0.58,0,1.05,0.47,1.05,1.05C130.35,366.96,129.88,367.43,129.3,367.43z"/>
	</g>
</g>
<g>
	<g>
		<path class="st0" d="M404.04,259.32c-15.04,0-27.23,12.19-27.23,27.23c0,15.04,12.19,27.23,27.23,27.23s27.23-12.19,27.23-27.23
			C431.27,271.51,419.08,259.32,404.04,259.32z M404.04,300.41c-7.64,0-13.86-6.22-13.86-13.86c0-7.64,6.22-13.86,13.86-13.86
			c7.64,0,13.86,6.22,13.86,13.86C417.9,294.19,411.68,300.41,404.04,300.41z"/>
	</g>
	<g>
		<path class="st0" d="M176.91,259.32c-15.04,0-27.23,12.19-27.23,27.23c0,15.04,12.19,27.23,27.23,27.23
			c15.04,0,27.23-12.19,27.23-27.23C204.14,271.51,191.95,259.32,176.91,259.32z M176.91,300.41c-7.64,0-13.86-6.22-13.86-13.86
			c0-7.64,6.22-13.86,13.86-13.86c7.64,0,13.86,6.22,13.86,13.86C190.77,294.19,184.55,300.41,176.91,300.41z"/>
	</g>
	<g>
		<path class="st0" d="M484.29,257.66l-7.67-32.71c-0.5-2.15-2.69-4.2-4.87-4.57l-31.42-5.29c-2.17-0.37-5.64-1.32-7.69-2.12
			L376,190.96c-2.06-0.8-5.54-1.42-7.74-1.37l-88.71,1.76c-2.2,0.04-5.64,0.85-7.64,1.79L208.43,223c-2,0.94-5.41,2-7.59,2.35
			l-75.98,12.3c-2.18,0.35-4.97,2.14-6.2,3.96l-13.87,20.52c-1.23,1.83-1.83,5.08-1.33,7.23l5.06,21.54c0.5,2.15,2.72,3.9,4.93,3.9
			h26.56c2.21,0,3.67-1.77,3.27-3.94c0,0-0.28-1.46-0.28-4.31c0-18.7,15.21-33.91,33.91-33.91c18.7,0,33.91,15.21,33.91,33.91
			c0,2.84-0.28,4.31-0.28,4.31c-0.41,2.17,1.06,3.94,3.27,3.94h153.33c2.21,0,3.68-1.77,3.27-3.94c0,0-0.28-1.46-0.28-4.31
			c0-18.7,15.21-33.91,33.91-33.91s33.91,15.21,33.91,33.91c0,2.84-0.28,4.31-0.28,4.31c-0.41,2.17,1.03,3.6,3.19,3.18l33.6-6.5
			c2.17-0.42,4.41-2.5,4.98-4.63l4.71-17.47C484.74,263.31,484.79,259.81,484.29,257.66z M124.63,272.07l-2.15,9.1
			c-0.34,1.44-1.81,2.6-3.29,2.6h-5.97c-1.48,0-2.92-1.17-3.22-2.62l-1.57-7.47c-0.3-1.44,0.64-2.73,2.11-2.86l12.04-1.12
			C124.05,269.57,124.97,270.63,124.63,272.07z M142.15,245.55l-8.61,7.68c-1.1,0.98-3.16,2.03-4.61,2.33l-15.67,3.3
			c-1.44,0.3-1.95-0.44-1.12-1.66l7.09-10.48c0.83-1.22,2.69-2.25,4.17-2.3l18.08-0.56C142.95,243.81,143.25,244.56,142.15,245.55z
			 M300.5,231.35l-75.86,3.04c-0.74,0.03-1.32-0.54-1.31-1.28l0.15-7c0.02-0.74,0.57-1.59,1.24-1.91l50.6-23.81
			c0.97-0.46,3.31-1,4.38-1.02c0,0,14.7-0.29,32.13-0.64L300.5,231.35z M372.11,228.49l-54.34,2.17l4.44-32.14
			c22.78-0.45,46.21-0.92,46.21-0.92c1.29,0,3.62,0.42,4.68,0.83l3.42,1.33L372.11,228.49z M395.46,211.37l-2.53,12.39
			c-0.44,2.17-2.59,4-4.81,4.09l-10.57,0.42l4.07-26.52l10.9,4.24C394.59,206.79,395.9,209.2,395.46,211.37z M474.64,245.31
			l-12.5,2.11c-1.46,0.25-2.78-0.74-2.8-2.22c-0.05-4.92,1.08-15.21,11-18.17c1.41-0.42,2.88,0.59,3.22,2.03l3.1,13.21
			C477.01,243.7,476.1,245.06,474.64,245.31z"/>
	</g>
</g>
<g>
	<polygon class="st0" points="257.03,202.99 255.56,202.99 255.56,180.06 243.11,180.06 243.11,157.72 244.58,157.72 244.58,178.59 
		257.03,178.59 	"/>
</g>
<g>
	<polygon class="st0" points="233.29,213.25 231.82,213.25 231.82,200.2 194.24,200.2 194.24,157.72 195.71,157.72 195.71,198.73 
		233.29,198.73 	"/>
</g>
<g>
	<polygon class="st0" points="159.99,235.01 158.52,235.01 158.52,194.22 118.73,194.22 118.73,157.72 120.2,157.72 120.2,192.76 
		159.99,192.76 	"/>
</g>
<g>
	<polygon class="st0" points="148.34,239.95 146.87,239.95 146.87,213.07 74.88,213.07 74.88,157.72 76.35,157.72 76.35,211.6 
		148.34,211.6 	"/>
</g>
<g>
	<polygon class="st0" points="135.68,238.68 134.21,238.68 134.21,231.34 28.87,231.34 28.87,157.72 30.34,157.72 30.34,229.87 
		135.68,229.87 	"/>
</g>
<g>
	<polygon class="st0" points="179.58,232.79 178.11,232.79 178.11,179.53 154.45,179.53 154.45,157.72 155.92,157.72 155.92,178.06 
		179.58,178.06 	"/>
</g>
<g>
	<rect x="298.05" y="157.72" class="st0" width="1.47" height="37.61"/>
</g>
<polygon class="st0" points="404.78,335.78 404.78,313.77 403.31,313.77 403.31,335.78 177.64,335.78 177.64,313.77 176.17,313.77 
	176.17,335.78 141.86,335.78 141.86,346.55 143.33,346.55 143.33,337.24 176.17,337.24 176.91,337.24 300.6,337.24 300.6,346.55 
	302.07,346.55 302.07,337.24 404.04,337.24 404.78,337.24 438.43,337.24 438.43,346.55 439.9,346.55 439.9,335.78 "/>
</svg>
