<?xml version="1.0" encoding="utf-8"?>
<!-- Generator: Adobe Illustrator 23.0.5, SVG Export Plug-In . SVG Version: 6.00 Build 0)  -->
<svg version="1.1" id="Layer_1" xmlns="http://www.w3.org/2000/svg" xmlns:xlink="http://www.w3.org/1999/xlink" x="0px" y="0px"
	 viewBox="0 0 500 500" style="enable-background:new 0 0 500 500;" xml:space="preserve">
<style type="text/css">
	.st0{fill:#FFFFFF;}
	.st1{fill:none;stroke:#FFFFFF;stroke-width:4;stroke-miterlimit:10;stroke-dasharray:6;}
	.st2{fill:none;stroke:#FFFFFF;stroke-width:2;stroke-miterlimit:10;}
	.st3{fill:none;stroke:#FFFFFF;stroke-width:1.1654;stroke-miterlimit:10;stroke-dasharray:2.3649,2.3649;}
	.st4{fill:#ECECEC;}
	.st5{opacity:0.4;}
	.st6{fill:none;}
	.st7{opacity:0.3;fill:#FFFFFF;}
</style>
<g>
	<path class="st0" d="M104.54,288.57l-3.88,0.95c0.44,1.77,0.91,3.58,1.42,5.36l3.85-1.1C105.43,292.05,104.96,290.3,104.54,288.57z
		"/>
	<path class="st0" d="M101.18,234.98l-3.97-0.46c-0.21,1.84-0.39,3.69-0.54,5.51l3.99,0.32
		C100.8,238.58,100.97,236.77,101.18,234.98z"/>
	<path class="st0" d="M100.23,256.54l-4,0.11c0.05,1.84,0.13,3.7,0.25,5.53l3.99-0.25C100.36,260.14,100.28,258.32,100.23,256.54z"
		/>
	<path class="st0" d="M102.34,278l-3.94,0.67c0.31,1.82,0.66,3.65,1.03,5.44l3.92-0.81C102.98,281.56,102.64,279.77,102.34,278z"/>
	<path class="st0" d="M100.9,267.31l-3.98,0.39c0.18,1.84,0.39,3.69,0.64,5.5l3.96-0.53C101.29,270.9,101.08,269.1,100.9,267.31z"/>
	<path class="st0" d="M100.33,245.74l-4-0.17c-0.08,1.84-0.13,3.7-0.14,5.54l4,0.03C100.2,249.35,100.25,247.53,100.33,245.74z"/>
	<path class="st0" d="M102.8,224.31l-3.93-0.74c-0.34,1.8-0.65,3.64-0.93,5.46l3.96,0.6C102.17,227.86,102.47,226.07,102.8,224.31z"
		/>
	<path class="st0" d="M104,213.48l-2.68-0.71c-0.47,1.78-0.92,3.59-1.32,5.38l3.9,0.88c0.39-1.74,0.82-3.49,1.28-5.22
		C104.78,213.72,104.39,213.6,104,213.48z"/>
	<path class="st0" d="M140.44,354.99c-0.62,1.23-1.42,2.35-2.36,3.33c0.87,0.93,1.76,1.86,2.66,2.78l2.85-2.81
		C142.51,357.2,141.46,356.09,140.44,354.99z"/>
	<path class="st0" d="M144.7,364.96c1.34,1.26,2.71,2.52,4.09,3.73l2.64-3c-1.34-1.18-2.69-2.41-3.99-3.64L144.7,364.96z"/>
	<path class="st0" d="M153.01,372.28c1.42,1.16,2.88,2.32,4.35,3.43l2.42-3.18c-1.43-1.09-2.86-2.21-4.24-3.34L153.01,372.28z"/>
	<path class="st0" d="M108.38,301.6c-0.3-0.88-0.6-1.77-0.89-2.65l-3.8,1.23c0.24,0.75,0.49,1.49,0.75,2.24
		C105.63,301.95,106.94,301.67,108.38,301.6z"/>
	<path class="st0" d="M401.08,238.89l3.98-0.35c-0.16-1.82-0.36-3.67-0.59-5.51l-3.97,0.5
		C400.73,235.32,400.92,237.12,401.08,238.89z"/>
	<path class="st0" d="M401.66,249.67l4-0.07c-0.03-1.83-0.1-3.69-0.2-5.54l-3.99,0.21C401.56,246.08,401.63,247.89,401.66,249.67z"
		/>
	<path class="st0" d="M161.84,378.99c1.5,1.06,3.05,2.11,4.59,3.12l2.19-3.35c-1.5-0.98-3.01-2-4.47-3.03L161.84,378.99z"/>
	<path class="st0" d="M397.64,217.6l3.89-0.92c-0.42-1.77-0.88-3.58-1.37-5.37l-3.86,1.06C396.78,214.12,397.23,215.88,397.64,217.6
		z"/>
	<path class="st0" d="M399.74,228.19l3.95-0.64c-0.29-1.82-0.63-3.65-0.98-5.45l-3.92,0.78
		C399.13,224.63,399.45,226.41,399.74,228.19z"/>
	<path class="st0" d="M166.42,127.59l-2.25-3.31c-1.52,1.03-3.04,2.1-4.52,3.19l2.36,3.23
		C163.46,129.63,164.94,128.59,166.42,127.59z"/>
	<path class="st0" d="M141.78,148.47l-2.9-2.76c-1.27,1.33-2.53,2.71-3.75,4.08l2.99,2.65C139.31,151.1,140.54,149.77,141.78,148.47
		z"/>
	<path class="st0" d="M149.49,140.92l-2.69-2.96c-1.36,1.24-2.72,2.52-4.03,3.8l2.8,2.86C146.84,143.38,148.16,142.13,149.49,140.92
		z"/>
	<path class="st0" d="M349.9,133.47c-1.42-1.18-2.87-2.35-4.32-3.47l-2.45,3.16c1.41,1.09,2.83,2.23,4.21,3.38L349.9,133.47z"/>
	<path class="st0" d="M157.72,133.95l-2.48-3.14c-1.45,1.14-2.89,2.32-4.29,3.5l2.59,3.05
		C154.91,136.21,156.31,135.06,157.72,133.95z"/>
	<path class="st0" d="M358.16,140.86c-1.33-1.28-2.69-2.54-4.06-3.77l-2.67,2.98c1.33,1.19,2.66,2.43,3.96,3.67L358.16,140.86z"/>
	<path class="st0" d="M362.06,149.34h3.23l0.58-0.52c-1.23-1.36-2.5-2.73-3.78-4.05l-2.87,2.78c0.96,0.99,1.91,2.01,2.85,3.03
		V149.34z"/>
	<path class="st0" d="M327.45,382.36l2.03,3.44c1.59-0.94,3.17-1.91,4.71-2.9l-2.15-3.37C330.54,380.5,328.99,381.45,327.45,382.36z
		"/>
	<path class="st0" d="M341.13,126.69c-1.49-1.07-3.02-2.13-4.56-3.15l-2.22,3.33c1.5,1,3,2.03,4.44,3.07L341.13,126.69z"/>
	<path class="st0" d="M345.17,370.11l2.5,3.12c1.44-1.15,2.87-2.35,4.26-3.54l-2.61-3.03C347.97,367.83,346.57,368.99,345.17,370.11
		z"/>
	<path class="st0" d="M354.05,362.39c-0.24,0.22-0.47,0.45-0.71,0.68l2.72,2.93c0.44-0.41,0.87-0.83,1.3-1.25
		C356.15,364.15,355.02,363.36,354.05,362.39z"/>
	<path class="st0" d="M336.53,376.56l2.27,3.29c1.51-1.04,3.02-2.13,4.5-3.23l-2.39-3.21C339.47,374.48,337.99,375.54,336.53,376.56
		z"/>
	<path class="st0" d="M322.25,115.07c-1.63-0.85-3.3-1.68-4.97-2.47l-1.72,3.61c1.62,0.77,3.25,1.58,4.84,2.41L322.25,115.07z"/>
	<path class="st0" d="M331.9,120.54c-1.56-0.96-3.17-1.91-4.78-2.82l-1.97,3.48c1.57,0.89,3.13,1.81,4.65,2.75L331.9,120.54z"/>
	<path class="st0" d="M308.18,391.94l1.52,3.7c1.69-0.7,3.4-1.43,5.07-2.19l-1.65-3.64C311.49,390.55,309.83,391.27,308.18,391.94z"
		/>
	<path class="st0" d="M317.98,387.5l1.78,3.58c1.65-0.82,3.3-1.68,4.9-2.55l-1.91-3.51C321.19,385.87,319.58,386.7,317.98,387.5z"/>
	<path class="st0" d="M399.3,279.29l3.94,0.71c0.32-1.8,0.62-3.64,0.88-5.47l-3.96-0.57C399.9,275.74,399.62,277.53,399.3,279.29z"
		/>
	<path class="st0" d="M397.01,289.83l3.88,0.99c0.46-1.78,0.88-3.6,1.27-5.39l-3.91-0.85C397.87,286.33,397.45,288.1,397.01,289.83z
		"/>
	<path class="st0" d="M400.83,268.61l3.98,0.42c0.19-1.84,0.36-3.69,0.49-5.52l-3.99-0.28C401.18,265,401.02,266.81,400.83,268.61z"
		/>
	<path class="st0" d="M401.68,252.44c0,1.79-0.03,3.61-0.09,5.4l4,0.14c0.06-1.84,0.1-3.7,0.1-5.54H401.68z"/>
	<path class="st0" d="M312.22,110.3c-1.69-0.73-3.42-1.44-5.14-2.11l-1.45,3.73c1.67,0.65,3.35,1.34,5,2.05L312.22,110.3z"/>
	<path class="st0" d="M393.97,300.19l3.79,1.26c0.58-1.75,1.14-3.53,1.66-5.29l-3.84-1.13
		C395.08,296.75,394.54,298.48,393.97,300.19z"/>
	<path class="st0" d="M201.29,399.06c1.73,0.59,3.51,1.15,5.28,1.68l1.14-3.83c-1.73-0.52-3.46-1.07-5.14-1.64L201.29,399.06z"/>
	<path class="st0" d="M190.9,395.12c1.69,0.71,3.43,1.41,5.16,2.06l1.42-3.74c-1.68-0.64-3.37-1.31-5.02-2.01L190.9,395.12z"/>
	<path class="st0" d="M173.55,118.4c-1.59,0.92-3.18,1.88-4.74,2.86l2.13,3.39c1.51-0.95,3.06-1.89,4.61-2.78L173.55,118.4z"/>
	<path class="st0" d="M216.95,399.33c-1.35-0.31-2.71-0.63-4.04-0.97l-1.01,3.87c1.41,0.37,2.84,0.71,4.27,1.04
		C216.18,401.89,216.46,400.57,216.95,399.33z"/>
	<path class="st0" d="M214.51,102c-1.79,0.43-3.6,0.9-5.36,1.4l1.08,3.85c1.72-0.48,3.47-0.94,5.22-1.36L214.51,102z"/>
	<path class="st0" d="M203.84,104.99c-1.75,0.56-3.52,1.16-5.25,1.78l1.35,3.76c1.68-0.6,3.4-1.19,5.11-1.73L203.84,104.99z"/>
	<path class="st0" d="M183.31,113.21c-1.65,0.8-3.3,1.64-4.93,2.51l1.88,3.53c1.58-0.84,3.19-1.66,4.8-2.44L183.31,113.21z"/>
	<path class="st0" d="M171.13,385.06c1.57,0.95,3.19,1.88,4.8,2.78l1.94-3.5c-1.57-0.87-3.15-1.78-4.68-2.71L171.13,385.06z"/>
	<path class="st0" d="M298.05,395.68l1.25,3.8c1.75-0.58,3.51-1.19,5.23-1.83l-1.38-3.75C301.48,394.52,299.76,395.12,298.05,395.68
		z"/>
	<path class="st0" d="M193.41,108.73c-1.71,0.69-3.42,1.41-5.09,2.15l1.62,3.66c1.63-0.72,3.29-1.42,4.96-2.09L193.41,108.73z"/>
	<path class="st0" d="M180.83,390.44c1.64,0.83,3.32,1.65,4.99,2.43l1.69-3.63c-1.63-0.76-3.27-1.55-4.86-2.37L180.83,390.44z"/>
	<path class="st0" d="M291.27,103c-1.78-0.48-3.59-0.93-5.37-1.34l-0.9,3.9c1.74,0.4,3.5,0.84,5.24,1.31L291.27,103z"/>
	<path class="st0" d="M287.69,398.68l0.97,3.88c1.78-0.45,3.58-0.93,5.35-1.44l-1.11-3.84
		C291.17,397.77,289.42,398.25,287.69,398.68z"/>
	<path class="st0" d="M301.87,106.27c-1.74-0.61-3.51-1.19-5.28-1.73l-1.18,3.82c1.72,0.53,3.45,1.1,5.14,1.69L301.87,106.27z"/>
</g>
<ellipse transform="matrix(0.924 -0.3825 0.3825 0.924 -77.4763 115.1755)" class="st1" cx="250.93" cy="252.44" rx="94.53" ry="94.53"/>
<g>
	<path class="st2" d="M149.19,335.38c0,19.07-15.46,34.53-34.53,34.53c-19.07,0-34.53-15.46-34.53-34.53
		c0-19.07,15.46-34.53,34.53-34.53C133.73,300.85,149.19,316.31,149.19,335.38z"/>
	<g>
		<g>
			<g>
				<path class="st0" d="M130.06,347.61c-0.75-2.62-3.66-3.06-3.66-3.06l-6.36-1.83l-0.04,0.07l-2.18-2.02l-0.01,0.01v-1.59
					c1.19-0.7,2.29-1.73,2.64-3.09c0.06-0.24,0.12-0.46,0.17-0.68l0,0c0,0,0.2-0.71,0.43-1.67c1.45,0.2,1.5-3.4,1.5-3.4
					c-0.18-0.43-0.5-0.52-0.8-0.48c0.01-0.1,0.01-0.2,0.01-0.3c0,0,2.77-11.54-7.71-11.17c0,0-3.82,0.55-4.19,2.67
					c0,0-1.9,0.54-2.09,2.25c0,0-0.5,3.05-0.23,6.59c-0.35-0.1-0.79-0.09-1,0.44c0,0,0.16,3.62,1.63,3.39
					c0.11,0.41,0.24,0.82,0.39,1.22c0.09,0.35,0.18,0.72,0.29,1.13c0.35,1.36,1.45,2.39,2.64,3.09v1.49l-0.02-0.01l-2.47,2.3
					l-6.08,1.59c0,0-2.91,0.45-3.66,3.06l-1.27,4.75h14.56h1.97h0.07h0.15h0.07h1.97h14.56L130.06,347.61z"/>
			</g>
		</g>
		<g>
			<path class="st0" d="M102.82,344.07l4.74-1.24c-0.16-0.04-0.25-0.06-0.25-0.06l-5.05-1.45l-0.03,0.06l-1.73-1.61l-0.01,0v-1.26
				c0.94-0.56,1.82-1.38,2.1-2.45c0.05-0.19,0.09-0.37,0.14-0.54l0,0c0,0,0.16-0.57,0.34-1.32c1.15,0.16,1.19-2.69,1.19-2.69
				c-0.14-0.34-0.39-0.41-0.63-0.38c0-0.08,0.01-0.16,0.01-0.23c0,0,2.19-9.15-6.12-8.86c0,0-3.03,0.44-3.32,2.12
				c0,0-1.51,0.43-1.66,1.79c0,0-0.4,2.42-0.18,5.23c-0.28-0.08-0.62-0.07-0.79,0.35c0,0,0.13,2.87,1.29,2.69
				c0.09,0.33,0.19,0.65,0.31,0.97c0.07,0.28,0.15,0.57,0.23,0.9c0.27,1.08,1.15,1.9,2.1,2.45v1.18l-0.01-0.01l-1.96,1.82
				l-4.83,1.26c0,0-2.31,0.35-2.9,2.43l-1.01,3.76h11.55h1.56h0.06h0.11h0.06h0.29l0.4-1.49
				C99.58,344.71,102.48,344.13,102.82,344.07z"/>
		</g>
		<g>
			<path class="st0" d="M131.27,348.98h0.12h0.06h1.56h11.55l-1.01-3.76c-0.59-2.08-2.9-2.43-2.9-2.43l-5.05-1.45l-0.03,0.06
				l-1.72-1.61l-0.01,0v-1.26c0.94-0.56,1.82-1.38,2.1-2.45c0.05-0.19,0.09-0.37,0.14-0.54l0,0c0,0,0.16-0.57,0.34-1.32
				c1.15,0.16,1.19-2.69,1.19-2.69c-0.14-0.34-0.39-0.41-0.63-0.38c0-0.08,0.01-0.16,0.01-0.23c0,0,2.19-9.15-6.12-8.86
				c0,0-3.03,0.44-3.32,2.12c0,0-1.51,0.43-1.66,1.79c0,0-0.4,2.42-0.18,5.23c-0.28-0.08-0.62-0.07-0.79,0.35
				c0,0,0.13,2.87,1.29,2.69c0.09,0.33,0.19,0.65,0.31,0.97c0.07,0.28,0.15,0.57,0.23,0.9c0.27,1.08,1.15,1.9,2.09,2.45v1.18
				l-0.01-0.01l-1.96,1.82l-4.83,1.26c0,0-0.01,0-0.01,0l4.5,1.29c0.36,0.06,3.23,0.65,4.02,3.41l0.4,1.5h0.29H131.27z"/>
		</g>
	</g>
</g>
<g>
	<path class="st2" d="M285.46,398.98c0,19.07-15.46,34.53-34.53,34.53c-19.07,0-34.53-15.46-34.53-34.53
		c0-19.07,15.46-34.53,34.53-34.53C270,364.45,285.46,379.91,285.46,398.98z"/>
	<g>
		<path class="st0" d="M257.02,400.43l-6.11,5.34l-6.08-5.6l-12.9,13.5h38.21c0.22,0,0.43-0.04,0.63-0.11L257.02,400.43z"/>
		<polygon class="st0" points="259.15,398.57 272.02,410.86 272.02,387.32 		"/>
		<path class="st0" d="M250.95,402.41l20.31-17.75c-0.31-0.23-0.7-0.37-1.11-0.37h-38.42c-0.14,0-0.28,0.02-0.42,0.05L250.95,402.41
			z"/>
		<polygon class="st0" points="229.85,386.4 229.85,411.78 242.75,398.27 		"/>
	</g>
</g>
<g>
	<path class="st2" d="M411.6,180.46c0,19.07-15.46,34.53-34.53,34.53c-19.07,0-34.53-15.46-34.53-34.53
		c0-19.07,15.46-34.53,34.53-34.53C396.14,145.92,411.6,161.38,411.6,180.46z"/>
	<g>
		<path class="st0" d="M395.47,161.33h-37.55c-0.93,0-1.69,0.76-1.69,1.69v26.23c0,0.93,0.76,1.69,1.69,1.69h37.55
			c0.93,0,1.69-0.76,1.69-1.69v-26.23C397.16,162.08,396.41,161.33,395.47,161.33z M394.15,187.83h-34.89v-23.98h34.89V187.83z"/>
		<rect x="360.74" y="165.11" class="st0" width="31.92" height="21.47"/>
		<rect x="350.46" y="198.33" class="st0" width="53.23" height="1.25"/>
		<path class="st0" d="M397.16,192.13h-40.93l-5.78,5.19h53.23L397.16,192.13z M356.73,192.84h40.33l2.3,1.88h-44.59L356.73,192.84z
			 M370.28,196.61l1.13-1.49h11.21l1.23,1.49H370.28z"/>
	</g>
</g>
<g>
	
		<ellipse transform="matrix(0.2264 -0.974 0.974 0.2264 96.208 322.1782)" class="st2" cx="250.93" cy="100.52" rx="34.53" ry="34.53"/>
	<path class="st0" d="M261.17,80.52H240.7c-1.24,0-2.24,1-2.24,2.24v35.54c0,1.24,1,2.24,2.24,2.24h20.47c1.23,0,2.24-1,2.24-2.24
		V82.75C263.4,81.52,262.4,80.52,261.17,80.52z M253.89,118.73h-5.93c-0.4,0-0.73-0.33-0.73-0.73c0-0.4,0.32-0.73,0.73-0.73h5.93
		c0.4,0,0.73,0.33,0.73,0.73C254.62,118.41,254.3,118.73,253.89,118.73z M259.24,113.71h-16.61V84.17h16.61V113.71z M260.84,115.38
		h-19.82V82.73h19.82V115.38z"/>
</g>
<g>
	<path class="st2" d="M149.19,180.46c0,19.07-15.46,34.53-34.53,34.53c-19.07,0-34.53-15.46-34.53-34.53
		c0-19.07,15.46-34.53,34.53-34.53C133.73,145.92,149.19,161.38,149.19,180.46z"/>
	<g>
		<path class="st0" d="M126.89,192.18h5.82l-0.54,0.68c-1.98,2.49-4.47,4.44-7.49,5.85c-2.94,1.36-6.03,2.03-9.27,2.03
			c-5.35,0-9.82-1.8-13.42-5.4c-3.6-3.6-5.4-8.35-5.4-14.27c0-5.88,1.68-10.83,5.03-14.86c3.35-4.03,8.01-6.04,13.98-6.04
			c3.6,0,6.51,0.69,8.76,2.06c5.29,3.24,7.94,8.21,7.94,14.91c0,3.79-1.06,7.23-3.16,10.34c-2.39,3.5-5.41,5.25-9.04,5.25
			c-1.92,0-3.18-0.78-3.79-2.34c-0.88,0.81-1.67,1.38-2.34,1.72c-0.83,0.41-1.8,0.62-2.91,0.62c-2.65,0-4.7-1.07-6.13-3.22
			c-1.24-1.85-1.86-4.17-1.86-6.98c0-3.52,0.83-6.78,2.48-9.77c1.97-3.58,4.59-5.37,7.84-5.37c2.05,0,3.74,0.87,5.08,2.62l0.3-1.89
			h5.35l-3.08,19.46c0,0.32,0.14,0.48,0.42,0.48c1.09,0,2.2-0.59,3.33-1.78c0.85-0.9,1.56-1.98,2.15-3.22
			c0.77-1.66,1.16-3.63,1.16-5.93c0-3.79-1.12-6.85-3.37-9.2c-2.25-2.34-5.26-3.52-9.03-3.52c-4.33,0-7.9,1.48-10.69,4.45
			c-2.8,2.97-4.2,6.95-4.2,11.96c0,4.58,1.27,8.3,3.81,11.16c2.66,2.99,6.24,4.49,10.76,4.49c4.14,0,7.94-1.4,11.38-4.21
			L126.89,192.18z M116.01,182.91c0.64-2.41,0.96-4.7,0.96-6.87c0-1.11-0.2-2.04-0.59-2.8c-0.49-0.96-1.24-1.44-2.26-1.44
			c-1.92,0-3.38,1.62-4.38,4.86c-0.72,2.3-1.07,4.69-1.07,7.18c0,1.17,0.21,2.18,0.62,3.05c0.54,1.13,1.34,1.7,2.37,1.7
			c1.24,0,2.25-0.67,3.02-2.01C115.12,185.83,115.56,184.61,116.01,182.91z"/>
	</g>
</g>
<g>
	<path class="st2" d="M411.6,335.38c0,19.07-15.46,34.53-34.53,34.53c-19.07,0-34.53-15.46-34.53-34.53
		c0-19.07,15.46-34.53,34.53-34.53C396.14,300.85,411.6,316.31,411.6,335.38z"/>
	<g>
		<g>
			<path class="st0" d="M377.07,340.64c-7.49,0-21.66-1.1-21.66-5.27c0-4.16,14.17-5.26,21.66-5.26c7.49,0,21.66,1.1,21.66,5.26
				C398.73,339.54,384.56,340.64,377.07,340.64z M377.07,331.86c-5.49,0-10.65,0.45-14.52,1.27c-4.48,0.95-5.4,2.02-5.4,2.25
				c0,0.24,0.92,1.31,5.4,2.26c3.87,0.82,9.03,1.27,14.52,1.27c5.49,0,10.65-0.45,14.52-1.27c4.48-0.95,5.4-2.02,5.4-2.26
				c0-0.23-0.92-1.31-5.4-2.25C387.72,332.31,382.56,331.86,377.07,331.86z"/>
		</g>
		<g>
			<path class="st0" d="M377.07,349.58c-11.94,0-21.66-6.37-21.66-14.21c0-7.83,9.72-14.21,21.66-14.21
				c11.94,0,21.66,6.37,21.66,14.21C398.73,343.21,389.01,349.58,377.07,349.58z M377.07,322.92c-10.98,0-19.92,5.59-19.92,12.46
				c0,6.87,8.93,12.46,19.92,12.46c10.98,0,19.92-5.59,19.92-12.46C396.99,328.51,388.05,322.92,377.07,322.92z"/>
		</g>
		<g>
			<path class="st0" d="M377.07,357.04c-4.42,0-5.59-14.17-5.59-21.66c0-7.49,1.17-21.66,5.59-21.66c4.42,0,5.59,14.17,5.59,21.66
				C382.66,342.87,381.49,357.04,377.07,357.04z M377.07,315.46c-1.3,0-3.85,7.03-3.85,19.92c0,12.89,2.54,19.92,3.85,19.92
				c1.31,0,3.85-7.03,3.85-19.92C380.92,322.49,378.37,315.46,377.07,315.46z"/>
		</g>
		<g>
			<path class="st0" d="M377.07,357.04c-7.83,0-14.2-9.72-14.2-21.66c0-11.94,6.37-21.66,14.2-21.66c7.83,0,14.21,9.72,14.21,21.66
				C391.27,347.32,384.9,357.04,377.07,357.04z M377.07,315.46c-6.87,0-12.46,8.93-12.46,19.92c0,10.98,5.59,19.92,12.46,19.92
				c6.87,0,12.46-8.94,12.46-19.92C389.53,324.4,383.94,315.46,377.07,315.46z"/>
		</g>
		<g>
			<path class="st0" d="M377.07,357.04c-11.94,0-21.66-9.72-21.66-21.66c0-11.94,9.72-21.66,21.66-21.66
				c11.94,0,21.66,9.72,21.66,21.66C398.73,347.32,389.01,357.04,377.07,357.04z M377.07,315.46c-10.98,0-19.92,8.93-19.92,19.92
				c0,10.98,8.93,19.92,19.92,19.92c10.98,0,19.92-8.94,19.92-19.92C396.99,324.4,388.05,315.46,377.07,315.46z"/>
		</g>
	</g>
</g>
<g>
	<g>
		<path class="st3" d="M452.26,263.79c0,11.23-9.1,20.33-20.33,20.33c-11.23,0-20.33-9.1-20.33-20.33c0-11.23,9.1-20.33,20.33-20.33
			C443.16,243.46,452.26,252.57,452.26,263.79z"/>
	</g>
	<g>
		<g>
			<g>
				<path class="st0" d="M441,271c-0.44-1.54-2.15-1.8-2.15-1.8l-3.75-1.07l-0.02,0.04l-1.28-1.19l-0.01,0v-0.94
					c0.7-0.41,1.35-1.02,1.55-1.82c0.04-0.14,0.07-0.27,0.1-0.4l0,0c0,0,0.12-0.42,0.25-0.98c0.85,0.12,0.88-2,0.88-2
					c-0.1-0.25-0.29-0.31-0.47-0.28c0-0.06,0.01-0.12,0.01-0.17c0,0,1.63-6.79-4.54-6.58c0,0-2.25,0.32-2.46,1.57
					c0,0-1.12,0.32-1.23,1.33c0,0-0.29,1.8-0.14,3.88c-0.21-0.06-0.46-0.05-0.59,0.26c0,0,0.09,2.13,0.96,2
					c0.07,0.24,0.14,0.49,0.23,0.72c0.05,0.21,0.11,0.43,0.17,0.66c0.2,0.8,0.86,1.41,1.56,1.82v0.88l-0.01-0.01l-1.45,1.35
					l-3.58,0.93c0,0-1.72,0.26-2.15,1.8l-0.75,2.79h8.57h1.16h0.04h0.09h0.04h1.16h8.57L441,271z"/>
			</g>
		</g>
		<g>
			<path class="st0" d="M424.96,268.91l2.79-0.73c-0.09-0.02-0.15-0.03-0.15-0.03l-2.97-0.85l-0.02,0.03l-1.02-0.95l0,0v-0.74
				c0.56-0.33,1.07-0.81,1.24-1.44c0.03-0.11,0.05-0.22,0.08-0.32l0,0c0,0,0.09-0.33,0.2-0.78c0.68,0.1,0.7-1.59,0.7-1.59
				c-0.08-0.2-0.23-0.24-0.37-0.22c0-0.05,0-0.09,0-0.14c0,0,1.29-5.39-3.6-5.22c0,0-1.78,0.26-1.96,1.24c0,0-0.89,0.25-0.98,1.05
				c0,0-0.23,1.43-0.11,3.08c-0.17-0.05-0.37-0.04-0.47,0.2c0,0,0.07,1.69,0.76,1.58c0.05,0.19,0.11,0.38,0.18,0.57
				c0.04,0.16,0.09,0.34,0.13,0.53c0.16,0.63,0.68,1.12,1.24,1.44v0.69l-0.01,0l-1.15,1.07l-2.84,0.74c0,0-1.36,0.21-1.71,1.43
				l-0.6,2.22h6.8h0.92h0.03h0.07h0.04h0.17l0.24-0.88C423.05,269.28,424.76,268.95,424.96,268.91z"/>
		</g>
		<g>
			<path class="st0" d="M441.71,271.8h0.07h0.04h0.92h6.8l-0.59-2.22c-0.35-1.22-1.71-1.43-1.71-1.43l-2.97-0.85l-0.02,0.03
				l-1.02-0.95l-0.01,0v-0.74c0.56-0.33,1.07-0.81,1.23-1.44c0.03-0.11,0.06-0.22,0.08-0.32l0,0c0,0,0.09-0.33,0.2-0.78
				c0.67,0.1,0.7-1.59,0.7-1.59c-0.08-0.2-0.23-0.24-0.37-0.22c0-0.05,0-0.09,0-0.14c0,0,1.29-5.39-3.6-5.22
				c0,0-1.78,0.26-1.96,1.24c0,0-0.89,0.25-0.98,1.05c0,0-0.23,1.43-0.11,3.08c-0.17-0.05-0.37-0.04-0.47,0.2
				c0,0,0.08,1.69,0.76,1.58c0.05,0.19,0.11,0.38,0.18,0.57c0.04,0.16,0.09,0.34,0.13,0.53c0.16,0.63,0.68,1.12,1.23,1.44v0.69
				l-0.01,0l-1.15,1.07l-2.84,0.74l-0.01,0l2.65,0.76c0.21,0.04,1.9,0.38,2.37,2.01l0.23,0.88h0.17H441.71z"/>
		</g>
	</g>
</g>
<g>
	<g>
		<path class="st3" d="M197.06,352.36c0,11.23-9.1,20.33-20.33,20.33c-11.23,0-20.33-9.1-20.33-20.33c0-11.23,9.1-20.33,20.33-20.33
			C187.96,332.03,197.06,341.13,197.06,352.36z"/>
	</g>
	<path class="st0" d="M187.15,342.57h-20.84c-0.45,0-0.81,0.36-0.81,0.81v13.53c0,0.45,0.36,0.81,0.81,0.81h13.01
		c0.75,0.79,2.07,2.58,0.99,4.41c0,0,4.02-1.52,4.73-4.41h2.1c0.45,0,0.81-0.36,0.81-0.81v-13.53
		C187.96,342.94,187.6,342.57,187.15,342.57z M185.15,353.47h-16.84c-0.21,0-0.39-0.17-0.39-0.38c0-0.21,0.17-0.39,0.39-0.39h16.84
		c0.21,0,0.38,0.17,0.38,0.39C185.53,353.3,185.36,353.47,185.15,353.47z M185.15,350.54h-16.84c-0.21,0-0.39-0.17-0.39-0.38
		c0-0.21,0.17-0.38,0.39-0.38h16.84c0.21,0,0.38,0.17,0.38,0.38C185.53,350.36,185.36,350.54,185.15,350.54z M185.15,347.6h-16.84
		c-0.21,0-0.39-0.17-0.39-0.39c0-0.21,0.17-0.38,0.39-0.38h16.84c0.21,0,0.38,0.17,0.38,0.38
		C185.53,347.43,185.36,347.6,185.15,347.6z"/>
</g>
<g>
	<g>
		<path class="st3" d="M89.59,267.11c0,11.23-9.1,20.33-20.33,20.33c-11.23,0-20.33-9.1-20.33-20.33c0-11.23,9.1-20.33,20.33-20.33
			C80.49,246.78,89.59,255.88,89.59,267.11z"/>
	</g>
	<g>
		<path class="st0" d="M72.85,267.96l-3.6,3.15l-3.58-3.29l-7.59,7.95h22.5c0.13,0,0.25-0.02,0.37-0.07L72.85,267.96z"/>
		<polygon class="st0" points="74.1,266.86 81.67,274.1 81.67,260.24 		"/>
		<path class="st0" d="M69.27,269.13l11.95-10.45c-0.18-0.14-0.41-0.22-0.66-0.22H57.95c-0.08,0-0.17,0.01-0.25,0.03L69.27,269.13z"
			/>
		<polygon class="st0" points="56.85,259.7 56.85,274.64 64.45,266.69 		"/>
	</g>
</g>
<g>
	<g>
		<circle class="st3" cx="371.48" cy="258.46" r="20.33"/>
	</g>
	<g>
		<g>
			<path class="st0" d="M384.63,255.51c-0.58,0.54-1.49,0.52-2.04-0.07c-5.95-6.34-15.95-6.66-22.29-0.71
				c-0.58,0.55-1.49,0.52-2.04-0.06c-0.54-0.58-0.52-1.49,0.06-2.04c7.5-7.04,19.33-6.66,26.37,0.84
				C385.24,254.05,385.21,254.96,384.63,255.51z"/>
		</g>
		<g>
			<path class="st0" d="M381.51,258.99c-0.58,0.55-1.49,0.52-2.04-0.06c-4.34-4.62-11.62-4.85-16.24-0.52
				c-0.58,0.54-1.5,0.52-2.04-0.06c-0.55-0.58-0.52-1.49,0.06-2.04c5.78-5.42,14.9-5.13,20.32,0.65
				C382.12,257.53,382.09,258.44,381.51,258.99z"/>
		</g>
		<g>
			<path class="st0" d="M378.57,262.85c-0.58,0.55-1.5,0.52-2.04-0.06c-2.81-3-7.54-3.14-10.53-0.33c-0.58,0.55-1.49,0.52-2.04-0.06
				c-0.55-0.58-0.52-1.49,0.06-2.04c4.16-3.9,10.71-3.69,14.61,0.46C379.17,261.4,379.14,262.31,378.57,262.85z"/>
		</g>
		<path class="st0" d="M373.65,263.89c1.22,1.3,1.16,3.35-0.14,4.57c-1.3,1.22-3.35,1.16-4.57-0.15c-1.22-1.3-1.16-3.35,0.14-4.57
			C370.38,262.52,372.43,262.59,373.65,263.89z"/>
	</g>
</g>
<g>
	<g>
		<path class="st3" d="M169.52,411.78c0,11.23-9.1,20.33-20.33,20.33c-11.23,0-20.33-9.1-20.33-20.33c0-11.23,9.1-20.33,20.33-20.33
			C160.42,391.45,169.52,400.55,169.52,411.78z"/>
	</g>
	<g>
		<g>
			<path class="st0" d="M149.19,414.88c-4.41,0-12.75-0.65-12.75-3.1c0-2.45,8.34-3.1,12.75-3.1c4.41,0,12.75,0.65,12.75,3.1
				C161.94,414.23,153.6,414.88,149.19,414.88z M149.19,409.7c-3.24,0-6.27,0.26-8.55,0.75c-2.64,0.56-3.18,1.19-3.18,1.33
				c0,0.14,0.54,0.77,3.18,1.33c2.28,0.48,5.31,0.75,8.55,0.75c3.23,0,6.27-0.27,8.55-0.75c2.64-0.56,3.18-1.19,3.18-1.33
				c0-0.14-0.54-0.77-3.18-1.33C155.46,409.97,152.42,409.7,149.19,409.7z"/>
		</g>
		<g>
			<path class="st0" d="M149.19,420.14c-7.03,0-12.75-3.75-12.75-8.36c0-4.61,5.72-8.36,12.75-8.36c7.03,0,12.75,3.75,12.75,8.36
				C161.94,416.39,156.22,420.14,149.19,420.14z M149.19,404.44c-6.47,0-11.73,3.29-11.73,7.34s5.26,7.34,11.73,7.34
				c6.46,0,11.73-3.29,11.73-7.34S155.65,404.44,149.19,404.44z"/>
		</g>
		<g>
			<path class="st0" d="M149.19,424.53c-2.6,0-3.29-8.34-3.29-12.75c0-4.41,0.69-12.75,3.29-12.75c2.6,0,3.29,8.34,3.29,12.75
				C152.48,416.19,151.79,424.53,149.19,424.53z M149.19,400.05c-0.77,0-2.27,4.14-2.27,11.73s1.5,11.73,2.27,11.73
				c0.77,0,2.27-4.14,2.27-11.73S149.96,400.05,149.19,400.05z"/>
		</g>
		<g>
			<path class="st0" d="M149.19,424.53c-4.61,0-8.36-5.72-8.36-12.75c0-7.03,3.75-12.75,8.36-12.75c4.61,0,8.36,5.72,8.36,12.75
				C157.55,418.81,153.8,424.53,149.19,424.53z M149.19,400.05c-4.05,0-7.34,5.26-7.34,11.73c0,6.46,3.29,11.73,7.34,11.73
				c4.04,0,7.34-5.26,7.34-11.73C156.53,405.31,153.23,400.05,149.19,400.05z"/>
		</g>
		<g>
			<path class="st0" d="M149.19,424.53c-7.03,0-12.75-5.72-12.75-12.75c0-7.03,5.72-12.75,12.75-12.75
				c7.03,0,12.75,5.72,12.75,12.75C161.94,418.81,156.22,424.53,149.19,424.53z M149.19,400.05c-6.47,0-11.73,5.26-11.73,11.73
				c0,6.46,5.26,11.73,11.73,11.73c6.46,0,11.73-5.26,11.73-11.73C160.91,405.31,155.65,400.05,149.19,400.05z"/>
		</g>
	</g>
</g>
<g>
	<g>
		<path class="st3" d="M375.74,99.69c0,11.23-9.1,20.33-20.33,20.33c-11.23,0-20.33-9.1-20.33-20.33c0-11.23,9.1-20.33,20.33-20.33
			C366.64,79.36,375.74,88.46,375.74,99.69z"/>
	</g>
	<path class="st0" d="M361.43,87.91h-12.05c-0.73,0-1.32,0.59-1.32,1.32v20.92c0,0.73,0.59,1.32,1.32,1.32h12.05
		c0.73,0,1.32-0.59,1.32-1.32V89.23C362.75,88.5,362.16,87.91,361.43,87.91z M357.15,110.41h-3.49c-0.24,0-0.43-0.19-0.43-0.43
		c0-0.24,0.19-0.43,0.43-0.43h3.49c0.24,0,0.43,0.19,0.43,0.43C357.58,110.22,357.39,110.41,357.15,110.41z M360.3,107.46h-9.78
		V90.06h9.78V107.46z M361.24,108.44h-11.67V89.22h11.67V108.44z"/>
</g>
<g>
	<g>
		<path class="st3" d="M362.87,414.88c0,11.23-9.1,20.33-20.33,20.33c-11.23,0-20.33-9.1-20.33-20.33c0-11.23,9.1-20.33,20.33-20.33
			C353.76,394.55,362.87,403.65,362.87,414.88z"/>
	</g>
	<g>
		<path class="st0" d="M349.74,421.78h3.43l-0.32,0.4c-1.16,1.46-2.63,2.61-4.41,3.44c-1.73,0.8-3.55,1.2-5.45,1.2
			c-3.15,0-5.78-1.06-7.9-3.18c-2.12-2.12-3.18-4.92-3.18-8.4c0-3.46,0.99-6.38,2.96-8.75c1.97-2.37,4.72-3.56,8.23-3.56
			c2.12,0,3.83,0.41,5.16,1.21c3.12,1.91,4.67,4.83,4.67,8.78c0,2.23-0.62,4.26-1.86,6.09c-1.41,2.06-3.18,3.09-5.32,3.09
			c-1.13,0-1.87-0.46-2.23-1.38c-0.52,0.48-0.98,0.81-1.38,1.01c-0.49,0.24-1.06,0.37-1.71,0.37c-1.56,0-2.77-0.63-3.61-1.9
			c-0.73-1.09-1.1-2.46-1.1-4.11c0-2.07,0.49-3.99,1.46-5.75c1.16-2.11,2.7-3.16,4.62-3.16c1.21,0,2.2,0.51,2.99,1.54l0.18-1.11
			h3.15l-1.81,11.46c0,0.19,0.08,0.28,0.25,0.28c0.64,0,1.3-0.35,1.96-1.05c0.5-0.53,0.92-1.16,1.26-1.9
			c0.46-0.98,0.68-2.14,0.68-3.49c0-2.23-0.66-4.03-1.99-5.41c-1.32-1.38-3.1-2.07-5.31-2.07c-2.55,0-4.65,0.87-6.29,2.62
			c-1.65,1.75-2.47,4.09-2.47,7.04c0,2.7,0.75,4.88,2.25,6.57c1.56,1.76,3.68,2.64,6.34,2.64c2.44,0,4.67-0.83,6.7-2.48
			L349.74,421.78z M343.33,416.32c0.38-1.42,0.56-2.77,0.56-4.04c0-0.65-0.12-1.2-0.35-1.65c-0.29-0.57-0.73-0.85-1.33-0.85
			c-1.13,0-1.99,0.95-2.58,2.86c-0.42,1.35-0.63,2.76-0.63,4.22c0,0.69,0.12,1.29,0.37,1.8c0.32,0.67,0.79,1,1.4,1
			c0.73,0,1.32-0.39,1.78-1.18C342.81,418.04,343.07,417.32,343.33,416.32z"/>
	</g>
</g>
<g>
	<g>
		<path class="st3" d="M197.06,152.32c0,11.23-9.1,20.33-20.33,20.33c-11.23,0-20.33-9.1-20.33-20.33c0-11.23,9.1-20.33,20.33-20.33
			C187.96,131.99,197.06,141.09,197.06,152.32z"/>
	</g>
	<g>
		<path class="st0" d="M187.56,141.06h-22.11c-0.55,0-1,0.45-1,0.99v15.44c0,0.55,0.45,0.99,1,0.99h22.11
			c0.55,0,0.99-0.45,0.99-0.99v-15.44C188.56,141.5,188.11,141.06,187.56,141.06z M186.78,156.66h-20.54v-14.12h20.54V156.66z"/>
		<rect x="167.11" y="143.29" class="st0" width="18.79" height="12.64"/>
		<rect x="161.06" y="162.84" class="st0" width="31.34" height="0.74"/>
		<path class="st0" d="M188.56,159.19h-24.1l-3.4,3.05h31.34L188.56,159.19z M164.76,159.61h23.74l1.36,1.11H163.6L164.76,159.61z
			 M172.73,161.83l0.67-0.88h6.6l0.72,0.88H172.73z"/>
	</g>
</g>
<g>
	<g>
		<path class="st3" d="M142.34,99.69c0,11.23-9.1,20.33-20.33,20.33c-11.23,0-20.33-9.1-20.33-20.33c0-11.23,9.1-20.33,20.33-20.33
			C133.23,79.36,142.34,88.46,142.34,99.69z"/>
	</g>
	<g>
		<path class="st0" d="M122.01,95.47c-3.27,0-5.93,2.65-5.93,5.93c0,3.27,2.65,5.93,5.93,5.93c3.27,0,5.93-2.65,5.93-5.93
			C127.93,98.13,125.28,95.47,122.01,95.47z M124.59,104.9c0.7-0.78,1.12-1.82,1.12-2.95c0-2.46-1.99-4.45-4.45-4.45
			c-0.95,0-1.84,0.3-2.56,0.81c0.81-0.92,2-1.5,3.33-1.5c2.46,0,4.45,1.99,4.45,4.45C126.48,102.77,125.73,104.1,124.59,104.9z"/>
		<path class="st0" d="M133.48,91.85h-22.95c-0.59,0-1.08,0.48-1.08,1.08v16.95c0,0.59,0.48,1.08,1.08,1.08h22.95
			c0.59,0,1.08-0.48,1.08-1.08V92.92C134.56,92.33,134.07,91.85,133.48,91.85z M122.01,109.3c-4.36,0-7.9-3.54-7.9-7.9
			c0-4.36,3.54-7.9,7.9-7.9c4.36,0,7.9,3.54,7.9,7.9C129.91,105.76,126.37,109.3,122.01,109.3z M133.31,94.92h-5.37V93.3h5.37V94.92
			z"/>
		<path class="st0" d="M127.11,88.43h-9.74l-3.09,2.96h15.43L127.11,88.43z M126.9,89.24h-9.36v-0.38h9.36V89.24z"/>
	</g>
</g>
<path class="st4" d="M329.03,256.66c-4.37,5.77-10.11,10.18-16.53,13.45c-7.37,3.75-15.42,6.69-23.47,8.53
	c-14.49,3.3-30.15,3.11-43.7-3.55c-26.95-13.25-37.79-46.77-33.29-74.98c1.58-9.9,4.9-19.8,10.29-28.34
	c-32.34,11.6-55.47,42.52-55.47,78.84c0,46.25,37.49,83.74,83.74,83.74c46.25,0,83.74-37.49,83.74-83.74c0-1.05-0.03-2.09-0.06-3.13
	C332.88,250.71,331.19,253.81,329.03,256.66z"/>
<path class="st4" d="M282.42,322.8c-9.87,0.03-19.86-1.25-29.21-4.51c-16.5-5.75-30.46-17.07-40.62-31.18
	c-10.2-14.17-16.74-30.91-20.57-47.87c-3.37-14.93-4.52-30.97-2.22-46.2c-14.21,15.01-22.94,35.26-22.94,57.56
	c0,46.25,37.49,83.74,83.74,83.74c16.05,0,31.05-4.52,43.79-12.35C290.43,322.57,286.41,322.79,282.42,322.8z"/>
<g class="st5">
	<path class="st6" d="M175.38,215.88c1.22-0.09,1.31-2.25,1.08-3.05c-0.07-0.23-0.17-0.44-0.29-0.63c-0.53,1.03-1.04,2.08-1.53,3.13
		C174.82,215.53,175.02,215.91,175.38,215.88z"/>
	<path class="st6" d="M221.96,327.77c-0.3-0.28-0.97-0.17-1.13-0.48c-0.33-0.69,0.84-1.23,0.97-1.66c0.1-0.33-0.09-1.74-0.17-2.19
		c-0.16-0.86-0.88-0.96-1.21-1.75c-0.18-0.42-0.16-0.77-0.37-1.21c-0.2-0.39-0.45-0.72-0.62-1.09c-0.46-0.99,0.22-1.33,0.09-2.27
		c-0.04-0.31-0.43-0.83-0.53-1.21c-0.12-0.41-0.16-0.81-0.18-1.23c-0.05-0.97,0.16-2.11,0.03-3.04c-0.08-0.52-0.41-1.01-0.46-1.57
		c-0.07-0.54-0.01-1.09-0.07-1.62c-0.12-1.21-0.09-2.37-0.44-3.48c-0.73-2.26-0.9-4.9-0.3-7.27c0.66-2.6-0.88-3.66-2.9-5.27
		c-0.98-0.79-1.31-1.24-2.6-1.29c-1.16-0.06-1.17-0.24-1.76-1.25c-0.43-0.72-1.06-1.38-1.46-2.08c-0.45-0.8-0.57-1.7-1.07-2.54
		c-0.58-0.97-1.01-1.71-1.21-2.83c-0.13-0.68-0.16-1.39-0.54-1.99c-0.05-0.09-0.98-1.3-0.98-1.3c-1.27-0.16-0.74-1.72-0.4-2.46
		c0.28-0.63,0.8-1.34,0.54-2.02c-0.21-0.53-0.54-0.29-0.48-1.04c0.04-0.58,0.19-0.75,0.43-1.24c0.72-1.43,1.66-2.48,2.63-3.75
		c1.05-1.39,1.59-3.03,0.71-4.62c-0.39-0.7-0.32-1.48-0.97-1.97c-0.63-0.45-1.39-0.35-2.16-0.31c-0.03,0.64,0.16,1.68-0.54,2
		c-0.84,0.39-1.74-0.74-2.28-1.15c-0.59-0.45-1.35-0.73-1.93-1.15c-0.68-0.5-0.65-0.96-0.95-1.64c-0.28-0.62-0.85-1.04-1.13-1.77
		c-0.25-0.74-0.13-1.46-1.06-1.73c-0.6-0.18-1.39,0.1-2.02,0.01c-0.73-0.11-2.14-1.18-2.69-1.68c-0.39-0.36-0.6-0.75-1.06-1.12
		c-1.44-1.16-2.58-0.1-4.22-0.17c-1.42-0.07-3.19-1.41-4.38-2.18c-1.4-0.88-2.6-2-3.4-3.45c-0.8-1.45,0.03-3.14-1.31-4.46
		c-0.55-0.55-1.38-0.78-1.6-1.54c-0.11-0.36,0.06-0.79-0.02-1.16c-0.09-0.41-0.41-0.77-0.6-1.13c-0.53-1.01-0.88-4.3-2.36-4.29
		c-1.78,0,0.46,3.57,0.81,4.29c0.31,0.63,0.43,1.71,0.58,2.43c0.09,0.48,0.07,0.96,0.19,1.43c0.1,0.42,0.34,0.61,0.24,1.13
		c-2.31-0.37-1.31-3.22-2.36-4.37c-0.38-0.41-0.68-0.23-0.86-0.9c-0.12-0.43,0.08-0.94,0-1.38c-0.17-0.96-0.55-1.68-0.92-2.54
		c-0.38-0.88-0.08-1.99-0.55-2.8c-0.39-0.69-1.1-0.97-1.82-1.19c-1.48,6.24-2.27,12.74-2.27,19.43c0,36.43,23.26,67.42,55.73,78.94
		c-0.05-0.23-0.09-0.46-0.15-0.68C222.37,328.52,222.21,327.98,221.96,327.77z"/>
	<path class="st6" d="M331.7,241.34c-0.57-1.21-0.75-2.61-1.12-3.89c-0.35,0.17-0.61,0.71-0.99,0.61c-0.59-0.16-0.32-0.81-0.57-1.01
		c-0.81-0.7-1.76-0.44-1.57,0.68c0.17,1.02,1.18,2.38,1.59,3.38c0.37,0.91,0.59,1.46,1.44,2.11c1.07,0.83,1.98,1.05,2.1,2.49
		c0.15,1.61-0.24,2.24,0.78,3.57c0.38,0.49,0.69,1,0.98,1.51c0-0.06,0-0.13,0-0.2c0-1.55-0.04-3.1-0.13-4.63
		c-0.34-0.42-0.54-0.86-0.83-1.56C332.94,243.31,332.15,242.35,331.7,241.34z"/>
	<path class="st0" d="M229.15,331.04c0.15-0.95,1.36-1.59,1.42-2.55c0.02-0.97-1.21-1.55-1.32-2.52c-0.11-0.93,0.81-1.59,0.71-2.54
		c-0.13-1.16-1.3-1.85-1.3-3.14c0.72,0.06,1.01,1.13,1.82,0.25c0.35-0.38,0.12-1.04,0.35-1.36c0.35-0.47,0.8-0.24,1.32-0.31
		c1.52-0.16,4.09-1.87,3.21-3.76c-0.2-0.41-1.73-1.63-0.68-1.82c0.16-0.03,0.97,0.47,1.23,0.51c0.55,0.11,1.01,0.11,1.52-0.07
		c1.04-0.37,1.82-1.5,2.21-2.5c0.34-0.87,0.39-1.04,1.13-1.65c1.56-1.29,1.85-3.14,1.73-5.04c-0.12-1.77-0.39-3.46,1.97-3.7
		c0.5-0.05,0.81,0,1.23-0.18c0.52-0.22,0.67-0.42,1.23-0.52c1.2-0.23,1.33-0.5,1.9-1.58c0.42-0.8,0.9-1.6,1.26-2.47
		c0.49-1.17,0.38-2.11,0.54-3.35c0.12-0.96,0.4-1.86,0.48-2.82c0.08-0.96-0.16-1.88,0.47-2.65c0.63-0.77,1.34-1,1.79-1.93
		c0.75-1.49,1.43-2.5,1.43-4.2c0-0.68,0.24-1.82,0-2.44c-0.34-0.96-0.97-0.49-1.75-0.71c-1.63-0.47-1.52-2.8-3.3-3.05
		c-0.74-0.11-1.49,0.09-2.23-0.02c-1.08-0.16-1.74-0.04-2.76-0.01c0.16-1.09-1.23-1.7-2.01-2.08c-0.46-0.23-0.24-0.3-0.84-0.21
		c-0.21,0.03-0.56,0.22-0.77,0.31c-0.58,0.26-0.96,0.48-1.47,0.85c-0.13-0.67,0.48-1.08,0.33-1.73c-2.08-0.88-2.94,0.69-4.35,1.82
		c-0.4-0.96,0.14-1.31,0.79-1.9c0.54-0.49,0.75-0.75,0.88-1.52c0.21-1.33-0.53-2.81-0.88-4.08c-0.33-1.16-0.79-1.07-1.86-1.07
		c-0.76,0-1.52,0.04-2.27-0.15c-2.77-0.69-3.75-3.7-6.31-4.6c-1.23-0.44-2.46-0.56-3.76-0.77c-0.58-0.09-1.2-0.27-1.77-0.45
		c-0.84-0.28-1.08-0.8-1.67-1.3c-0.6-0.51-1.13-0.37-1.86-0.13c-0.49,0.16-2.03,0.89-1.04,1.38c0.08,0.37,0.2,1-0.02,1.37
		c-0.31,0.57-1.02,0.42-1.3,0.9c-0.71-0.58-0.82-1.35-0.53-2.2c0.25-0.74,1.19-1.27,1.13-2.08c-0.81-0.16-1.36,0.72-2.01,1.02
		c-0.64,0.3-1.24,0.43-1.89,0.92c-0.26,0.21-0.51,0.37-0.72,0.66c-0.21,0.29-0.23,0.74-0.51,1c-0.2,0.21-0.6,0.28-0.89,0.34
		c-0.67,0.14-0.31,0.21-0.89-0.19c-0.85-0.58-0.94-0.5-1.9-0.26c-0.75,0.19-1.44,0.36-2.17,0.63c-0.51,0.18-0.05,0.56-0.79,0.16
		c-0.29-0.14-0.6-0.66-0.79-0.9c-0.54-0.7-0.81-1.32-0.72-2.24c0.08-0.81,0.31-1.57,0.43-2.38c0.1-0.63,0.5-1.79,0.2-2.38
		c-0.84-1.68-3.28,0.04-4.5-0.45c-1.03-0.42-0.3-0.96,0.27-1.62c0.72-0.83,0.66-1.12,0.88-2.12c0.14-0.68,1.15-1.37,1.21-2.03
		c0.06-0.88-1.57-1.58-2.24-1.78c-0.89-0.27-2.03-0.08-2.45,0.84c-0.46,1,0.22,1.46-0.9,2.22c-0.59,0.4-1.39,0.83-2.07,1.01
		c-1.21,0.31-2.03,0.44-2.63-0.66c-0.72-1.33-1.05-2.57-0.89-4.16c0.12-1.25,0.54-2.49,0.91-3.7c0.13-0.47,0.13-0.89,0.23-1.36
		c0.17-0.77-0.13-0.54,0.67-0.8c1.09-0.38,1.21-0.42,2.03-1.21c0.74-0.7,1.57-0.74,2.54-0.79c0.85-0.04,1.51,0.37,2.27,0.35
		c1.02-0.03,1.27-0.93,2.03-1.22c0.86-0.34,1.81,0.17,2.54,0.44c0.76,0.28,1.86-0.31,2.45,0.08c0.68,0.46,0.37,1.54,0.54,2.22
		c0.12,0.41,0.34,0.7,0.42,1.12c0.08,0.41-0.13,0.85-0.09,1.23c0.11,0.98,0.93,1.16,1.69,0.69c0.79-0.48,1.07-1.51,1.11-2.37
		c0.08-1.23-0.63-2.1-0.78-3.15c-0.24-1.74,1.9-1.59,2.8-2.25c0.99-0.7,1.21-2.11,2.28-2.72c0.89-0.51,2.01-0.62,2.55-1.66
		c0.48-0.96-0.81-3.84,0.8-4.23c0.52-0.13,0.72,0.43,1.2,0.36c0.47-0.06,1.1-0.97,1.4-1.33c0.76-0.86,1.22-1.02,2.33-1.13
		c1.06-0.11,2.05-0.38,2.55-1.4c0.18-0.38,0.08-0.87,0.3-1.23c0.43-0.71,0.54-0.32,1.21-0.52c1.1-0.32,1.99-1.23,3.15-1.61
		c0.53-0.17,2.15-0.79,2.45-0.28c0.51,0.86-1.53,0.58-1.82,1.29c-0.72,1.74,2.4-0.32,2.69-0.44c0.89-0.35,3.08-0.12,2.71-1.76
		c-0.55-0.03-0.99,0.03-1.5,0.14c-0.81,0.17-0.61,0.3-1.09-0.24c-0.63-0.7-0.68-1.35-0.12-2c0.74-0.85,1.18-1.17-0.43-1.31
		c-0.48-0.05-1.01-0.07-1.47,0.09c-0.22,0.07-0.96,0.73-1.15,0.68c-1.13-0.27,0.61-1.43,0.97-1.61c0.79-0.4,1.86-0.51,2.75-0.67
		c1.71-0.3,3.93,1.02,5.52,0.1c0.42-0.23,0.6-0.62,1.02-0.86c0.39-0.25,0.94-0.32,1.38-0.49c0.81-0.3,1.85-0.68,2-1.65
		c0.31-1.78-2.12-1.11-3.13-1.24c0.09-0.29,0.63-0.6,0.68-0.87c0.11-0.61-0.31-0.6-0.57-1.06c-0.55-0.89-0.16-1.72,0.08-2.58
		c0.22-0.84,0.03-2-0.8-2.31c-1.18-0.43-1.51,0.8-2.21,1.3c-0.45,0.31-1.54,0.6-1.93,0.01c-0.33-0.48-0.18-1.76-0.42-2.34
		c-0.52-1.22-0.97-1.3-2.26-1.43c-0.79-0.08-1.67-0.17-2.46-0.09c-0.88,0.09-1.57,0.47-1.74,1.4c-0.07,0.39,0.2,0.76-0.01,1.12
		c-0.25,0.42-0.92,0.41-1.31,0.6c-1.16,0.6-0.33,0.96-0.19,1.95c0.15,1.04-0.55,1.72-1.4,2.18c-0.75,0.39-1.26,0.69-1.84,1.24
		c-0.35,0.34-0.67,0.4-0.88,0.88c-0.2,0.43-0.12,0.87-0.43,1.32c-0.47,0.68-1.15,1.72-2.11,1.49c-0.79-0.19-1.13-0.99-1.05-1.75
		c0.09-0.79,0.81-1.48,0.62-2.36c-0.24-1.05-1.32-0.81-2.18-1.05c-1.06-0.31-1.9-0.84-2.79-1.4c-0.82-0.52-1.85-0.34-2.13-1.4
		c-0.55-2.07,1.69-2.58,3.07-3.22c0.91-0.41,2.12-0.66,2.82-1.4c0.71-0.74,0.31-1.11,1.38-1.16c1.36-0.06,3.49-0.28,4.48-1.31
		c-0.42-0.35-1.36-0.34-1.14-1.13c0.67-0.03,1.35,0.02,2-0.08c0.8-0.13,1.51-0.41,2.35-0.37c0.85,0.02,2.38,0.27,2.99-0.52
		c0.33-0.43,0.38-1.55,0.34-2.1c-0.64-0.06-1.27-0.49-1.91-0.16c-0.56,0.28-0.68,1.08-1.19,1.39c-1.04,0.64-1.78-0.04-1.63-1.06
		c-0.77-0.03-1.68,0.15-2-0.71c-0.27-0.77,0.52-1.7-0.54-1.84c-0.85-0.11-2.04,0.66-2.15,1.49c-0.12,1.02,0.33,1.64-1.15,2.01
		c-1,0.24-1.57,0.53-2.51,0.97c-1.05,0.5-1.15-0.24-2.07-0.45c-0.55-0.13-1.27,0.01-1.82,0.07c-0.32,0.03-1.14,0.37-1.4,0.28
		c-0.41-0.13-0.28-0.61-0.88-0.6c-0.22,0-0.99,0.41-1.23,0.55c-0.56,0.31-1.56,1.44-2.24,1.05c-0.62-0.35-0.38-1.36-1.27-1.64
		c-0.79-0.25-1.72,0.36-2.48,0.05c-0.58-0.24-0.3-0.53-0.64-0.84c-0.5-0.47-1.29-0.28-1.96-0.48c-0.75-0.23-1.48-0.49-2.25-0.62
		c-1.66-0.28-3.75-0.37-5.41-0.35c-0.92,0.01-1.23,0.5-2.02,0.81c-0.21,0.09-0.45,0.15-0.69,0.2c-5.77,5.91-10.67,12.67-14.5,20.08
		c0.12,0.19,0.22,0.4,0.29,0.63c0.24,0.8,0.15,2.96-1.08,3.05c-0.35,0.03-0.56-0.35-0.75-0.54c-2.34,5.03-4.19,10.32-5.5,15.83
		c0.72,0.22,1.43,0.49,1.82,1.19c0.47,0.81,0.17,1.92,0.55,2.8c0.37,0.87,0.75,1.59,0.92,2.54c0.08,0.44-0.12,0.96,0,1.38
		c0.18,0.67,0.48,0.49,0.86,0.9c1.05,1.15,0.05,4,2.36,4.37c0.09-0.51-0.14-0.71-0.24-1.13c-0.12-0.47-0.1-0.95-0.19-1.43
		c-0.15-0.71-0.26-1.79-0.58-2.43c-0.36-0.73-2.6-4.29-0.81-4.29c1.48-0.01,1.83,3.28,2.36,4.29c0.19,0.37,0.51,0.72,0.6,1.13
		c0.08,0.37-0.09,0.8,0.02,1.16c0.22,0.76,1.05,0.99,1.6,1.54c1.34,1.32,0.51,3.01,1.31,4.46c0.8,1.45,1.99,2.57,3.4,3.45
		c1.19,0.77,2.96,2.1,4.38,2.18c1.64,0.07,2.78-0.99,4.22,0.17c0.46,0.37,0.67,0.76,1.06,1.12c0.55,0.5,1.96,1.57,2.69,1.68
		c0.63,0.1,1.41-0.19,2.02-0.01c0.93,0.28,0.81,0.99,1.06,1.73c0.28,0.73,0.85,1.15,1.13,1.77c0.3,0.68,0.27,1.14,0.95,1.64
		c0.58,0.43,1.34,0.7,1.93,1.15c0.54,0.41,1.44,1.53,2.28,1.15c0.7-0.32,0.51-1.36,0.54-2c0.77-0.04,1.53-0.14,2.16,0.31
		c0.65,0.49,0.58,1.27,0.97,1.97c0.88,1.59,0.34,3.23-0.71,4.62c-0.97,1.28-1.91,2.33-2.63,3.75c-0.24,0.49-0.4,0.66-0.43,1.24
		c-0.05,0.75,0.28,0.51,0.48,1.04c0.26,0.68-0.26,1.39-0.54,2.02c-0.34,0.74-0.87,2.3,0.4,2.46c0,0,0.93,1.21,0.98,1.3
		c0.38,0.61,0.41,1.32,0.54,1.99c0.2,1.13,0.63,1.86,1.21,2.83c0.5,0.83,0.63,1.73,1.07,2.54c0.39,0.71,1.02,1.36,1.46,2.08
		c0.59,1,0.6,1.19,1.76,1.25c1.3,0.06,1.62,0.5,2.6,1.29c2.02,1.61,3.55,2.67,2.9,5.27c-0.6,2.37-0.43,5.01,0.3,7.27
		c0.35,1.11,0.33,2.27,0.44,3.48c0.06,0.54,0,1.08,0.07,1.62c0.05,0.56,0.38,1.06,0.46,1.57c0.13,0.93-0.08,2.07-0.03,3.04
		c0.03,0.43,0.07,0.83,0.18,1.23c0.09,0.38,0.49,0.9,0.53,1.21c0.13,0.94-0.55,1.28-0.09,2.27c0.17,0.37,0.42,0.7,0.62,1.09
		c0.21,0.44,0.19,0.79,0.37,1.21c0.33,0.79,1.05,0.89,1.21,1.75c0.08,0.45,0.28,1.86,0.17,2.19c-0.13,0.43-1.3,0.98-0.97,1.66
		c0.16,0.31,0.83,0.2,1.13,0.48c0.25,0.21,0.41,0.75,0.49,1.09c0.06,0.22,0.1,0.45,0.15,0.68c2.14,0.76,4.33,1.44,6.55,2.02
		C229.13,331.39,229.13,331.22,229.15,331.04z"/>
	<path class="st0" d="M212.08,247.03c-0.67-0.29-1.39-0.53-2.02-0.9c-0.67-0.39-1.17-0.88-1.91-1.13c-0.97-0.31-1.93-0.31-2.91-0.57
		c-0.56-0.15-0.63,0.02-1.17,0.14c-0.31,0.07-0.7,0.02-0.96,0.13h0.04c-0.2,0.11-1.18,0.69-0.93,1.02c0.33,0.43,1.23-0.16,1.53-0.36
		c1.07-0.69,1.99-0.15,3.04,0.23c0.47,0.17,0.97,0.24,1.38,0.56c0.24,0.18,0.82,0.61,0.89,0.88c0.14,0.5-0.65,0.45-0.43,1
		c0.21,0.54,1.35,0.42,1.78,0.39c0.35-0.01,0.68-0.06,1.03,0c0.45,0.09,0.75,0.29,1.19,0.18c0.11-0.28,0.42-0.62,0.37-0.92
		C212.94,247.35,212.36,247.16,212.08,247.03z"/>
	<path class="st0" d="M216.62,248.6c-0.58,0-1.39,0.03-1.82-0.35v-0.14c-0.5-0.09-0.2,0.59-0.13,0.79c0.12,0.33,0.28,0.55-0.26,0.66
		c-0.37,0.08-0.89-0.14-1.23,0.04c-0.41,0.22-0.31,0.62,0.07,0.75c0.62,0.2,1.45-0.29,2.07-0.22c0.21,0.03,0.25,0.18,0.38,0.21
		c0.21,0.05,0.46,0,0.67,0c0.38,0.02,0.96,0.17,1.32,0.04c0.23-0.08,0.72-0.68,0.28-0.74c0.67,0.15,0.36-0.4,0.09-0.68
		C217.6,248.54,217.24,248.6,216.62,248.6z"/>
	<path class="st0" d="M210.17,250.26c-0.3-0.23-0.63-0.03-0.67-0.45c-0.48-0.08-0.93,0.01-1.32,0.31c0.16,0.05,0.34,0.03,0.49,0.1
		c0.22,0.09,0.22,0.22,0.35,0.34c0.25,0.23,0.55,0.28,1.01,0.23C210.43,250.75,210.58,250.58,210.17,250.26z"/>
	<path class="st0" d="M209.49,249.69c0,0.05,0,0.08,0.01,0.12c0.03,0,0.06,0,0.1,0.01L209.49,249.69z"/>
	<path class="st0" d="M220.98,249.96l0.17-0.09c-0.56-0.22-0.84-0.01-1.17,0.44c0.15,0.33,0.36,0.14,0.6,0.22
		c0.3,0.09,0.42,0.26,0.75,0.26c0.55,0,1.04-0.14,0.94-0.82C221.67,249.92,221.54,250.33,220.98,249.96z"/>
	<path class="st0" d="M240.44,212.09c-0.11,0-0.2,0.03-0.29,0.06c-0.01,0.02-0.02,0.04-0.04,0.06L240.44,212.09z"/>
	<path class="st0" d="M241.23,213.65c-0.24-0.14-0.36-0.47-0.39-0.71c-0.08-0.46,0.12-0.36,0.2-0.72c0.06-0.27,0.37-0.46-0.25-0.51
		c-0.38-0.03-0.47,0.16-0.64,0.44c0.09-0.03,0.19-0.06,0.29-0.06l-0.33,0.13c0.01-0.02,0.02-0.04,0.04-0.06
		c-0.9,0.29-1.18,1.72-1.75,2.31c-0.27,0.27-1.28,0.6-0.52,0.87c0.62,0.21,1.37-0.41,2.06-0.29c0.56,0.1,0.87,0.49,1.49,0.4
		c0.46-0.06,1.32-0.55,1.24-1.11C242.58,213.52,241.69,213.95,241.23,213.65z"/>
	<path class="st0" d="M241.75,193.4c-0.26-0.3-0.55-0.75-0.52-1.15c0.01-0.33,0.39-0.5,0.39-0.72c0.03-0.49-0.96-0.9-1.39-0.99
		c-0.67-0.13-1.06,0.07-1.48-0.59c-0.45-0.69-0.39-1-1.38-0.86c-0.69,0.1-1.28,0.25-1.94-0.07c-0.64-0.31-0.89-0.86-1.69-0.98
		c-0.79-0.13-1.07,0.06-1.72,0.51c-0.33,0.23-1.35,0.84-1.77,0.54c-0.66-0.46,0.79-0.98,0.8-1.19c0.03-0.63-1.38,0.01-1.64,0.13
		c-0.69,0.31-1.31,0.8-2.02,1.11c-0.8,0.35-1.15,0.67-0.28,1.1c0.67,0.33,1.23,0.23,1.95,0.28c0.66,0.04,1.32,0.22,1.99,0.33
		c0.64,0.1,0.91,0.49,1.48,0.64c0.76,0.2,1.16-0.59,1.77-0.71c0.66-0.12,1.46,0.46,1.85,0.92c0.38,0.42,0.49,0.98,0.93,1.3
		c0.29,0.21,0.69,0.28,0.98,0.53c0.48,0.39,0.8,0.94,0.45,1.48c-0.34,0.54-0.79,0.3-1.23,0.04c-0.44-0.24-0.78-0.48-1.29-0.46
		c-0.24,0.01-0.57,0.03-0.77,0.14c-0.23,0.12-0.45,0.4-0.64,0.6c-0.34,0.37-0.72,0.85-1.23,0.97c-0.64,0.15-1.79-0.41-2.37-0.07
		c-0.3,0.18-0.36,0.55-0.06,0.73c0.29,0.18,0.98-0.16,1.26-0.2c0.57-0.08,1.48-0.06,1.94,0.26c0.53,0.35,0.66,1.16,1.13,1.63
		c0.62,0.61,1.36,0.88,2.23,0.87c0.31-0.01,0.94,0.07,0.81-0.46c-0.09-0.32-0.8-0.22-0.97-0.47c-0.09-0.14-0.08-0.82,0.03-0.92
		c0.39-0.36,0.87,0.24,1.12,0.36c0.46,0.21,1.53,0.27,1.71-0.41c0.09-0.39-0.17-0.49-0.31-0.78c-0.21-0.41-0.26-0.54-0.26-1.05
		c-0.01-1.9,1.88-0.43,2.82-0.18c0.73,0.2,1.74-0.52,1.13-1.27C243.15,193.9,242.2,193.93,241.75,193.4z"/>
	<path class="st0" d="M206.02,188.16c0.56-0.18,1.16-0.09,1.75-0.12c0.23-0.01,1.01-0.05,1-0.35c-0.01-0.49-1.32-0.39-1.6-0.46
		c-0.3-0.07-0.62-0.16-0.92-0.26c-0.31-0.12-0.56-0.11-0.91-0.11c-0.21,0-0.43-0.03-0.63,0.01c-0.19,0.05-0.34,0.16-0.53,0.21
		c-0.2,0.05-0.34,0.14-0.52,0.24c-0.16,0.09-0.36,0.14-0.53,0.24c-0.27,0.17-0.48,0.43-0.79,0.58c-0.33,0.16-0.69,0.22-1.02,0.37
		c-0.51,0.23-0.87,0.72-1.4,0.84c0.15,0.19,0.27,0.42,0.52,0.5c0.14,0.05,0.3,0,0.45,0.02c0.12,0.02,0.24,0.09,0.34,0.09
		c0.14,0.02,0.18,0.02,0.29-0.13c0.1-0.13,0.13-0.29,0.26-0.41c0.21-0.19,0.5-0.18,0.77-0.18c0.39-0.01,0.73-0.03,1.08-0.22
		c0.36-0.22,0.76-0.31,1.16-0.43C205.22,188.48,205.61,188.31,206.02,188.16z"/>
	<path class="st0" d="M214.63,190.39c-0.34-0.36,0-0.87,0.26-1.16c0.13-0.15,0.32-0.26,0.45-0.42c0.09-0.12,0.26-0.51,0.17-0.65
		c-0.12-0.18-0.58-0.12-0.78-0.11c-0.28,0.01-0.51,0.09-0.68,0.34c-0.23,0.32-0.2,1.12-0.81,0.98c-0.33-0.09-0.45-0.41-0.49-0.73
		c0-0.07,0.04-0.22,0-0.28c-0.06-0.14-0.36-0.18-0.5-0.13c-0.16,0.07-0.29,0.24-0.46,0.32c-0.12,0.05-0.3,0.15-0.43,0.16
		c-0.36,0.02-0.82-0.18-1.17-0.3c-0.2-0.07-0.36-0.21-0.55-0.26c-0.26-0.07-0.66,0.01-0.93,0.03c-0.22,0.03-0.34,0.1-0.54,0.2
		c-0.32,0.18-0.74,0.12-1.11,0.11c-0.36-0.01-0.68-0.03-0.98,0.18c-0.13,0.09-0.29,0.09-0.45,0.14c-0.16,0.05-0.32,0.13-0.45,0.22
		c-0.3,0.22-0.07,0.26,0.17,0.33c0.22,0.07,0.6,0.12,0.75,0.35c0.21,0.37-0.28,0.43-0.55,0.45c-0.17,0.01-0.8-0.15-0.84,0.13
		c-0.01,0.24,1.05,0.06,1.27,0.09c0.17,0.03,0.47,0.26,0.33,0.49c-0.06,0.11-0.6,0.06-0.71,0.06c-0.28,0-0.6-0.07-0.89-0.02
		c-0.31,0.05-0.5,0.22-0.5,0.55c0.03,0.97,1.35,0.52,1.95,0.73c0.43,0.16,0.67,0.64,1.12,0.72c0.59,0.13,1.6,0.02,1.89-0.59
		c0.11-0.22,0.05-0.49,0.28-0.64c0.26-0.16,0.75-0.07,1.03-0.07c0.45,0,0.84-0.08,1.29-0.06c0.21,0.01,0.22,0.03,0.38,0.15
		c0.28,0.2,0.56,0.36,0.89,0.46c0.53,0.17,1.14,0.07,1.64-0.16c0.28-0.12,0.54-0.32,0.8-0.47c0.16-0.09,0.45-0.22,0.46-0.42
		C215.97,190.61,214.91,190.67,214.63,190.39z"/>
	<path class="st0" d="M276.29,192.51c0.77-0.05,1.43-0.45,0.4-0.9c-0.79-0.35-1.53-0.25-1.53-1.38c0.02-0.94,0.72-0.82,1.42-0.47
		c0.43,0.22,1.56,1.27,2.14,0.9c0.9-0.56-0.33-1.11-0.71-1.3c-0.55-0.26-1.47-0.54-1.25-1.32c0.25-0.9,2.07-0.91,2.83-1.19
		c0.81-0.3,1.72-0.87,2.18-1.63c0.47-0.81,0.17-1.69,0.43-2.5c0.5-1.53,2.88-0.75,3.87-1.64c0.4-0.37,0.46-0.35-0.08-0.52
		c-0.76-0.26-1.81,0.15-2.58,0.2c-1.17,0.07-1.07-0.45-1.96-0.99c-0.97-0.6-2.66-0.26-3.78-0.26c-1.2,0-2.41-0.03-3.58,0.24
		c-1.74,0.39-3.29,1.34-5.16,1.33c-1.52-0.01-3.03-0.39-4.57-0.25c-2.01,0.19-3.99,0.06-5.96-0.01c-1.05-0.04-2.48-0.13-3.43,0.33
		l0.13-0.06c-1.47,0.33-2.78,1.21-4.3,1.5c-1.1,0.2-2.23,0.21-3.3,0.52c-0.61,0.18-1.54,0.84-0.97,1.58
		c0.63,0.83,3.25,0.19,4.28,0.34c1.05,0.15,2.33,1.09,3.04,1.85c0.64,0.69,0.8,2.1,0.86,3.03c0.1,1.6-1.33,2.65-2.11,3.8
		c-1.22,1.81,0.85,4.23,1.12,6.02c0.14,0.99,1.34,1.31,2.32,1.04c0.76-0.21,1.59-0.94,2.2-1.46c0.99-0.87,0.99-2.14,2.13-2.92
		c1.17-0.82,2.26-0.94,3.59-1.2c2.95-0.56,5.35-2.82,8.39-2.81C273.62,192.39,274.95,192.6,276.29,192.51z"/>
	<path class="st0" d="M285.89,206.22c-0.33,0.02-0.63,0.22-0.92,0.34c-0.56,0.24-1.26,0.09-1.82-0.02c-0.34-0.07-0.6-0.11-0.91,0.1
		c-0.29,0.2-0.4,0.32-0.77,0.39c-0.41,0.07-0.53,0.09-0.8,0.36c-0.13,0.13-0.68,0.41-0.49,0.65c0.1,0.15,0.25,0,0.35-0.03
		c0.21-0.05,0.21-0.13,0.46-0.03c0.3,0.11,0.55,0.37,0.83,0.56c0.55,0.39,1.28,0.14,1.81-0.16c0.32-0.19,0.51-0.11,0.9-0.17
		c0.33-0.05,0.62-0.23,0.92-0.36c0.3-0.12,0.74-0.09,0.95-0.34c0.12-0.13,0.12-0.29,0.24-0.42c0.08-0.08,0.35-0.11,0.39-0.18
		c0.01-0.01,0.06-0.06,0.08-0.08c-0.12-0.11-0.34-0.32-0.51-0.33l0.11,0.03C286.39,206.47,286.27,206.19,285.89,206.22z"/>
	<path class="st0" d="M286.34,208.13c-0.17,0.18-0.66,0.23-0.66,0.51c0.01,0.4,0.51,0.22,0.17,0.73c-0.19,0.27-0.47,0.5-0.54,0.84
		c-0.06,0.33-0.06,0.76,0.37,0.73c0.47-0.03,0.53-0.57,0.92-0.62c0.64-0.09,1.45,0.45,1.99-0.1c0.29-0.29,0.54-0.89,0.34-1.28
		c-0.18-0.39-0.7-0.53-1.09-0.75c-0.26-0.16-0.42-0.62-0.75-0.6h0.07C286.81,207.41,286.53,207.92,286.34,208.13z"/>
	<path class="st0" d="M288.32,207.92c0.26,0.18,0.85,0.34,0.74-0.23c-0.38,0.01-0.18-0.37,0.12-0.34c0.04-0.52-0.98,0.04-1.04-0.3
		l0.04,0.06c-0.2,0-0.46-0.06-0.58,0.1C287.86,207.46,288.03,207.73,288.32,207.92z"/>
	<path class="st0" d="M290.51,212.55c0.64-0.14,1.24-0.54,1.85-0.77c0.54-0.21,0.92-0.06,1.47-0.02c0.54,0.03,1.42-0.18,1.85-0.54
		c0.14-0.12,0.34-0.28,0.3-0.49c-0.04-0.17-0.22-0.18-0.32-0.29c-0.26-0.4,0.34-0.48,0.21-0.88c-0.11-0.35-0.49-0.15-0.76-0.17
		c-0.45-0.04-0.61-0.52-0.76-0.91c-0.18-0.5-0.17-1.18-0.47-1.61c-0.24-0.32-0.72-0.45-1.07-0.57c-0.2-0.06-0.64-0.12-0.74-0.29
		c-0.27-0.38,0.34-0.58,0.48-0.82c0.25-0.44-0.29-0.48-0.6-0.52c-0.19-0.01-0.37,0.01-0.49-0.15c-0.09-0.14-0.08-0.51-0.22-0.58
		c-0.1-0.05-0.39,0.05-0.5,0.09c-0.29,0.09-0.71,0.24-0.87,0.53c-0.18,0.31,0.04,0.8,0.25,1.05c0.09,0.12,0.17,0.07,0.22,0.26
		c0.05,0.22-0.12,0.36-0.12,0.56c0,0.5,0.45,0.45,0.8,0.53c0.35,0.07,0.4,0.21,0.64,0.46c0.3,0.31,0.3,0.45,0.29,0.92
		c-0.01,0.32-0.02,0.71-0.39,0.84c-0.34,0.13-0.58-0.04-0.86,0.31c-0.15,0.16-0.12,0.32-0.2,0.51c-0.09,0.3-0.29,0.39-0.49,0.6
		c0.38,0.14,1.71,0.1,1.39,0.79c-0.17,0.35-0.59,0.4-0.9,0.45c-0.23,0.04-0.89,0.24-0.99,0.49
		C289.39,212.71,290.29,212.59,290.51,212.55z"/>
	<path class="st0" d="M326.92,222.1c-0.57,0.19-1.15,0.49-1.69,0.77c-0.14,0.08-0.28,0.52-0.54,0.64c-0.28,0.14-0.75-0.1-1.05,0.01
		c-1.44,0.54-1.77,1.1-3.39,1.18c0.09,0.65,0.76,0.42,0.99,0.93c0.2,0.39,0,1.19,0,1.62c-0.01,1.42,0.13,1.43,1.6,1.5
		c1.74,0.09,2.23-0.01,3.68,1.02c1.7,1.22,1.69-0.16,3.01-1.04c1.56,0.61,0.01,2.09-0.37,2.92c-0.37,0.79-0.06,1.81-0.4,2.49
		c-0.67,1.39-3.46,0.65-4.74,0.65c-0.87,0-1.93,0.16-2.71-0.16c-0.92-0.37-1.57-1.13-2.66-1.42c-1.39-0.37-4.31-0.91-4.99,0.92
		c0.26,0.09,0.47,0.42,0.67,0.52c-0.56,0.91-2.4,0.34-3.13-0.16c-1.09-0.75-1.29-1.05-2.63-1.44c-1.31-0.39-2.62-0.99-3.29-2.21
		c-0.59-1.1-0.22-2.24-1.47-2.78c-0.65-0.29-0.8-0.23-1.44,0.02c-0.81,0.31-0.65,0.69-1.7,0.8c-1.17,0.12-2.38-0.07-3.55,0
		c-1.07,0.06-2.21,0.16-3.12,0.67c-0.55,0.32-0.72,0.89-1.61,1.04c-0.55,0.09-1.28,0.05-1.84,0c-1.31-0.13-3.49-1.21-4.55,0.3
		c-0.52,0.74-0.11,1.16-0.87,1.82c-0.63,0.55-1.6,0.74-2.05,1.52c-0.95,1.63,0.51,2.65-1.33,3.81c-1.72,1.08-2.57,1.49-3.57,3.3
		c-0.85,1.54-2.38,2.63-3.13,4.21c-0.52,1.09-0.14,2.27-0.13,3.42c0,2.5-2.27,3.73-0.63,6.3c0.62,0.98,1.56,1.75,2.11,2.76
		c0.56,1.06,0.64,2.34,1.1,3.44c0.88,2.04,4.4,4.86,6.47,5.72c1.65,0.69,2.5,0.19,3.76-0.48c1.26-0.65,2.47-0.48,3.85-0.41
		c2.16,0.1,3.4-2.48,5.91-1.29c1.21,0.57,1.06,1.45,2.49,1.72c1.3,0.24,2.44-0.03,3.16,1.39c0.91,1.81-0.28,3.74-0.33,5.58
		c-0.04,1.85,1.67,1.85,2.3,3.5c0.47,1.24,0.47,2.61,1.02,3.81c1.1,2.43,1.55,3.73,0.42,6.43c-0.84,2.05-1.27,4.52-0.1,6.57
		c1.35,2.34,1.67,4.6,2.04,7.26c0.17,1.23,0.11,2.44,0.58,3.51c0.54,1.21,1.69,2.34,2.11,3.58c14.29-14.98,23.08-35.26,23.13-57.6
		c-0.29-0.51-0.6-1.02-0.98-1.51c-1.02-1.33-0.63-1.96-0.78-3.57c-0.12-1.44-1.02-1.66-2.1-2.49c-0.85-0.65-1.08-1.21-1.44-2.11
		c-0.41-1-1.42-2.36-1.59-3.38c-0.18-1.12,0.76-1.38,1.57-0.68c0.25,0.2-0.03,0.85,0.57,1.01c0.38,0.1,0.64-0.44,0.99-0.61
		c0.37,1.28,0.55,2.68,1.12,3.89c0.46,1,1.24,1.97,1.68,3.06c0.29,0.71,0.49,1.14,0.83,1.56c-0.46-8.36-2.14-16.39-4.87-23.92
		C328.66,221.79,328,221.74,326.92,222.1z"/>
	<path class="st0" d="M315.96,202.31c-0.36,0.45,0.36,0.47,0.52,0.71c0.12,0.19,0.08,0.62,0.07,0.85c-0.01,0.62-0.33,1.21-1.05,0.98
		c-0.38-0.12-0.87-0.79-1.38-0.37c-0.33,0.26-0.37,1.25-0.33,1.63c0.05,0.49,0.37,1.32-0.26,1.71c-0.34,0.2-1.28,0.08-1.65-0.01
		c-0.52-0.14-0.9-0.49-1.51-0.39c-0.48,0.08-1.14,0.51-1.64,0.66c-1.23,0.35-2.94,0.19-4.26,0.13c-0.25-0.56-0.71-1.24-0.54-1.9
		c0.13-0.47,0.82-1.06,0.31-1.57c-0.34-0.33-1.28-0.15-1.61,0.22c-0.56,0.63-0.1,1.03,0.11,1.63c0.17,0.48,0.19,1.29-0.16,1.7
		c-0.46,0.56-1.27,0.23-1.93,0.38c-0.33,0.07-0.8,0.18-1,0.47c-0.2,0.3-0.02,0.73-0.45,0.98c-0.54,0.31-1.23,0.17-1.75,0.62
		c-0.95,0.78-1.83,1.75-2.85,2.4c-0.68,0.43-1.56,0.5-2.34,0.67c-0.83,0.17-1.37,0.35-2.26,0.4c-0.01,0.6-0.05,0.99,0.32,1.45
		c0.39,0.49,0.85,0.88,1.19,1.41c0.75,1.14,0.77,2.43-0.79,2.84c-1.38,0.37-2.91-0.27-4.34-0.2c-0.44,0.02-1.43-0.06-1.69,0.45
		c-0.33,0.62,0.54,1.29,0.9,1.65c0.26,0.27,0.72,0.49,0.95,0.79c0.5,0.71-0.1,2.1-0.47,2.77c-0.17,0.33-0.88,0.84-0.93,1.17
		c-0.25,1.35,1.48,2.16,2.46,2.37c0.85,0.18,2.45,0.65,3.32,0.39c0.96-0.29,1.87-1.73,2.23-2.66c0.55-1.41,0.34-2.12,1.74-2.97
		c0.5-0.3,1.17-0.32,1.61-0.81c0.43-0.49,0.38-1.35,0.85-1.75c0.71-0.59,2.43-0.18,3.32-0.6c1.46-0.67,1.63-1.09,3.15-0.06
		c1.33,0.9,2.54,1.97,3.79,2.9c0.96,0.71,0.63,0.63,0.9,1.73c0.19,0.67,0.64,1.72,1.2,2.13c0.73-0.7,1.31-1.61,1.07-2.62
		c0.5-0.03,1.04-0.01,1.53-0.04c0.68-2.81-6.57-2.71-6.13-5.97c0.89-0.24,1.06,0.29,1.73,0.57c0.47,0.21,1.22,0.19,1.66,0.44
		c0.64,0.36,0.63,0.81,1.17,1.3c0.38,0.35,0.88,0.33,1.32,0.65c1.83,1.28,0.14,4.88,4.08,4.62c-1.37,0.73,0.09,2.08,0.39,3.09
		c0.05-1.01,0.94-1.69,0.92-2.85c-0.01-1.29-0.67-1.64,0.8-2.1c0.94-0.3,1.96-0.32,2.88-0.66c1.4-0.51,1.21-0.56,0.83-1.97
		c-0.15-0.53-0.56-0.44-0.32-1.17c0.13-0.36,0.95-0.84,1.21-1.21c0.55-0.84,0.86-2.51,2.2-2.58c1.4-0.06,0.86,1.37,1.69,1.99
		c0.35,0.27,0.89,0.35,1.39,0.26c-2.37-5.81-5.38-11.29-8.93-16.36c-0.46-0.06-0.97-0.25-1.23-0.3
		C317.7,202.23,316.16,202.06,315.96,202.31z"/>
	<path class="st0" d="M305.76,195.32c-0.23,0.55,0.01,0.92-0.39,1.46c-0.82,1.11-2.41,1.19-3.66,1.45
		c-1.01,0.21-1.18,1.15-2.16,1.45c-0.05,0.99-0.12,2.93,0.63,3.67c1,0.98,2.99-0.81,4.17-0.53c0.88,0.21,0.68,0.89,0.91,1.52
		c0.21,0.58,1.18,1.49,1.77,1.71c0.79,0.29,1.8,0.05,2.24-0.66c0.4-0.63,0.17-1.34,0.72-1.88c0.5-0.47,0.89-0.72,1-1.47
		c0.15-1.11-0.51-0.76-1.11-1.37c-1.51-1.51,1.68-2.29,2.47-2.7c0.34-0.16,0.79-0.49,1.02-0.78c0.21-0.26,0.32-0.79,0.58-0.97
		c0.09-0.06,0.17-0.1,0.24-0.11c-1.29-1.5-2.63-2.96-4.02-4.36C308.2,192.58,306.43,193.78,305.76,195.32z"/>
	<path class="st0" d="M314.26,197.56c-0.53,1.13-1.62,2.3-0.4,3.5c1.04,1.02,2.21-0.05,3.34-0.14c0.22-0.02,0.49-0.04,0.77-0.06
		c-1.12-1.51-2.29-2.98-3.5-4.41C314.49,196.8,314.36,197.33,314.26,197.56z"/>
</g>
<path class="st7" d="M238.54,180c-1.25,1.91-2.36,3.93-3.3,6c-4.28,9.38-5.89,20.09-4.67,30.32c1.32,11,5.95,22.32,14.02,30.1
	c7.7,7.43,18.05,11.03,28.68,10.82c6.1-0.12,12.13-1.31,17.9-3.27c5.43-1.84,10.91-3.98,15.57-7.39c4.62-3.38,8.15-7.92,10.31-13.22
	c0.06-0.15,0.12-0.31,0.18-0.46c-1.78-31.28-27.7-56.1-59.42-56.1C251.06,176.81,244.58,177.93,238.54,180z"/>
</svg>
