<?xml version="1.0" standalone="no"?>
<!DOCTYPE svg PUBLIC "-//W3C//DTD SVG 20010904//EN"
 "http://www.w3.org/TR/2001/REC-SVG-20010904/DTD/svg10.dtd">
<svg version="1.0" xmlns="http://www.w3.org/2000/svg"
 width="559.000000pt" height="384.000000pt" viewBox="0 0 559.000000 384.000000"
 preserveAspectRatio="xMidYMid meet">
<metadata>
Created by potrace 1.15, written by Peter Selinger 2001-2017
</metadata>
<g transform="translate(0.000000,384.000000) scale(0.100000,-0.100000)"
fill="#000000" stroke="none">
<path d="M1550 3816 c-144 -51 -209 -96 -246 -172 -23 -47 -26 -63 -21 -116
l5 -61 -17 30 c-46 75 -128 111 -273 120 -105 7 -104 8 -59 -117 64 -176 162
-247 289 -210 29 8 33 7 28 -6 -3 -9 -6 -37 -6 -64 l0 -47 -162 -93 c-387
-220 -555 -321 -582 -349 -56 -58 -34 -144 48 -185 31 -15 45 -17 71 -9 17 6
366 202 773 437 408 234 747 426 752 426 6 0 301 -158 656 -352 624 -341 645
-353 639 -378 -4 -14 -18 -45 -33 -70 l-27 -45 -3 65 -3 65 -605 330 c-332
182 -610 329 -617 327 -6 -2 -281 -151 -609 -330 l-598 -327 0 -444 c0 -350
-3 -442 -12 -438 -7 2 -40 10 -72 18 -55 12 -62 17 -101 70 -23 31 -55 78 -71
104 -24 38 -41 53 -92 76 -35 16 -79 29 -98 29 -38 0 -43 9 -15 34 16 15 19
15 31 1 16 -19 31 -19 67 -1 15 8 35 18 43 21 55 22 65 34 67 84 1 54 -12 74
-58 84 -16 4 -30 18 -40 39 -8 18 -24 38 -36 44 -13 6 -31 18 -41 27 -10 10
-23 17 -28 17 -6 0 -25 16 -44 35 -51 53 -86 55 -175 11 -84 -42 -110 -69
-120 -126 -6 -36 -11 -42 -56 -62 -59 -25 -71 -44 -63 -96 4 -28 13 -42 35
-55 18 -10 38 -35 50 -61 21 -48 18 -48 102 -31 9 2 17 1 17 -1 0 -2 -25 -45
-57 -95 l-56 -91 23 -97 c26 -111 27 -100 -29 -365 -45 -217 -46 -210 18 -222
l34 -7 -7 -86 c-6 -79 -2 -103 40 -291 25 -113 65 -316 89 -452 24 -135 49
-257 55 -270 7 -12 28 -38 47 -56 l36 -33 28 27 28 27 -23 31 -23 31 11 380
c6 209 14 371 18 360 24 -71 38 -224 42 -478 5 -303 4 -294 70 -356 l26 -25
30 29 29 28 -24 29 c-14 16 -25 36 -25 44 0 8 25 124 56 257 l56 242 -6 208
c-5 190 -12 248 -42 350 -4 13 1 17 20 17 32 0 32 8 5 112 -11 44 -19 81 -17
83 2 1 39 -11 83 -28 79 -29 81 -31 128 -102 l47 -72 0 -96 0 -97 69 0 c67 0
70 -1 109 -40 49 -50 62 -51 252 -29 93 11 107 15 133 40 26 26 35 29 95 29
66 0 68 -1 151 -60 79 -57 85 -59 102 -44 15 13 17 25 12 60 l-6 44 440 0 440
0 32 -77 c96 -230 304 -447 531 -552 254 -118 562 -128 819 -27 360 142 636
496 668 859 l6 67 45 0 44 0 -7 -182 -7 -183 62 -359 61 -359 -26 -27 c-14
-14 -25 -28 -25 -31 0 -3 13 -15 30 -27 l29 -22 53 23 53 23 25 283 25 283
114 -258 c63 -143 116 -262 118 -266 2 -3 -8 -19 -21 -35 l-23 -28 32 -21 33
-22 48 29 c46 26 48 30 46 66 -1 21 -30 167 -63 324 l-60 287 41 213 c51 267
45 249 80 249 20 0 37 10 56 32 l27 33 -6 150 c-9 236 -60 493 -122 616 -27
53 -63 86 -121 110 -67 27 -72 54 -19 96 55 43 95 109 95 157 0 45 -27 97 -62
120 -36 23 -160 45 -221 39 -39 -4 -62 -1 -86 12 -49 25 -79 13 -102 -40 -33
-75 -5 -165 65 -206 23 -13 39 -34 51 -64 16 -44 53 -75 89 -75 31 0 25 -20
-11 -39 -43 -22 -82 -62 -137 -138 -21 -29 -42 -53 -48 -53 -46 0 -368 65
-397 81 -19 10 -45 19 -57 19 -11 0 -31 12 -45 26 -64 69 -247 179 -351 213
-34 11 -38 16 -38 46 0 57 -30 266 -50 353 l-20 82 79 130 79 129 21 188 c22
204 25 311 9 331 -6 6 -23 12 -38 12 -15 0 -32 -6 -38 -12 -14 -17 -18 -60 -8
-76 4 -7 3 -18 -2 -25 -5 -7 -28 -77 -50 -156 -31 -109 -51 -159 -83 -207 -37
-57 -59 -78 -59 -56 0 4 -9 22 -20 40 -20 32 -21 32 -50 17 -16 -8 -31 -15
-32 -15 -2 0 22 27 53 59 62 63 77 102 65 166 -18 95 -93 124 -337 130 -146 4
-159 3 -183 -16 -32 -25 -33 -50 -5 -75 12 -10 34 -42 50 -70 38 -67 61 -87
110 -93 38 -6 42 -9 60 -55 10 -28 17 -50 16 -51 -1 -1 -30 -19 -65 -39 -35
-21 -61 -40 -58 -43 3 -3 32 11 65 32 48 29 67 35 90 30 16 -3 32 -13 35 -21
3 -8 4 -14 1 -14 -2 0 -37 -7 -77 -16 -40 -9 -89 -18 -108 -20 -19 -2 -47 -6
-62 -10 -18 -4 -36 -1 -51 9 -21 13 -25 29 -36 119 -15 124 -19 140 -34 131
-9 -5 -9 -3 -1 8 17 21 -2 78 -29 88 -43 17 -86 -33 -64 -74 9 -17 11 -174 3
-183 -2 -1 -239 127 -527 285 -464 255 -529 287 -569 288 -41 0 -80 -20 -400
-204 -195 -113 -370 -214 -389 -225 l-34 -20 6 80 c8 110 7 109 75 110 72 0
133 32 179 92 43 57 63 126 70 245 l6 97 -24 -1 c-13 0 -53 -11 -89 -23z m100
-25 c0 -21 -5 -63 -11 -92 -6 -30 -13 -69 -15 -88 -10 -70 -77 -157 -141 -182
-33 -12 -115 -12 -149 1 l-28 11 64 64 c35 36 66 62 68 60 3 -2 -1 -11 -8 -20
-7 -8 -10 -15 -7 -15 3 0 16 15 28 33 16 21 17 27 6 18 -9 -7 -17 -10 -17 -5
0 5 -29 -20 -65 -56 -69 -69 -72 -68 -78 10 -11 130 63 209 253 271 47 16 88
28 93 29 4 0 7 -17 7 -39z m1095 -443 c529 -289 610 -333 572 -306 -10 7 -25
18 -32 23 -7 6 -15 42 -19 82 l-6 71 36 12 c19 7 38 10 40 7 4 -4 33 -182 34
-211 0 -4 -8 -5 -17 -1 -38 14 6 -14 98 -64 79 -42 98 -48 103 -36 5 13 11 12
41 -7 19 -13 35 -26 35 -30 0 -11 -7 -10 -40 7 -17 9 -30 13 -30 10 0 -2 18
-14 39 -25 27 -13 41 -16 43 -8 3 7 10 8 17 4 10 -6 10 -10 2 -16 -7 -4 10
-18 41 -34 29 -15 44 -21 34 -12 -10 8 -24 17 -29 19 -29 9 9 35 81 55 44 12
82 22 85 22 18 0 28 -92 34 -292 l6 -228 -132 0 -133 0 6 38 c3 20 8 63 12 94
l6 57 39 -19 c46 -24 98 -26 125 -4 18 15 18 15 -3 5 -36 -18 -80 -13 -134 15
-28 14 -48 21 -45 15 4 -6 2 -58 -5 -115 -10 -94 -14 -105 -33 -109 -11 -2 36
-3 106 -3 70 1 128 4 128 9 0 4 15 6 33 6 l32 -1 -30 -7 c-27 -7 -24 -8 28
-15 31 -5 57 -12 57 -17 0 -5 -5 -9 -11 -9 -5 0 -7 -5 -4 -10 4 -6 12 -4 21 5
17 17 54 12 91 -11 12 -8 32 -14 43 -14 29 0 173 -73 246 -126 99 -70 177
-146 162 -155 -10 -7 -9 -9 4 -9 25 0 100 -100 153 -204 l46 -89 -32 -14 c-18
-7 -40 -11 -50 -8 -10 4 -27 1 -36 -5 -16 -10 -15 -11 5 -6 34 7 52 -3 52 -29
0 -16 -9 -26 -30 -35 -51 -21 -87 11 -60 54 12 19 12 20 -3 7 -23 -18 -21 -44
3 -66 18 -16 24 -17 60 -5 36 12 40 17 40 45 l0 33 163 57 c89 32 169 65 177
73 13 14 13 15 0 5 -8 -5 -30 -15 -49 -21 -26 -9 -32 -9 -28 1 18 48 18 55 0
51 -29 -7 -332 91 -347 112 -18 25 0 54 34 54 14 -1 96 -13 182 -28 l158 -28
26 26 26 25 -22 -43 c-12 -24 -20 -46 -18 -48 2 -2 24 37 47 86 48 99 65 118
135 153 l48 25 -21 21 c-11 11 -32 21 -46 21 -31 0 -67 53 -62 91 2 19 -2 25
-16 26 -28 3 -66 30 -88 66 -27 43 -23 138 8 169 l22 21 49 -21 c38 -17 61
-20 100 -15 59 7 164 -11 204 -35 42 -24 64 -91 49 -142 -12 -41 -65 -110 -83
-110 -18 0 -37 -33 -38 -62 0 -16 -6 -28 -12 -29 -7 0 16 -11 50 -24 35 -13
75 -34 89 -47 35 -32 68 -102 98 -203 49 -169 90 -564 65 -624 -15 -36 -57
-55 -107 -48 -21 3 -30 3 -20 1 9 -3 17 -11 17 -17 0 -7 -19 -112 -42 -235
l-42 -223 32 -157 c18 -86 45 -217 61 -290 l28 -133 -21 -8 c-64 -24 -53 -40
-168 222 -59 133 -118 265 -130 292 l-22 50 -26 -280 -25 -280 -45 0 -45 0
-57 330 -57 330 0 217 c-1 198 1 217 17 222 9 3 -8 3 -39 0 -43 -4 -59 -1 -69
11 -14 17 -8 46 48 235 28 93 29 95 63 101 33 6 33 6 4 7 -33 0 -209 -25 -185
-27 37 -3 63 -280 40 -432 -54 -374 -311 -693 -662 -824 l-47 -17 -56 27 c-44
22 -54 31 -48 44 4 9 7 44 6 78 -3 81 9 113 42 113 23 0 25 4 23 38 -1 36 -1
36 -5 5 -3 -24 -9 -33 -22 -33 -33 0 -46 -29 -47 -109 -1 -42 -4 -85 -8 -97
-6 -18 -2 -24 31 -37 36 -15 36 -16 10 -16 -42 -1 -97 25 -97 46 0 10 -6 27
-14 38 -7 11 -16 52 -19 90 -2 39 -14 90 -25 115 l-21 45 54 28 c30 15 55 30
55 32 0 3 -23 -6 -50 -20 -28 -14 -55 -23 -60 -20 -6 4 -10 2 -10 -4 0 -10
-145 -60 -178 -62 -11 0 -13 -2 -4 -6 7 -3 52 7 99 22 47 14 86 25 88 23 15
-18 45 -130 45 -168 0 -26 7 -61 14 -77 8 -15 17 -36 20 -46 7 -22 64 -47 106
-47 53 0 32 -17 -37 -31 -101 -21 -350 -18 -442 4 -223 54 -417 171 -558 336
-35 41 -61 81 -59 88 3 7 -3 17 -14 23 -24 13 -80 114 -109 195 l-22 60 -440
-2 c-242 0 -446 -3 -453 -6 -10 -4 -12 -20 -8 -56 4 -41 2 -51 -11 -51 -8 0
-59 32 -113 71 -115 83 -129 92 -94 62 l25 -23 -67 0 c-47 0 -68 4 -69 13 0 6
-5 -3 -10 -21 -12 -42 -26 -46 -176 -63 -163 -17 -188 -10 -243 71 l-40 59 42
95 c35 81 44 95 62 92 12 -2 15 -1 7 1 -9 3 -11 15 -7 36 5 28 4 30 -7 12 -6
-11 -32 -66 -58 -122 -44 -98 -46 -102 -64 -85 -10 9 -1 -7 19 -35 l38 -53
-67 0 -66 0 2 94 2 93 -42 61 c-49 73 -53 95 -13 87 26 -5 26 -5 3 5 -15 7
-21 15 -17 26 3 9 6 20 6 25 0 5 8 9 18 9 12 0 7 7 -15 21 l-32 20 19 53 18
53 -45 22 c-24 12 -41 26 -38 31 4 6 32 23 62 39 l56 28 -99 6 c-120 7 -128
10 -155 54 -12 19 -24 32 -27 29 -9 -10 48 -86 65 -86 9 0 45 -5 80 -11 l64
-11 -30 -19 c-42 -25 -39 -45 9 -69 22 -11 40 -22 40 -25 0 -3 -7 -22 -15 -43
l-16 -39 -105 55 -105 55 2 109 c1 59 0 111 -4 115 -4 3 -7 -27 -7 -68 0 -41
-3 -91 -6 -111 l-6 -37 -49 25 c-27 13 -49 22 -49 20 0 -2 83 -48 184 -101
l183 -97 -10 -39 c-5 -21 -15 -39 -21 -39 -6 0 -62 20 -125 45 -118 47 -145
55 -99 29 18 -9 31 -27 37 -52 27 -105 39 -152 38 -153 -1 -1 -29 -7 -62 -15
-33 -7 -44 -11 -24 -9 l36 3 21 -91 c15 -68 22 -141 26 -280 l6 -189 -51 -221
c-73 -324 -64 -297 -103 -297 l-34 0 -4 278 c-4 264 -6 286 -39 457 l-34 180
-12 -385 c-6 -212 -11 -418 -12 -457 l-1 -73 -39 0 c-35 0 -40 3 -45 27 -3 16
-24 132 -46 258 -22 127 -58 309 -80 405 -32 140 -40 195 -40 273 l0 97 120 0
c89 0 120 -3 120 -12 0 -10 2 -10 8 -1 5 7 40 13 87 16 44 1 -10 4 -121 5
-208 2 -294 16 -294 48 0 7 20 110 45 227 l45 214 -21 82 c-11 45 -18 85 -15
88 3 4 2 11 -4 18 -6 7 9 40 44 99 30 48 57 90 60 93 3 4 13 -2 22 -13 15 -18
15 -18 5 2 -9 20 -7 22 22 27 23 3 39 -1 57 -17 16 -14 20 -15 11 -3 -8 9 -12
19 -10 21 2 2 35 6 73 9 74 7 71 10 52 -48 -4 -11 1 -4 11 15 9 19 18 37 20
39 1 2 32 -9 68 -25 65 -27 69 -31 138 -133 l72 -106 62 -17 c69 -18 135 -31
116 -22 -10 4 -13 104 -13 447 l0 442 603 330 602 330 46 -25 c25 -14 296
-162 602 -330 l557 -305 0 -185 -1 -185 -66 -30 c-84 -37 -169 -92 -228 -146
l-45 -42 0 47 0 46 -162 -2 -163 -3 -3 -137 -3 -138 86 0 c83 0 85 -1 75 -20
-20 -37 -4 -21 28 28 17 26 50 70 73 97 24 28 30 39 15 25 -15 -14 -44 -46
-63 -72 l-35 -48 -84 0 -84 0 0 130 0 130 156 0 156 0 -4 -53 -3 -53 80 68
c54 47 114 86 185 121 l105 52 -3 113 c-3 110 -2 113 27 155 16 23 36 59 45
80 14 35 17 37 38 26 13 -6 19 -7 13 -2 -5 6 -313 175 -683 377 l-672 366
-503 -289 c-1030 -593 -1009 -581 -1045 -581 -89 0 -138 81 -97 159 15 30 112
89 660 401 138 79 399 229 580 333 182 105 345 196 364 203 19 6 47 8 65 4 17
-4 274 -140 571 -302z m-1630 241 c62 -17 123 -56 142 -92 9 -18 22 -54 28
-82 9 -36 13 -42 14 -22 1 29 2 30 24 21 11 -4 13 -14 7 -42 -5 -20 -10 -66
-13 -101 -5 -62 -21 -91 -50 -91 -12 0 0 111 13 124 17 17 11 41 -12 55 -23
14 -23 14 -5 -7 11 -11 16 -26 12 -32 -5 -8 -23 3 -54 32 l-46 43 38 -41 c22
-24 34 -44 29 -48 -18 -11 -108 -9 -145 3 -21 7 -52 31 -72 53 -32 38 -82 150
-99 222 l-7 29 78 -7 c43 -3 96 -11 118 -17z m3072 -151 c-4 -18 -14 -109 -24
-203 l-17 -170 -79 -130 c-86 -142 -82 -124 -52 -262 17 -79 47 -324 41 -330
-8 -8 -128 20 -131 31 -2 6 -6 134 -9 284 -6 264 -5 272 13 272 30 0 34 16 13
57 l-20 37 52 76 c44 65 57 96 91 218 41 146 42 149 99 151 27 1 28 -1 23 -31z
m-622 1 c32 -8 53 -8 78 0 45 15 200 -19 234 -51 53 -50 50 -149 -6 -202 l-30
-29 -6 29 c-25 109 -29 116 -75 127 -59 15 -160 -41 -160 -89 0 -17 -25 -18
-66 -4 -20 7 -40 28 -61 63 -17 29 -41 61 -52 71 -31 28 -28 72 7 84 37 14 84
14 137 1z m244 -207 c13 -24 2 -105 -15 -115 -8 -4 -14 -14 -14 -22 0 -8 -14
-22 -31 -31 -17 -8 -28 -11 -25 -6 3 6 -14 20 -38 31 -38 19 -45 28 -55 66 -6
24 -11 47 -11 50 0 14 89 45 132 45 36 0 50 -5 57 -18z m-19 -241 c39 -8 80
-39 80 -61 0 -6 -66 -27 -170 -55 -8 -2 -23 2 -33 9 -17 14 -17 16 8 65 28 56
33 57 115 42z m-3356 -502 c14 -11 26 -29 26 -39 0 -13 5 -18 15 -13 9 3 25
-3 35 -12 11 -10 30 -23 42 -29 12 -6 29 -24 38 -41 9 -16 34 -38 55 -50 37
-18 40 -23 40 -63 0 -43 0 -43 -62 -74 -88 -43 -99 -38 -95 44 4 62 2 67 -28
99 l-32 34 27 -35 c23 -29 26 -41 22 -83 -3 -34 -12 -56 -31 -76 -14 -15 -26
-35 -26 -44 0 -13 -9 -17 -35 -17 -25 0 -35 4 -35 15 0 9 -11 21 -25 27 -14 6
-25 16 -25 22 0 6 -9 -4 -20 -22 -23 -37 -45 -47 -121 -57 l-54 -6 -17 40
c-10 24 -30 48 -50 61 -18 11 -30 20 -26 20 4 0 3 12 -3 26 -13 35 9 70 51 79
35 8 70 48 70 81 0 53 119 134 196 134 27 0 51 -7 68 -21z m4340 -609 c72 -22
136 -42 143 -45 6 -2 9 -13 6 -24 -4 -14 -28 -28 -90 -50 -93 -34 -113 -37
-113 -18 0 7 -20 48 -45 91 -25 44 -45 81 -45 83 0 6 14 3 144 -37z"/>
<path d="M3750 2319 c-25 -9 -25 -9 3 -5 15 2 27 0 27 -4 0 -8 -191 -20 -204
-13 -4 3 -2 10 5 15 11 8 11 9 -1 5 -8 -2 -14 -10 -12 -16 1 -6 -7 -11 -17
-11 -11 0 -23 -4 -26 -10 -9 -15 -27 -12 -19 3 6 10 4 10 -7 0 -7 -7 -26 -13
-42 -13 -15 0 -26 -4 -23 -9 3 -5 -21 -18 -53 -30 -32 -12 -85 -38 -117 -58
-45 -27 -70 -36 -104 -36 -42 0 -42 0 -7 -4 21 -2 35 -9 31 -14 -3 -5 20 6 51
26 93 60 245 118 341 131 22 3 91 7 154 10 93 5 113 3 103 -7 -7 -7 -32 -16
-55 -20 l-43 -6 36 -2 c23 -1 46 6 60 18 22 17 59 18 59 0 0 -4 15 -9 33 -11
l32 -3 -30 -17 c-16 -10 -24 -17 -17 -18 7 0 23 10 36 23 19 19 27 21 55 13
l32 -9 -28 -25 -28 -24 35 24 c31 22 39 23 63 13 16 -6 33 -18 38 -26 7 -11 9
-11 9 -1 0 7 4 11 9 7 5 -3 12 -2 15 3 2 4 -3 8 -12 9 -9 1 -52 15 -96 32 -58
22 -83 28 -97 21 -29 -16 -46 -11 -19 6 l25 14 -35 -1 c-83 -4 -120 1 -120 16
0 17 -4 17 -40 4z"/>
<path d="M2287 2173 c-4 -3 -7 -66 -7 -140 l0 -133 165 0 165 0 0 140 0 140
-158 0 c-87 0 -162 -3 -165 -7z m313 -133 l0 -130 -155 0 -155 0 0 130 0 130
155 0 155 0 0 -130z"/>
<path d="M2280 1670 l0 -140 165 0 165 0 0 140 0 140 -165 0 -165 0 0 -140z
m320 0 l0 -130 -155 0 -155 0 0 130 0 130 155 0 155 0 0 -130z"/>
</g>
</svg>
