<svg xmlns="http://www.w3.org/2000/svg" width="558.822" height="383.867" viewBox="0 0 558.822 383.867">
  <g id="Group_126" data-name="Group 126" transform="translate(-126.636 -107.921)">
    <g id="Group_40" data-name="Group 40" transform="translate(438.582 133.486)">
      <g id="Group_1" data-name="Group 1" transform="translate(69.731 34.432)">
        <path id="Path_1" data-name="Path 1" d="M1142.966,267.707a5.289,5.289,0,0,1,.616,2.921Z" transform="translate(-1142.966 -267.707)" fill="#fff" stroke="#222221" stroke-miterlimit="10" stroke-width="1"/>
      </g>
      <g id="Group_2" data-name="Group 2" transform="translate(56.462 137.55)">
        <path id="Path_2" data-name="Path 2" d="M1115.845,544.061q3.106.4,6.179.963a30.373,30.373,0,0,1,16.625,7.138l-6.754,47.871,13.867,58.621-.44.163-.484-3.033-7.636,5.474-29.8-65.214.193-2.509Z" transform="translate(-1107.406 -544.061)" fill="#fff" stroke="#222221" stroke-miterlimit="10" stroke-width="1"/>
      </g>
      <g id="Group_3" data-name="Group 3" transform="translate(86.258 249.274)">
        <path id="Path_3" data-name="Path 3" d="M1195.377,846.512l-7.9,2.933-.225-.492,7.636-5.474Z" transform="translate(-1187.257 -843.479)" fill="#fff" stroke="#222221" stroke-miterlimit="10" stroke-width="1"/>
      </g>
      <g id="Group_4" data-name="Group 4" transform="translate(32.818 136.657)">
        <path id="Path_4" data-name="Path 4" d="M1064.255,541.673l-.739,28.294,2.734,21.44,1.434,3.138-4.941,64.239h-.047v-.967h-8.224l-10.431-71.372.506-43.72c.206.039.412.083.62.118C1045.166,542.843,1057.7,541.577,1064.255,541.673Z" transform="translate(-1044.04 -541.668)" fill="#fff" stroke="#222221" stroke-miterlimit="10" stroke-width="1"/>
      </g>
      <g id="Group_5" data-name="Group 5" transform="translate(52.294 136.663)">
        <path id="Path_5" data-name="Path 5" d="M1096.236,569.976l.738-28.294.124,0a105.638,105.638,0,0,1,11.744.886l-8.246,49.475-.193,2.509-1.434-3.138Z" transform="translate(-1096.236 -541.682)" fill="#fff" stroke="#222221" stroke-miterlimit="10" stroke-width="1"/>
      </g>
      <g id="Group_6" data-name="Group 6" transform="translate(49.105 32.527)">
        <path id="Path_6" data-name="Path 6" d="M1097.384,281.881a3.407,3.407,0,0,0-1.4-2.088c-.9-.525-2.035-.373-3.017-.714-1.849-.642-2.645-2.766-3.211-4.64l-1.477-4.886a22.015,22.015,0,0,1-.586-2.249c2.81-1.05,5.438-2.975,8.374-3.711,3.292-.825,9.3-2.044,12.084.712a1.666,1.666,0,0,1,.168.2l.616,2.921c.012,2.749-.731,6.342-.638,7.8a6.705,6.705,0,0,0,1.168-.529c-.857,1.388-2.651,2.254-4.26,2.888q.293,1.574.451,3.169l-4.613,2.324Z" transform="translate(-1087.688 -262.6)" fill="#fff" stroke="#222221" stroke-miterlimit="10" stroke-width="1"/>
      </g>
      <g id="Group_7" data-name="Group 7" transform="translate(27.101 12.997)">
        <path id="Path_7" data-name="Path 7" d="M1072.778,238.473l-.814-3.856a5.289,5.289,0,0,0-.616-2.921q-.184-.869-.367-1.738a7.671,7.671,0,0,0-.995-2.819c-1-1.45-2.851-2.033-4.6-2.27a15.662,15.662,0,0,0-12.559,3.554,6.861,6.861,0,0,0-2.036,2.9,6.444,6.444,0,0,0-.075,3.169,11.765,11.765,0,0,1-1.918.551c-2.568.489-5.91-.656-8.155-1.909-2.77-1.548-4.209-6.307-5.89-8.852a18.571,18.571,0,0,0-1.5-1.995,36.091,36.091,0,0,1-3.6-4.022c-.97-1.518-1.369-3.61-.326-5.08a5.584,5.584,0,0,1,2.905-1.821,21.59,21.59,0,0,1,11.34-.628c3.567.769,6.785,2.143,10.293.683,3.3-1.371,5.73-.952,9.269.166,3.83,1.21,8.917,1.341,12.409,3.119a10.1,10.1,0,0,1,3.584,3.284,15.222,15.222,0,0,1,.634,16.084,21.789,21.789,0,0,1-2.257,3.071,20.91,20.91,0,0,1-5.016,4.746,3.324,3.324,0,0,0,.484-1.334A6.274,6.274,0,0,0,1072.778,238.473Z" transform="translate(-1028.718 -210.261)" fill="#fff" stroke="#222221" stroke-miterlimit="10" stroke-width="1"/>
      </g>
      <g id="Group_8" data-name="Group 8" transform="translate(48.945 27.449)">
        <path id="Path_8" data-name="Path 8" d="M1087.493,255.605a6.861,6.861,0,0,1,2.036-2.9,15.662,15.662,0,0,1,12.559-3.554c1.744.237,3.6.819,4.6,2.27a7.667,7.667,0,0,1,.995,2.819q.183.869.367,1.738a1.666,1.666,0,0,0-.168-.2c-2.78-2.756-8.792-1.538-12.084-.712-2.935.735-5.564,2.66-8.374,3.711A6.445,6.445,0,0,1,1087.493,255.605Z" transform="translate(-1087.258 -248.993)" fill="#fff" stroke="#222221" stroke-miterlimit="10" stroke-width="1"/>
      </g>
      <g id="Group_9" data-name="Group 9" transform="translate(69.702 37.353)">
        <path id="Path_9" data-name="Path 9" d="M1143.532,275.534l.814,3.856a6.28,6.28,0,0,1,.2,2.085,3.323,3.323,0,0,1-.484,1.334,6.707,6.707,0,0,1-1.168.529C1142.8,281.876,1143.544,278.283,1143.532,275.534Z" transform="translate(-1142.886 -275.534)" fill="#fff" stroke="#222221" stroke-miterlimit="10" stroke-width="1"/>
      </g>
      <g id="Group_10" data-name="Group 10" transform="translate(12.632 23.956)">
        <path id="Path_10" data-name="Path 10" d="M991.762,248.954l-1.82-3.971.346-3.657,3.4-1.695,3.605.731,1.129,2.524-.912,3.282,1.008-.564.491.8-2.062,3.364.1.385-4.784,1.181Z" transform="translate(-989.942 -239.632)" fill="#fff" stroke="#222221" stroke-miterlimit="10" stroke-width="1"/>
      </g>
      <g id="Group_11" data-name="Group 11" transform="translate(98.457)">
        <path id="Path_11" data-name="Path 11" d="M1222.237,185.811l-2.286-3.244.442-.833,1.048.5L1220.315,179l.971-2.606,3.572-.965,3.524,1.483.582,3.649-1.572,4.1-.225,1.551-5.162.823Z" transform="translate(-1219.952 -175.43)" fill="#fff" stroke="#222221" stroke-miterlimit="10" stroke-width="1"/>
      </g>
      <g id="Group_15" data-name="Group 15" transform="translate(0 10.489)">
        <g id="Group_12" data-name="Group 12" transform="translate(82.258 241.818)">
          <path id="Path_12" data-name="Path 12" d="M1188.658,851.607l-7.9,2.934-.225-.492-.352.253-3.647,5.034,5.034,3.648,7.988-5.727-.693-4.341Z" transform="translate(-1176.538 -851.607)" fill="#fff" stroke="#222221" stroke-miterlimit="10" stroke-width="1"/>
        </g>
        <g id="Group_13" data-name="Group 13" transform="translate(38.287 242.317)">
          <path id="Path_13" data-name="Path 13" d="M1063.092,852.945l-4.4,4.4,4.4,4.4,8.791-4.4v-4.4h-8.791Z" transform="translate(-1058.696 -852.945)" fill="#fff" stroke="#222221" stroke-miterlimit="10" stroke-width="1"/>
        </g>
        <g id="Group_14" data-name="Group 14">
          <path id="Path_14" data-name="Path 14" d="M1043.793,338.7a31.323,31.323,0,0,0,4.008,2.7,1.786,1.786,0,0,0,1.044.311c1.966-.253,2.127-7.151,2.015-12.27-.053-2.432-.168-4.463-.18-5.187-.109-6.524-.625-13.037-1.377-19.521-.674-5.81-1.54-11.6-2.475-17.377a156.838,156.838,0,0,0-3.687-15.83l15.912-26.13,4.562-41.861-1.854.3-5.162.822-2.122.338-8.383,29.309-10.285,14.766,4.013,8.057-2.626.757-2.657.767.2,7.932,1.18,46.818.452,17.914-15.14-2.163-12.05-1.721-2-.286,1.274-11.549,5.53-50.128-.989-.6-6.743,1.946L995.7,269.86l-.844-7.458-.473-4.175,4.17-2.1-3.338-3.941-12.813,2.675-3.865-28-2.715.67-4.784,1.181-.972.24,1.009,41.078,22.086,2.293c-.119.586-.24,1.172-.368,1.757a73.2,73.2,0,0,1-3.012,10.494,44.328,44.328,0,0,1-12.267,17.664,70.574,70.574,0,0,1-13.015,8.825c-2.075,1.125-6.68,2.351-8.036,4.182-1.791,2.418,3.219,5.09,5.036,5.994,5.66,2.818,11.819,4.59,17.851,6.6a77.224,77.224,0,0,0,10.057,2.932c.206.039.412.083.619.118,0,0,12.534-1.266,19.089-1.17h.124a105.667,105.667,0,0,1,11.744.886q3.106.4,6.179.963a30.368,30.368,0,0,1,16.625,7.138Z" transform="translate(-956.088 -203.541)" fill="#fff" stroke="#222221" stroke-miterlimit="10" stroke-width="1"/>
        </g>
      </g>
      <g id="Group_16" data-name="Group 16" transform="translate(63.737 46.66)">
        <path id="Path_15" data-name="Path 15" d="M1136.547,314.161c-.719-.2-1.5-.391-2.352-.582l-7.294-5.743,3.513-.479c-.024-.953-.086-1.905-.181-2.854l7.989-4.024,4.663,9.361-8.188-.31Z" transform="translate(-1126.902 -300.478)" fill="#fff" stroke="#222221" stroke-miterlimit="10" stroke-width="1"/>
      </g>
      <g id="Group_17" data-name="Group 17" transform="translate(62.455 50.684)">
        <path id="Path_16" data-name="Path 16" d="M1124.749,314.595l-1.282-1.009h0l4.613-2.324c.1.949.158,1.9.181,2.854Z" transform="translate(-1123.467 -311.262)" fill="#fff" stroke="#222221" stroke-miterlimit="10" stroke-width="1"/>
      </g>
      <g id="Group_18" data-name="Group 18" transform="translate(38.298 63.075)">
        <path id="Path_17" data-name="Path 17" d="M1059.268,350.673a.612.612,0,0,0-.068.07l-.472-4.175,4.17-2.1,1.764,1.069C1063.095,347.113,1061.374,348.864,1059.268,350.673Z" transform="translate(-1058.727 -344.468)" fill="#fff" stroke="#222221" stroke-miterlimit="10" stroke-width="1"/>
      </g>
      <g id="Group_19" data-name="Group 19" transform="translate(71.532 55.71)">
        <path id="Path_18" data-name="Path 18" d="M1157.368,333.857c-1.518-2.065-3.581-3.353-7.725-4.492l-1.85-4.633,8.188.31,4.013,8.057Z" transform="translate(-1147.793 -324.732)" fill="#fff" stroke="#222221" stroke-miterlimit="10" stroke-width="1"/>
      </g>
      <g id="Group_20" data-name="Group 20" transform="translate(50.162 69.046)">
        <path id="Path_19" data-name="Path 19" d="M1097.264,363.245l-6.743,1.946,2.165-4.718Z" transform="translate(-1090.521 -360.472)" fill="#fff" stroke="#222221" stroke-miterlimit="10" stroke-width="1"/>
      </g>
      <g id="Group_21" data-name="Group 21" transform="translate(71.031 59.76)">
        <path id="Path_20" data-name="Path 20" d="M1146.449,335.586c.852.192,1.633.385,2.352.582l.739,1.851Z" transform="translate(-1146.449 -335.586)" fill="#fff" stroke="#222221" stroke-miterlimit="10" stroke-width="1"/>
      </g>
      <g id="Group_22" data-name="Group 22" transform="translate(38.771 64.143)">
        <path id="Path_21" data-name="Path 21" d="M1059.993,352.538a.613.613,0,0,1,.068-.07c2.106-1.809,3.827-3.56,5.393-5.136l8.095,4.9-2.165,4.718L1060.837,360Z" transform="translate(-1059.993 -347.332)" fill="#fff" stroke="#222221" stroke-miterlimit="10" stroke-width="1"/>
      </g>
      <g id="Group_23" data-name="Group 23" transform="translate(73.382 60.343)">
        <path id="Path_22" data-name="Path 22" d="M1153.49,339l-.739-1.851c4.144,1.139,6.207,2.427,7.725,4.492l-2.657.767h0Z" transform="translate(-1152.751 -337.147)" fill="#fff" stroke="#222221" stroke-miterlimit="10" stroke-width="1"/>
      </g>
      <g id="Group_24" data-name="Group 24" transform="translate(38.298 49.647)">
        <path id="Path_23" data-name="Path 23" d="M1078.622,313.988l-19.064,3.98-.832-.982,13.925-8.5,6.578,2.161a18.868,18.868,0,0,0,.847,2.614Z" transform="translate(-1058.727 -308.481)" fill="#fff" stroke="#222221" stroke-miterlimit="10" stroke-width="1"/>
      </g>
      <g id="Group_25" data-name="Group 25" transform="translate(58.801 51.807)">
        <path id="Path_24" data-name="Path 24" d="M1114.521,316.886a18.915,18.915,0,0,1-.847-2.614l3.654,1.2Z" transform="translate(-1113.674 -314.272)" fill="#fff" stroke="#222221" stroke-miterlimit="10" stroke-width="1"/>
      </g>
      <g id="Group_26" data-name="Group 26" transform="translate(39.13 55.154)">
        <path id="Path_25" data-name="Path 25" d="M1074.341,326.1a12.523,12.523,0,0,0-3.267,1.646l-6.779,3.414h0l-3.338-3.941,19.063-3.98Z" transform="translate(-1060.956 -323.241)" fill="#fff" stroke="#222221" stroke-miterlimit="10" stroke-width="1"/>
      </g>
      <g id="Group_27" data-name="Group 27" transform="translate(52.364 66.37)">
        <path id="Path_26" data-name="Path 26" d="M1122.708,360.464l1.181,46.818-26.367-.2-.058,2.239-1.042.153,5.53-50.128-.989-.6,18.884-5.449Z" transform="translate(-1096.422 -353.299)" fill="#fff" stroke="#222221" stroke-miterlimit="10" stroke-width="1"/>
      </g>
      <g id="Group_28" data-name="Group 28" transform="translate(53.405 120.154)">
        <path id="Path_27" data-name="Path 27" d="M1099.213,499.679l.058-2.239,26.367.2.452,17.914-15.14-2.163,2.638-15.826Z" transform="translate(-1099.213 -497.441)" fill="#fff" stroke="#222221" stroke-miterlimit="10" stroke-width="1"/>
      </g>
      <g id="Group_29" data-name="Group 29" transform="translate(51.09 122.393)">
        <path id="Path_28" data-name="Path 28" d="M1095.01,515.428l-2-.286,1.274-11.549,1.041-.153Z" transform="translate(-1093.007 -503.44)" fill="#fff" stroke="#222221" stroke-miterlimit="10" stroke-width="1"/>
      </g>
      <g id="Group_30" data-name="Group 30" transform="translate(53.092 120.277)">
        <path id="Path_29" data-name="Path 29" d="M1113.062,497.768l-2.638,15.826-12.05-1.721.313-11.988Z" transform="translate(-1098.374 -497.768)" fill="#fff" stroke="#222221" stroke-miterlimit="10" stroke-width="1"/>
      </g>
      <g id="Group_31" data-name="Group 31" transform="translate(49.247 58.015)">
        <path id="Path_30" data-name="Path 30" d="M1091.337,330.907l-3.267,1.646A12.523,12.523,0,0,1,1091.337,330.907Z" transform="translate(-1088.07 -330.907)" fill="#fff" stroke="#222221" stroke-miterlimit="10" stroke-width="1"/>
      </g>
      <g id="Group_32" data-name="Group 32" transform="translate(75.789 65.602)">
        <path id="Path_31" data-name="Path 31" d="M1161.862,351.241l.2,7.932-2.861-7.164Z" transform="translate(-1159.201 -351.241)" fill="#fff" stroke="#222221" stroke-miterlimit="10" stroke-width="1"/>
      </g>
      <g id="Group_33" data-name="Group 33" transform="translate(57.634 54.017)">
        <path id="Path_32" data-name="Path 32" d="M1110.545,323.659l1.122-2.446-.562.117,1.454-.732c.024.048.045.1.07.144l4.019-.549,7.294,5.743c-2.959-.666-6.77-1.318-11.772-2.093C1111.6,323.757,1111.065,323.7,1110.545,323.659Z" transform="translate(-1110.545 -320.194)" fill="#fff" stroke="#222221" stroke-miterlimit="10" stroke-width="1"/>
      </g>
      <g id="Group_34" data-name="Group 34" transform="translate(59.648 53.008)">
        <path id="Path_33" data-name="Path 33" d="M1115.944,318.9l2.807-1.414h0l1.282,1.009-4.019.549C1115.989,319,1115.968,318.951,1115.944,318.9Z" transform="translate(-1115.944 -317.489)" fill="#fff" stroke="#222221" stroke-miterlimit="10" stroke-width="1"/>
      </g>
      <g id="Group_35" data-name="Group 35" transform="translate(42.468 59.66)">
        <path id="Path_34" data-name="Path 34" d="M1071.666,339.8l-1.764-1.069,6.779-3.414A37,37,0,0,0,1071.666,339.8Z" transform="translate(-1069.902 -335.318)" fill="#fff" stroke="#222221" stroke-miterlimit="10" stroke-width="1"/>
      </g>
      <g id="Group_36" data-name="Group 36" transform="translate(52.515 55.037)">
        <path id="Path_35" data-name="Path 35" d="M1101.945,325.373a13.172,13.172,0,0,0-5.119.532l5.679-2.86.562-.117Z" transform="translate(-1096.826 -322.927)" fill="#fff" stroke="#222221" stroke-miterlimit="10" stroke-width="1"/>
      </g>
      <g id="Group_37" data-name="Group 37" transform="translate(52.327 57.482)">
        <path id="Path_36" data-name="Path 36" d="M1101.63,329.481c.52.038,1.059.1,1.625.185,5,.775,8.813,1.426,11.772,2.093l3.091,2.433,1.667,4.176-18.884,5.449-4.577-2.773Z" transform="translate(-1096.324 -329.481)" fill="#fff" stroke="#222221" stroke-miterlimit="10" stroke-width="1"/>
      </g>
      <g id="Group_38" data-name="Group 38" transform="translate(44.232 57.435)">
        <path id="Path_37" data-name="Path 37" d="M1088.031,329.4l-5.306,11.564-8.095-4.9a36.994,36.994,0,0,1,5.015-4.483l3.267-1.646A13.173,13.173,0,0,1,1088.031,329.4Z" transform="translate(-1074.63 -329.354)" fill="#fff" stroke="#222221" stroke-miterlimit="10" stroke-width="1"/>
      </g>
      <g id="Group_39" data-name="Group 39" transform="translate(74.121 62.194)">
        <path id="Path_38" data-name="Path 38" d="M1154.732,342.107l4.328,3.408h0l-2.661.768Z" transform="translate(-1154.732 -342.107)" fill="#fff" stroke="#222221" stroke-miterlimit="10" stroke-width="1"/>
      </g>
    </g>
    <g id="Group_49" data-name="Group 49" transform="translate(218.183 108.519)">
      <g id="Group_41" data-name="Group 41" transform="translate(33.871 39.176)">
        <path id="Path_39" data-name="Path 39" d="M461.961,213.51s-6.559,10.618-5.685,36.844h6.9s-2.239-22.91,2.424-35.876Z" transform="translate(-456.196 -213.51)" fill="#fff" stroke="#222221" stroke-miterlimit="10" stroke-width="1"/>
      </g>
      <g id="Group_44" data-name="Group 44" transform="translate(37.511)">
        <g id="Group_42" data-name="Group 42">
          <path id="Path_40" data-name="Path 40" d="M502.352,108.519s-23.32,4.3-32.084,15.088-1.474,26.207-1.474,26.207,16.588,3.981,25.352-6.8S502.352,108.519,502.352,108.519Z" transform="translate(-465.951 -108.519)" fill="#fff" stroke="#222221" stroke-miterlimit="10" stroke-width="1"/>
        </g>
        <g id="Group_43" data-name="Group 43" transform="translate(1.91 15.334)">
          <path id="Path_41" data-name="Path 41" d="M472,175.575s.957.228,2.522.426L493.1,149.614l-22.03,23.58C471.586,174.685,472,175.575,472,175.575Z" transform="translate(-471.071 -149.614)" fill="#fff" stroke="#222221" stroke-miterlimit="10" stroke-width="1"/>
        </g>
      </g>
      <g id="Group_47" data-name="Group 47" transform="translate(0 21.936)">
        <g id="Group_45" data-name="Group 45">
          <path id="Path_42" data-name="Path 42" d="M365.423,167.316s3.92,20.8,13.574,28.582,23.393,1.226,23.393,1.226,3.5-14.817-6.158-22.6S365.423,167.316,365.423,167.316Z" transform="translate(-365.423 -167.306)" fill="#fff" stroke="#222221" stroke-miterlimit="10" stroke-width="1"/>
        </g>
        <g id="Group_46" data-name="Group 46" transform="translate(13.727 11.078)">
          <path id="Path_43" data-name="Path 43" d="M425.451,215.735s.2-.854.372-2.252L402.211,197l21.118,19.58C424.658,216.111,425.451,215.735,425.451,215.735Z" transform="translate(-402.211 -196.996)" fill="#fff" stroke="#222221" stroke-miterlimit="10" stroke-width="1"/>
        </g>
      </g>
      <g id="Group_48" data-name="Group 48" transform="translate(40.355 16.553)">
        <path id="Path_44" data-name="Path 44" d="M473.573,177.622s25.3-4.553,32.232-24.742C505.8,152.88,503.528,184.456,473.573,177.622Z" transform="translate(-473.573 -152.88)" fill="#fff" stroke="#222221" stroke-miterlimit="10" stroke-width="1"/>
      </g>
    </g>
    <g id="Group_58" data-name="Group 58" transform="translate(175 126.042)">
      <g id="Group_50" data-name="Group 50" transform="translate(47.226 31.985)">
        <path id="Path_45" data-name="Path 45" d="M617.954,474.592h-241.7V307.345L497.106,241.2l120.848,66.147Z" transform="translate(-376.259 -241.198)" fill="#fff" stroke="#222221" stroke-miterlimit="10" stroke-width="1"/>
      </g>
      <g id="Group_51" data-name="Group 51">
        <path id="Path_46" data-name="Path 46" d="M585.21,245.876l-54.008-29.5L443.866,168.67c-7.034-3.843-13.993-7.89-21.132-11.543a13.656,13.656,0,0,0-13.457.254c-2.781,1.541-5.516,3.172-8.272,4.757l-79.784,45.88c-21.576,12.408-43.389,24.49-64.758,37.24-.354.211-.716.411-1.073.617a11.51,11.51,0,0,0-4.165,15.631,11.88,11.88,0,0,0,15.884,4.1l52.5-30.192L402.9,187.52l13.464-7.743,48.96,26.743,88.02,48.079,20.149,11.006a11.94,11.94,0,0,0,15.884-4.1A11.462,11.462,0,0,0,585.21,245.876Z" transform="translate(-249.695 -155.479)" fill="#fff" stroke="#222221" stroke-miterlimit="10" stroke-width="1"/>
      </g>
      <g id="Group_52" data-name="Group 52" transform="translate(81.644 148.682)">
        <rect id="Rectangle_1" data-name="Rectangle 1" width="58.933" height="116.697" fill="#fff" stroke="#222221" stroke-miterlimit="10" stroke-width="1"/>
      </g>
      <g id="Group_57" data-name="Group 57" transform="translate(180.364 148.682)">
        <g id="Group_53" data-name="Group 53">
          <rect id="Rectangle_2" data-name="Rectangle 2" width="32.056" height="26.902" fill="#fff" stroke="#222221" stroke-miterlimit="10" stroke-width="1"/>
        </g>
        <g id="Group_54" data-name="Group 54" transform="translate(41.962)">
          <rect id="Rectangle_3" data-name="Rectangle 3" width="32.056" height="26.902" fill="#fff" stroke="#222221" stroke-miterlimit="10" stroke-width="1"/>
        </g>
        <g id="Group_55" data-name="Group 55" transform="translate(0 36.814)">
          <rect id="Rectangle_4" data-name="Rectangle 4" width="32.056" height="26.902" fill="#fff" stroke="#222221" stroke-miterlimit="10" stroke-width="1"/>
        </g>
        <g id="Group_56" data-name="Group 56" transform="translate(41.962 36.814)">
          <rect id="Rectangle_5" data-name="Rectangle 5" width="32.056" height="26.902" fill="#fff" stroke="#222221" stroke-miterlimit="10" stroke-width="1"/>
        </g>
      </g>
    </g>
    <g id="Group_77" data-name="Group 77" transform="translate(130.538 240.204)">
      <g id="Group_59" data-name="Group 59" transform="translate(25.235 50.864)">
        <path id="Path_47" data-name="Path 47" d="M198.168,598.2l7.846,11.09,3.689-.3,6.148-11.247Z" transform="translate(-198.168 -597.746)" fill="#fff" stroke="#222221" stroke-miterlimit="10" stroke-width="1"/>
      </g>
      <g id="Group_76" data-name="Group 76">
        <g id="Group_60" data-name="Group 60" transform="translate(32.325 47.505)">
          <path id="Path_48" data-name="Path 48" d="M217.168,589.2l7.846,11.09,3.689-.3,6.148-11.247Z" transform="translate(-217.168 -588.746)" fill="#fff" stroke="#222221" stroke-miterlimit="10" stroke-width="1"/>
        </g>
        <g id="Group_75" data-name="Group 75">
          <g id="Group_71" data-name="Group 71">
            <g id="Group_61" data-name="Group 61" transform="translate(13.248 122.446)">
              <path id="Path_49" data-name="Path 49" d="M166.043,818.319l9.173,40.748,8.433,48.483h8.528l3.487-117.965-28.2.512Z" transform="translate(-166.043 -789.585)" fill="#fff" stroke="#222221" stroke-miterlimit="10" stroke-width="1"/>
            </g>
            <g id="Group_63" data-name="Group 63" transform="translate(37.613 123.228)">
              <g id="Group_62" data-name="Group 62">
                <path id="Path_50" data-name="Path 50" d="M260.965,817.141l1.184,39.555-11.911,52.168h-7.656l-.782-55.015-8.375-45.025-2.083-14.373,23.477-2.769Z" transform="translate(-231.341 -791.681)" fill="#fff" stroke="#222221" stroke-miterlimit="10" stroke-width="1"/>
              </g>
            </g>
            <g id="Group_64" data-name="Group 64" transform="translate(5.151 42.277)">
              <path id="Path_51" data-name="Path 51" d="M187.857,574.735,161.242,576.7l-12.424,20.1c5.968,23.521,5.8,18.233,3.135,28.105l-7.609,37.5,9.93,2.893,36.084.642,17.256-3.02-8.635-34.836,1.683-47.778Z" transform="translate(-144.344 -574.735)" fill="#fff" stroke="#222221" stroke-miterlimit="10" stroke-width="1"/>
            </g>
            <g id="Group_65" data-name="Group 65" transform="translate(53.912 47.848)">
              <path id="Path_52" data-name="Path 52" d="M275.022,603.586l13.384,20.665,12.886,1.877,29.381,1.228-2.684-8.706-31.054-7.958-14.356-21.028Z" transform="translate(-275.022 -589.663)" fill="#fff" stroke="#222221" stroke-miterlimit="10" stroke-width="1"/>
            </g>
            <g id="Group_70" data-name="Group 70">
              <g id="Group_66" data-name="Group 66" transform="translate(24.07 12.328)">
                <path id="Path_53" data-name="Path 53" d="M218.23,501.467c-4.037-11.736-19.531-7.338-22.725,3.112-2.084,6.817,3.181,15.663,10.244,17.621a7,7,0,0,1,.056.731,22.89,22.89,0,0,0,.3,3.266c.06.407,6.242-.78,6.931-.916a.938.938,0,0,0,.64-.315c.249-.388-.156-1.531-.2-1.963q-.081-.763-.16-1.527a12.192,12.192,0,0,0,6.3-9.01A22.637,22.637,0,0,0,218.23,501.467Z" transform="translate(-195.045 -494.471)" fill="#fff" stroke="#222221" stroke-miterlimit="10" stroke-width="1"/>
              </g>
              <g id="Group_69" data-name="Group 69">
                <g id="Group_67" data-name="Group 67" transform="translate(34.889 6.402)">
                  <path id="Path_54" data-name="Path 54" d="M225.284,480.573a6.151,6.151,0,0,0-1.154,3.247,4.908,4.908,0,0,0,.033,2.044c.776,2.613,3.4,2.274,5.5,2.975a13.631,13.631,0,0,1,6.486,4.776c2.47,3.339,1.822,7.925,1.223,11.861-.211,1.387-.691,3.461.459,4.6,1.168,1.153,3.636.774,4.874.04,1.131-.67,2.015-1.818,3.289-2.132,1.348-.332,3.24.128,3.781-1.174a8.548,8.548,0,0,1,.333-1.126c.673-1.137,2.646-.016,3.652-.857a2.082,2.082,0,0,0,.257-2.287,5.389,5.389,0,0,1-.622-2.358,7.922,7.922,0,0,1,.8-1.934,3.681,3.681,0,0,0-.8-3.863c-1.83-1.819-5.057-1.2-7-2.9a7.953,7.953,0,0,1-1.929-3.506,6.982,6.982,0,0,0-2.044-3.422c-1.323-1-3.1-.674-4.421-1.874a25.191,25.191,0,0,0-2.188-2.257,16.2,16.2,0,0,0-4.615-1.646A5.821,5.821,0,0,0,225.284,480.573Z" transform="translate(-224.039 -478.588)" fill="#fff" stroke="#222221" stroke-miterlimit="10" stroke-width="1"/>
                </g>
                <g id="Group_68" data-name="Group 68">
                  <path id="Path_55" data-name="Path 55" d="M158.321,489.237c.221,3.857,2.452,7.875.935,11.4-1.53,3.558-5.947,4.514-9.737,4.983-.624.077-8.6,1.381-8.646,1.232a26.214,26.214,0,0,0-3.217-7.575c-1.581-2.249-4.074-4.023-6.772-3.986a1.654,1.654,0,0,0,.932-1.964,12.747,12.747,0,0,0-.917-2.232,5.408,5.408,0,0,1,1-5.524c2.639-2.863,7.872-2.156,10.075-5.381,1.366-2,.978-4.721,1.594-7.083,1.191-4.567,5.993-5.869,9.482-8.156,3.683-2.414,7.215-3.852,11.708-3.45,5.571.5,10.085,5.787,8.365,11.218-2.207,6.967-13.129,7.211-14.644,14.229A8.523,8.523,0,0,0,158.321,489.237Z" transform="translate(-130.538 -461.432)" fill="#fff" stroke="#222221" stroke-miterlimit="10" stroke-width="1"/>
                </g>
              </g>
            </g>
          </g>
          <g id="Group_72" data-name="Group 72" transform="translate(30.855 42.366)">
            <path id="Path_56" data-name="Path 56" d="M213.228,576.223l7.846,11.09,3.689-.3,5.007-12.038Z" transform="translate(-213.228 -574.973)" fill="#fff" stroke="#222221" stroke-miterlimit="10" stroke-width="1"/>
          </g>
          <g id="Group_73" data-name="Group 73" transform="translate(30.855 240.411)">
            <path id="Path_57" data-name="Path 57" d="M221.756,1105.728l4.544,5.846-4.231,4.627-5.935-5.236-2.906-5.236Z" transform="translate(-213.228 -1105.728)" fill="#fff" stroke="#222221" stroke-miterlimit="10" stroke-width="1"/>
          </g>
          <g id="Group_74" data-name="Group 74" transform="translate(48.58 240.411)">
            <path id="Path_58" data-name="Path 58" d="M269.259,1105.728l4.544,5.846-4.231,4.627-5.935-5.236-2.906-5.236Z" transform="translate(-260.731 -1105.728)" fill="#fff" stroke="#222221" stroke-miterlimit="10" stroke-width="1"/>
          </g>
        </g>
      </g>
    </g>
    <g id="Group_91" data-name="Group 91" transform="translate(574.275 231.768)">
      <g id="Group_80" data-name="Group 80" transform="translate(0 46.397)">
        <g id="Group_78" data-name="Group 78" transform="translate(0 6.607)">
          <path id="Path_59" data-name="Path 59" d="M1334.795,592.331l-4.139-2.192-4.057,1.094-.681-.677.872-.816c-2.83.264-6.19-1.241-6.93-4.206-.292-1.171-.091-3.763,1.136-4.457,1.357-.769,5.15.86,6.76,1.12l3.562,2.774,5.808,2.772Z" transform="translate(-1319.741 -580.872)" fill="#fff" stroke="#222221" stroke-miterlimit="10" stroke-width="1"/>
        </g>
        <g id="Group_79" data-name="Group 79" transform="translate(7.517)">
          <path id="Path_60" data-name="Path 60" d="M1344.5,573.866l36.489,6.22,15.151-16.921,15.606,4.927-17.128,29.739-54.73-16.591Z" transform="translate(-1339.887 -563.166)" fill="#fff" stroke="#222221" stroke-miterlimit="10" stroke-width="1"/>
        </g>
      </g>
      <g id="Group_83" data-name="Group 83" transform="translate(46.671 0)">
        <g id="Group_81" data-name="Group 81" transform="translate(11.351 15.922)">
          <path id="Path_61" data-name="Path 61" d="M1490.683,508.177c2.191-.138,7.375-1.341,7.38-1.137a37.2,37.2,0,0,0-.62-5.908c2.033-.8,4.374-1.974,4.654-4.141a6.152,6.152,0,0,0-.2-2.045l-1.762-8.352a7.525,7.525,0,0,0-.976-2.765c-.978-1.423-2.8-1.994-4.508-2.227-6.346-.863-12.131,3.584-17.682,5.98a3.292,3.292,0,0,0-1.267.8,3.181,3.181,0,0,0-.387,2.514c.623,4.491,1.869,11.056,7.09,12.3,1.14.272,2.336.25,3.473.543,2.739.706,1.924,3.332,3.922,4.379A2.089,2.089,0,0,0,1490.683,508.177Z" transform="translate(-1475.239 -481.493)" fill="#fff" stroke="#222221" stroke-miterlimit="10" stroke-width="1"/>
        </g>
        <g id="Group_82" data-name="Group 82">
          <path id="Path_62" data-name="Path 62" d="M1445.563,454.272a17.013,17.013,0,0,1-.673-6.282c.484-4.194,3.348-11.434,8.793-8.475,2.995,1.627,5.264,3.261,8.929,2.644,4.181-.7,6.468-1.69,10.765-.333,3.757,1.187,8.747,1.315,12.172,3.06a9.915,9.915,0,0,1,3.516,3.221,14.933,14.933,0,0,1,.622,15.778,21.34,21.34,0,0,1-2.214,3.012c-1.68,1.962-3.686,4.383-6.067,5.174-.137-2.151,1.574-9.012-.144-10.716-2.727-2.7-8.624-1.508-11.854-.7-3.523.883-6.6,3.514-10.1,4.181-2.519.48-5.8-.643-8-1.873C1448.6,461.447,1446.582,457.88,1445.563,454.272Z" transform="translate(-1444.819 -438.823)" fill="#fff" stroke="#222221" stroke-miterlimit="10" stroke-width="1"/>
        </g>
      </g>
      <g id="Group_86" data-name="Group 86" transform="translate(60.824 109.676)">
        <g id="Group_84" data-name="Group 84" transform="translate(28.119 129.316)">
          <path id="Path_63" data-name="Path 63" d="M1571.541,1083.638l.563,4.322-8.768,5.365-5.228-3.8,4.1-4.843,8.768-5.365Z" transform="translate(-1558.108 -1079.316)" fill="#fff" stroke="#222221" stroke-miterlimit="10" stroke-width="1"/>
        </g>
        <g id="Group_85" data-name="Group 85">
          <path id="Path_64" data-name="Path 64" d="M1521.967,734.285l1.709,13.126L1512.193,806.4l12.415,58.54-9.031,2.749-30.785-69.324-2.044-21.321,3.082-44.295Z" transform="translate(-1482.749 -732.752)" fill="#fff" stroke="#222221" stroke-miterlimit="10" stroke-width="1"/>
        </g>
      </g>
      <g id="Group_89" data-name="Group 89" transform="translate(41.58 111.259)">
        <g id="Group_87" data-name="Group 87">
          <path id="Path_65" data-name="Path 65" d="M1431.924,742l-.749,55.566,12.2,71.644h9.381l5.925-66.107,12.837-66.107Z" transform="translate(-1431.175 -736.994)" fill="#fff" stroke="#222221" stroke-miterlimit="10" stroke-width="1"/>
        </g>
        <g id="Group_88" data-name="Group 88" transform="translate(6.31 131.255)">
          <path id="Path_66" data-name="Path 66" d="M1463.3,1093.108l-10.144,4.353-5.072-4.353,5.072-4.353H1463.3Z" transform="translate(-1448.087 -1088.755)" fill="#fff" stroke="#222221" stroke-miterlimit="10" stroke-width="1"/>
        </g>
      </g>
      <g id="Group_90" data-name="Group 90" transform="translate(32.041 40.987)">
        <path id="Path_67" data-name="Path 67" d="M1484.243,631.943c.405,16.887-12.315,12.949-24.581,7.446-2.4-1.077-4.611-2.569-7.074-3.5a28.654,28.654,0,0,0-10.49-1.369c-5.581.071-32.924,8.366-35.948,4.16-2.313-3.217,3.516-17.023,4.411-20.3,4.354-15.943,7.842-34.036,15.466-48.82,2.139-4.147,4.02-9.9,7.365-13.064,3.283-3.108,9.993-7.491,14.551-7.806,4.437-.306,11.542,2.476,15.54,4.439,5.619,2.759,7.181,7.2,9.725,12.3,2.331,4.67,5.491,17.208,6.383,22.228,1.08,6.08,2.079,12.172,2.856,18.287a190.615,190.615,0,0,1,1.589,20.544C1484.049,627.247,1484.181,629.383,1484.243,631.943Z" transform="translate(-1405.61 -548.668)" fill="#fff" stroke="#222221" stroke-miterlimit="10" stroke-width="1"/>
      </g>
    </g>
    <g id="Group_99" data-name="Group 99" transform="translate(208.548 268.645)">
      <g id="Group_92" data-name="Group 92" transform="translate(109.355 80.847)">
        <path id="Path_68" data-name="Path 68" d="M635.78,758.977a4.843,4.843,0,0,0-.672-1.3c-.31-.438-1.226-1.7-2.436-3.358Z" transform="translate(-632.672 -754.322)" fill="#fff" stroke="#222221" stroke-miterlimit="10" stroke-width="1"/>
      </g>
      <g id="Group_93" data-name="Group 93" transform="translate(52.565)">
        <path id="Path_69" data-name="Path 69" d="M496.909,579.81l9.727,1.558,12.57,2.016,9.727,1.559a5.934,5.934,0,0,0,6.909-5.328l.972-9.8c.341-3.484.9-9.183,1.246-12.669l.972-9.8c.349-3.483-1.977-4.327-5.159-1.877l-5.456,4.206c-2.617-3.41-5.232-6.8-6.232-8.034-2.276-2.8-6.211-4.676-13.365-3.741l-28.344,3.7,14.44,19.324a3.955,3.955,0,0,1,.863.952c.707,1.072,3.345,4.737,5.968,8.356l-5.338,4.114C493.226,576.795,493.453,579.254,496.909,579.81Z" transform="translate(-480.476 -537.654)" fill="#fff" stroke="#222221" stroke-miterlimit="10" stroke-width="1"/>
      </g>
      <g id="Group_94" data-name="Group 94" transform="translate(22.896 3.945)">
        <path id="Path_70" data-name="Path 70" d="M410.154,557.82c-2.466,5-8.644,18.26-8.644,18.26a5.775,5.775,0,0,0,2.962,7.766l20.3,8.741a6.094,6.094,0,0,0,7.92-3.082l9.266-20.614c.8-1.813,2-2.217,3.112-1.341l-14.44-19.324-6.827.892C418.883,549.762,413.359,551.32,410.154,557.82Z" transform="translate(-400.963 -548.226)" fill="#fff" stroke="#222221" stroke-miterlimit="10" stroke-width="1"/>
      </g>
      <g id="Group_95" data-name="Group 95" transform="translate(0 45.901)">
        <path id="Path_71" data-name="Path 71" d="M347.935,710.218c2.647,3.869,9.874,13.777,15.171,21.039l10.67-23.594c1.243-2.894,3.548-8.26,5.475-12.708l7.339,2.957c3.725,1.5,5.733.062,4.463-3.2l-3.585-9.177c-1.271-3.26-3.352-8.6-4.626-11.858l-3.578-9.178a5.936,5.936,0,0,0-8.094-3.263l-8.943,4.129c-3.18,1.468-8.378,3.868-11.558,5.335l-8.943,4.127c-3.18,1.467-2.733,3.9.992,5.4l5.411,2.182c-1.961,5.322-4.267,11.6-4.823,13.393C342.3,699.032,343.814,704.2,347.935,710.218Z" transform="translate(-339.603 -660.667)" fill="#fff" stroke="#222221" stroke-miterlimit="10" stroke-width="1"/>
      </g>
      <g id="Group_96" data-name="Group 96" transform="translate(23.502 92.896)">
        <path id="Path_72" data-name="Path 72" d="M413.259,786.613l-10.67,23.594c2.951,4.041,5.3,7.267,5.934,8.166,1.75,2.513,4.435,7.526,17.219,5.857l18.586-2.428a5.98,5.98,0,0,0,5.139-6.685l-2.864-21.94a5.982,5.982,0,0,0-6.689-5.142s-21.757,2.843-25.386,3.315c-2.291.3-2.773-1.183-2.144-2.7C412.471,788.448,412.794,787.7,413.259,786.613Z" transform="translate(-402.589 -786.613)" fill="#fff" stroke="#222221" stroke-miterlimit="10" stroke-width="1"/>
      </g>
      <g id="Group_97" data-name="Group 97" transform="translate(97.288 42.247)">
        <path id="Path_73" data-name="Path 73" d="M615.508,694.13l13.846,20.754c2.987-7.631,8.022-20.866,10.044-26.567,2.7-7.629,2.946-13.979.879-17.043s-12.263-17.958-12.263-17.958a5.46,5.46,0,0,0-8.024-1.192L602.64,666.03a6.3,6.3,0,0,0-1.129,8.54s6.992,9.555,10.889,14.905c1.21,1.66,2.126,2.919,2.436,3.357A4.847,4.847,0,0,1,615.508,694.13Z" transform="translate(-600.332 -650.875)" fill="#fff" stroke="#222221" stroke-miterlimit="10" stroke-width="1"/>
      </g>
      <g id="Group_98" data-name="Group 98" transform="translate(71.546 78.749)">
        <path id="Path_74" data-name="Path 74" d="M583.985,781.511c.344-.8,1.119-2.735,2.124-5.306l-13.846-20.754c.394,1.256-.147,2.213-1.739,2.42l-11.453,1.5-.919-6.855c-.536-3.982-2.776-5.017-4.985-2.3l-6.211,7.644c-2.209,2.715-5.825,7.161-8.03,9.877l-6.212,7.644a5.939,5.939,0,0,0,1.153,8.649l8.008,5.742c2.844,2.039,7.5,5.375,10.346,7.416l8,5.742c2.845,2.039,4.74.452,4.2-3.531l-.876-6.516,8.77-1.147C580.3,790.694,582.607,784.67,583.985,781.511Z" transform="translate(-531.346 -748.698)" fill="#fff" stroke="#222221" stroke-miterlimit="10" stroke-width="1"/>
      </g>
    </g>
    <g id="Group_119" data-name="Group 119" transform="translate(397.186 254.583)">
      <g id="Group_101" data-name="Group 101" transform="translate(0)">
        <g id="Group_100" data-name="Group 100">
          <circle id="Ellipse_1" data-name="Ellipse 1" cx="104.565" cy="104.565" r="104.565" fill="#fff" stroke="#222221" stroke-miterlimit="10" stroke-width="1"/>
        </g>
      </g>
      <g id="Group_103" data-name="Group 103" transform="translate(16.451 15.318)">
        <g id="Group_102" data-name="Group 102">
          <path id="Path_75" data-name="Path 75" d="M1032.057,541.019A104.58,104.58,0,0,1,889.236,686.465a104.573,104.573,0,1,0,142.821-145.446Z" transform="translate(-889.236 -541.019)" fill="#fff" stroke="#222221" stroke-miterlimit="10" stroke-width="1"/>
        </g>
      </g>
      <g id="Group_109" data-name="Group 109" transform="translate(37.113 3)">
        <g id="Group_104" data-name="Group 104" transform="translate(92.389)">
          <path id="Path_76" data-name="Path 76" d="M1192.209,508.006q2.8.684,5.534,1.515Z" transform="translate(-1192.209 -508.006)" fill="#fff" stroke="#222221" stroke-miterlimit="10" stroke-width="1"/>
        </g>
        <g id="Group_105" data-name="Group 105">
          <path id="Path_77" data-name="Path 77" d="M1048.807,511.652a30.416,30.416,0,0,0-8.88.13,12.48,12.48,0,0,0,2.6-2.261q-2.736-.832-5.534-1.515c-.135.043-.269.086-.4.132-2.527.885-2.9.977-2.483,2.574a18.579,18.579,0,0,1-2.786-1.383h-12.106c7.668,8.481-7.2,7.922-12.626,7.938-.993,0-1.224-1.986-.659-2.508a31.582,31.582,0,0,1,5.088,0c5.106,0,4.465-.347,4.465-5.43-4.913,3.622-4.742,0-10.315,0-5.227,0-7.79.288-12.374,2.348l4.478,3.816c-1.88-.426-8.01-2.831-9.686-2.118-.78.332-.981,2.411-1.945,2.411-3.894,0-14.49,2.13-14.491-2.335,0-.02-.07-.039-.192-.055a104.558,104.558,0,0,0-26.358,16.283,62.829,62.829,0,0,1,11.374-.537c.465,0,3.666,8.264,3.7,8.9.174,3.606-2.286,5.031-4.109,8.459a43.019,43.019,0,0,0-4.414,21.424c.013.253,4.18,4,4.18,5.489,0,6.222.652,6.322,4.926,10.906v-7.631c2.548,6.681,5.629,9.253,7.931,15.789,2.612,7.418,12.933,1.721,16.44,6.606,1.544,2.152,4.426,1.165,5.8,3.266l3.734,5.7c2.25,3.435,5,2.245,9.018,2.245,3.863,0-3.517,13.348-3.517,14.472,0,4.628,6.318,15.164,6.278,17.017-.117,5.495,6.744,6.265,10.47,9.649,2.983,2.729.856,10.46.763,13.889-.216,7.989,4.889,13.729,6.2,21.273.489,2.813-.592,5.846.034,8.542.643,2.769,3.019,4.492,2.984,7.553-.054,4.727,13.238,5.615,15.812,5.615-.012-.007-9.7-5.032-9.7-4.429,0-4.486,2.308-4.174,2.309-6.91,0-3.25-2.95-5.927-1.107-10.526,1.993-4.973,1.767-4.822,7.156-4.822a32.185,32.185,0,0,0-1.045-6.751c4.816-7.5,16.018-14.727,18.984-16.752,4.028-2.753,1.772-10.182,3.515-14.141,1.531-3.479,6.174-6.693,6.4-10.973.171-3.266-2.715-4.063-5.1-3.983s-2.616-3.9-4.416-3.9c-5,0-10.2-.852-14.531-4.062-.718-.532-1.522-6.917-2.748-8.5-1.757-2.267-7.372,1.714-9.555-1.369-.825-1.166-2.775-5.735-4.107-5.735-1.814,0-11.8-1.943-13.9-.043.323-.292-3.409-1.425-3.94-1.425.228,0-12.839,6.768-12.839,3.254,0-4.556,2.222-10.445-3.182-10.445-8.687,0-1.3-2.259-1.3-6.238,0-5.1-8.412,1.4-12.844,1.406.117,0-4.99-8.375-2.542-8.375,1.758,0,2.032-3.581,3.336-5.106,3.431-4.011,9.29-4.431,13.414-3.677,1.67.306,7.724,7.328,7.741,8.776,0-.345,2.468-1.925,2.8-2.437,1.193-1.831.519-2.62.817-4.453,1-6.151,1.255-7.368,6.162-11.107,3.606-2.747,8.645-5.9,11.474-9.456a19,19,0,0,1,7.316-5.664c-.321.157,2.98,2.011,3.672,2.011,2.837,0,3.522-2.4,5.075-4.549H1034.6c5.561-4.252-4.5-6.457,6.643-6.457,5.475,0,5.981.075,9.329-3.816-5.325,0-4.03-.035-4.03-5.458,0-.9-1.505-4.215-2.942-2.8-3.928,3.862-3.787-.707-5.506-3.275-2.224-3.321-4.623.1-5.551,2.11-1.151,2.5-10.6,6.4-10.58,9.661.012,1.909-3.109,1.833-3.051-.3.086-3.2-10.959-6.25-11.142-7.5-.241-1.647,5.467-6.088,10.431-6.088,2.28,0,1.164-2.641,1.867-2.641,4.729,0,10.3-1.47,12.891-5.283-.646,0-6.717.044-6.717-.031,0-2.168-.926-3.491,1.559-3.491,5.833,0,7.562,4.549,13.966,4.549l-6.866,4.99c3.214,0,8.028,5.338,10.5,3.682,4.562-3.058,1.487-5.853,5.28-6.484a4.508,4.508,0,0,0,1.861,1.158c1.186.419,5.456,1.182,6.181,2.266.874,1.306,3.1,9.039,1.464,9.712-2.65,1.091-10.412,9.5-4.474,11.6,4.588,1.622,5.766-.424,9.848-2.978,3.8-2.375,4.829-1.5,9.1.009.038.013,4.438-.146,6.086.436,3.6,1.275,3.342-1,3.72-.868,1.5.531,4.4.914,6.289.089A104.748,104.748,0,0,0,1048.807,511.652Z" transform="translate(-944.61 -508.006)" fill="#fff" stroke="#222221" stroke-miterlimit="10" stroke-width="1"/>
        </g>
        <g id="Group_106" data-name="Group 106" transform="translate(58.68 76.167)">
          <path id="Path_78" data-name="Path 78" d="M1103.989,712.408l-2.119,2.124c6.588,0,10.6,2.125,16.441,2.125C1114.39,710.513,1111.315,712.408,1103.989,712.408Z" transform="translate(-1101.87 -712.133)" fill="#fff" stroke="#222221" stroke-miterlimit="10" stroke-width="1"/>
        </g>
        <g id="Group_107" data-name="Group 107" transform="translate(73.765 81.745)">
          <path id="Path_79" data-name="Path 79" d="M1151.07,727.1c-5.287-.16-5.533.643-8.772,4.261q4.18,0,8.359.011C1153.074,731.374,1152.738,727.15,1151.07,727.1Z" transform="translate(-1142.298 -727.08)" fill="#fff" stroke="#222221" stroke-miterlimit="10" stroke-width="1"/>
        </g>
        <g id="Group_108" data-name="Group 108" transform="translate(86.686 83.98)">
          <path id="Path_80" data-name="Path 80" d="M1180.277,736.365c0-7.413-7.54,0,0,0Z" transform="translate(-1176.926 -733.07)" fill="#fff" stroke="#222221" stroke-miterlimit="10" stroke-width="1"/>
        </g>
      </g>
      <g id="Group_111" data-name="Group 111" transform="translate(6.986 7.721)">
        <g id="Group_110" data-name="Group 110">
          <path id="Path_81" data-name="Path 81" d="M871.1,628.533a97.08,97.08,0,0,1,174.038-59.18A97.089,97.089,0,1,0,884,676.92,96.635,96.635,0,0,1,871.1,628.533Z" transform="translate(-863.87 -520.658)" fill="#fff" stroke="#222221" stroke-miterlimit="10" stroke-width="1"/>
        </g>
      </g>
      <g id="Group_117" data-name="Group 117" transform="translate(47.729 7.721)">
        <g id="Group_112" data-name="Group 112" transform="translate(84.799 4.247)">
          <path id="Path_82" data-name="Path 82" d="M1200.32,532.041q.673.206,1.34.422l.4-.29A12.051,12.051,0,0,1,1200.32,532.041Z" transform="translate(-1200.32 -532.041)" fill="#fff" stroke="#222221" stroke-miterlimit="10" stroke-width="1"/>
        </g>
        <g id="Group_113" data-name="Group 113" transform="translate(79.672 4.67)">
          <path id="Path_83" data-name="Path 83" d="M1186.581,537.872c3.214,0,8.028,5.338,10.5,3.682,3.4-2.279,2.561-4.411,3.481-5.61q-3.682-1.535-7.513-2.771Z" transform="translate(-1186.581 -533.173)" fill="#fff" stroke="#222221" stroke-miterlimit="10" stroke-width="1"/>
        </g>
        <g id="Group_114" data-name="Group 114" transform="translate(81.73 3.363)">
          <path id="Path_84" data-name="Path 84" d="M1195.165,530.555q-1.524-.467-3.069-.885A11.553,11.553,0,0,0,1195.165,530.555Z" transform="translate(-1192.096 -529.67)" fill="#fff" stroke="#222221" stroke-miterlimit="10" stroke-width="1"/>
        </g>
        <g id="Group_115" data-name="Group 115" transform="translate(104.592 12.837)">
          <path id="Path_85" data-name="Path 85" d="M1274,570.909a97.46,97.46,0,0,0-20.639-15.849c.811,2.74,1.468,6.412.365,6.866a3.571,3.571,0,0,0-.349.172,96.92,96.92,0,0,1,14.4,8.308l.421.151A29.745,29.745,0,0,1,1274,570.909Z" transform="translate(-1253.366 -555.06)" fill="#fff" stroke="#222221" stroke-miterlimit="10" stroke-width="1"/>
        </g>
        <g id="Group_116" data-name="Group 116">
          <path id="Path_86" data-name="Path 86" d="M1037.235,531.46c.606-.759.153-2.167.667-2.167,4.729,0,10.3-1.47,12.891-5.283-.646,0-6.717.044-6.717-.031,0-.9-.158-1.656-.167-2.231-1.557-.234-3.122-.44-4.7-.6.261,4.4-10.365,4.035-14.774,4.048-.993,0-1.224-1.986-.659-2.508a31.575,31.575,0,0,1,5.088,0c3.528,0,4.312-.168,4.459-1.946-1.3-.052-2.608-.086-3.923-.086a97.723,97.723,0,0,0-15.982,1.317l1.7,1.449c-.737-.167-2.129-.638-3.647-1.106a96.544,96.544,0,0,0-37.16,15.483,64.472,64.472,0,0,1,3.206,8.172c.174,3.606-2.286,5.031-4.109,8.459-.124.233-.227.485-.345.723a96.706,96.706,0,0,1,63.565-23.7C1036.83,531.451,1037.032,531.459,1037.235,531.46Z" transform="translate(-973.061 -520.658)" fill="#fff" stroke="#222221" stroke-miterlimit="10" stroke-width="1"/>
        </g>
      </g>
      <g id="Group_118" data-name="Group 118" transform="translate(111.112 125.72)">
        <path id="Path_87" data-name="Path 87" d="M1147.734,901.3c.643,2.769,3.019,4.492,2.984,7.553-.054,4.727,13.237,5.615,15.812,5.615-.012-.007-9.7-5.032-9.7-4.429,0-4.486,2.308-4.174,2.309-6.911,0-3.25-2.95-5.927-1.107-10.526,1.993-4.973,1.767-4.822,7.157-4.822a32.187,32.187,0,0,0-1.045-6.751c4.816-7.5,16.018-14.727,18.984-16.752,4.028-2.753,1.772-10.182,3.515-14.141,1.531-3.479,6.174-6.693,6.4-10.973a3.613,3.613,0,0,0-.555-2.273,104.955,104.955,0,0,1-49.556,42.574c1.558,4.4,3.937,8.48,4.774,13.294C1148.189,895.575,1147.108,898.608,1147.734,901.3Z" transform="translate(-1142.926 -836.893)" fill="#fff" stroke="#222221" stroke-miterlimit="10" stroke-width="1"/>
      </g>
    </g>
    <g id="Group_122" data-name="Group 122" transform="translate(582.128 291.675)">
      <g id="Group_120" data-name="Group 120" transform="translate(0 30.441)">
        <path id="Path_88" data-name="Path 88" d="M1355.687,681.446,1351.2,682.8l-3.772-1.852-.8.534.7.968-3.57-.714-2.562,1.268-.414,3.624,2.137,3.28,3.911.13,4.027-2.04,6.231-1.607Z" transform="translate(-1340.788 -680.952)" fill="#fff" stroke="#222221" stroke-miterlimit="10" stroke-width="1"/>
      </g>
      <g id="Group_121" data-name="Group 121" transform="translate(11.052)">
        <path id="Path_89" data-name="Path 89" d="M1370.407,630.614l33.44-12.048,16.015-19.194,17.018,8.45-19.507,25.468-46.408,6Z" transform="translate(-1370.407 -599.372)" fill="#fff" stroke="#222221" stroke-miterlimit="10" stroke-width="1"/>
      </g>
    </g>
    <g id="Group_125" data-name="Group 125" transform="translate(140.251 284.146)">
      <g id="Group_123" data-name="Group 123" transform="translate(74.6 66.367)">
        <path id="Path_90" data-name="Path 90" d="M357.876,757.055l7.432.82.317,2.567,4.668,3.189-1.981,3-11.818-3.776Z" transform="translate(-356.494 -757.055)" fill="#fff" stroke="#222221" stroke-miterlimit="10" stroke-width="1"/>
      </g>
      <g id="Group_124" data-name="Group 124">
        <path id="Path_91" data-name="Path 91" d="M156.568,599.295,182.114,634.3l48.535,18.943,2.531-9.217-39.825-21.137-24.364-43.7Z" transform="translate(-156.568 -579.194)" fill="#fff" stroke="#222221" stroke-miterlimit="10" stroke-width="1"/>
      </g>
    </g>
  </g>
</svg>
