<?xml version="1.0" encoding="utf-8"?>
<!-- Generator: Adobe Illustrator 23.0.5, SVG Export Plug-In . SVG Version: 6.00 Build 0)  -->
<svg version="1.1" id="Layer_1" xmlns="http://www.w3.org/2000/svg" xmlns:xlink="http://www.w3.org/1999/xlink" x="0px" y="0px"
	 viewBox="0 0 500 500" style="enable-background:new 0 0 500 500;" xml:space="preserve">
<style type="text/css">
	.st0{fill:#FFFFFF;}
	.st1{fill:#E6E6E6;}
	.st2{fill:#999999;}
	.st3{fill:#FBBA84;}
	.st4{fill:#FFEED7;}
</style>
<path class="st0" d="M251.91,226.95c0.01-0.38-0.39-0.69-0.76-0.58c-1.47,0.48-2.95,0.94-4.45,1.37c-0.69,0.2-1.38,0.38-2.07,0.57
	c-0.23,0.06-2.42,0.64-1.42,0.24c0.09-0.04,0.05-0.18-0.04-0.15c-0.52,0.18-0.68,0.36-1.08,0.77c-0.2,0.2-0.07,0.63,0.25,0.61
	c2-0.18,4.01-0.7,5.99-1.29c-22.91,18.73-45.78,37.5-68.64,56.28c-4.41-4.98-8.82-9.95-13.22-14.93c-0.27-0.3-0.82-0.3-1.09,0
	c-6.96,7.65-13.91,15.3-20.87,22.95c-7.46-7.35-13.21-16.2-16.85-26.03c-0.21-0.58-0.85-0.76-1.32-0.35
	c-18.69,16.06-36.66,32.94-53.84,50.61c-3.15-5.23-5.74-10.74-7.72-16.53c-0.2-0.59-0.83-0.71-1.3-0.34
	c-16.65,13.15-33,27.05-47.68,42.4c-0.34,0.36,0.18,0.88,0.54,0.54c15.45-14.12,30.88-28.14,47.31-41.11
	c2.07,5.85,4.73,11.45,8,16.73c0.27,0.43,0.88,0.54,1.25,0.16c17.13-17.65,35.04-34.53,53.68-50.58c3.84,9.9,9.73,18.82,17.39,26.2
	c0.3,0.28,0.82,0.32,1.12,0c6.94-7.65,13.88-15.3,20.83-22.95c4.38,4.95,8.76,9.9,13.14,14.85c0.3,0.34,0.79,0.25,1.1,0
	c23.49-19.26,46.97-38.53,70.42-57.84c-0.26,2.63-0.63,5.45-0.26,7.96c0.08,0.55,0.92,0.49,1.04,0
	C252.12,233.55,251.83,230,251.91,226.95z"/>
<g>
	<rect x="224.28" y="279.97" class="st0" width="27.43" height="77.86"/>
	<rect x="237.46" y="279.97" class="st0" width="14.25" height="77.86"/>
</g>
<g>
	<rect x="177.62" y="318.9" class="st0" width="27.43" height="38.93"/>
	<rect x="191.33" y="318.9" class="st0" width="13.72" height="38.93"/>
</g>
<g>
	<rect x="267.06" y="260.31" class="st0" width="27.43" height="97.52"/>
	<rect x="280.78" y="260.31" class="st0" width="13.72" height="97.52"/>
</g>
<g>
	<rect x="130.96" y="309.26" class="st0" width="27.43" height="48.58"/>
	<rect x="144.68" y="309.26" class="st0" width="13.72" height="48.58"/>
</g>
<g>
	<rect x="84.3" y="343.2" class="st0" width="27.43" height="14.63"/>
	<rect x="98.02" y="343.2" class="st0" width="13.72" height="14.63"/>
</g>
<rect x="65.35" y="357.83" class="st1" width="293.98" height="3.35"/>
<path class="st2" d="M394.04,291.52c12.23-6.8,22.18-17.63,27.9-30.4c3.09-6.89,4.95-14.32,5.52-21.85
	c0.19-2.49,1.14-5.01,1.26-7.43c0.18-3.58-1.82-7.84-3.65-10.8c-0.49-0.8-8.15,11.94-8.71,12.85c-2.02,3.23-3.93,6.52-5.72,9.88
	c-3.78,7.09-7.04,14.46-9.74,22.03C397.92,274.17,395.61,282.78,394.04,291.52z"/>
<path class="st0" d="M426.48,235.15c-5.29,17.15-11.8,33.93-19.46,50.17c-0.5,1.07-7.37-1.88-14.51-5.35
	c14.19-12.09,22.77-31.15,29.31-48.55C423.38,232.67,424.96,233.89,426.48,235.15z"/>
<path class="st0" d="M280.55,184.56c1.46-3.98,3.9-7.51,5.45-11.45c1.59-4.04,3.25-8.18,6.24-11.32c3.91-4.11,9.47-5.81,14.94-6.57
	c5.46-0.76,10.35-1.51,15.73-2.67c7.37-1.59,15.61,1.38,22.53,3.58c10.7,3.41,21.39,6.81,32.09,10.22
	c4.44,1.41,9.06,2.94,12.31,6.28c2.4,2.47,3.82,5.7,5.19,8.86c4.19,9.65,8.38,19.31,12.57,28.96c1.43,3.29,2.3,7.23,4.08,10.29
	c2.51,4.32,6.28,7.58,10.15,10.68c-6.54,17.4-15.11,36.46-29.31,48.55c-7.6-3.69-15.52-7.96-16.45-8.62
	c-6.08-4.29-11.86-9.79-14.74-16.79c-2.72-6.61-1.6-14.04-5.45-20.17c-1.61-2.56-3.83-4.85-4.56-7.79
	c-1.02-4.07,1.05-8.2,2.71-12.06c1.16-2.7,2.36-6.11,1.66-9.09c-0.55-2.34-2.23-4.17-3.35-6.24c-1.19-2.22-1.39-4.25-2.01-6.58
	c-1.41-5.28-6.36-9.78-11.09-12.18c-6.99-3.54-12.54-2.01-19.59-0.94c-1.17,0.18-12.41-0.29-12.21-0.7
	c-1.77,3.54-3.41,7.22-6.53,9.8c-5.59-3.21-13.11-2.65-18.16,1.35C278.34,193.44,279.68,186.94,280.55,184.56z"/>
<path class="st3" d="M329.42,154.03c0.29,0.68,0.5,1.33,0.58,2.07c0.08,0.65,0.21,1.58-0.18,2.14c-0.21,0.3-0.61,0.24-0.75-0.09
	c-0.21-0.53-0.05-1.22-0.08-1.79c-0.03-0.68-0.13-1.37-0.27-2.04C328.66,153.93,329.25,153.62,329.42,154.03z"/>
<path class="st3" d="M297.13,162.95c1.85,0.38,3.28,1.55,4.32,3.1c0.58,0.86,2.38,3.59,1.65,4.58c-0.1,0.13-0.23,0.17-0.38,0.1
	c-0.21-0.09-0.22-0.15-0.3-0.36c-0.03-0.09,0.02-0.19,0.1-0.24c0.03-0.02,0.07-0.04,0.1-0.06c0.01-0.01,0.02,0,0.03-0.01
	c-0.31-0.55-0.88-1.67-0.95-1.81c-0.31-0.6-0.63-1.2-1.03-1.75c-0.94-1.32-2.19-2.26-3.8-2.55
	C296.21,163.84,296.47,162.82,297.13,162.95z"/>
<path class="st3" d="M294.87,164.38c0.72,0.21,1.24,0.97,1.75,1.5c0.58,0.6,1.17,1.19,1.66,1.87c0.16,0.22-0.15,0.52-0.37,0.37
	c-0.69-0.47-1.3-1.05-1.92-1.61c-0.55-0.5-1.31-0.98-1.54-1.7C294.37,164.56,294.63,164.31,294.87,164.38z"/>
<path class="st3" d="M299.13,159.71c0.46,0.12,0.86,0.42,1.26,0.67c0.44,0.27,0.87,0.56,1.3,0.84c0.36,0.23,0.04,0.8-0.34,0.58
	c-0.45-0.25-0.9-0.5-1.34-0.76c-0.4-0.24-0.86-0.45-1.17-0.8C298.63,160,298.82,159.63,299.13,159.71z"/>
<path class="st4" d="M287.55,179.91c-0.17,0.32-0.37,0.68-0.62,1.08c-1.36,2.2-4.01,6.83-6.93,6.85c0.41-1.22,6.39-11.73,5.26-12.52
	C287.88,177.15,288.73,177.64,287.55,179.91z"/>
<path class="st0" d="M395.24,291.54c6,1.52,11.71,4.17,16.75,7.76c1.02,0.73,12.72-18.11,13.7-19.89
	c3.96-7.26,7.15-14.94,9.52-22.86c2.37-7.92,3.91-16.09,4.55-24.33c0.27-3.42,0.65-5.45-2.6-7.01c-3.57-1.71-7.72-3.03-11.56-3.91
	c0.24,3.46,0.93,7.24,0.79,10.73c-0.2,4.8-2.49,9.99-4.08,14.47c-3.49,9.81-8.14,19.21-13.82,27.94
	C404.56,280.49,400.12,286.22,395.24,291.54z"/>
<path class="st0" d="M450.09,320.51c-7.57-3.75-15.14-7.49-22.7-11.24c-5.81-2.87-12.83-4.69-18.05-8.54
	c1.7-2.48,4.11-4.19,5.94-6.55c2.29-2.96,4.13-6.4,6-9.63c3.7-6.42,6.8-13.18,9.26-20.17c2.53-7.18,4.4-14.6,5.54-22.12
	c0.31-2.05,2.97-21.04,1.29-21.53c15.24,4.53,30.49,9.06,45.73,13.59c3.54,28.13-3.25,57.45-18.8,81.16
	c-2.13,3.25-5.04,6.73-8.93,6.72C453.51,322.19,451.76,321.34,450.09,320.51z"/>
<g>
	<path class="st0" d="M329.2,169.47l-10.81-11.84l44.38-40.49c1.6-1.46,4.07-1.34,5.52,0.25l8.17,8.95L329.2,169.47z"/>
	
		<rect x="317.26" y="160.21" transform="matrix(0.674 0.7387 -0.7387 0.674 225.851 -187.408)" class="st0" width="16.03" height="3.99"/>
	<path class="st0" d="M345.6,159.42L345.6,159.42l33.32-30.4l3.12,3.42l-29.9,27.28C350.24,161.44,347.32,161.3,345.6,159.42z"/>
	
		<rect x="293.51" y="153.25" transform="matrix(0.674 0.7387 -0.7387 0.674 234.6389 -161.245)" class="st0" width="13.03" height="63.98"/>
	
		<rect x="315.19" y="162.82" transform="matrix(0.674 0.7387 -0.7387 0.674 227.0915 -183.7138)" class="st0" width="13.03" height="5.27"/>
	<path class="st0" d="M262.07,219.87l4.02-1.77c-0.65-0.61-1.38-1.14-2.16-1.58L262.07,219.87z"/>
	<path class="st0" d="M272,201.99l-8.06,14.52c0.79,0.44,1.52,0.97,2.16,1.58l14.69-6.48L272,201.99z"/>
	
		<rect x="371.22" y="125.63" transform="matrix(0.674 0.7387 -0.7387 0.674 215.8924 -236.025)" class="st0" width="8.32" height="1.97"/>
</g>
<g>
	<path class="st0" d="M350.12,217.08c-1.82,0.18-3.62,0.25-5.4,0.1c-6.64-0.55-14.07-4.35-20.05-7.08
		c-7.13-3.26-13.22-8.65-17.42-15.26c-3.75-5.89-8.89-10.16-16.45-10.07c-5.07,0.06-12.36,2.6-12.01,8.68
		c0.16,2.85,1.69,5.45,3.4,7.74c1.71,2.29,3.65,4.45,4.88,7.04c1.78,3.76,1.9,8.14,3.68,11.9c2.77,5.87,8.94,9.19,13.65,13.65
		c4.93,4.67,8.38,10.78,13.56,15.18c7.38,6.28,17.48,8.49,26.39,11.78c10.57,3.9,21.26,7.46,32.06,10.68
		c2.98,0.89,6.15,1.76,9.17,0.99c3.7-0.93,6.38-4.13,8.27-7.44c7.45-13.1,6.47-32.72-6.07-42.32c-5.95-4.56-13.47-6.78-20.95-7.28
		C361.27,215,355.62,216.54,350.12,217.08z"/>
	<path class="st0" d="M279.77,197.3c0.06-3.19,3.73-8.36,7.37-6.19c1.23,0.73,2.03,1.99,2.78,3.21c1.19,1.91,2.8,4.88,2.03,7.24
		c-0.26,0.81-4.59,5.03-4.55,5.07C284.62,203.8,282.26,200.39,279.77,197.3z"/>
	<path class="st0" d="M334.59,237.79c-1.75,1.26-3.14,3-4.88,4.32c-1.9,1.44-4,2.55-5.99,3.85c-0.22,0.14-0.08,0.49,0.18,0.43
		c3.95-1.01,9.26-4.37,11.27-8.02C335.36,238.03,334.96,237.53,334.59,237.79z"/>
	<path class="st0" d="M327.38,238.91c-0.28,0.3-0.41,0.69-0.64,1.03c-0.24,0.35-0.54,0.68-0.85,0.96c-0.66,0.59-1.49,0.82-2.21,1.3
		c-0.22,0.15-0.2,0.52,0.08,0.58c0.99,0.24,2.04-0.32,2.79-0.92c0.73-0.58,1.68-1.64,1.62-2.64
		C328.13,238.86,327.66,238.61,327.38,238.91z"/>
	<path class="st0" d="M327.08,234.01c-0.84,0.6-8.73,7.87-8.92,7.65c-0.16-0.18-0.47,0.01-0.4,0.23c0.03,0.08,0.05,0.16,0.08,0.24
		c0.03,0.09,0.1,0.18,0.2,0.2c1.35,0.25,2.88-1.59,3.83-2.38c1.95-1.63,4.12-3.27,5.77-5.21
		C327.97,234.37,327.54,233.68,327.08,234.01z"/>
	<path class="st0" d="M301.41,210.81c-3.12,0.43-6.54,2.59-8.48,5.04c-0.11,0.14,0.04,0.41,0.22,0.28c1.33-0.95,2.6-1.95,4.04-2.74
		c1.45-0.8,2.99-1.28,4.49-1.94C302.08,211.28,301.77,210.76,301.41,210.81z"/>
	<path class="st0" d="M298.95,216.4c-1.33,0.43-2.36,1.55-3.36,2.46c-0.15,0.14,0.04,0.37,0.22,0.28c1.18-0.62,2.57-1.2,3.41-2.28
		C299.37,216.67,299.24,216.31,298.95,216.4z"/>
	<path class="st0" d="M302.64,216.72c-0.9,1.24-1.78,2.45-3.01,3.39c-1.26,0.96-2.64,1.41-4.09,1.99c-0.23,0.09-0.21,0.43,0.06,0.45
		c3.22,0.2,6.81-2.53,7.76-5.53C303.51,216.57,302.89,216.38,302.64,216.72z"/>
	<path class="st0" d="M339.33,244.88c-1.21,1.52-2.34,3.04-3.84,4.31c-1.63,1.38-3.51,2.13-5.25,3.29
		c-0.17,0.11-0.13,0.45,0.12,0.43c3.83-0.42,8.01-4.17,9.58-7.56C340.1,244.99,339.62,244.51,339.33,244.88z"/>
</g>
</svg>
