<?xml version="1.0" encoding="utf-8"?>
<!-- Generator: Adobe Illustrator 23.0.5, SVG Export Plug-In . SVG Version: 6.00 Build 0)  -->
<svg version="1.1" id="Layer_1" xmlns="http://www.w3.org/2000/svg" xmlns:xlink="http://www.w3.org/1999/xlink" x="0px" y="0px"
	 viewBox="0 0 500 500" style="enable-background:new 0 0 500 500;" xml:space="preserve">
<style type="text/css">
	.st0{fill:#F2F2F2;}
	.st1{fill:#E6E6E6;}
	.st2{fill:#D3D3D3;}
	.st3{fill:#FFFFFF;}
	.st4{fill:#B3B3B3;}
	.st5{fill:#666666;}
	.st6{fill:#808080;}
	.st7{fill:#3E3E3E;}
	.st8{fill:#646B64;}
</style>
<g>
	<polygon class="st0" points="88.51,242.11 74.69,242.11 82.59,215.65 51.81,253.1 65.63,253.1 57.74,279.56 	"/>
	<g>
		<path class="st0" d="M70.16,286.18c-21.27,0-38.58-17.31-38.58-38.58s17.31-38.58,38.58-38.58c21.27,0,38.58,17.31,38.58,38.58
			S91.44,286.18,70.16,286.18z M70.16,214.29c-18.37,0-33.32,14.95-33.32,33.32s14.95,33.32,33.32,33.32
			c18.37,0,33.32-14.95,33.32-33.32S88.53,214.29,70.16,214.29z"/>
	</g>
</g>
<g>
	<g>
		<g>
			<path class="st0" d="M416.67,227.37l6.14-4.16c-1.57-2.24-3.69-3.98-6.14-4.96V227.37z"/>
			<path class="st0" d="M416.67,239.61l9.02-6.11c0.02-0.29,0.03-0.59,0.03-0.89l0,0c0-2.92-0.74-5.65-2.02-7.97l-7.03,4.76V239.61z
				"/>
			<path class="st0" d="M415,229.4l-7.03-4.76c-1.28,2.32-2.02,5.05-2.02,7.97l0,0c0,0.3,0.01,0.59,0.03,0.89l9.02,6.11V229.4z"/>
			<path class="st0" d="M415,227.37v-9.12c-2.45,0.99-4.57,2.73-6.14,4.96L415,227.37z"/>
			<path class="st0" d="M416.67,241.63v5.34c4.43-1.79,7.8-6.04,8.77-11.27L416.67,241.63z"/>
			<path class="st0" d="M415,241.63l-8.77-5.94c0.96,5.23,4.33,9.48,8.77,11.27V241.63z"/>
		</g>
		<g>
			<path class="st0" d="M398.07,256.79l-6.67-3.24c-1.15,2.48-1.6,5.19-1.23,7.8L398.07,256.79z"/>
			<path class="st0" d="M408.66,250.68l-9.8-4.76c-0.26,0.13-0.52,0.27-0.78,0.42l0,0c-2.53,1.46-4.52,3.47-5.89,5.73l7.64,3.71
				L408.66,250.68z"/>
			<path class="st0" d="M400.66,257.23l-0.61,8.47c2.65-0.05,5.38-0.77,7.91-2.24l0,0c0.26-0.15,0.51-0.31,0.75-0.47l0.78-10.87
				L400.66,257.23z"/>
			<path class="st0" d="M398.91,258.25l-7.9,4.56c2.08,1.62,4.64,2.59,7.37,2.84L398.91,258.25z"/>
			<path class="st0" d="M410.42,249.67l4.62-2.67c-3.77-2.94-9.14-3.74-14.15-1.96L410.42,249.67z"/>
			<path class="st0" d="M411.25,251.12l-0.76,10.56c4.05-3.45,6.05-8.5,5.38-13.23L411.25,251.12z"/>
		</g>
		<g>
			<path class="st0" d="M432.76,258.25l0.53,7.4c2.73-0.24,5.29-1.21,7.37-2.84L432.76,258.25z"/>
			<path class="st0" d="M422.17,252.13l0.78,10.87c0.25,0.16,0.5,0.32,0.75,0.47l0,0c2.53,1.46,5.26,2.18,7.91,2.24l-0.61-8.47
				L422.17,252.13z"/>
			<path class="st0" d="M431.85,255.78l7.64-3.71c-1.37-2.27-3.36-4.27-5.89-5.73l0,0c-0.26-0.15-0.52-0.29-0.78-0.42l-9.8,4.76
				L431.85,255.78z"/>
			<path class="st0" d="M433.6,256.79l7.9,4.56c0.37-2.61-0.08-5.32-1.23-7.8L433.6,256.79z"/>
			<path class="st0" d="M420.42,251.12l-4.62-2.67c-0.67,4.73,1.33,9.78,5.38,13.23L420.42,251.12z"/>
			<path class="st0" d="M421.26,249.67l9.53-4.62c-5.01-1.78-10.38-0.99-14.15,1.96L421.26,249.67z"/>
		</g>
	</g>
	<g>
		<path class="st0" d="M415.84,286.18c-21.27,0-38.58-17.31-38.58-38.58s17.31-38.58,38.58-38.58c21.27,0,38.58,17.31,38.58,38.58
			S437.11,286.18,415.84,286.18z M415.84,214.29c-18.37,0-33.32,14.95-33.32,33.32s14.95,33.32,33.32,33.32s33.32-14.95,33.32-33.32
			S434.21,214.29,415.84,214.29z"/>
	</g>
</g>
<g>
	<g>
		<g>
			<path class="st1" d="M277.06,210.28h-5.26V83.02c0-5.52,4.49-10.02,10.02-10.02h11.03v5.26h-11.03c-2.62,0-4.76,2.13-4.76,4.76
				V210.28z"/>
		</g>
		<g>
			<path class="st1" d="M208.94,210.28h5.26V83.02c0-5.52-4.49-10.02-10.02-10.02h-11.03v5.26h11.03c2.62,0,4.76,2.13,4.76,4.76
				V210.28z"/>
		</g>
	</g>
	<g>
		<g>
			<path class="st1" d="M277.06,284.93h-5.26v127.26c0,5.52,4.49,10.02,10.02,10.02h11.03v-5.26h-11.03c-2.62,0-4.76-2.13-4.76-4.76
				V284.93z"/>
		</g>
		<g>
			<path class="st1" d="M208.94,284.93h5.26v127.26c0,5.52-4.49,10.02-10.02,10.02h-11.03v-5.26h11.03c2.62,0,4.76-2.13,4.76-4.76
				V284.93z"/>
		</g>
	</g>
</g>
<path class="st2" d="M355.81,263.54h-5.97v-31.87h5.97c0.74,0,1.34,0.6,1.34,1.34v29.18C357.15,262.94,356.55,263.54,355.81,263.54z
	"/>
<path class="st2" d="M130.19,263.54h5.97v-31.87h-5.97c-0.74,0-1.34,0.6-1.34,1.34v29.18C128.85,262.94,129.45,263.54,130.19,263.54
	z"/>
<path class="st3" d="M347.29,194.12L347.29,194.12c-5.09-6.29-12.75-9.94-20.84-9.94H183.53c-13.21,0-26.2,3.33-37.78,9.68l0,0
	c-8.59,4.71-13.92,13.72-13.92,23.52v60.44c0,9.79,5.34,18.81,13.92,23.52l0,0c11.58,6.35,24.58,9.68,37.78,9.68h142.92
	c8.09,0,15.75-3.65,20.84-9.94l0,0c3.87-4.78,5.98-10.74,5.98-16.88v-73.19C353.27,204.86,351.16,198.9,347.29,194.12z"/>
<g>
	<path class="st0" d="M326.45,184.18H183.53c-13.21,0-26.2,3.33-37.78,9.68c-0.59,0.33-1.17,0.68-1.73,1.04h203.86
		c-0.2-0.26-0.38-0.53-0.58-0.79C342.2,187.84,334.54,184.18,326.45,184.18z"/>
	<path class="st0" d="M183.53,311.02h142.92c8.09,0,15.75-3.65,20.84-9.94v0c0.21-0.26,0.39-0.53,0.58-0.79H144.02
		c0.56,0.37,1.14,0.72,1.73,1.04C157.33,307.69,170.32,311.02,183.53,311.02z"/>
</g>
<g>
	<g>
		<path class="st4" d="M240.31,187.89h47.42c0.95,0,1.81,0.54,2.22,1.39l4.83,9.9c0.62,1.27-0.3,2.74-1.71,2.74H270.5
			c-8.39,0-20.86,0-31.54-10.76C237.76,189.96,238.6,187.89,240.31,187.89z"/>
		<path class="st4" d="M312.25,187.89h-14.51c-1,0-1.65,1.04-1.21,1.94l5.2,10.65c0.44,0.89,1.47,1.29,2.4,0.94
			c2.69-1,7.86-3.81,9.96-11.11C314.45,189.11,313.51,187.89,312.25,187.89z"/>
	</g>
	<g>
		<path class="st4" d="M240.31,307.31h47.42c0.95,0,1.81-0.54,2.22-1.39l4.83-9.9c0.62-1.27-0.3-2.74-1.71-2.74H270.5
			c-8.39,0-20.86,0-31.54,10.76C237.76,305.25,238.6,307.31,240.31,307.31z"/>
		<path class="st4" d="M312.25,307.31h-14.51c-1,0-1.65-1.04-1.21-1.94l5.2-10.65c0.44-0.89,1.47-1.29,2.4-0.94
			c2.69,1,7.86,3.81,9.96,11.11C314.45,306.1,313.51,307.31,312.25,307.31z"/>
	</g>
</g>
<g>
	<path class="st5" d="M323.24,212.08h30.04v-1.08c0-0.81-0.04-1.62-0.12-2.43h-29.92V212.08z"/>
	<path class="st5" d="M353.27,284.2v-1.08h-30.04v3.51h29.92C353.23,285.82,353.27,285.01,353.27,284.2z"/>
</g>
<g>
	<path class="st5" d="M169.02,208.58c-1.25,0-2.48,0.24-3.64,0.7l0,0c-5.22,6.63-13.04,10.43-21.44,10.43h-12.1v3.51h12.1
		c8.85,0,17.11-3.74,22.96-10.31c0.46-0.51,1.1-0.82,1.79-0.82h45.51v-3.51H169.02z"/>
	<path class="st5" d="M143.93,271.99h-12.1v3.51h12.1c8.45,0,16.22,3.82,21.44,10.47l0,0c1.16,0.44,2.39,0.66,3.63,0.66h45.19v-3.51
		h-45.5c-0.69,0-1.33-0.31-1.79-0.82C161.05,275.72,152.81,271.99,143.93,271.99z"/>
</g>
<g>
	<g>
		<path class="st6" d="M167.71,192.42L167.71,192.42c0-0.61-0.58-1.07-1.17-0.93c-6.35,1.51-12.51,3.84-18.26,7
			c-6.25,3.43-10.35,9.69-11.07,16.68c-0.06,0.55,0.4,1.03,0.95,1.03h5.77C157.06,216.2,167.71,205.55,167.71,192.42z"/>
		<path class="st6" d="M139.07,214.45c0.91-6.1,4.62-11.45,10.05-14.43c5.23-2.87,10.88-5.08,16.81-6.58
			c-0.54,11.67-10.2,21.01-22,21.01H139.07z"/>
		<path class="st6" d="M148.13,201.69c-2.09,0-3.79,2.77-3.79,6.18c0,3.41,1.7,6.18,3.79,6.18c2.09,0,3.79-2.77,3.79-6.18
			C151.92,204.45,150.22,201.69,148.13,201.69z"/>
		<path class="st6" d="M155.98,198.44c-1.59,0-2.89,2.11-2.89,4.71c0,2.6,1.29,4.71,2.89,4.71c1.59,0,2.89-2.11,2.89-4.71
			C158.87,200.55,157.58,198.44,155.98,198.44z"/>
	</g>
	<g>
		<path class="st6" d="M167.71,302.79L167.71,302.79c0,0.61-0.58,1.07-1.17,0.93c-6.35-1.51-12.51-3.84-18.26-7
			c-6.25-3.43-10.35-9.69-11.07-16.68c-0.06-0.55,0.4-1.03,0.95-1.03h5.77C157.06,279.01,167.71,289.65,167.71,302.79z"/>
		<path class="st6" d="M139.07,280.76c0.91,6.1,4.62,11.45,10.05,14.43c5.23,2.87,10.88,5.08,16.81,6.58
			c-0.54-11.67-10.2-21.01-22-21.01H139.07z"/>
		<path class="st6" d="M148.13,293.52c-2.09,0-3.79-2.77-3.79-6.18c0-3.41,1.7-6.18,3.79-6.18c2.09,0,3.79,2.77,3.79,6.18
			C151.92,290.75,150.22,293.52,148.13,293.52z"/>
		<path class="st6" d="M155.98,296.77c-1.59,0-2.89-2.11-2.89-4.71c0-2.6,1.29-4.71,2.89-4.71c1.59,0,2.89,2.11,2.89,4.71
			C158.87,294.66,157.58,296.77,155.98,296.77z"/>
	</g>
</g>
<g>
	<g>
		<rect x="233.49" y="215.01" class="st5" width="89.75" height="3.51"/>
	</g>
	<g>
		<rect x="233.49" y="276.69" class="st5" width="89.75" height="3.51"/>
	</g>
</g>
<path class="st5" d="M322.51,204c-1.09-1.74-3.47-1.6-4.41,0.13c-1.72,3.15-3.55,4.98-4.92,6.05c-1.06,0.83-1.39,2.31-0.69,3.47
	c2.34,3.91,2.59,9.19,3.28,16.31c1.18,8.51,0.82,27.59,0.58,27.58c-0.04,0,0.15-0.84-0.58,7.68c-0.7,7.12-0.94,12.4-3.28,16.31
	c-0.7,1.16-0.37,2.64,0.69,3.47c1.37,1.07,3.19,2.91,4.92,6.05c0.94,1.73,3.32,1.87,4.41,0.13c1.55-2.47,3.38-6.35,4.27-11.7
	c1.8-10.53,2.34-21.27,2.32-21.26c0.69,0.02,0.36-32.06-2.32-42.55C325.9,210.35,324.06,206.47,322.51,204z"/>
<path class="st7" d="M244.16,264.56c0-14.62,0-16.96,0-16.96s0-2.34,0-16.96c0-7.76,2.18-14.57,4.23-19.25
	c1.38-3.15-0.4-6.84-3.75-7.63c-10.19-2.4-16.53-8.33-19.69-12.12c-1.7-2.05-4.66-2.62-6.96-1.28
	c-15.96,9.31-17.68,32.76-17.68,38.53c0,6.29-0.88,18.71-0.88,18.71s0.88,12.42,0.88,18.71c0,5.78,1.73,29.23,17.68,38.53
	c2.3,1.34,5.26,0.76,6.96-1.28c3.16-3.79,9.5-9.72,19.69-12.12c3.34-0.79,5.12-4.48,3.75-7.63
	C246.34,279.13,244.16,272.32,244.16,264.56z"/>
<path class="st5" d="M220.68,302.06c-0.33,0-0.64-0.08-0.92-0.25c-15.76-9.19-15.94-34.43-15.94-35.5c0-5.92-0.74-16.87-0.87-18.71
	c0.13-1.83,0.87-12.79,0.87-18.71c0-1.07,0.18-26.31,15.94-35.5c0.28-0.16,0.59-0.25,0.92-0.25c0.6,0,1.19,0.28,1.58,0.74
	c3.17,3.81,10.19,10.61,21.58,13.29c0.76,0.18,1.13,0.73,1.28,1.03c0.28,0.56,0.3,1.21,0.05,1.78c-2.06,4.72-4.52,12.14-4.52,20.66
	v33.91c0,8.52,2.46,15.94,4.52,20.66c0.25,0.57,0.23,1.22-0.05,1.78c-0.15,0.31-0.53,0.86-1.29,1.04
	c-11.38,2.68-18.41,9.48-21.58,13.29C221.87,301.79,221.28,302.06,220.68,302.06L220.68,302.06z"/>
<path class="st6" d="M297.99,268.43h-33.55c-2.24,0-4.05-1.81-4.05-4.05v-33.55c0-2.24,1.81-4.05,4.05-4.05h33.55
	c2.24,0,4.05,1.81,4.05,4.05v33.55C302.04,266.62,300.23,268.43,297.99,268.43z"/>
<path class="st8" d="M260.38,232.97c0-3.42,2.77-6.2,6.2-6.2h29.27c3.42,0,6.2,2.77,6.2,6.2v29.27L260.38,232.97z"/>
<path class="st6" d="M263.89,263.17v-31.13c0-0.97,0.79-1.76,1.76-1.76h31.13c0.97,0,1.76,0.79,1.76,1.76v31.13
	c0,0.97-0.79,1.76-1.76,1.76h-31.13C264.68,264.92,263.89,264.14,263.89,263.17z"/>
<g>
	<g>
		<g>
			<path class="st0" d="M168.74,87.52h-22.08c-4.59,0-8.32-3.72-8.32-8.32V65.22c0-1.47,1.19-2.66,2.66-2.66h33.39
				c1.47,0,2.66,1.19,2.66,2.66V79.2C177.06,83.8,173.33,87.52,168.74,87.52z"/>
			<path class="st0" d="M163.88,99.87h-12.35c-1.93,0-3.5-1.57-3.5-3.5v-19.5h19.36v19.5C167.38,98.3,165.81,99.87,163.88,99.87z"/>
			<g>
				<path class="st0" d="M152.12,65.53h-5.66V50.54c0-1.56,1.27-2.83,2.83-2.83l0,0c1.56,0,2.83,1.27,2.83,2.83V65.53z"/>
				<path class="st0" d="M168.94,65.53h-5.66V50.54c0-1.56,1.27-2.83,2.83-2.83l0,0c1.56,0,2.83,1.27,2.83,2.83V65.53z"/>
			</g>
			<rect x="155.18" y="99.16" class="st0" width="5.05" height="13.19"/>
		</g>
	</g>
	<g>
		<path class="st0" d="M157.7,116.16c-21.27,0-38.58-17.31-38.58-38.58c0-21.27,17.31-38.58,38.58-38.58s38.58,17.31,38.58,38.58
			C196.28,98.85,178.97,116.16,157.7,116.16z M157.7,44.26c-18.37,0-33.32,14.95-33.32,33.32c0,18.37,14.95,33.32,33.32,33.32
			s33.32-14.95,33.32-33.32C191.02,59.21,176.07,44.26,157.7,44.26z"/>
	</g>
</g>
<g>
	<g>
		<g>
			<path class="st0" d="M328.3,105.83c-15.58,0-28.26-12.68-28.26-28.26c0-15.58,12.68-28.26,28.26-28.26
				c15.58,0,28.26,12.68,28.26,28.26C356.55,93.16,343.88,105.83,328.3,105.83z M328.3,52.3c-13.94,0-25.28,11.34-25.28,25.28
				c0,13.94,11.34,25.28,25.28,25.28c13.94,0,25.28-11.34,25.28-25.28C353.58,63.64,342.24,52.3,328.3,52.3z"/>
		</g>
		<g>
			<rect x="327.37" y="52.87" class="st0" width="1.67" height="3.16"/>
		</g>
		<g>
			
				<rect x="319.46" y="54.26" transform="matrix(0.9397 -0.342 0.342 0.9397 0.2172 112.9162)" class="st0" width="1.67" height="3.16"/>
		</g>
		<g>
			
				<rect x="312.5" y="58.28" transform="matrix(0.766 -0.6428 0.6428 0.766 34.8313 215.4158)" class="st0" width="1.67" height="3.16"/>
		</g>
		<g>
			<rect x="307.34" y="64.43" transform="matrix(0.5 -0.866 0.866 0.5 96.9099 299.8864)" class="st0" width="1.67" height="3.16"/>
			<rect x="347.41" y="87.57" transform="matrix(0.5 -0.866 0.866 0.5 96.9089 346.1492)" class="st0" width="1.67" height="3.16"/>
		</g>
		<g>
			
				<rect x="304.59" y="71.98" transform="matrix(0.1737 -0.9848 0.9848 0.1737 179.9404 361.5734)" class="st0" width="1.67" height="3.16"/>
			
				<rect x="350.15" y="80.02" transform="matrix(0.1737 -0.9848 0.9848 0.1737 209.6778 413.0812)" class="st0" width="1.67" height="3.16"/>
		</g>
		<g>
			
				<rect x="304.59" y="80.02" transform="matrix(-0.1737 -0.9848 0.9848 -0.1737 278.1129 396.5529)" class="st0" width="1.67" height="3.16"/>
			
				<rect x="350.15" y="71.98" transform="matrix(-0.1737 -0.9848 0.9848 -0.1737 339.4986 431.9932)" class="st0" width="1.67" height="3.16"/>
		</g>
		<g>
			
				<rect x="307.34" y="87.57" transform="matrix(-0.5 -0.866 0.866 -0.5 385.0713 400.6028)" class="st0" width="1.67" height="3.16"/>
			
				<rect x="347.41" y="64.43" transform="matrix(-0.5 -0.866 0.866 -0.5 465.2047 400.6013)" class="st0" width="1.67" height="3.16"/>
		</g>
		<g>
			
				<rect x="342.24" y="58.28" transform="matrix(-0.766 -0.6428 0.6428 -0.766 567.4129 326.2393)" class="st0" width="1.67" height="3.16"/>
		</g>
		<g>
			
				<rect x="335.28" y="54.26" transform="matrix(-0.9397 -0.342 0.342 -0.9397 632.8693 223.2771)" class="st0" width="1.67" height="3.16"/>
		</g>
		<path class="st0" d="M328.3,56.75c-11.48,0-20.83,9.34-20.83,20.83s9.34,20.83,20.83,20.83s20.83-9.34,20.83-20.83
			S339.78,56.75,328.3,56.75z M339.01,90.49c0,1.34-1.09,2.43-2.43,2.43h-16.56c-1.34,0-2.43-1.09-2.43-2.43v-3.81
			c0-1.34,1.09-2.43,2.43-2.43h16.56c1.34,0,2.43,1.09,2.43,2.43V90.49z M333.95,73.91l-2.43,1c1.28,1.46,1.51,3.64,0.4,5.35
			c-1.34,2.07-4.1,2.66-6.17,1.32c-2.07-1.34-2.66-4.1-1.32-6.17c1.11-1.71,3.19-2.39,5.04-1.82l-0.08-2.62l9.86-10.24L333.95,73.91
			z"/>
		<circle class="st0" cx="328.3" cy="77.82" r="2.63"/>
		<path class="st0" d="M324.25,90.4h-3.63c-0.32,0-0.58-0.26-0.58-0.58l0,0c0-0.32,0.26-0.58,0.58-0.58h3.63
			c0.32,0,0.58,0.26,0.58,0.58l0,0C324.83,90.14,324.57,90.4,324.25,90.4z"/>
		<path class="st0" d="M330.11,90.4h-3.63c-0.32,0-0.58-0.26-0.58-0.58l0,0c0-0.32,0.26-0.58,0.58-0.58h3.63
			c0.32,0,0.58,0.26,0.58,0.58l0,0C330.69,90.14,330.43,90.4,330.11,90.4z"/>
		<path class="st0" d="M335.97,90.4h-3.63c-0.32,0-0.58-0.26-0.58-0.58l0,0c0-0.32,0.26-0.58,0.58-0.58h3.63
			c0.32,0,0.58,0.26,0.58,0.58l0,0C336.55,90.14,336.29,90.4,335.97,90.4z"/>
	</g>
	<g>
		<path class="st0" d="M328.3,116.16c-21.27,0-38.58-17.31-38.58-38.58c0-21.27,17.31-38.58,38.58-38.58
			c21.27,0,38.58,17.31,38.58,38.58C366.88,98.85,349.57,116.16,328.3,116.16z M328.3,44.26c-18.37,0-33.32,14.95-33.32,33.32
			c0,18.37,14.95,33.32,33.32,33.32c18.37,0,33.32-14.95,33.32-33.32C361.61,59.21,346.67,44.26,328.3,44.26z"/>
	</g>
</g>
<g>
	<g>
		<g>
			<g>
				<g>
					<path class="st0" d="M158.02,445.14c-13.33,0-24.18-10.85-24.18-24.18s10.85-24.18,24.18-24.18
						c13.33,0,24.18,10.85,24.18,24.18S171.35,445.14,158.02,445.14z M158.02,401.26c-10.86,0-19.7,8.84-19.7,19.7
						c0,10.86,8.84,19.7,19.7,19.7c10.86,0,19.7-8.84,19.7-19.7C177.72,410.1,168.88,401.26,158.02,401.26z"/>
				</g>
				<path class="st0" d="M158.02,403.52c-9.63,0-17.44,7.81-17.44,17.44s7.81,17.44,17.44,17.44c9.63,0,17.44-7.81,17.44-17.44
					S167.65,403.52,158.02,403.52z M164.82,423.58h-6.35c-1.49,0-2.7-1.21-2.7-2.7v-1.79v-10.86c0-1.31,1.13-2.36,2.46-2.23
					c1.17,0.11,2.02,1.16,2.02,2.33v9.95c0,0.45,0.36,0.81,0.81,0.81h3.66c1.17,0,2.22,0.86,2.33,2.02
					C167.18,422.45,166.13,423.58,164.82,423.58z"/>
			</g>
		</g>
		<path class="st0" d="M167.11,399.7h-18.19v-9.39c0-0.83,0.68-1.51,1.51-1.51h15.17c0.83,0,1.51,0.68,1.51,1.51V399.7z"/>
		<path class="st0" d="M182.05,413.25l-3.73,1.45l-3.81-9.79l3.73-1.45c2.7-1.05,5.75,0.29,6.8,2.99l0,0
			C186.1,409.15,184.76,412.2,182.05,413.25z"/>
	</g>
	<g>
		<path class="st0" d="M157.7,457.65c-21.27,0-38.58-17.31-38.58-38.58c0-21.27,17.31-38.58,38.58-38.58s38.58,17.31,38.58,38.58
			C196.28,440.34,178.97,457.65,157.7,457.65z M157.7,385.75c-18.37,0-33.32,14.95-33.32,33.32c0,18.37,14.95,33.32,33.32,33.32
			s33.32-14.95,33.32-33.32C191.02,400.7,176.07,385.75,157.7,385.75z"/>
	</g>
</g>
<g>
	<g>
		<path class="st0" d="M333.83,411.17v-5c0-0.85-0.69-1.53-1.53-1.53h-2.6c-0.14-0.38-0.29-0.75-0.46-1.11l1.84-1.84
			c0.6-0.6,0.6-1.57,0-2.17l-3.54-3.54c-0.6-0.6-1.57-0.6-2.17,0l-1.84,1.84c-0.36-0.17-0.73-0.33-1.11-0.46v-2.6
			c0-0.85-0.69-1.53-1.53-1.53h-5c-0.85,0-1.53,0.69-1.53,1.53v2.6c-0.38,0.14-0.75,0.29-1.11,0.46l-1.84-1.84
			c-0.6-0.6-1.57-0.6-2.17,0l-3.54,3.54c-0.6,0.6-0.6,1.57,0,2.17l1.84,1.84c-0.17,0.36-0.33,0.73-0.46,1.11h-2.6
			c-0.85,0-1.53,0.69-1.53,1.53v5c0,0.85,0.69,1.53,1.53,1.53h2.6c0.14,0.38,0.29,0.75,0.46,1.11l-1.84,1.84
			c-0.6,0.6-0.6,1.57,0,2.17l3.54,3.54c0.6,0.6,1.57,0.6,2.17,0l1.84-1.84c0.36,0.17,0.73,0.33,1.11,0.46v2.6
			c0,0.85,0.69,1.53,1.53,1.53h5c0.85,0,1.53-0.69,1.53-1.53v-2.6c0.38-0.14,0.75-0.29,1.11-0.46l1.84,1.84c0.6,0.6,1.57,0.6,2.17,0
			l3.54-3.54c0.6-0.6,0.6-1.57,0-2.17l-1.84-1.84c0.17-0.36,0.33-0.73,0.46-1.11h2.6C333.14,412.7,333.83,412.01,333.83,411.17z
			 M318.39,413.37c-2.59,0-4.7-2.11-4.7-4.7c0-2.59,2.11-4.7,4.7-4.7c2.59,0,4.7,2.11,4.7,4.7
			C323.09,411.26,320.98,413.37,318.39,413.37z"/>
		<path class="st0" d="M354.58,423.19l2.04-2.83c0.34-0.48,0.24-1.15-0.24-1.49l-1.47-1.06c0.08-0.27,0.14-0.54,0.19-0.82l1.79-0.29
			c0.58-0.1,0.98-0.64,0.88-1.23l-0.56-3.44c-0.1-0.58-0.64-0.98-1.23-0.88l-1.79,0.29c-0.13-0.24-0.28-0.48-0.44-0.71l1.06-1.47
			c0.34-0.48,0.24-1.15-0.24-1.49l-2.83-2.04c-0.48-0.34-1.15-0.24-1.49,0.24l-1.06,1.47c-0.27-0.08-0.54-0.14-0.82-0.19l-0.29-1.79
			c-0.1-0.58-0.64-0.98-1.23-0.88l-3.44,0.56c-0.58,0.1-0.98,0.64-0.88,1.23l0.29,1.79c-0.24,0.13-0.48,0.28-0.71,0.44l-1.47-1.06
			c-0.48-0.34-1.15-0.24-1.49,0.24l-2.04,2.83c-0.34,0.48-0.24,1.15,0.24,1.49l1.47,1.06c-0.08,0.27-0.14,0.54-0.19,0.82l-1.79,0.29
			c-0.58,0.1-0.98,0.64-0.88,1.23l0.56,3.44c0.1,0.58,0.64,0.98,1.23,0.88l1.79-0.29c0.13,0.24,0.28,0.48,0.44,0.71l-1.06,1.47
			c-0.34,0.48-0.24,1.15,0.24,1.49l2.83,2.04c0.48,0.34,1.15,0.24,1.49-0.24l1.06-1.47c0.27,0.08,0.54,0.14,0.82,0.19l0.29,1.79
			c0.1,0.58,0.64,0.98,1.23,0.88l3.44-0.56c0.58-0.1,0.98-0.64,0.88-1.23l-0.29-1.79c0.24-0.13,0.48-0.28,0.71-0.44l1.47,1.06
			C353.57,423.77,354.23,423.66,354.58,423.19z M344.94,418.14c-1.47-1.06-1.8-3.11-0.75-4.58c1.06-1.47,3.11-1.8,4.58-0.75
			c1.47,1.06,1.8,3.11,0.75,4.58C348.46,418.86,346.41,419.2,344.94,418.14z"/>
		<path class="st0" d="M340.28,444.2l1.88-3.51c0.32-0.59,0.09-1.33-0.5-1.65l-1.82-0.98c0.05-0.32,0.08-0.64,0.09-0.95l1.98-0.6
			c0.64-0.2,1.01-0.88,0.81-1.52l-1.15-3.81c-0.2-0.64-0.88-1.01-1.52-0.81l-1.98,0.6c-0.19-0.26-0.39-0.5-0.61-0.74l0.98-1.82
			c0.32-0.59,0.09-1.33-0.5-1.65l-3.51-1.88c-0.59-0.32-1.33-0.09-1.65,0.5l-0.98,1.82c-0.32-0.05-0.64-0.08-0.95-0.09l-0.6-1.98
			c-0.2-0.64-0.88-1.01-1.52-0.81l-3.81,1.15c-0.64,0.2-1.01,0.88-0.81,1.52l0.6,1.98c-0.26,0.19-0.5,0.39-0.74,0.61l-1.82-0.98
			c-0.59-0.32-1.33-0.09-1.65,0.5l-1.88,3.51c-0.32,0.59-0.09,1.33,0.5,1.65l1.82,0.98c-0.05,0.32-0.08,0.64-0.09,0.95l-1.98,0.6
			c-0.64,0.2-1.01,0.88-0.81,1.52l1.15,3.81c0.2,0.64,0.88,1.01,1.52,0.81l1.98-0.6c0.19,0.26,0.39,0.5,0.61,0.74l-0.98,1.82
			c-0.32,0.59-0.09,1.33,0.5,1.65l3.51,1.88c0.59,0.32,1.33,0.09,1.65-0.5l0.98-1.82c0.32,0.05,0.64,0.08,0.95,0.09l0.6,1.98
			c0.2,0.64,0.88,1.01,1.52,0.81l3.81-1.15c0.64-0.2,1.01-0.88,0.81-1.52l-0.6-1.98c0.26-0.19,0.5-0.39,0.74-0.61l1.82,0.98
			C339.23,445.02,339.96,444.8,340.28,444.2z M328.62,439.95c-1.82-0.97-2.51-3.24-1.53-5.06c0.97-1.82,3.24-2.51,5.06-1.53
			s2.51,3.24,1.53,5.06C332.71,440.24,330.44,440.92,328.62,439.95z"/>
	</g>
	<g>
		<path class="st0" d="M328.3,457.65c-21.27,0-38.58-17.31-38.58-38.58c0-21.27,17.31-38.58,38.58-38.58
			c21.27,0,38.58,17.31,38.58,38.58C366.88,440.34,349.57,457.65,328.3,457.65z M328.3,385.75c-18.37,0-33.32,14.95-33.32,33.32
			s14.95,33.32,33.32,33.32c18.37,0,33.32-14.95,33.32-33.32S346.67,385.75,328.3,385.75z"/>
	</g>
</g>
</svg>
