<?xml version="1.0" encoding="utf-8"?>
<!-- Generator: Adobe Illustrator 23.0.5, SVG Export Plug-In . SVG Version: 6.00 Build 0)  -->
<svg version="1.1" id="Layer_1" xmlns="http://www.w3.org/2000/svg" xmlns:xlink="http://www.w3.org/1999/xlink" x="0px" y="0px"
	 viewBox="0 0 500 500" style="enable-background:new 0 0 500 500;" xml:space="preserve">
<style type="text/css">
	.st0{opacity:0.5;}
	.st1{fill-rule:evenodd;clip-rule:evenodd;fill:#F2F2F2;}
	.st2{fill:#F2F2F2;}
	.st3{fill-rule:evenodd;clip-rule:evenodd;fill:#FFFFFF;}
	
		.st4{fill-rule:evenodd;clip-rule:evenodd;fill:none;stroke:#FFFFFF;stroke-width:8.3999;stroke-linecap:round;stroke-linejoin:round;stroke-miterlimit:22.9256;}
	.st5{fill:#808080;}
	.st6{fill-rule:evenodd;clip-rule:evenodd;fill:#999999;}
	.st7{fill:#FFFFFF;}
	.st8{fill-rule:evenodd;clip-rule:evenodd;fill:#E6E6E6;}
	.st9{fill-rule:evenodd;clip-rule:evenodd;fill:#B3B3B3;}
	.st10{fill:#5994CA;}
	.st11{fill-rule:evenodd;clip-rule:evenodd;fill:#808080;}
	.st12{fill-rule:evenodd;clip-rule:evenodd;fill:#CACACA;}
	.st13{fill:#CACACA;}
	.st14{fill:#B3B3B3;}
	.st15{fill:#999999;}
	.st16{fill-rule:evenodd;clip-rule:evenodd;fill:#666666;}
	.st17{fill-rule:evenodd;clip-rule:evenodd;fill:#CCCCCC;}
	
		.st18{fill-rule:evenodd;clip-rule:evenodd;fill:none;stroke:#CCCCCC;stroke-width:2.4001;stroke-linecap:round;stroke-linejoin:round;stroke-miterlimit:22.9256;stroke-dasharray:4.8002,7.2003;}
	
		.st19{fill-rule:evenodd;clip-rule:evenodd;fill:none;stroke:#FFFFFF;stroke-width:2.4001;stroke-linecap:round;stroke-linejoin:round;stroke-miterlimit:22.9256;stroke-dasharray:4.8002,7.2003;}
	.st20{fill:#666666;}
	.st21{font-family:'Calibri';}
	.st22{font-size:23.2925px;}
</style>
<g class="st0">
	<path class="st1" d="M451.1,330.5c4.94,1.01,8.64,4.78,8.64,9.23l0,0c0,4.58-3.83,9.31-9.06,9.31h-22.97c-5.59,0-9.9-4.48-9.9-9.31
		l0,0c0-4.45,3.7-8.22,8.64-9.23c0-0.09,0-0.18,0-0.27c0-5.72,5.52-10.36,12.33-10.36c6.81,0,12.33,4.64,12.33,10.36
		C451.1,330.32,451.1,330.41,451.1,330.5z"/>
	<path class="st1" d="M156.69,182.63c4.94,1.01,8.64,4.78,8.64,9.23l0,0c0,4.58-3.83,9.31-9.06,9.31H133.3
		c-5.59,0-9.9-4.48-9.9-9.31l0,0c0-4.45,3.7-8.22,8.64-9.23c0-0.09,0-0.18,0-0.27c0-5.72,5.52-10.36,12.33-10.36
		c6.81,0,12.33,4.64,12.33,10.36C156.7,182.46,156.69,182.55,156.69,182.63z"/>
	<path class="st1" d="M137.9,335.31c4.94,1.01,8.64,4.78,8.64,9.23l0,0c0,4.58-3.83,9.31-9.06,9.31h-22.97
		c-5.59,0-9.9-4.48-9.9-9.31l0,0c0-4.45,3.7-8.22,8.64-9.23c0-0.09,0-0.18,0-0.27c0-5.72,5.52-10.36,12.33-10.36
		c6.81,0,12.33,4.64,12.33,10.36C137.9,335.13,137.9,335.22,137.9,335.31z"/>
	<g>
		<rect x="367.08" y="108.48" class="st2" width="41.65" height="4.85"/>
		<path class="st2" d="M367.08,135.23h41.65v-16.92h-41.65V135.23L367.08,135.23z M402.46,126.59L402.46,126.59l3.08,3.08
			l-3.08,3.08l-3.08-3.08L402.46,126.59z"/>
	</g>
	<g>
		<rect x="90.81" y="383.4" class="st2" width="41.65" height="4.85"/>
		<path class="st2" d="M90.81,410.14h41.65v-16.92H90.81V410.14L90.81,410.14z M126.19,401.5L126.19,401.5l3.08,3.08l-3.08,3.08
			l-3.08-3.08L126.19,401.5z"/>
	</g>
	<g>
		<rect x="385.94" y="362.83" class="st2" width="41.65" height="4.85"/>
		<path class="st2" d="M385.94,389.57h41.65v-16.92h-41.65V389.57L385.94,389.57z M421.32,380.94L421.32,380.94l3.08,3.08
			l-3.08,3.08l-3.08-3.08L421.32,380.94z"/>
	</g>
	<g>
		
			<ellipse transform="matrix(0.9732 -0.2298 0.2298 0.9732 -27.395 22.7999)" class="st1" cx="84.21" cy="129.04" rx="5.66" ry="5.66"/>
		<path class="st1" d="M84.21,119.46c5.29,0,9.58,4.29,9.58,9.58h3.8c0-7.39-5.99-13.38-13.38-13.38V119.46L84.21,119.46z
			 M84.21,111.68v-3.71c11.64,0,21.07,9.43,21.07,21.07h-3.71C101.58,119.45,93.8,111.68,84.21,111.68z"/>
	</g>
	<g>
		<path class="st1" d="M359.37,333.01c3.12,0,5.66-2.54,5.66-5.66c0-3.12-2.54-5.66-5.66-5.66c-3.12,0-5.66,2.54-5.66,5.66
			C353.71,330.47,356.25,333.01,359.37,333.01z"/>
		<path class="st1" d="M359.37,317.77c5.29,0,9.58,4.29,9.58,9.58h3.8c0-7.39-5.99-13.38-13.38-13.38V317.77L359.37,317.77z
			 M359.37,309.99v-3.71c11.64,0,21.07,9.43,21.07,21.07h-3.71C376.74,317.76,368.96,309.99,359.37,309.99z"/>
	</g>
	<g>
		<path class="st1" d="M234.39,437.03c3.12,0,5.66-2.54,5.66-5.66c0-3.12-2.54-5.66-5.66-5.66c-3.12,0-5.66,2.54-5.66,5.66
			C228.73,434.49,231.27,437.03,234.39,437.03z"/>
		<path class="st1" d="M234.39,421.79c5.29,0,9.58,4.29,9.58,9.58h3.8c0-7.39-5.99-13.38-13.38-13.38V421.79L234.39,421.79z
			 M234.39,414.01v-3.71c11.64,0,21.07,9.43,21.07,21.07h-3.71C251.75,421.78,243.98,414.01,234.39,414.01z"/>
	</g>
	<g>
		<polygon class="st2" points="357.47,213.09 357.24,217.76 370.98,217.76 370.75,213.09 		"/>
		<path class="st2" d="M370.7,211.9h12.76v-24.07h-38.69v24.07h12.76H370.7L370.7,211.9z M348.27,208.93L348.27,208.93v-18.12h31.67
			v18.12h-9.4h-12.88H348.27z"/>
		<polygon class="st2" points="354.58,218.94 354.58,220.83 373.64,220.83 373.64,218.94 371.04,218.94 357.18,218.94 		"/>
	</g>
	<g>
		<polygon class="st2" points="71.43,187.88 71.21,192.55 84.94,192.55 84.72,187.88 		"/>
		<path class="st2" d="M84.66,186.7h12.76v-24.07H58.73v24.07h12.76H84.66L84.66,186.7z M62.24,183.72L62.24,183.72V165.6h31.67
			v18.12h-9.4H71.63H62.24z"/>
		<polygon class="st2" points="68.54,193.73 68.54,195.62 87.61,195.62 87.61,193.73 85,193.73 71.15,193.73 		"/>
	</g>
	<g>
		<polygon class="st2" points="256.98,131.45 242.2,146.48 235.68,139.91 231.85,143.74 236.93,148.82 242.2,154.09 247.47,148.82 
			260.91,135.38 		"/>
	</g>
	<g>
		<polygon class="st2" points="90.56,360.62 75.77,375.65 69.26,369.08 65.42,372.91 70.5,377.99 75.77,383.26 81.05,377.99 
			94.49,364.55 		"/>
	</g>
	<g>
		<path class="st2" d="M79.32,340.24l-4.99-4.99c-0.46-0.46-0.83-0.83-0.83-0.85c0-0.01-2.02-3.8-4.97-5.74
			c-2.95-1.94-2.12-3.36-2.12-4.93c0-1.32-1.64-1.66-2.76-0.19c-0.39,0.51-0.78,1.51-0.85,2.15c-0.23,1.95,1.04,3.1,1.51,3.8
			c0.32,0.47,0.5,1.36,0.17,2.45h-7.56c-1.5,0-2.3,1.15-1.8,2.56l3.85,10.68c0.22,0.6,0.92,1.1,1.56,1.1h9.08
			c0.64,0,1.54,0.37,1.99,0.83l0.42,0.42c0.46,0.46,1.19,0.46,1.65,0l5.63-5.63C79.78,341.43,79.78,340.69,79.32,340.24z"/>
		
			<rect x="73.25" y="345.19" transform="matrix(0.707 -0.7072 0.7072 0.707 -222.0314 156.5824)" class="st2" width="9.44" height="2.16"/>
	</g>
	<g>
		<path class="st2" d="M457.25,188.03l-4.99-4.99c-0.46-0.46-0.83-0.83-0.83-0.85c0-0.01-2.02-3.8-4.97-5.74
			c-2.95-1.94-2.12-3.36-2.12-4.93c0-1.32-1.64-1.66-2.76-0.19c-0.39,0.51-0.78,1.51-0.85,2.15c-0.23,1.95,1.04,3.1,1.51,3.8
			c0.32,0.47,0.5,1.36,0.17,2.45h-7.56c-1.5,0-2.3,1.15-1.8,2.56l3.85,10.68c0.22,0.6,0.92,1.1,1.56,1.1h9.08
			c0.64,0,1.54,0.37,1.99,0.83l0.42,0.42c0.46,0.46,1.19,0.46,1.65,0l5.63-5.63C457.7,189.22,457.7,188.48,457.25,188.03z"/>
		
			<rect x="451.17" y="192.98" transform="matrix(0.707 -0.7072 0.7072 0.707 -3.6714 379.2604)" class="st2" width="9.44" height="2.16"/>
	</g>
	<g>
		
			<rect x="215.92" y="53.95" transform="matrix(0.6917 -0.7222 0.7222 0.6917 19.4276 178.5142)" class="st1" width="5.77" height="25.1"/>
		
			<rect x="217.05" y="55.08" transform="matrix(0.6917 -0.7222 0.7222 0.6917 19.4297 178.5178)" class="st1" width="3.52" height="22.84"/>
		<path class="st1" d="M206.38,49.55c2.27-0.6,4.8-0.04,6.62,1.71c2.79,2.67,2.88,7.09,0.21,9.88c-2.67,2.79-7.09,2.88-9.88,0.21
			c-1.82-1.75-2.49-4.24-1.99-6.54l2.85,2.73l1.52,1.45l2.02-0.59l2.02-0.59l0.5-2.04l0.5-2.04l-1.52-1.45L206.38,49.55z"/>
		<path class="st1" d="M236.28,78.19c0.5-2.3-0.17-4.79-1.99-6.54c-2.79-2.67-7.21-2.57-9.88,0.21c-2.67,2.79-2.57,7.21,0.21,9.88
			c1.82,1.75,4.35,2.31,6.62,1.71l-2.85-2.73l-1.52-1.45l0.5-2.04l0.5-2.04l2.02-0.59l2.02-0.59l1.52,1.45L236.28,78.19z"/>
		<path class="st1" d="M235.22,75.61c-0.22-1.18-0.81-2.29-1.71-3.15c-2.34-2.24-6.05-2.16-8.29,0.18
			c-2.24,2.34-2.16,6.05,0.18,8.29c0.9,0.86,2.03,1.4,3.22,1.57l-3-2.87l1.31-5.35l5.29-1.54L235.22,75.61z"/>
		<path class="st1" d="M202.36,57.35c0.22,1.18,0.81,2.29,1.71,3.15c2.34,2.24,6.05,2.16,8.29-0.18c2.24-2.34,2.16-6.05-0.18-8.29
			c-0.9-0.86-2.03-1.4-3.22-1.57l3,2.87l-1.31,5.35l-5.29,1.54L202.36,57.35z"/>
	</g>
	<g>
		
			<rect x="338.15" y="329.96" transform="matrix(0.6917 -0.7222 0.7222 0.6917 -142.2119 351.8655)" class="st1" width="5.77" height="25.1"/>
		
			<rect x="339.28" y="331.08" transform="matrix(0.6917 -0.7222 0.7222 0.6917 -142.2117 351.8736)" class="st1" width="3.52" height="22.85"/>
		<path class="st1" d="M328.6,325.55c2.27-0.6,4.8-0.04,6.62,1.71c2.79,2.67,2.88,7.09,0.21,9.88c-2.67,2.79-7.09,2.88-9.88,0.21
			c-1.82-1.75-2.49-4.24-1.99-6.54l2.85,2.73l1.52,1.45l2.02-0.59l2.02-0.59l0.5-2.04l0.5-2.04l-1.52-1.45L328.6,325.55z"/>
		<path class="st1" d="M358.51,354.2c0.5-2.3-0.17-4.79-1.99-6.54c-2.79-2.67-7.21-2.57-9.88,0.21c-2.67,2.79-2.57,7.21,0.21,9.88
			c1.82,1.75,4.35,2.31,6.62,1.71l-2.85-2.73l-1.52-1.45l0.5-2.04l0.5-2.04l2.02-0.59l2.02-0.59l1.52,1.45L358.51,354.2z"/>
		<path class="st1" d="M357.44,351.62c-0.22-1.18-0.81-2.29-1.71-3.15c-2.34-2.24-6.05-2.16-8.29,0.18
			c-2.24,2.34-2.16,6.05,0.18,8.29c0.9,0.86,2.03,1.4,3.22,1.57l-3-2.87l1.31-5.35l5.29-1.54L357.44,351.62z"/>
		<path class="st1" d="M324.59,333.36c0.22,1.18,0.81,2.29,1.71,3.15c2.34,2.24,6.05,2.16,8.29-0.18c2.24-2.34,2.16-6.05-0.18-8.29
			c-0.9-0.86-2.03-1.4-3.22-1.57l3,2.87l-1.31,5.35l-5.29,1.54L324.59,333.36z"/>
	</g>
	<g>
		
			<rect x="147.87" y="294" transform="matrix(0.6917 -0.7222 0.7222 0.6917 -174.9015 203.3651)" class="st1" width="5.77" height="25.1"/>
		
			<rect x="148.99" y="295.12" transform="matrix(0.6917 -0.7222 0.7222 0.6917 -174.9026 203.3686)" class="st1" width="3.52" height="22.85"/>
		<path class="st1" d="M138.32,289.59c2.27-0.6,4.8-0.04,6.62,1.71c2.79,2.67,2.88,7.09,0.21,9.88c-2.67,2.79-7.09,2.88-9.88,0.21
			c-1.82-1.75-2.49-4.24-1.99-6.54l2.85,2.73l1.52,1.45l2.02-0.59l2.02-0.59l0.5-2.04l0.5-2.04l-1.52-1.45L138.32,289.59z"/>
		<path class="st1" d="M168.22,318.24c0.5-2.3-0.17-4.79-1.99-6.54c-2.79-2.67-7.21-2.57-9.88,0.21c-2.67,2.79-2.57,7.21,0.21,9.88
			c1.82,1.75,4.35,2.31,6.62,1.71l-2.85-2.73l-1.52-1.45l0.5-2.04l0.5-2.04l2.02-0.59l2.02-0.59l1.52,1.45L168.22,318.24z"/>
		<path class="st1" d="M167.16,315.66c-0.22-1.18-0.81-2.29-1.71-3.15c-2.34-2.24-6.05-2.16-8.29,0.18
			c-2.24,2.34-2.16,6.05,0.18,8.29c0.9,0.86,2.03,1.4,3.22,1.57l-3-2.87l1.31-5.35l5.29-1.54L167.16,315.66z"/>
		<path class="st1" d="M134.3,297.39c0.22,1.18,0.81,2.29,1.71,3.15c2.34,2.24,6.05,2.16,8.29-0.18c2.24-2.34,2.16-6.05-0.18-8.29
			c-0.9-0.86-2.03-1.4-3.22-1.57l3,2.87l-1.31,5.35l-5.29,1.54L134.3,297.39z"/>
	</g>
	<g>
		<path class="st2" d="M130.18,87.27v0.69h-15.01v33.74h21.43V87.96h-2.3v-0.69H130.18L130.18,87.27z M121.59,119.45L121.59,119.45
			h-4.12v-2.75h4.12V119.45L121.59,119.45z M121.59,114.72L121.59,114.72h-4.12v-2.75h4.12V114.72L121.59,114.72z M127.95,119.45
			L127.95,119.45h-4.12v-2.75h4.12V119.45L127.95,119.45z M127.95,114.72L127.95,114.72h-4.12v-2.75h4.12V114.72L127.95,114.72z
			 M134.3,119.45L134.3,119.45h-4.12v-2.75h4.12V119.45L134.3,119.45z M134.3,114.72L134.3,114.72h-4.12v-2.75h4.12V114.72
			L134.3,114.72z M134.3,109.55L134.3,109.55h-16.84V90.11h16.84V109.55z"/>
	</g>
	<g>
		<path class="st2" d="M380.25,399.1v0.69h-15.01v33.74h21.43v-33.74h-2.3v-0.69H380.25L380.25,399.1z M371.66,431.27L371.66,431.27
			h-4.12v-2.75h4.12V431.27L371.66,431.27z M371.66,426.55L371.66,426.55h-4.12v-2.75h4.12V426.55L371.66,426.55z M378.01,431.27
			L378.01,431.27h-4.12v-2.75h4.12V431.27L378.01,431.27z M378.01,426.55L378.01,426.55h-4.12v-2.75h4.12V426.55L378.01,426.55z
			 M384.37,431.27L384.37,431.27h-4.12v-2.75h4.12V431.27L384.37,431.27z M384.37,426.55L384.37,426.55h-4.12v-2.75h4.12V426.55
			L384.37,426.55z M384.37,421.38L384.37,421.38h-16.84v-19.44h16.84V421.38z"/>
	</g>
	<g>
		<path class="st2" d="M412.56,154.69v0.69h-15.01v33.74h21.43v-33.74h-2.3v-0.69H412.56L412.56,154.69z M403.97,186.87
			L403.97,186.87h-4.12v-2.75h4.12V186.87L403.97,186.87z M403.97,182.14L403.97,182.14h-4.12v-2.75h4.12V182.14L403.97,182.14z
			 M410.33,186.87L410.33,186.87h-4.12v-2.75h4.12V186.87L410.33,186.87z M410.33,182.14L410.33,182.14h-4.12v-2.75h4.12V182.14
			L410.33,182.14z M416.68,186.87L416.68,186.87h-4.12v-2.75h4.12V186.87L416.68,186.87z M416.68,182.14L416.68,182.14h-4.12v-2.75
			h4.12V182.14L416.68,182.14z M416.68,176.97L416.68,176.97h-16.84v-19.44h16.84V176.97z"/>
	</g>
	<g>
		<polygon class="st2" points="283.55,439.37 268.76,454.41 262.25,447.83 258.41,451.67 263.49,456.74 268.76,462.02 
			274.03,456.74 287.48,443.3 		"/>
	</g>
	<g>
		<path class="st1" d="M264.58,65.72c3.12,0,5.66-2.54,5.66-5.66c0-3.12-2.54-5.66-5.66-5.66c-3.12,0-5.66,2.54-5.66,5.66
			C258.92,63.18,261.47,65.72,264.58,65.72z"/>
		<path class="st1" d="M264.58,50.48c5.29,0,9.58,4.29,9.58,9.58h3.8c0-7.39-5.99-13.38-13.38-13.38V50.48L264.58,50.48z
			 M264.58,42.7v-3.71c11.64,0,21.07,9.43,21.07,21.07h-3.71C281.95,50.47,274.17,42.7,264.58,42.7z"/>
	</g>
	<g>
		<polygon class="st2" points="256.77,394.21 256.54,398.88 270.28,398.88 270.05,394.21 		"/>
		<path class="st2" d="M270,393.03h12.76v-24.07h-38.69v24.07h12.76H270L270,393.03z M247.57,390.06L247.57,390.06v-18.12h31.67
			v18.12h-9.4h-12.88H247.57z"/>
		<polygon class="st2" points="253.88,400.07 253.88,401.96 272.94,401.96 272.94,400.07 270.34,400.07 256.49,400.07 		"/>
	</g>
	<g>
		<path class="st2" d="M266.44,108.71l-4.99-4.99c-0.46-0.46-0.83-0.83-0.83-0.85c0-0.01-2.02-3.8-4.97-5.74
			c-2.95-1.94-2.12-3.36-2.12-4.93c0-1.32-1.64-1.66-2.76-0.19c-0.39,0.51-0.78,1.51-0.85,2.15c-0.23,1.95,1.04,3.1,1.51,3.8
			c0.32,0.47,0.5,1.36,0.17,2.45h-7.56c-1.5,0-2.3,1.15-1.8,2.56l3.85,10.68c0.22,0.6,0.92,1.1,1.56,1.1h9.08
			c0.64,0,1.54,0.37,1.99,0.83l0.42,0.42c0.46,0.46,1.19,0.46,1.65,0l5.63-5.63C266.89,109.9,266.89,109.16,266.44,108.71z"/>
		
			<rect x="260.36" y="113.66" transform="matrix(0.707 -0.7072 0.7072 0.707 -3.4757 221.0875)" class="st2" width="9.44" height="2.16"/>
	</g>
</g>
<ellipse transform="matrix(0.1768 -0.9842 0.9842 0.1768 -48.0043 458.5841)" class="st3" cx="250.15" cy="257.99" rx="78.73" ry="78.73"/>
<ellipse transform="matrix(0.073 -0.9973 0.9973 0.073 -25.4135 488.6386)" class="st3" cx="250.15" cy="257.99" rx="73.55" ry="73.55"/>
<path class="st4" d="M184.72,201.9c12.95-15.1,30.72-25.26,50.3-28.75 M234.29,342.7c-19.55-3.66-37.23-13.97-50.05-29.18
	 M168.86,286.61c-6.61-18.76-6.52-39.23,0.25-57.94 M315.58,201.9c-12.95-15.1-30.72-25.26-50.3-28.75 M266.01,342.7
	c19.55-3.66,37.23-13.97,50.05-29.18 M331.44,286.61c6.61-18.76,6.52-39.23-0.25-57.94"/>
<line class="st4" x1="207.38" y1="183.17" x2="189.3" y2="151.56"/>
<line class="st4" x1="293.5" y1="183.51" x2="311.83" y2="152.04"/>
<line class="st4" x1="336.27" y1="258.26" x2="372.69" y2="258.4"/>
<line class="st4" x1="292.92" y1="332.67" x2="311" y2="364.28"/>
<line class="st4" x1="206.8" y1="332.34" x2="188.47" y2="363.8"/>
<line class="st4" x1="164.03" y1="257.59" x2="127.61" y2="257.45"/>
<path class="st3" d="M172.24,410.15c9.26,0,16.76,7.5,16.76,16.76c0,6.03-3.19,11.32-7.97,14.27L179.26,455h-14.04l-1.77-13.82
	c-4.78-2.95-7.97-8.24-7.97-14.27C155.47,417.66,162.98,410.15,172.24,410.15z"/>
<path class="st5" d="M170.9,447.28c0,0.33-0.27,0.6-0.6,0.6c-0.33,0-0.6-0.27-0.6-0.6v-13.19l-4.41-6.25
	c-0.19-0.27-0.13-0.64,0.15-0.84c0.08-0.06,0.17-0.09,0.26-0.1c0.5-0.07,0.92-0.23,1.27-0.44c-0.17-0.27-0.3-0.55-0.41-0.85
	c-0.14-0.41-0.23-0.84-0.25-1.25c-0.02-0.41,0.01-0.81,0.1-1.17c0.22-0.87,0.75-1.48,1.52-1.48c0.66,0,1.14,0.41,1.4,1.05
	c0.15,0.35,0.22,0.78,0.22,1.24c-0.01,0.44-0.09,0.92-0.26,1.38c-0.14,0.39-0.35,0.78-0.62,1.13c0.37,0.24,0.83,0.38,1.4,0.38
	c0.51,0,0.93-0.11,1.27-0.31c-0.21-0.3-0.37-0.64-0.5-0.98c-0.14-0.41-0.23-0.84-0.25-1.25c-0.02-0.41,0.01-0.81,0.1-1.17
	c0.22-0.87,0.75-1.48,1.52-1.48c0.78,0,1.31,0.61,1.52,1.48c0.09,0.35,0.12,0.75,0.1,1.17c-0.02,0.41-0.1,0.84-0.25,1.25
	c-0.12,0.34-0.28,0.67-0.5,0.98c0.35,0.19,0.77,0.31,1.27,0.31c0.57,0,1.04-0.15,1.4-0.38c-0.27-0.35-0.47-0.74-0.62-1.13
	c-0.17-0.46-0.25-0.94-0.26-1.38c-0.01-0.46,0.07-0.89,0.22-1.24c0.27-0.64,0.75-1.05,1.4-1.05c0.78,0,1.31,0.61,1.52,1.48
	c0.09,0.35,0.12,0.75,0.1,1.17c-0.02,0.41-0.1,0.84-0.25,1.25c-0.1,0.29-0.24,0.58-0.41,0.85c0.35,0.21,0.77,0.37,1.27,0.44
	c0.33,0.05,0.56,0.35,0.51,0.68c-0.01,0.1-0.05,0.19-0.11,0.27l-4.4,6.24v13.19c0,0.33-0.27,0.6-0.6,0.6c-0.33,0-0.6-0.27-0.6-0.6
	V433.9h0c0-0.12,0.04-0.24,0.11-0.34l4.01-5.69c-0.38-0.13-0.71-0.3-1-0.51c-0.58,0.45-1.33,0.73-2.3,0.73
	c-0.89,0-1.6-0.24-2.15-0.62c-0.56,0.38-1.27,0.62-2.15,0.62c-0.97,0-1.73-0.28-2.3-0.73c-0.29,0.2-0.63,0.37-1,0.51l3.99,5.66
	c0.08,0.1,0.13,0.23,0.13,0.37V447.28L170.9,447.28z M167.86,425.59c0.13-0.2,0.24-0.41,0.31-0.62c0.12-0.34,0.18-0.68,0.19-0.99
	c0-0.29-0.04-0.56-0.13-0.77c-0.08-0.18-0.18-0.3-0.3-0.3c-0.15,0-0.28,0.23-0.36,0.57c-0.06,0.24-0.08,0.52-0.07,0.81
	c0.02,0.3,0.08,0.61,0.18,0.91C167.73,425.34,167.79,425.47,167.86,425.59L167.86,425.59z M172.24,425.73
	c0.1-0.17,0.18-0.34,0.24-0.52c0.11-0.3,0.17-0.62,0.18-0.91c0.02-0.3-0.01-0.57-0.07-0.81c-0.08-0.33-0.21-0.57-0.36-0.57
	c-0.15,0-0.28,0.23-0.36,0.57c-0.06,0.24-0.08,0.52-0.07,0.81c0.02,0.3,0.08,0.61,0.18,0.91
	C172.06,425.39,172.14,425.56,172.24,425.73L172.24,425.73z M176.61,425.59c0.07-0.12,0.12-0.25,0.17-0.38
	c0.11-0.3,0.17-0.62,0.18-0.91c0.02-0.3-0.01-0.57-0.07-0.81c-0.08-0.33-0.21-0.57-0.36-0.57c-0.12,0-0.22,0.12-0.3,0.3
	c-0.09,0.21-0.13,0.47-0.13,0.77c0,0.31,0.06,0.65,0.19,0.99C176.38,425.18,176.48,425.39,176.61,425.59z"/>
<path class="st6" d="M162.72,446.56h19.03l-0.95,8.86c-0.17,1.6-0.23,2.36-2.36,2.36h-12.4c-2.13,0-2.19-0.76-2.36-2.36
	L162.72,446.56z"/>
<g>
	<path class="st7" d="M182.44,396.08c0.16-0.43,0.63-0.66,1.07-0.5c0.43,0.16,0.66,0.63,0.5,1.07l-3.67,10.1
		c-0.16,0.43-0.63,0.66-1.07,0.5c-0.43-0.16-0.66-0.63-0.5-1.07L182.44,396.08z"/>
	<path class="st7" d="M192.25,401.4c0.3-0.35,0.82-0.4,1.17-0.1c0.35,0.3,0.4,0.82,0.1,1.17l-6.91,8.23c-0.3,0.35-0.82,0.4-1.17,0.1
		c-0.35-0.29-0.4-0.82-0.1-1.17L192.25,401.4z"/>
	<path class="st7" d="M199.64,409.76c0.4-0.23,0.91-0.09,1.14,0.3c0.23,0.4,0.09,0.91-0.3,1.14l-9.3,5.37
		c-0.4,0.23-0.91,0.09-1.14-0.3c-0.23-0.4-0.09-0.91,0.3-1.14L199.64,409.76z"/>
	<path class="st7" d="M203.74,420.14c0.45-0.08,0.89,0.22,0.96,0.68c0.08,0.45-0.22,0.89-0.68,0.96l-10.58,1.87
		c-0.45,0.08-0.89-0.22-0.96-0.68c-0.08-0.45,0.22-0.89,0.68-0.97L203.74,420.14z"/>
	<path class="st7" d="M171.4,394.43c0-0.46,0.37-0.83,0.83-0.83c0.46,0,0.83,0.37,0.83,0.83v10.74c0,0.46-0.37,0.83-0.83,0.83
		c-0.46,0-0.83-0.37-0.83-0.83V394.43z"/>
	<path class="st7" d="M160.47,396.65c-0.16-0.43,0.07-0.91,0.5-1.07c0.43-0.16,0.91,0.07,1.07,0.5l3.67,10.1
		c0.16,0.43-0.07,0.91-0.5,1.07c-0.43,0.16-0.91-0.07-1.07-0.5L160.47,396.65z"/>
	<path class="st7" d="M150.94,402.47c-0.29-0.35-0.25-0.88,0.1-1.17c0.35-0.3,0.88-0.25,1.17,0.1l6.91,8.23
		c0.3,0.35,0.25,0.88-0.1,1.17c-0.35,0.3-0.88,0.25-1.17-0.1L150.94,402.47z"/>
	<path class="st7" d="M143.99,411.2c-0.4-0.23-0.53-0.74-0.3-1.14c0.23-0.4,0.74-0.53,1.14-0.3l9.3,5.37
		c0.4,0.23,0.53,0.74,0.3,1.14c-0.23,0.4-0.74,0.53-1.14,0.3L143.99,411.2z"/>
	<path class="st7" d="M140.45,421.79c-0.45-0.08-0.76-0.51-0.68-0.96c0.08-0.45,0.51-0.76,0.96-0.68l10.58,1.87
		c0.45,0.08,0.76,0.51,0.68,0.97c-0.08,0.45-0.51,0.76-0.96,0.68L140.45,421.79z"/>
</g>
<rect x="153.72" y="104.05" transform="matrix(0.7844 -0.6203 0.6203 0.7844 -29.5165 125.6586)" class="st7" width="24.52" height="2.46"/>
<rect x="183.98" y="93.02" transform="matrix(0.6203 -0.7844 0.7844 0.6203 -12.2579 185.2439)" class="st7" width="2.46" height="24.52"/>
<rect x="174.36" y="73.16" class="st7" width="2.47" height="24.52"/>
<path class="st8" d="M179.19,76.54c3.27,1.1,5.77,3.66,6.56,6.82h-20.32c0.79-3.16,3.29-5.72,6.56-6.82
	c-1.53-1.37-2.53-3.59-2.53-6.1c0-4.16,2.74-7.53,6.12-7.53c3.38,0,6.12,3.37,6.12,7.53C181.71,72.95,180.72,75.17,179.19,76.54z"/>
<path class="st3" d="M159.69,112.23c3.27,1.1,5.77,3.66,6.56,6.82h-20.32c0.79-3.16,3.29-5.72,6.56-6.82
	c-1.53-1.37-2.53-3.59-2.53-6.1c0-4.16,2.74-7.53,6.12-7.53c3.38,0,6.12,3.37,6.12,7.53C162.22,108.64,161.22,110.86,159.69,112.23z
	"/>
<path class="st9" d="M198.68,112.23c3.27,1.1,5.77,3.66,6.56,6.82h-20.32c0.79-3.16,3.29-5.72,6.56-6.82
	c-1.53-1.37-2.53-3.59-2.53-6.1c0-4.16,2.74-7.53,6.12-7.53c3.38,0,6.12,3.37,6.12,7.53C201.21,108.64,200.21,110.86,198.68,112.23z
	"/>
<path class="st3" d="M175.59,91.4c3.47,0,6.28,2.81,6.28,6.28c0,3.47-2.81,6.28-6.28,6.28c-3.47,0-6.28-2.81-6.28-6.28
	C169.31,94.21,172.13,91.4,175.59,91.4z"/>
<path class="st7" d="M453.26,231.01c-7.13-10.89-21.75-13.93-32.64-6.79c-10.89,7.14-13.93,21.76-6.79,32.65
	c7.14,10.89,21.76,13.93,32.65,6.79C457.36,256.52,460.4,241.9,453.26,231.01L453.26,231.01z M417.5,254.45L417.5,254.45
	c-5.81-8.85-3.33-20.75,5.53-26.56c8.86-5.81,20.75-3.33,26.56,5.52c5.81,8.86,3.33,20.75-5.52,26.56
	C435.2,265.79,423.31,263.31,417.5,254.45z"/>
<rect x="394.89" y="258.57" transform="matrix(0.8365 -0.548 0.548 0.8365 -76.9931 265.5149)" class="st7" width="22.94" height="6.37"/>
<rect x="396.12" y="259.95" transform="matrix(0.8365 -0.548 0.548 0.8365 -78.2694 264.4065)" class="st10" width="15.54" height="6.79"/>
<path class="st7" d="M390.53,278.6c-2.51,1.65-5.87,0.94-7.52-1.56c-1.64-2.5-0.94-5.87,1.57-7.51l19.29-12.65
	c1.43-0.94,3.14-1.11,4.66-0.62l3.72,5.67c-0.15,1.58-0.99,3.09-2.43,4.02L390.53,278.6z"/>
<path class="st3" d="M448.15,231.49c-3.58,7.61-11.33,12.85-20.29,12.78c-4.9-0.04-9.41-1.66-13.06-4.37
	c1.02-4.76,3.85-9.13,8.24-12.01C431.21,222.53,441.97,224.23,448.15,231.49z"/>
<path class="st7" d="M390.33,278.37c-2.35,1.55-5.52,0.89-7.06-1.47c-1.54-2.35-0.89-5.51,1.47-7.06l18.12-11.88
	c2.35-1.54,5.51-0.89,7.06,1.47c1.54,2.36,0.89,5.52-1.47,7.06L390.33,278.37z"/>
<g>
	
		<rect x="309.71" y="401.1" transform="matrix(0.956 -0.2934 0.2934 0.956 -111.1517 115.2388)" class="st11" width="37.61" height="53.96"/>
	<polygon class="st11" points="314.95,407.26 328.3,403.16 328.62,404.64 315.26,408.74 	"/>
	<path class="st11" d="M313.23,405.33l4.72-1.45l-2.3-7.5c-0.43-1.41,0.37-2.92,1.78-3.36v0c1.41-0.43,2.92,0.37,3.36,1.78l2.3,7.5
		l4.72-1.45c0.81-0.25,1.67,0.21,1.92,1.02l1.06,3.46l-17.51,5.37l-1.06-3.46C311.97,406.44,312.43,405.58,313.23,405.33
		L313.23,405.33z M317.86,394.42c-0.65,0.2-1.02,0.89-0.82,1.54c0.2,0.65,0.89,1.02,1.54,0.82c0.65-0.2,1.02-0.89,0.82-1.54
		C319.2,394.58,318.51,394.22,317.86,394.42z"/>
</g>
<rect x="311.65" y="404.72" transform="matrix(0.956 -0.2934 0.2934 0.956 -111.3902 115.3521)" class="st3" width="34.25" height="48.44"/>
<g>
	
		<rect x="319.27" y="413" transform="matrix(0.956 -0.2934 0.2934 0.956 -106.9057 114.2963)" class="st12" width="16.45" height="0.92"/>
	
		<rect x="319.74" y="414.54" transform="matrix(0.956 -0.2934 0.2934 0.956 -107.3404 114.5065)" class="st12" width="16.45" height="0.92"/>
	
		<rect x="320.41" y="417.37" transform="matrix(0.956 -0.2935 0.2935 0.956 -108.3375 113.5501)" class="st12" width="7.71" height="0.92"/>
</g>
<path class="st13" d="M313.77,417.19l3.41-1.05l0.28-0.09l0.09,0.28l1.05,3.41l0.09,0.28l-0.28,0.09l-3.41,1.05l-0.28,0.09
	l-0.09-0.28l-1.05-3.41l-0.09-0.28L313.77,417.19L313.77,417.19z M317.07,416.79l-2.85,0.88l0.88,2.85l2.85-0.88L317.07,416.79z"/>
<path class="st14" d="M316.9,413.64c0.18-0.2,0.49-0.22,0.69-0.05c0.2,0.18,0.22,0.49,0.05,0.69c-0.28,0.32-0.73,1.3-0.98,2.37
	c-0.17,0.74-0.24,1.5-0.07,2.07c0.08,0.26-0.07,0.53-0.32,0.61c-0.22,0.07-0.46-0.03-0.57-0.23c-0.88-1.3-1.3-1.66-1.89-2.16
	c-0.28-0.24-0.6-0.51-1.01-0.91c-0.19-0.19-0.19-0.5,0-0.69c0.19-0.19,0.5-0.19,0.69,0c0.39,0.39,0.69,0.64,0.96,0.87
	c0.39,0.33,0.71,0.6,1.11,1.08c0.03-0.28,0.09-0.57,0.15-0.85C315.99,415.21,316.55,414.04,316.9,413.64z"/>
<g>
	
		<rect x="322.17" y="422.45" transform="matrix(0.956 -0.2934 0.2934 0.956 -109.5538 115.5668)" class="st12" width="16.45" height="0.92"/>
	
		<rect x="322.64" y="424" transform="matrix(0.956 -0.2934 0.2934 0.956 -109.9877 115.7758)" class="st12" width="16.45" height="0.92"/>
	
		<rect x="323.31" y="426.82" transform="matrix(0.956 -0.2935 0.2935 0.956 -110.9858 114.8207)" class="st12" width="7.71" height="0.92"/>
</g>
<path class="st13" d="M316.67,426.64l3.41-1.05l0.28-0.09l0.09,0.28l1.05,3.41l0.09,0.28l-0.28,0.09l-3.41,1.05l-0.28,0.09
	l-0.09-0.28l-1.05-3.41l-0.09-0.28L316.67,426.64L316.67,426.64z M319.98,426.24l-2.85,0.88l0.88,2.85l2.85-0.88L319.98,426.24z"/>
<path class="st14" d="M319.8,423.09c0.18-0.2,0.49-0.22,0.69-0.05c0.2,0.18,0.22,0.49,0.05,0.69c-0.28,0.32-0.73,1.3-0.98,2.37
	c-0.17,0.74-0.24,1.5-0.07,2.07c0.08,0.26-0.07,0.53-0.32,0.61c-0.22,0.07-0.46-0.03-0.57-0.23c-0.89-1.3-1.3-1.66-1.89-2.16
	c-0.28-0.24-0.6-0.51-1.01-0.91c-0.19-0.19-0.19-0.5,0-0.69c0.19-0.19,0.5-0.19,0.69,0c0.39,0.39,0.69,0.64,0.96,0.87
	c0.39,0.33,0.71,0.61,1.11,1.08c0.03-0.28,0.09-0.57,0.15-0.85C318.89,424.66,319.45,423.5,319.8,423.09z"/>
<g>
	
		<rect x="325.07" y="431.9" transform="matrix(0.956 -0.2934 0.2934 0.956 -112.2011 116.8361)" class="st12" width="16.45" height="0.92"/>
	
		<rect x="325.54" y="433.45" transform="matrix(0.956 -0.2934 0.2934 0.956 -112.6327 117.0417)" class="st12" width="16.45" height="0.92"/>
	
		<rect x="326.21" y="436.28" transform="matrix(0.956 -0.2934 0.2934 0.956 -113.6207 116.0725)" class="st12" width="7.71" height="0.92"/>
</g>
<path class="st13" d="M319.57,436.09l3.41-1.05l0.28-0.09l0.09,0.28l1.05,3.41l0.09,0.28l-0.28,0.09l-3.41,1.05l-0.28,0.09
	l-0.09-0.28l-1.05-3.41l-0.09-0.28L319.57,436.09L319.57,436.09z M322.88,435.69l-2.85,0.88l0.88,2.85l2.85-0.88L322.88,435.69z"/>
<path class="st14" d="M322.7,432.54c0.18-0.2,0.49-0.22,0.69-0.05c0.2,0.18,0.22,0.49,0.05,0.69c-0.28,0.32-0.73,1.3-0.98,2.37
	c-0.17,0.74-0.24,1.5-0.07,2.07c0.08,0.26-0.07,0.53-0.32,0.61c-0.22,0.07-0.46-0.03-0.57-0.23c-0.89-1.3-1.3-1.66-1.89-2.16
	c-0.28-0.24-0.6-0.51-1.01-0.91c-0.19-0.19-0.19-0.5,0-0.69c0.19-0.19,0.5-0.19,0.69,0c0.39,0.39,0.69,0.64,0.96,0.87
	c0.39,0.33,0.71,0.6,1.11,1.08c0.03-0.28,0.09-0.57,0.15-0.85C321.79,434.12,322.35,432.95,322.7,432.54z"/>
<g>
	
		<rect x="327.97" y="441.36" transform="matrix(0.956 -0.2934 0.2934 0.956 -114.8461 118.1019)" class="st12" width="16.45" height="0.92"/>
	
		<rect x="328.44" y="442.9" transform="matrix(0.956 -0.2934 0.2934 0.956 -115.2778 118.3078)" class="st12" width="16.45" height="0.92"/>
	
		<rect x="329.11" y="445.73" transform="matrix(0.956 -0.2935 0.2935 0.956 -116.276 117.3527)" class="st12" width="7.71" height="0.92"/>
</g>
<path class="st13" d="M322.47,445.55l3.41-1.05l0.28-0.09l0.09,0.28l1.05,3.41l0.09,0.28l-0.28,0.09l-3.41,1.05l-0.28,0.09
	l-0.09-0.28l-1.05-3.41l-0.09-0.28L322.47,445.55L322.47,445.55z M325.78,445.14l-2.85,0.88l0.88,2.85l2.85-0.88L325.78,445.14z"/>
<path class="st14" d="M325.61,442c0.18-0.2,0.49-0.22,0.69-0.05c0.2,0.18,0.22,0.49,0.05,0.69c-0.28,0.32-0.73,1.3-0.98,2.37
	c-0.17,0.74-0.24,1.5-0.07,2.07c0.08,0.26-0.07,0.53-0.32,0.61c-0.22,0.07-0.46-0.03-0.57-0.23c-0.88-1.3-1.3-1.66-1.89-2.16
	c-0.28-0.24-0.6-0.51-1.01-0.91c-0.19-0.19-0.19-0.5,0-0.69c0.19-0.19,0.5-0.19,0.69,0c0.39,0.39,0.69,0.64,0.96,0.87
	c0.39,0.33,0.71,0.61,1.11,1.08c0.03-0.28,0.09-0.57,0.15-0.85C324.69,443.57,325.25,442.4,325.61,442z"/>
<g>
	<path class="st6" d="M327.57,418.93l-4.28-0.74l2.34,3.66l15.3,10.15c0.44,0.29,1.03,0.17,1.32-0.27l0.88-1.33
		c0.29-0.44,0.17-1.03-0.27-1.32L327.57,418.93z"/>
	<path class="st6" d="M327.57,418.93l-4.28-0.74l2.34,3.66l14.13,9.37c0.86-0.91,1.49-1.88,1.94-2.92L327.57,418.93z"/>
	<path class="st6" d="M327.57,418.93l-4.28-0.74l2.34,3.66l13.2,8.76c0.87-0.91,1.5-1.88,1.94-2.92L327.57,418.93z"/>
	<path class="st6" d="M327.57,418.93l-4.28-0.74l2.34,3.66c0.39-0.41,0.76-0.87,1.1-1.37C327.07,419.97,327.35,419.45,327.57,418.93
		z"/>
	<path class="st6" d="M324.7,418.44l-1.41-0.24l0.77,1.21c0.13-0.13,0.25-0.29,0.36-0.45C324.54,418.78,324.63,418.61,324.7,418.44z
		"/>
</g>
<polygon class="st3" points="46.1,206.49 89.28,206.49 96.53,206.49 96.53,277.81 46.1,277.81 "/>
<g>
	<rect x="59.07" y="214.13" class="st12" width="24.48" height="1.19"/>
	<rect x="50.73" y="217.11" class="st12" width="41.17" height="1.19"/>
	<rect x="50.73" y="219.2" class="st12" width="41.17" height="1.19"/>
	<rect x="50.73" y="221.29" class="st12" width="41.17" height="1.19"/>
	<rect x="50.73" y="223.38" class="st12" width="19.29" height="1.19"/>
</g>
<rect x="53.7" y="251.99" class="st13" width="38.2" height="0.52"/>
<rect x="53.44" y="227.99" class="st13" width="0.52" height="24.26"/>
<rect x="60.73" y="227.99" class="st13" width="0.52" height="24.26"/>
<rect x="68.01" y="227.99" class="st13" width="0.51" height="24.26"/>
<rect x="75.3" y="227.99" class="st13" width="0.51" height="24.26"/>
<rect x="70.86" y="239.87" transform="matrix(0.0121 -0.9999 0.9999 0.0121 -158.1313 320.1945)" class="st13" width="24.25" height="0.51"/>
<rect x="89.87" y="227.99" class="st13" width="0.52" height="24.26"/>
<rect x="53.7" y="246.3" class="st13" width="38.2" height="0.52"/>
<polygon class="st13" points="53.7,240.61 91.89,240.88 91.89,241.4 53.7,241.12 "/>
<rect x="53.7" y="234.91" class="st13" width="38.2" height="0.52"/>
<rect x="53.7" y="229.22" class="st13" width="38.2" height="0.52"/>
<polygon class="st15" points="61.32,235 53.15,252.08 53.84,252.42 61.7,236 67.93,246.75 68.16,247.13 68.51,246.86 75.55,241.35 
	82.6,246.86 83,247.17 83.2,246.71 88.87,233.02 90.38,233.64 89.92,229.48 86.65,232.1 88.16,232.72 82.68,245.94 75.79,240.56 
	75.55,240.37 75.32,240.56 68.38,245.98 62,234.98 61.63,234.34 "/>
<rect x="52.59" y="253.01" class="st12" width="2.22" height="1.13"/>
<rect x="59.88" y="253.01" class="st12" width="2.22" height="1.13"/>
<rect x="67.16" y="253.01" class="st12" width="2.22" height="1.13"/>
<rect x="74.45" y="253.01" class="st12" width="2.22" height="1.13"/>
<rect x="81.73" y="253.01" class="st12" width="2.22" height="1.13"/>
<rect x="89.01" y="253.01" class="st12" width="2.22" height="1.13"/>
<rect x="50.73" y="245.99" class="st12" width="2.22" height="1.13"/>
<rect x="50.73" y="240.3" class="st12" width="2.22" height="1.13"/>
<rect x="50.73" y="234.61" class="st12" width="2.22" height="1.13"/>
<rect x="50.73" y="229.58" class="st12" width="2.22" height="1.13"/>
<rect x="51.55" y="273.45" class="st12" width="20.75" height="2.36"/>
<rect x="51.55" y="259.96" class="st16" width="3.69" height="13.5"/>
<rect x="55.82" y="265.05" class="st6" width="3.69" height="8.41"/>
<rect x="60.09" y="267.89" class="st9" width="3.69" height="5.56"/>
<rect x="64.35" y="265.29" class="st17" width="3.69" height="8.17"/>
<rect x="68.62" y="267.61" class="st8" width="3.69" height="5.84"/>
<path class="st1" d="M83.64,259.29c4.56,0,8.26,3.7,8.26,8.26c0,4.56-3.7,8.26-8.26,8.26c-4.56,0-8.26-3.7-8.26-8.26
	C75.37,262.99,79.07,259.29,83.64,259.29z"/>
<path class="st17" d="M79.09,274.45c-1.19-0.78-2.16-1.86-2.81-3.14l7.36-3.76L79.09,274.45z"/>
<path class="st9" d="M76.28,271.31c-0.58-1.13-0.9-2.41-0.9-3.76c0-2.64,1.24-4.99,3.17-6.51l5.09,6.51L76.28,271.31z"/>
<path class="st6" d="M78.54,261.04c1.4-1.1,3.17-1.76,5.09-1.76l0,8.26L78.54,261.04z"/>
<path class="st16" d="M83.64,259.29v8.26l5.89-5.8C88.03,260.23,85.94,259.29,83.64,259.29z"/>
<rect x="302.35" y="61.56" class="st6" width="44.62" height="1.86"/>
<rect x="302.35" y="63.42" class="st3" width="44.62" height="42.35"/>
<rect x="302.35" y="105.77" class="st6" width="44.62" height="1.86"/>
<rect x="316.9" y="59.7" class="st9" width="15.51" height="1.86"/>
<g>
	<polygon class="st6" points="316.47,123.14 320.63,107.63 315.78,107.63 311.61,123.14 	"/>
	<polygon class="st6" points="332.85,123.14 328.69,107.63 333.54,107.63 337.7,123.14 	"/>
</g>
<path class="st17" d="M324.66,72.59c4.08,0,7.39,3.31,7.39,7.39c0,1.95-0.76,3.73-1.99,5.05v0c-1.27,1.51-2.9,2.96-2.9,4.78
	c0,1.82-2.5,1.87-2.5,1.87l0,0c0,0-2.5-0.05-2.5-1.87c0-1.82-1.62-3.27-2.9-4.78l0,0c-1.24-1.32-1.99-3.1-1.99-5.05
	C317.27,75.9,320.58,72.59,324.66,72.59z"/>
<path class="st7" d="M323.89,91.25c0,0.19-0.16,0.35-0.35,0.35s-0.35-0.16-0.35-0.35v-7.6l-2.54-3.6c-0.11-0.16-0.07-0.37,0.08-0.48
	c0.05-0.03,0.1-0.05,0.15-0.06c0.29-0.04,0.53-0.13,0.73-0.26c-0.1-0.15-0.18-0.32-0.23-0.49c-0.08-0.24-0.13-0.48-0.14-0.72
	c-0.01-0.24,0.01-0.47,0.06-0.67c0.12-0.5,0.43-0.85,0.88-0.85c0.38,0,0.66,0.24,0.81,0.6c0.08,0.2,0.13,0.45,0.12,0.72
	c0,0.26-0.05,0.53-0.15,0.8c-0.08,0.23-0.2,0.45-0.36,0.65c0.21,0.14,0.48,0.22,0.81,0.22c0.29,0,0.53-0.07,0.73-0.18
	c-0.12-0.17-0.22-0.37-0.29-0.56c-0.08-0.24-0.13-0.48-0.14-0.72c-0.01-0.24,0.01-0.47,0.06-0.67c0.12-0.5,0.43-0.85,0.88-0.85
	c0.45,0,0.75,0.35,0.88,0.85c0.05,0.2,0.07,0.43,0.06,0.67c-0.01,0.24-0.06,0.48-0.14,0.72c-0.07,0.2-0.16,0.39-0.29,0.56
	c0.2,0.11,0.44,0.18,0.73,0.18c0.33,0,0.6-0.08,0.81-0.22c-0.16-0.2-0.27-0.43-0.36-0.65c-0.1-0.27-0.14-0.54-0.15-0.8
	c0-0.27,0.04-0.51,0.12-0.72c0.15-0.37,0.43-0.6,0.81-0.6c0.45,0,0.75,0.35,0.88,0.85c0.05,0.2,0.07,0.43,0.06,0.67
	c-0.01,0.24-0.06,0.48-0.14,0.72c-0.06,0.17-0.14,0.33-0.23,0.49c0.2,0.12,0.44,0.21,0.73,0.26c0.19,0.03,0.32,0.2,0.29,0.39
	c-0.01,0.06-0.03,0.11-0.06,0.16l-2.54,3.6v7.6c0,0.19-0.16,0.35-0.35,0.35c-0.19,0-0.35-0.16-0.35-0.35v-7.71h0
	c0-0.07,0.02-0.14,0.06-0.2l2.31-3.28c-0.22-0.08-0.41-0.17-0.58-0.29c-0.33,0.26-0.77,0.42-1.33,0.42c-0.51,0-0.92-0.14-1.24-0.36
	c-0.32,0.22-0.73,0.36-1.24,0.36c-0.56,0-0.99-0.16-1.33-0.42c-0.17,0.12-0.36,0.22-0.58,0.29l2.3,3.26
	c0.05,0.06,0.08,0.13,0.08,0.22V91.25L323.89,91.25z M322.14,78.75c0.08-0.11,0.14-0.24,0.18-0.36c0.07-0.19,0.11-0.39,0.11-0.57
	c0-0.17-0.02-0.32-0.07-0.44c-0.04-0.11-0.1-0.18-0.17-0.18c-0.08,0-0.16,0.13-0.21,0.33c-0.03,0.14-0.05,0.3-0.04,0.47
	c0.01,0.17,0.04,0.35,0.11,0.53C322.07,78.61,322.1,78.68,322.14,78.75L322.14,78.75z M324.66,78.83c0.06-0.1,0.1-0.2,0.14-0.3
	c0.06-0.17,0.1-0.35,0.11-0.53c0.01-0.17,0-0.33-0.04-0.47c-0.05-0.19-0.12-0.33-0.21-0.33c-0.08,0-0.16,0.13-0.21,0.33
	c-0.03,0.14-0.05,0.3-0.04,0.47c0.01,0.17,0.04,0.35,0.11,0.53C324.56,78.64,324.6,78.74,324.66,78.83L324.66,78.83z M327.18,78.75
	c0.04-0.07,0.07-0.15,0.1-0.22c0.06-0.17,0.1-0.35,0.11-0.53c0.01-0.17,0-0.33-0.04-0.47c-0.05-0.19-0.12-0.33-0.21-0.33
	c-0.07,0-0.13,0.07-0.17,0.18c-0.05,0.12-0.08,0.27-0.07,0.44c0,0.18,0.04,0.38,0.11,0.57C327.05,78.52,327.11,78.64,327.18,78.75z"
	/>
<path class="st16" d="M327.16,89.81v2.87c0,0.48-0.39,0.87-0.87,0.87h-3.25c-0.48,0-0.87-0.39-0.87-0.87v-2.87H327.16z"/>
<rect x="317.16" y="99.8" class="st17" width="6.37" height="0.39"/>
<rect x="317.16" y="101.06" class="st17" width="6.37" height="0.39"/>
<rect x="317.16" y="102.31" class="st17" width="3.19" height="0.39"/>
<rect x="325.78" y="99.8" class="st17" width="6.37" height="0.39"/>
<rect x="325.78" y="101.06" class="st17" width="6.37" height="0.39"/>
<rect x="325.78" y="102.31" class="st17" width="3.19" height="0.39"/>
<rect x="317.16" y="97.53" class="st16" width="6.37" height="1.22"/>
<rect x="325.78" y="97.53" class="st16" width="6.37" height="1.22"/>
<rect x="317.68" y="66.47" class="st3" width="13.96" height="2.67"/>
<ellipse transform="matrix(0.1275 -0.9918 0.9918 0.1275 -37.6227 473.2129)" class="st18" cx="250.15" cy="257.99" rx="69.2" ry="69.2"/>
<line class="st19" x1="146.26" y1="144.65" x2="198.74" y2="144.65"/>
<line class="st4" x1="146.26" y1="151.35" x2="198.74" y2="151.35"/>
<line class="st19" x1="301.07" y1="144.65" x2="349.75" y2="144.65"/>
<line class="st4" x1="301.07" y1="151.35" x2="349.75" y2="151.35"/>
<line class="st19" x1="146.26" y1="376.61" x2="198.74" y2="376.61"/>
<line class="st4" x1="146.26" y1="365.45" x2="198.74" y2="365.45"/>
<line class="st19" x1="301.07" y1="376.61" x2="344.15" y2="376.61"/>
<line class="st4" x1="301.07" y1="365.45" x2="344.15" y2="365.45"/>
<line class="st19" x1="391.3" y1="305.65" x2="439.98" y2="305.65"/>
<line class="st4" x1="391.3" y1="312.35" x2="439.98" y2="312.35"/>
<line class="st19" x1="46.19" y1="305.65" x2="93.6" y2="305.65"/>
<line class="st4" x1="46.19" y1="312.35" x2="93.6" y2="312.35"/>
<text transform="matrix(1 0 0 1 193.5747 264.3848)" class="st20 st21 st22">Marketing</text>
</svg>
