<svg xmlns="http://www.w3.org/2000/svg" width="561.725" height="403.87" viewBox="0 0 561.725 403.87">
  <g id="Group_167" data-name="Group 167" transform="translate(-36.31 -127.471)">
    <path id="Path_92" data-name="Path 92" d="M269.685,294.964l13.029,1.382,6.958,3.949,68.278,35L241.037,369.9,178.914,333.31l85-34.495Z" transform="translate(15.445 18.141)" fill="#fff" stroke="#000" stroke-miterlimit="10" stroke-width="1"/>
    <path id="Path_93" data-name="Path 93" d="M268.808,303.032l-30.992,3.946,4.935,9.082,70.67.2-30.992-15.594Z" transform="translate(21.849 18.76)" fill="#fff" stroke="#000" stroke-miterlimit="10" stroke-width="1"/>
    <path id="Path_94" data-name="Path 94" d="M451.985,418.241l-11.844,9.475L303.934,449.036l-39.679-71.661,73.436-37.9Z" transform="translate(24.724 22.981)" fill="#fff" stroke="#000" stroke-miterlimit="10" stroke-width="1"/>
    <path id="Path_95" data-name="Path 95" d="M249.744,334.359l10.858,2.765,74.026-5.53L321.6,328.436Z" transform="translate(23.147 21.78)" fill="#fff" stroke="#000" stroke-miterlimit="10" stroke-width="1"/>
    <path id="Path_96" data-name="Path 96" d="M461.487,411.541s-.428,0-7.588-2.652c-9.453-7.483-22.048-18.655-29.026-29.818-12.151-19.442-25.919-27.541-25.919-27.541l-19.441-4.051-20.251-18.626-105.3,6.476,21.476,60.677c7.4,6.51,9.481,13.674,15.99,26.35,4.577,8.915,15.882,23.362,15.882,23.362l134.568-20.682Z" transform="translate(23.606 21.826)" fill="#fff" stroke="#000" stroke-miterlimit="10" stroke-width="1"/>
    <path id="Path_97" data-name="Path 97" d="M386.673,327.012,254.018,338.069l71.461,35.138-37.9,32.372,72.249-20.135L327.059,439.53l45.293-20.38,71.962-2.123-14.606-23.685Z" transform="translate(23.611 21.625)" fill="#fff" stroke="#000" stroke-miterlimit="10" stroke-width="1"/>
    <g id="Group_130" data-name="Group 130" transform="translate(295.186 326.475)">
      <path id="Path_98" data-name="Path 98" d="M434.09,357.224c38.449-15.6,33.831-35.147-10.317-43.658-43.119-8.313-110.658-4.8-149.484,9.979-.567.5-.283,1.345-.08,2.856C323.307,335.864,405.971,351.8,434.09,357.224Z" transform="translate(-269.407 -306.791)" fill="#fff" stroke="#000" stroke-miterlimit="10" stroke-width="1"/>
      <path id="Path_99" data-name="Path 99" d="M426.652,358.315c37.821-15.88,33.383-35.522-9.917-43.868-42.286-8.157-103.353-5.757-141.542,9.306a58.972,58.972,0,0,0-5.341,4.333C318,337.368,399.076,353,426.652,358.315Z" transform="translate(-269.853 -306.718)" fill="#fff" stroke="#000" stroke-miterlimit="10" stroke-width="1"/>
      <path id="Path_100" data-name="Path 100" d="M434.065,354.621c38.449-15.6,33.831-35.149-10.317-43.662S312.635,308.195,274.185,323.8C323.282,333.262,405.947,349.2,434.065,354.621Z" transform="translate(-269.382 -307.023)" fill="#fff" stroke="#000" stroke-miterlimit="10" stroke-width="1"/>
      <g id="Group_128" data-name="Group 128" transform="translate(59.478 6.424)">
        <g id="Group_127" data-name="Group 127">
          <path id="Path_101" data-name="Path 101" d="M323.5,333.465c13.656,2.633,27.747,5.349,41.025,7.91l-.185-28.558c-9.858.136-19.919.776-29.757,1.882Z" transform="translate(-323.498 -312.817)" fill="#fff" stroke="#000" stroke-miterlimit="10" stroke-width="1"/>
          <path id="Path_102" data-name="Path 102" d="M376.849,345.157c10.979,2.206,21.161,4.253,29.764,5.981l-14.677-36.644c-5.411-.435-11.009-.673-16.718-.731Z" transform="translate(-317.874 -312.714)" fill="#fff" stroke="#000" stroke-miterlimit="10" stroke-width="1"/>
        </g>
      </g>
      <path id="Path_103" data-name="Path 103" d="M380.028,325.155c-19.187-3.7-48.292-1.2-65,5.575,21.338,4.117,57.267,11.046,69.487,13.4C401.225,337.347,399.216,328.856,380.028,325.155Zm-7.567,16.1c-7.657-1.476-30.161-5.816-43.53-8.393,10.472-4.249,28.7-5.811,40.722-3.5S382.929,337,372.461,341.252Z" transform="translate(-264.941 -305.238)" fill="#fff" stroke="#000" stroke-miterlimit="10" stroke-width="1"/>
      <g id="Group_129" data-name="Group 129" transform="translate(5.248 0.149)">
        <path id="Path_104" data-name="Path 104" d="M423.573,311.08C379.6,302.6,312.89,308.323,274.586,323.86c4.465.863,9.214,1.776,14.169,2.735,33.179-12.468,88.143-16.894,124.735-9.839s41.348,23,11.5,36.1c3.347.644,6.333,1.216,8.861,1.707C472.155,339.028,467.558,319.559,423.573,311.08Z" transform="translate(-274.586 -307.158)" fill="#fff" stroke="#000" stroke-miterlimit="10" stroke-width="1"/>
      </g>
      <path id="Path_105" data-name="Path 105" d="M389.249,312.345l-5.105,5.1,2.551.854,8.086-6.594Z" transform="translate(-257.425 -306.514)" fill="#fff" stroke="#000" stroke-miterlimit="10" stroke-width="1"/>
      <path id="Path_106" data-name="Path 106" d="M419.258,324.135l13.19-1.492,4.043,3.2-13.826,2.974Z" transform="translate(-253.607 -305.325)" fill="#fff" stroke="#000" stroke-miterlimit="10" stroke-width="1"/>
      <path id="Path_107" data-name="Path 107" d="M407.508,343.178l20,1.277-6.384,3.828-15.1-3.828Z" transform="translate(-255.046 -303.092)" fill="#fff" stroke="#000" stroke-miterlimit="10" stroke-width="1"/>
      <path id="Path_108" data-name="Path 108" d="M353.484,315.551l2.34-.424.852-5.528h-3.619Z" transform="translate(-260.805 -306.743)" fill="#fff" stroke="#000" stroke-miterlimit="10" stroke-width="1"/>
      <path id="Path_109" data-name="Path 109" d="M326.185,317.878l1.915-.213-1.062-5.956-4.682.849Z" transform="translate(-264.144 -306.514)" fill="#fff" stroke="#000" stroke-miterlimit="10" stroke-width="1"/>
      <path id="Path_110" data-name="Path 110" d="M297.665,324.127l-10.423-2.768,2.98-2.552,10,4.041Z" transform="translate(-267.962 -305.742)" fill="#fff" stroke="#000" stroke-miterlimit="10" stroke-width="1"/>
    </g>
    <path id="Path_111" data-name="Path 111" d="M233.312,435.353h-15.46a8.966,8.966,0,0,1-3.828-.856L86.887,374.684a11.2,11.2,0,0,0-2.75-.883c-7.5-1.369-42.321-7.872-44.934-11.165a10.708,10.708,0,0,1,5.671-17.017L180.309,310.1l150.717,70.768Z" transform="translate(0 19.787)" fill="#fff" stroke="#000" stroke-miterlimit="10" stroke-width="1"/>
    <path id="Path_112" data-name="Path 112" d="M112.121,297.462a7.74,7.74,0,0,1,5.947-3.613l112.515-8.984a19.944,19.944,0,0,1,6,.432l5.589,1.271a6,6,0,0,1,4.2,3.512l11.183,26.362,67.848,58.987.642,4.447a3.26,3.26,0,0,1-1.721,3.356l-92.809,48.289a14.471,14.471,0,0,1-7.456,1.612l-5.849-.316a11.58,11.58,0,0,1-5.854-1.967l-70.876-47.872a19.025,19.025,0,0,1-6.94-8.515L109.2,313a13.782,13.782,0,0,1,1.057-12.562Z" transform="translate(7.751 17.035)" fill="#fff" stroke="#000" stroke-miterlimit="10" stroke-width="1"/>
    <g id="Group_131" data-name="Group 131" transform="translate(220.728 435.446)">
      <path id="Path_113" data-name="Path 113" d="M202.7,405.307l.877,13.285a11.459,11.459,0,0,0,4.361,1.12l5.849.318a14.31,14.31,0,0,0,4.13-.393l1.032-13.218Z" transform="translate(-202.697 -405.307)" fill="#fff" stroke="#000" stroke-miterlimit="10" stroke-width="1"/>
    </g>
    <g id="Group_132" data-name="Group 132" transform="translate(115.915 309.274)">
      <path id="Path_114" data-name="Path 114" d="M216.183,394.1,138.225,291.509l-20.156,1.612a7.743,7.743,0,0,0-5.948,3.611l-1.86,2.976a13.788,13.788,0,0,0-1.057,12.563l25.339,61.466a19.015,19.015,0,0,0,6.94,8.513l70.876,47.871c1.166.788-.691-12.71.667-12.388Z" transform="translate(-108.164 -291.509)" fill="#fff" stroke="#000" stroke-miterlimit="10" stroke-width="1"/>
    </g>
    <path id="Path_115" data-name="Path 115" d="M321.939,392.234l-129.693,74.62-1.183,3.845,47.376,22.507L250.2,490.54l91.872-92.089-.711-2.8L324.6,391.644Z" transform="translate(16.766 28.653)" fill="#fff" stroke="#000" stroke-miterlimit="10" stroke-width="1"/>
    <path id="Path_116" data-name="Path 116" d="M328.1,390.809l-129.694,74.62-1.186,3.85,47.377,22.5,5.923-1.183,97.714-93.569-.712-2.8-16.758-4.008Z" transform="translate(17.435 28.499)" fill="#fff" stroke="#000" stroke-miterlimit="10" stroke-width="1"/>
    <path id="Path_117" data-name="Path 117" d="M335.036,427.371a7.7,7.7,0,0,0-6.905,5.017l-18.844,52.224a7.7,7.7,0,0,0,6.913,10.346l75.285,3.488c3.078.145,9.239-1.271,11.24-3.439,2.872-1.71,2.775-5.081,2.063-7.827l-17.953-56.632a6.459,6.459,0,0,0-6.688-4.613Z" transform="translate(29.571 32.382)" fill="#fff" stroke="#000" stroke-miterlimit="10" stroke-width="1"/>
    <path id="Path_118" data-name="Path 118" d="M340.378,424.169a7.7,7.7,0,0,0-6.907,5.015l-18.839,52.224a7.689,7.689,0,0,0,6.905,10.341l75.285,3.492a10.358,10.358,0,0,0,8.076-3.213,8.379,8.379,0,0,0,2.06-7.827L392.174,427.34a6.456,6.456,0,0,0-6.687-4.609Z" transform="translate(30.152 32.034)" fill="#fff" stroke="#000" stroke-miterlimit="10" stroke-width="1"/>
    <g id="Group_133" data-name="Group 133" transform="translate(416.426 452.939)" opacity="0.4">
      <path id="Path_119" data-name="Path 119" d="M391.319,495.38a8.913,8.913,0,0,0,8.595-10.968L386.378,426.4a6.823,6.823,0,0,0-6.272-5.265l-.9-.048,16.756,57.274C397.493,487.719,394.452,492.727,391.319,495.38Z" transform="translate(-379.202 -421.084)" fill="#fff" stroke="#000" stroke-miterlimit="10" stroke-width="1"/>
    </g>
    <g id="Group_135" data-name="Group 135" transform="translate(215.765 418.717)">
      <path id="Path_120" data-name="Path 120" d="M251,485.171l96.449-90.8-.039-.143-16.758-4.008-2.665.59L198.3,465.429l-.077.245L243.9,486.354Z" transform="translate(-198.221 -390.219)" fill="#fff" stroke="#000" stroke-miterlimit="10" stroke-width="1"/>
      <g id="Group_134" data-name="Group 134">
        <path id="Path_121" data-name="Path 121" d="M324.4,391.839l-5.893-1.62-.453.1Z" transform="translate(-185.191 -390.219)" fill="#fff" stroke="#000" stroke-miterlimit="10" stroke-width="1"/>
        <path id="Path_122" data-name="Path 122" d="M198.292,460.78l48.334-27.811-48.334,27.512-.015.344Z" transform="translate(-198.215 -385.57)" fill="#fff" stroke="#000" stroke-miterlimit="10" stroke-width="1"/>
        <path id="Path_123" data-name="Path 123" d="M347.337,394.138l-.068-.019L251,484.747,243.9,485.93l-45.624-20.657-.052,1.219L244.2,487.512l7.154-1.2,96.379-91.184Z" transform="translate(-198.221 -389.795)" fill="#fff" stroke="#000" stroke-miterlimit="10" stroke-width="1"/>
      </g>
    </g>
    <g id="Group_136" data-name="Group 136" transform="translate(262.805 438.607)">
      <path id="Path_124" data-name="Path 124" d="M242.959,477.468l6.2-1.035,25.655-24.151L278.58,415.8l-22.064,12.692-15.868,47.929Z" transform="translate(-240.647 -407.327)" fill="#fff" stroke="#000" stroke-miterlimit="10" stroke-width="1"/>
      <path id="Path_125" data-name="Path 125" d="M288.35,436.247l.573-28.089-4.77,2.745-3.184,32.289Z" transform="translate(-236.263 -408.158)" fill="#fff" stroke="#000" stroke-miterlimit="10" stroke-width="1"/>
    </g>
    <path id="Path_126" data-name="Path 126" d="M480.852,321.552a3.187,3.187,0,0,0-.67-2.65l-11.166-13.513a3.378,3.378,0,0,0-2.91-1.212l-14.048,1.275a2.813,2.813,0,0,0-2.537,3.151l1.246,10a2.466,2.466,0,0,0,.571,1.3l10.254,12.022a5.174,5.174,0,0,0,4.081,1.815l11.187-.312a2.081,2.081,0,0,0,1.984-1.678Z" transform="translate(44.868 19.141)" fill="#fff" stroke="#000" stroke-miterlimit="10" stroke-width="1"/>
    <g id="Group_138" data-name="Group 138" transform="translate(481.848 323.307)">
      <path id="Path_127" data-name="Path 127" d="M462.089,337.352l-8-.3L439.222,321.39a3.687,3.687,0,0,1-.682-4.069,1.772,1.772,0,0,1,1.539-1.039l20.528-.843,19.543,16.877Z" transform="translate(-438.208 -302.94)" fill="#fff" stroke="#000" stroke-miterlimit="10" stroke-width="1"/>
      <path id="Path_128" data-name="Path 128" d="M450.543,305.948a2.861,2.861,0,0,0-.424.351,2.8,2.8,0,0,0-.6,2.112l1.25,10a2.453,2.453,0,0,0,.571,1.3l10.255,12.021a5.172,5.172,0,0,0,4.079,1.817l11.182-.309a2.084,2.084,0,0,0,1.984-1.68l2.015-10.195a3.211,3.211,0,0,0-.276-2.038l-16.063,1.3Z" transform="translate(-436.981 -303.972)" fill="#fff" stroke="#000" stroke-miterlimit="10" stroke-width="1"/>
      <g id="Group_137" data-name="Group 137" transform="translate(12.516)">
        <path id="Path_129" data-name="Path 129" d="M475.189,312.864l-6.172-7.472a3.379,3.379,0,0,0-2.91-1.213l-14.049,1.276a2.807,2.807,0,0,0-1.515.686,2.861,2.861,0,0,0-.424.351,2.8,2.8,0,0,0-.6,2.112l1.25,10a2.453,2.453,0,0,0,.571,1.3l6.428,7.536.623-13.237Z" transform="translate(-449.497 -304.165)" fill="#fff" stroke="#000" stroke-miterlimit="10" stroke-width="1"/>
      </g>
      <path id="Path_130" data-name="Path 130" d="M450.543,305.948a2.861,2.861,0,0,0-.424.351,2.8,2.8,0,0,0-.6,2.112l1.25,10a2.453,2.453,0,0,0,.571,1.3l10.255,12.021a5.217,5.217,0,0,0,1.832,1.373c.7.313,1.088-12.479,1.088-12.479Z" transform="translate(-436.981 -303.972)" fill="#fff" stroke="#000" stroke-miterlimit="10" stroke-width="1"/>
    </g>
    <g id="Group_141" data-name="Group 141" transform="translate(429.104 356.849)">
      <path id="Path_131" data-name="Path 131" d="M558.471,338.569a3.18,3.18,0,0,0-2.41-.922l-162.327-1.327a3.448,3.448,0,0,0-2.811,1.18,1.523,1.523,0,0,0,.451,2.18L494.723,418.94a4.845,4.845,0,0,0,3.4.737,4.413,4.413,0,0,0,3.03-1.47l57.323-77.694A1.5,1.5,0,0,0,558.471,338.569Zm-41.365,17.537L494.2,388.98a1.84,1.84,0,0,1-1.282.655,2.031,2.031,0,0,1-1.451-.333l-41.93-33.484a.6.6,0,0,1-.131-.873,1.459,1.459,0,0,1,1.154-.472l65.512.477a1.39,1.39,0,0,1,1,.37A.6.6,0,0,1,517.107,356.106Z" transform="translate(-390.637 -334.211)" fill="#fff" stroke="#000" stroke-miterlimit="10" stroke-width="1"/>
      <path id="Path_132" data-name="Path 132" d="M550.953,340.359a2.929,2.929,0,0,0-2.272-.915L395.5,338.134a3.163,3.163,0,0,0-2.651,1.165,1.544,1.544,0,0,0,.425,2.155L490.8,419.874a4.439,4.439,0,0,0,3.212.732,4.106,4.106,0,0,0,2.859-1.459l54.089-76.864A1.532,1.532,0,0,0,550.953,340.359Zm-39.036,17.347L490.3,390.233a1.7,1.7,0,0,1-1.21.645,1.839,1.839,0,0,1-1.368-.325l-39.568-33.125a.611.611,0,0,1-.125-.865,1.336,1.336,0,0,1,1.091-.465l61.82.467a1.269,1.269,0,0,1,.941.368A.615.615,0,0,1,511.916,357.707Z" transform="translate(-390.426 -334.014)" fill="#fff" stroke="#000" stroke-miterlimit="10" stroke-width="1"/>
      <path id="Path_133" data-name="Path 133" d="M558.661,336.665a3.222,3.222,0,0,0-2.414-.912l-162.491-1.335a3.449,3.449,0,0,0-2.814,1.162,1.489,1.489,0,0,0,.455,2.151L495.115,416.17a4.963,4.963,0,0,0,3.414.734,4.443,4.443,0,0,0,3.034-1.465l57.117-76.851A1.464,1.464,0,0,0,558.661,336.665Zm-42.137,17.607L493.58,386.426a1.877,1.877,0,0,1-1.286.636,2.051,2.051,0,0,1-1.454-.326l-42.062-32.749a.572.572,0,0,1-.131-.853,1.46,1.46,0,0,1,1.158-.462l65.683.472a1.385,1.385,0,0,1,1,.363A.576.576,0,0,1,516.525,354.272Z" transform="translate(-390.635 -334.418)" fill="#fff" stroke="#000" stroke-miterlimit="10" stroke-width="1"/>
      <g id="Group_139" data-name="Group 139" transform="translate(40.866 3.738)">
        <path id="Path_134" data-name="Path 134" d="M442.68,356.306a4.053,4.053,0,0,1-1.531-2.573,3.94,3.94,0,0,1,.8-3.059,4.852,4.852,0,0,1,3.831-1.774l16.4.117-2.682-10.991-28.981-.237-3.029,25.637,46.848,35.432-5.387-22.1Z" transform="translate(-427.495 -337.789)" fill="#fff" stroke="#000" stroke-miterlimit="10" stroke-width="1"/>
        <path id="Path_135" data-name="Path 135" d="M486.861,384.068l6.4,19.793,19.6-26.378-10.069-15.744Z" transform="translate(-421.04 -335.185)" fill="#fff" stroke="#000" stroke-miterlimit="10" stroke-width="1"/>
        <path id="Path_136" data-name="Path 136" d="M494.7,349.25l-7.027-10.989-14.948-.123,3.55,10.977Z" transform="translate(-422.576 -337.751)" fill="#fff" stroke="#000" stroke-miterlimit="10" stroke-width="1"/>
      </g>
      <g id="Group_140" data-name="Group 140" transform="translate(1.966 1.814)" opacity="0.4">
        <path id="Path_137" data-name="Path 137" d="M393.541,336.054a4.081,4.081,0,0,0-1.131.152l102.12,78.32a4.862,4.862,0,0,0,3.4.741,4.422,4.422,0,0,0,3.03-1.476L557.176,337.6a3.956,3.956,0,0,0-1.308-.221Zm123.373,19.787-22.9,32.873a1.842,1.842,0,0,1-1.282.652,2.009,2.009,0,0,1-1.451-.33l-41.93-33.484c-.3-.239-2.3-3.349-2.3-3.344.089.36,2.846-2.149,3.327-2.144l65.512.473a1.864,1.864,0,0,1,1,.373C519.783,352.8,517.1,355.577,516.914,355.841Z" transform="translate(-392.41 -336.054)" fill="#fff" stroke="#000" stroke-miterlimit="10" stroke-width="1"/>
      </g>
    </g>
    <g id="Group_144" data-name="Group 144" transform="translate(366.389 361.461)">
      <path id="Path_138" data-name="Path 138" d="M460.619,360.132l24.665-13.518s5.345-1.964,8.818,2.552c3.8,4.938-2.719,7.706-2.719,7.706l-26.4,8.466Z" transform="translate(-320.312 -337.75)" fill="#fff" stroke="#000" stroke-miterlimit="10" stroke-width="1"/>
      <path id="Path_139" data-name="Path 139" d="M463.824,352.518,488.487,339s5.346-1.964,8.821,2.553c3.8,4.941-2.721,7.706-2.721,7.706l-26.4,8.465Z" transform="translate(-319.963 -338.578)" fill="#fff" stroke="#000" stroke-miterlimit="10" stroke-width="1"/>
      <g id="Group_142" data-name="Group 142" transform="translate(147.78)" opacity="0.4">
        <path id="Path_140" data-name="Path 140" d="M467.359,353.8l1.4,3.615,25.447-8.156s6.521-2.765,2.721-7.706C493.449,337.039,488.1,339,488.1,339l-.358.2,4.332,2.683Z" transform="translate(-467.359 -338.578)" fill="#fff" stroke="#000" stroke-miterlimit="10" stroke-width="1"/>
      </g>
      <path id="Path_141" data-name="Path 141" d="M337.577,362.3a7.288,7.288,0,0,1-1-11.73,15.329,15.329,0,0,1,10.3-3.754l109.039,1.809a13.382,13.382,0,0,1,6.169,1.623l11.883,6.461a7.349,7.349,0,0,1,3.775,5.488l.152,1.125a5.882,5.882,0,0,1-2.624,5.7l-79.922,51.891a14.422,14.422,0,0,1-14.5.7,8.266,8.266,0,0,1-3.142-2.293,6.516,6.516,0,0,1,0-6.023l2.129-4.1a9.257,9.257,0,0,1,3.275-3.564l54.356-34.289a2.338,2.338,0,0,0-1.253-4.314c-18.36.05-63.2.091-86.264-.6a22.226,22.226,0,0,1-10.859-3.209Z" transform="translate(-334.072 -337.682)" fill="#fff" stroke="#000" stroke-miterlimit="10" stroke-width="1"/>
      <path id="Path_142" data-name="Path 142" d="M348.256,359.1a7.288,7.288,0,0,1-1-11.73,15.332,15.332,0,0,1,10.306-3.755l109.041,1.809a13.385,13.385,0,0,1,6.169,1.623l11.885,6.461a7.348,7.348,0,0,1,3.776,5.488l.151,1.126a5.873,5.873,0,0,1-2.623,5.7l-79.926,51.893a14.427,14.427,0,0,1-14.5.7,8.294,8.294,0,0,1-3.142-2.294c-.985-1.887-1.219-5.477-.242-7.366l1.927-3.4a11.757,11.757,0,0,1,3.153-2.568l54.919-34.641a2.338,2.338,0,0,0-1.252-4.314c-18.364.051-63.207.091-86.268-.6a22.246,22.246,0,0,1-10.859-3.206Z" transform="translate(-332.911 -338.031)" fill="#fff" stroke="#000" stroke-miterlimit="10" stroke-width="1"/>
      <g id="Group_143" data-name="Group 143" transform="translate(14.533 11.656)">
        <path id="Path_143" data-name="Path 143" d="M458.3,352.174l-104.428-3.083s-5.359,0-6.689,3.639c.335,1.736-.641,6.13,15.392,7.65,22.46,2.121,66.411.542,84.37.5.878,0,3.192,1.918,3.578,2.57l9.918-6.217Z" transform="translate(-347.18 -349.091)" fill="#fff" stroke="#000" stroke-miterlimit="10" stroke-width="1"/>
      </g>
      <path id="Path_144" data-name="Path 144" d="M438.113,363.268l25.072-12.039L438.7,366.622Z" transform="translate(-322.759 -337.202)" fill="#fff" stroke="#000" stroke-miterlimit="10" stroke-width="1"/>
      <path id="Path_145" data-name="Path 145" d="M467.047,354.8c0,2.827-4.774,5.123-10.663,5.123s-10.657-2.3-10.657-5.123,4.77-5.128,10.657-5.128S467.047,351.968,467.047,354.8Z" transform="translate(-321.931 -337.371)" fill="#fff" stroke="#000" stroke-miterlimit="10" stroke-width="1"/>
      <path id="Path_146" data-name="Path 146" d="M461.573,353.839c0,1.172-1.969,2.122-4.4,2.122s-4.4-.95-4.4-2.122,1.971-2.123,4.4-2.123S461.573,352.67,461.573,353.839Z" transform="translate(-321.165 -337.149)" fill="#fff" stroke="#000" stroke-miterlimit="10" stroke-width="1"/>
      <path id="Path_147" data-name="Path 147" d="M475.6,355.97a3.129,3.129,0,0,1-.125,5.242L395.2,410.819a4.292,4.292,0,0,1-5.242-.567,2.462,2.462,0,0,1,.34-3.811l70.411-47.175a2.808,2.808,0,0,0,1-3.488l-3.231-7.169a1.108,1.108,0,0,1,.711-1.523l1.328-.371a2.5,2.5,0,0,1,2.1.349Z" transform="translate(-328.077 -337.703)" fill="#fff" stroke="#000" stroke-miterlimit="10" stroke-width="1"/>
      <path id="Path_148" data-name="Path 148" d="M463.459,353.784c0,1.605-2.71,2.913-6.056,2.913s-6.058-1.307-6.058-2.913,2.71-2.913,6.058-2.913S463.459,352.173,463.459,353.784Z" transform="translate(-321.32 -337.241)" fill="#fff" stroke="#000" stroke-miterlimit="10" stroke-width="1"/>
      <path id="Path_149" data-name="Path 149" d="M459.754,353.761c0,.73-1.228,1.323-2.744,1.323s-2.742-.593-2.742-1.323,1.226-1.322,2.742-1.322S459.754,353.032,459.754,353.761Z" transform="translate(-321.002 -337.071)" fill="#fff" stroke="#000" stroke-miterlimit="10" stroke-width="1"/>
    </g>
    <path id="Path_150" data-name="Path 150" d="M338.655,426.911a3.951,3.951,0,0,0-3.413,2.583l-17.276,49.178a3.182,3.182,0,0,0,.349,2.823,3.143,3.143,0,0,0,2.477,1.39l79.946,3.766a3.936,3.936,0,0,0,2.977-1.1,2.773,2.773,0,0,0,.75-2.705l-15.832-56.7A3.193,3.193,0,0,0,385.194,424Z" transform="translate(30.545 32.172)" fill="#fff" stroke="#000" stroke-miterlimit="10" stroke-width="1"/>
    <g id="Group_145" data-name="Group 145" transform="translate(345.974 519.904)">
      <path id="Path_151" data-name="Path 151" d="M396.207,486.153c-9.031-.15-70.235-4.187-80.547-4.671a8.594,8.594,0,0,0,6.477,3.528l75.485,3.843a8.979,8.979,0,0,0,7.344-3.21,8.094,8.094,0,0,0,.449-.685C403.54,485.962,400.6,486.224,396.207,486.153Z" transform="translate(-315.66 -481.482)" fill="#fff" stroke="#000" stroke-miterlimit="10" stroke-width="1"/>
    </g>
    <path id="Path_152" data-name="Path 152" d="M339.433,424.747a3.932,3.932,0,0,0-3.545,2.576l-18.237,51.694a3.331,3.331,0,0,0,3.014,4.468l80.082,3.252a3.617,3.617,0,0,0,2.8-1.129,2.887,2.887,0,0,0,.705-2.7L389.24,425.815a3.214,3.214,0,0,0-3.305-2.292Z" transform="translate(30.51 32.12)" fill="#fff" stroke="#000" stroke-miterlimit="10" stroke-width="1"/>
    <path id="Path_153" data-name="Path 153" d="M338.261,428.927l-14.808,40.861,74.422,5.331-12.237-48.76Z" transform="translate(31.162 32.428)" fill="#fff" stroke="#000" stroke-miterlimit="10" stroke-width="1"/>
    <path id="Path_154" data-name="Path 154" d="M365.153,473.513c0,2.348-4.55,4.245-10.168,4.245s-10.165-1.9-10.165-4.245,4.552-4.243,10.165-4.243S365.153,471.169,365.153,473.513Z" transform="translate(33.485 37.095)" fill="#fff" stroke="#000" stroke-miterlimit="10" stroke-width="1"/>
    <path id="Path_155" data-name="Path 155" d="M362.985,473.416c0,1.8-3.669,3.259-8.194,3.259s-8.189-1.458-8.189-3.259,3.665-3.258,8.189-3.258S362.985,471.618,362.985,473.416Z" transform="translate(33.679 37.191)" fill="#fff" stroke="#000" stroke-miterlimit="10" stroke-width="1"/>
    <g id="Group_146" data-name="Group 146" transform="translate(356.946 460.317)">
      <path id="Path_156" data-name="Path 156" d="M325.556,468.409l40.2,2.879,11.019-43.206-26.632,1.447-18.1,20.994Z" transform="translate(-325.556 -427.702)" fill="#fff" stroke="#000" stroke-miterlimit="10" stroke-width="1"/>
      <path id="Path_157" data-name="Path 157" d="M382.812,472.908l.455-27.375L378.8,427.739l-1.393.074c-1.4,11.615-3.755,30.634-5.455,44.319Z" transform="translate(-320.511 -427.739)" fill="#fff" stroke="#000" stroke-miterlimit="10" stroke-width="1"/>
    </g>
    <path id="Path_158" data-name="Path 158" d="M374.277,484.62c0-.735-.894-1.33-2-1.33s-2,.6-2,1.33.9,1.336,2,1.336S374.277,485.359,374.277,484.62Z" transform="translate(36.253 38.619)" fill="#fff" stroke="#000" stroke-miterlimit="10" stroke-width="1"/>
    <path id="Path_159" data-name="Path 159" d="M380.42,484.62c0-.735-.895-1.33-2-1.33s-2,.6-2,1.33.893,1.336,2,1.336S380.42,485.359,380.42,484.62Z" transform="translate(36.922 38.619)" fill="#fff" stroke="#000" stroke-miterlimit="10" stroke-width="1"/>
    <path id="Path_160" data-name="Path 160" d="M386.761,484.891c0-.735-.895-1.335-2-1.335s-2,.6-2,1.335.895,1.333,2,1.333S386.761,485.624,386.761,484.891Z" transform="translate(37.611 38.648)" fill="#fff" stroke="#000" stroke-miterlimit="10" stroke-width="1"/>
    <g id="Group_149" data-name="Group 149" transform="translate(118.309 301.237)">
      <path id="Path_161" data-name="Path 161" d="M208.441,415.1a23.886,23.886,0,0,0,25.4,3.9l91.773-40.495-.447-3.092-67.847-58.988-11.269-26.1a6.017,6.017,0,0,0-4.321-3.826l-4.813-1.093a19.91,19.91,0,0,0-7.131-.312l-112.248,8.553a7.738,7.738,0,0,0-5.512,3.566l-1.706,2.729,25.48,51.38Z" transform="translate(-110.323 -284.189)" fill="#fff" stroke="#000" stroke-miterlimit="10" stroke-width="1"/>
      <g id="Group_147" data-name="Group 147" transform="translate(0.001)">
        <path id="Path_162" data-name="Path 162" d="M208.44,412.338a24.3,24.3,0,0,0,25.4,3.822L325.9,378.446l-.731-4.928-67.848-57.7-11.269-25.529c-.694-1.887-3.233-4.57-5.23-5.014l-2.369-.593a34.216,34.216,0,0,0-9.28-.2l-111.633,9.055a7.756,7.756,0,0,0-5.512,3.489l-1.705,2.665,25.48,50.266Z" transform="translate(-110.324 -284.261)" fill="#fff" stroke="#000" stroke-miterlimit="10" stroke-width="1"/>
      </g>
      <g id="Group_148" data-name="Group 148" transform="translate(0.001)">
        <path id="Path_163" data-name="Path 163" d="M257.323,315.816l-11.269-25.529c-.694-1.887-3.233-4.57-5.23-5.014l-2.369-.593a34.216,34.216,0,0,0-9.28-.2l-111.633,9.055a7.756,7.756,0,0,0-5.512,3.489l-1.705,2.665,25.48,50.266,1.521,1.3,122.856-33.012Z" transform="translate(-110.324 -284.261)" fill="#fff" stroke="#000" stroke-miterlimit="10" stroke-width="1"/>
      </g>
    </g>
    <g id="Group_151" data-name="Group 151" transform="translate(149.121 336.793)" opacity="0.6">
      <path id="Path_164" data-name="Path 164" d="M208.066,406.059a22.565,22.565,0,0,0,22.869,3.5l85.87-34.946a2.749,2.749,0,0,0,.731-4.652l-63.942-53.632-115.48,31.979Z" transform="translate(-138.113 -316.329)" fill="#fff" stroke="#000" stroke-miterlimit="10" stroke-width="1"/>
      <g id="Group_150" data-name="Group 150" transform="translate(48.777 0.001)">
        <path id="Path_165" data-name="Path 165" d="M187.417,332.8l-5.311,54.6,21.136,17.9a22.562,22.562,0,0,0,23.085,3.68l9.6-3.9-4.882-84.122Z" transform="translate(-182.106 -315.827)" fill="#fff" stroke="#000" stroke-miterlimit="10" stroke-width="1"/>
        <path id="Path_166" data-name="Path 166" d="M243.326,316.33l-10.8,2.606,13.955,80.118,32.487-13.22-24.33-60.009Z" transform="translate(-176.623 -316.33)" fill="#fff" stroke="#000" stroke-miterlimit="10" stroke-width="1"/>
      </g>
    </g>
    <path id="Path_167" data-name="Path 167" d="M379.739,316.791,344.7,311.479l11.4-1.629,87.866-10.439-13.149-18.334s-157.135,3.554-161.282,9.28,37.308,26.253,37.308,26.253l23.639-3.5,47.219,8.418C380.252,320.78,380.555,318.97,379.739,316.791Z" transform="translate(25.267 16.631)" fill="#fff" stroke="#000" stroke-miterlimit="10" stroke-width="1"/>
    <path id="Path_168" data-name="Path 168" d="M416.338,211.978c-10.76.982-29.167,6.668-39.685,10.624l14.962,78.856c6.981,2.6,13,6.373,29.037,6.373s23.828-4.1,29.036-6.373l6.76-85.172C449.243,215.125,430.8,210.657,416.338,211.978Z" transform="translate(36.947 9.09)" fill="#fff" stroke="#000" stroke-miterlimit="10" stroke-width="1"/>
    <g id="Group_152" data-name="Group 152" transform="translate(458.951 221.805)">
      <path id="Path_169" data-name="Path 169" d="M431.136,212.619,420.8,219.431l-3.247,88.278c11.933-.177,19.13-2.657,24.115-4.778l5.986-87.532C443.3,214.568,437.44,213.428,431.136,212.619Z" transform="translate(-417.557 -212.619)" fill="#fff" stroke="#000" stroke-miterlimit="10" stroke-width="1"/>
    </g>
    <path id="Path_170" data-name="Path 170" d="M456.592,216.357c-7.237-1.18-25.768-5.724-40.294-4.4-10.807.988-29.294,6.74-39.859,10.746,6.814,1.836,18.547,6.372,40.987,4.728C442.087,222.593,451.9,217.972,456.592,216.357Z" transform="translate(36.923 9.089)" fill="#fff" stroke="#000" stroke-miterlimit="10" stroke-width="1"/>
    <path id="Path_171" data-name="Path 171" d="M452.223,216.58c-6.5-.888-23.146-4.384-36.237-3.214-9.735.87-26.416,5.6-35.956,8.885,6.119,1.418,16.649,4.956,36.858,3.476C439.125,221.674,447.989,217.908,452.223,216.58Z" transform="translate(37.314 9.242)" fill="#fff" stroke="#000" stroke-miterlimit="10" stroke-width="1"/>
    <g id="Group_153" data-name="Group 153" transform="translate(424.515 228.382)">
      <path id="Path_172" data-name="Path 172" d="M415.739,219c-7.685.624-19.753,2.607-29.241,4.392,6.457,1.408,15.778,2.766,29.687,1.747a227.81,227.81,0,0,0,26.589-6.249A234.712,234.712,0,0,0,415.739,219Z" transform="translate(-386.498 -218.551)" fill="#fff" stroke="#000" stroke-miterlimit="10" stroke-width="1"/>
    </g>
    <path id="Path_173" data-name="Path 173" d="M374.553,192.508l11.97,32.915,5.984,1,2.329-1.662-8.644-35.906Z" transform="translate(36.718 6.602)" fill="#fff" stroke="#000" stroke-miterlimit="10" stroke-width="1"/>
    <path id="Path_174" data-name="Path 174" d="M418.337,225.681l1.8-39.206,5.932,2.58-3.352,35.853Z" transform="translate(41.479 6.343)" fill="#fff" stroke="#000" stroke-miterlimit="10" stroke-width="1"/>
    <path id="Path_175" data-name="Path 175" d="M432.956,223.669l15.4-50.328,8.085-1.581,1.533,10.97-15.746,37.986Z" transform="translate(43.069 4.743)" fill="#fff" stroke="#000" stroke-miterlimit="10" stroke-width="1"/>
    <path id="Path_176" data-name="Path 176" d="M403.367,233.947l-25.119-96.5,28.927-9.31,9.418,105.217Z" transform="translate(37.12)" fill="#fff" stroke="#000" stroke-miterlimit="10" stroke-width="1"/>
    <g id="Group_154" data-name="Group 154" transform="translate(427.772 148.754)">
      <path id="Path_177" data-name="Path 177" d="M405.415,146.732l-15.979,31.4,5.026,19.312,13.175-25.887Z" transform="translate(-389.435 -146.732)" fill="#fff" stroke="#000" stroke-miterlimit="10" stroke-width="1"/>
      <path id="Path_178" data-name="Path 178" d="M407.736,176.761l-12.218,24.005,2.446,9.4,10.851-21.323Z" transform="translate(-388.774 -143.467)" fill="#fff" stroke="#000" stroke-miterlimit="10" stroke-width="1"/>
    </g>
    <g id="Group_157" data-name="Group 157" transform="translate(337.985 314.176)">
      <path id="Path_179" data-name="Path 179" d="M375.811,317.471l1.212-.436a8.438,8.438,0,0,0,3.692-4.7c.149-2.5-2.568-4.393-2.568-4.393L326.153,295.93l-16.092.727-.355.788,10.712,8.143Z" transform="translate(-308.318 -295.93)" fill="#fff" stroke="#000" stroke-miterlimit="10" stroke-width="1"/>
      <g id="Group_155" data-name="Group 155" transform="translate(1.398 0.003)">
        <path id="Path_180" data-name="Path 180" d="M326.162,295.933l-16.093.727-.354.786,10.711,8.144.857.193.358-5.544,5.439-4.048Z" transform="translate(-309.715 -295.933)" fill="#fff" stroke="#000" stroke-miterlimit="10" stroke-width="1"/>
      </g>
      <path id="Path_181" data-name="Path 181" d="M315.387,301.555l3.169-5.235-9.36-.207-.651,1.265Z" transform="translate(-308.444 -295.91)" fill="#fff" stroke="#000" stroke-miterlimit="10" stroke-width="1"/>
      <g id="Group_156" data-name="Group 156" transform="translate(0 0.089)">
        <path id="Path_182" data-name="Path 182" d="M308.454,297.49l12.1,8.089,55.394,11.882,1.212-.436c1.8-1.25,3.374-3.138,3.608-4.383l-71.72-16.633Z" transform="translate(-308.454 -296.01)" fill="#fff" stroke="#000" stroke-miterlimit="10" stroke-width="1"/>
      </g>
      <path id="Path_183" data-name="Path 183" d="M371.618,307.8c-1.184-.682-2.386-.809-2.682-.287s.415,1.492,1.6,2.17,2.38.807,2.68.286S372.8,308.475,371.618,307.8Z" transform="translate(-301.885 -294.706)" fill="#fff" stroke="#000" stroke-miterlimit="10" stroke-width="1"/>
      <path id="Path_184" data-name="Path 184" d="M376.965,314.626l-56.61-11.947.189-2.695,1.049-.9,57.222,13.175Z" transform="translate(-307.16 -295.587)" fill="#fff" stroke="#000" stroke-miterlimit="10" stroke-width="1"/>
    </g>
    <g id="Group_158" data-name="Group 158" transform="translate(117.472 315.79)">
      <path id="Path_185" data-name="Path 185" d="M135.689,349.184l-24.528-51.8-1.053,1.683c-.2.322-.367.656-.54.992L134.5,351.948l76.789,67.118v9.8l.912.615a11.41,11.41,0,0,0,1.995,1.054c.009-3.945.252-12.458.252-12.458Z" transform="translate(-109.568 -297.386)" fill="#fff" stroke="#000" stroke-miterlimit="10" stroke-width="1"/>
    </g>
    <path id="Path_186" data-name="Path 186" d="M129.12,308.263l7.4,33.464,111.039-30.9-8.753-19.254Z" transform="translate(10.03 17.771)" fill="#fff" stroke="#000" stroke-miterlimit="10" stroke-width="1"/>
    <path id="Path_187" data-name="Path 187" d="M275.455,352.828l-28.426,21.025,9.032,9.326,38.986-16.731Z" transform="translate(22.851 24.433)" fill="#fff" stroke="#000" stroke-miterlimit="10" stroke-width="1"/>
    <path id="Path_188" data-name="Path 188" d="M278.055,352.116,250.813,374.03l6.711,7.5,38.3-16.188Z" transform="translate(23.263 24.355)" fill="#fff" stroke="#000" stroke-miterlimit="10" stroke-width="1"/>
    <g id="Group_159" data-name="Group 159" transform="translate(274.076 376.483)">
      <path id="Path_189" data-name="Path 189" d="M250.813,374.029l6.711,7.5,38.3-16.188-37.309,12.931-3.849-5.233,23.479-20.858-.073-.054-.128.078Z" transform="translate(-250.813 -352.127)" fill="#fff" stroke="#000" stroke-miterlimit="10" stroke-width="1"/>
    </g>
    <g id="Group_160" data-name="Group 160" transform="translate(170.215 315.672)">
      <path id="Path_190" data-name="Path 190" d="M181.885,324.631l7.613-24.766-18.853,3.5-13.507,27.677Z" transform="translate(-157.138 -296.998)" fill="#fff" stroke="#000" stroke-miterlimit="10" stroke-width="1"/>
      <path id="Path_191" data-name="Path 191" d="M196.4,320.313l5.3-23.033-8.139,1.51-6.451,23.927Z" transform="translate(-153.879 -297.279)" fill="#fff" stroke="#000" stroke-miterlimit="10" stroke-width="1"/>
    </g>
    <path id="Path_192" data-name="Path 192" d="M117.814,293.6l6.049,10.673,26.207-6.283.711-4.745Z" transform="translate(8.801 17.953)" fill="#fff" stroke="#000" stroke-miterlimit="10" stroke-width="1"/>
    <path id="Path_193" data-name="Path 193" d="M120.147,294.291l5.1,8.082,22.1-4.759.6-3.594Z" transform="translate(9.054 18.038)" fill="#fff" stroke="#000" stroke-miterlimit="10" stroke-width="1"/>
    <path id="Path_194" data-name="Path 194" d="M229.084,456.028c0,2.123-3.844,3.848-8.587,3.848s-8.586-1.725-8.586-3.848,3.844-3.851,8.586-3.851S229.084,453.9,229.084,456.028Z" transform="translate(19.033 35.236)" fill="#fff" stroke="#000" stroke-miterlimit="10" stroke-width="1"/>
    <path id="Path_195" data-name="Path 195" d="M252.725,313.658l-113.9,33.363L257.463,318Z" transform="translate(11.085 20.173)" fill="#fff" stroke="#000" stroke-miterlimit="10" stroke-width="1"/>
    <path id="Path_196" data-name="Path 196" d="M427.966,223.161v81.427l3.851-1.333,8.881-84.091Z" transform="translate(42.526 9.898)" fill="#fff" stroke="#000" stroke-miterlimit="10" stroke-width="1"/>
    <path id="Path_197" data-name="Path 197" d="M390.337,225.263l9.329,78.318-8.027-3.2-15.2-78.751Z" transform="translate(36.923 10.166)" fill="#fff" stroke="#000" stroke-miterlimit="10" stroke-width="1"/>
    <path id="Path_198" data-name="Path 198" d="M535.191,337.072l6.46.416-5.865,7.728S540.964,337.222,535.191,337.072Z" transform="translate(54.186 22.719)" fill="#fff" stroke="#000" stroke-miterlimit="10" stroke-width="1"/>
    <path id="Path_199" data-name="Path 199" d="M383.19,481.553c13.965-.047,10.806-5.915,11.5-13.173,2.084,9.1,6.166,13.419-3.011,13.469C389.681,481.861,386.742,481.653,383.19,481.553Z" transform="translate(37.657 36.998)" fill="#fff" stroke="#000" stroke-miterlimit="10" stroke-width="1"/>
    <path id="Path_200" data-name="Path 200" d="M274.9,296.168l-11.647,3.753-3.355-5.134Z" transform="translate(24.25 18.121)" fill="#fff" stroke="#000" stroke-miterlimit="10" stroke-width="1"/>
    <path id="Path_201" data-name="Path 201" d="M456.1,349.732l-103.046-2.52s2.816-2.53,8.292-2.663l95.5,1.628Z" transform="translate(34.38 23.532)" fill="#fff" stroke="#000" stroke-miterlimit="10" stroke-width="1"/>
    <path id="Path_202" data-name="Path 202" d="M386.444,407.132l-17.766,13.029,23.884-9.478Z" transform="translate(36.079 30.338)" fill="#fff" stroke="#000" stroke-miterlimit="10" stroke-width="1"/>
    <path id="Path_203" data-name="Path 203" d="M346.941,353.024l-22.062-3.655,23.985-1.482Z" transform="translate(31.317 23.895)" fill="#fff" stroke="#000" stroke-miterlimit="10" stroke-width="1"/>
    <path id="Path_204" data-name="Path 204" d="M256.065,371.66l2.862,3.75,17.963-6.513-9.08-7.7Z" transform="translate(23.834 25.343)" fill="#fff" stroke="#000" stroke-miterlimit="10" stroke-width="1"/>
    <path id="Path_205" data-name="Path 205" d="M269.686,359.1l9.278,8.489,6.909-2.566-14.016-8.1Z" transform="translate(25.315 24.878)" fill="#fff" stroke="#000" stroke-miterlimit="10" stroke-width="1"/>
    <g id="Group_161" data-name="Group 161" transform="translate(209.327 302.794)">
      <path id="Path_206" data-name="Path 206" d="M227.565,285.774c-4.331-.767-25.938,2.753-35.151,3.589l40.341-.644C232.007,287.429,230.811,286.352,227.565,285.774Z" transform="translate(-192.414 -285.665)" fill="#fff" stroke="#000" stroke-miterlimit="10" stroke-width="1"/>
    </g>
    <path id="Path_207" data-name="Path 207" d="M229.27,471l100.378-77.578h2.369l-98.9,78.466Z" transform="translate(20.92 28.847)" fill="#fff" stroke="#000" stroke-miterlimit="10" stroke-width="1"/>
    <path id="Path_208" data-name="Path 208" d="M251.7,452.592l8.884,4.146,1.777-1.482-9.18-4.146Z" transform="translate(23.359 35.12)" fill="#fff" stroke="#000" stroke-miterlimit="10" stroke-width="1"/>
    <path id="Path_209" data-name="Path 209" d="M267.193,439.77l8.883,4.144,1.775-1.48-9.179-4.143Z" transform="translate(25.044 33.726)" fill="#fff" stroke="#000" stroke-miterlimit="10" stroke-width="1"/>
    <path id="Path_210" data-name="Path 210" d="M281.08,428.183l7.156,3.338,1.432-1.191-7.4-3.339Z" transform="translate(26.554 32.497)" fill="#fff" stroke="#000" stroke-miterlimit="10" stroke-width="1"/>
    <path id="Path_211" data-name="Path 211" d="M291.446,420.545l6.26,2.922,1.253-1.042-6.471-2.922Z" transform="translate(27.681 31.683)" fill="#fff" stroke="#000" stroke-miterlimit="10" stroke-width="1"/>
    <path id="Path_212" data-name="Path 212" d="M300.839,413.252l4.7,2.191.939-.781-4.853-2.189Z" transform="translate(28.703 30.918)" fill="#fff" stroke="#000" stroke-miterlimit="10" stroke-width="1"/>
    <path id="Path_213" data-name="Path 213" d="M309.384,406.58l4.7,2.187.94-.781-4.852-2.192Z" transform="translate(29.632 30.192)" fill="#fff" stroke="#000" stroke-miterlimit="10" stroke-width="1"/>
    <g id="Group_163" data-name="Group 163" transform="translate(163.333 344.889)">
      <path id="Path_214" data-name="Path 214" d="M183.22,337.784l10.023,9.656,19.588-5.636-9.568-8.55Z" transform="translate(-147.42 -322.585)" fill="#fff" stroke="#000" stroke-miterlimit="10" stroke-width="1"/>
      <path id="Path_215" data-name="Path 215" d="M176.539,339.419l-25.608,5.791,12.831,11.055,24.466-7.042Z" transform="translate(-150.931 -321.914)" fill="#fff" stroke="#000" stroke-miterlimit="10" stroke-width="1"/>
      <path id="Path_216" data-name="Path 216" d="M195.613,349.841l13.571,13.073,18.288-8.007-12.1-10.809Z" transform="translate(-146.073 -321.405)" fill="#fff" stroke="#000" stroke-miterlimit="10" stroke-width="1"/>
      <path id="Path_217" data-name="Path 217" d="M190.715,351.4l-24.472,7.116L185,374.108l21.545-9.433Z" transform="translate(-149.266 -320.611)" fill="#fff" stroke="#000" stroke-miterlimit="10" stroke-width="1"/>
      <path id="Path_218" data-name="Path 218" d="M188.5,378,207.253,393.6l19.363-11.883-16.083-13.493Z" transform="translate(-146.846 -318.782)" fill="#fff" stroke="#000" stroke-miterlimit="10" stroke-width="1"/>
      <path id="Path_219" data-name="Path 219" d="M213.1,366.93l14.25,13.724,17.083-10.482-12.826-11.461Z" transform="translate(-144.171 -319.816)" fill="#fff" stroke="#000" stroke-miterlimit="10" stroke-width="1"/>
      <g id="Group_162" data-name="Group 162" transform="translate(61.853)">
        <path id="Path_220" data-name="Path 220" d="M206.718,332.5l8.963,8.351,19.431-5.588-6.931-7.616Z" transform="translate(-206.718 -323.194)" fill="#fff" stroke="#000" stroke-miterlimit="10" stroke-width="1"/>
        <path id="Path_221" data-name="Path 221" d="M253.2,329.746l-7.9-6.115-14.593,3.3,7.626,7.1Z" transform="translate(-204.109 -323.631)" fill="#fff" stroke="#000" stroke-miterlimit="10" stroke-width="1"/>
        <path id="Path_222" data-name="Path 222" d="M262.549,338.671l-7.3-6.316-14.325,4.16,8.493,7.908Z" transform="translate(-202.999 -322.682)" fill="#fff" stroke="#000" stroke-miterlimit="10" stroke-width="1"/>
        <path id="Path_223" data-name="Path 223" d="M218.185,343.258l11.192,10.432,15.916-6.966-8.166-8.973Z" transform="translate(-205.471 -322.095)" fill="#fff" stroke="#000" stroke-miterlimit="10" stroke-width="1"/>
        <path id="Path_224" data-name="Path 224" d="M274.773,350.52l-8.883-7.306L253.767,348.6l9.593,8.928Z" transform="translate(-201.602 -321.501)" fill="#fff" stroke="#000" stroke-miterlimit="10" stroke-width="1"/>
        <path id="Path_225" data-name="Path 225" d="M233.554,357.871,245.6,369.1l14.591-9.387-9.367-10.287Z" transform="translate(-203.8 -320.826)" fill="#fff" stroke="#000" stroke-miterlimit="10" stroke-width="1"/>
      </g>
    </g>
    <path id="Path_226" data-name="Path 226" d="M187.562,353.9l-3.16,15,14.806-5.529Z" transform="translate(16.041 24.549)" fill="#fff" stroke="#000" stroke-miterlimit="10" stroke-width="1"/>
    <path id="Path_227" data-name="Path 227" d="M174.553,341.435l7.7,7.106-16.187,3.753Z" transform="translate(14.047 23.194)" fill="#fff" stroke="#000" stroke-miterlimit="10" stroke-width="1"/>
    <path id="Path_228" data-name="Path 228" d="M201.322,335.027l-7.3,10.461,14.017-4.542Z" transform="translate(17.087 22.497)" fill="#fff" stroke="#000" stroke-miterlimit="10" stroke-width="1"/>
    <path id="Path_229" data-name="Path 229" d="M213.748,346.064l-5.132,13.622,13.029-5.723Z" transform="translate(18.674 23.697)" fill="#fff" stroke="#000" stroke-miterlimit="10" stroke-width="1"/>
    <path id="Path_230" data-name="Path 230" d="M205.947,389.15l1.973-18.162,11.845,9.673Z" transform="translate(18.384 26.407)" fill="#fff" stroke="#000" stroke-miterlimit="10" stroke-width="1"/>
    <path id="Path_231" data-name="Path 231" d="M226.421,375.052l3.751-14.212,8.685,8.3Z" transform="translate(20.61 25.304)" fill="#fff" stroke="#000" stroke-miterlimit="10" stroke-width="1"/>
    <path id="Path_232" data-name="Path 232" d="M244.938,365.223l4.344-13.819,6.909,7.9Z" transform="translate(22.624 24.278)" fill="#fff" stroke="#000" stroke-miterlimit="10" stroke-width="1"/>
    <path id="Path_233" data-name="Path 233" d="M263.1,354.02l1.778-8.493,5.723,4.741Z" transform="translate(24.599 23.639)" fill="#fff" stroke="#000" stroke-miterlimit="10" stroke-width="1"/>
    <path id="Path_234" data-name="Path 234" d="M249.39,341.657l4.341-7.7,4.542,4.147Z" transform="translate(23.108 22.38)" fill="#fff" stroke="#000" stroke-miterlimit="10" stroke-width="1"/>
    <path id="Path_235" data-name="Path 235" d="M238.528,330.58l4.738-5.526,5.724,3.354Z" transform="translate(21.927 21.413)" fill="#fff" stroke="#000" stroke-miterlimit="10" stroke-width="1"/>
    <path id="Path_236" data-name="Path 236" d="M216.629,338.034l9.673-8.887,4.342,4.741Z" transform="translate(19.546 21.858)" fill="#fff" stroke="#000" stroke-miterlimit="10" stroke-width="1"/>
    <path id="Path_237" data-name="Path 237" d="M228.735,350.55l7.107-11.253,5.527,5.923Z" transform="translate(20.862 22.961)" fill="#fff" stroke="#000" stroke-miterlimit="10" stroke-width="1"/>
    <g id="Group_165" data-name="Group 165" transform="translate(144.681 381.198)" opacity="0.7">
      <path id="Path_238" data-name="Path 238" d="M136.609,368a2.591,2.591,0,0,1-.962-1.581l-1.513-8.256a1.514,1.514,0,0,1,2.359-1.511l9.919,6.958a2.512,2.512,0,0,1,.991,2.676l-1.247,4.888a2.381,2.381,0,0,1-3.762,1.3Z" transform="translate(-134.109 -356.379)" fill="#fff" stroke="#000" stroke-miterlimit="10" stroke-width="1"/>
      <g id="Group_164" data-name="Group 164" transform="translate(3.218 0.947)">
        <path id="Path_239" data-name="Path 239" d="M138.546,366.332a2.607,2.607,0,0,0,.963,1.579l5.59,4.322a2.338,2.338,0,0,0,.741-1.146l1.247-4.888a2.519,2.519,0,0,0-.991-2.678l-8.965-6.288a1.526,1.526,0,0,0-.1.844Z" transform="translate(-137.011 -357.233)" fill="#fff" stroke="#000" stroke-miterlimit="10" stroke-width="1"/>
      </g>
    </g>
    <path id="Path_240" data-name="Path 240" d="M122.087,295.23l3.555,5.924,5.822-1.479-.888-4.345Z" transform="translate(9.265 18.17)" fill="#fff" stroke="#000" stroke-miterlimit="10" stroke-width="1"/>
    <path id="Path_241" data-name="Path 241" d="M131.524,295.783l.593,3.159,12.929-2.369.4-1.876Z" transform="translate(10.291 18.111)" fill="#fff" stroke="#000" stroke-miterlimit="10" stroke-width="1"/>
    <path id="Path_242" data-name="Path 242" d="M423.451,418.42l16.256-28.734,1.184,15.4Z" transform="translate(42.035 28.441)" fill="#fff" stroke="#000" stroke-miterlimit="10" stroke-width="1"/>
    <path id="Path_243" data-name="Path 243" d="M425.071,417.3l-16.512-3.864,26.06-13.423Z" transform="translate(40.416 29.563)" fill="#fff" stroke="#000" stroke-miterlimit="10" stroke-width="1"/>
    <g id="Group_166" data-name="Group 166" transform="translate(115.915 318.684)">
      <path id="Path_244" data-name="Path 244" d="M109.588,300a13.775,13.775,0,0,0-.384,11.35L132.765,368.5l1.893-16.837S109.791,299.586,109.588,300Z" transform="translate(-108.164 -299.996)" fill="#fff" stroke="#000" stroke-miterlimit="10" stroke-width="1"/>
    </g>
    <path id="Path_245" data-name="Path 245" d="M202.93,405.042l1.119,13.788,4.693-12.011Z" transform="translate(18.056 30.11)" fill="#fff" stroke="#000" stroke-miterlimit="10" stroke-width="1"/>
  </g>
</svg>
