<?xml version="1.0" encoding="utf-8"?>
<!-- Generator: Adobe Illustrator 23.0.5, SVG Export Plug-In . SVG Version: 6.00 Build 0)  -->
<svg version="1.1" id="Layer_1" xmlns="http://www.w3.org/2000/svg" xmlns:xlink="http://www.w3.org/1999/xlink" x="0px" y="0px"
	 viewBox="0 0 500 500" style="enable-background:new 0 0 500 500;" xml:space="preserve">
<style type="text/css">
	.st0{fill:#FFFFFF;}
	.st1{fill:none;stroke:#CCCCCC;stroke-width:3;stroke-linecap:round;stroke-linejoin:round;stroke-miterlimit:10;}
	.st2{fill:#E6E6E6;}
	.st3{fill:#666666;}
	.st4{fill:#999999;}
	.st5{fill:#F4F0EB;}
	.st6{fill:none;stroke:#B3B3B3;stroke-miterlimit:10;}
</style>
<path class="st0" d="M456.4,109.88H355.54L319.7,85.18c0-6.31-5.12-11.43-11.43-11.43H191.73c-6.31,0-11.43,5.12-11.43,11.43
	l-35.84,24.69h-33.53c0.42-1,0.65-2.09,0.65-3.24c0-4.6-3.73-8.32-8.32-8.32H67.2c-4.6,0-8.32,3.73-8.32,8.32
	c0,1.15,0.23,2.25,0.65,3.24H43.6c-6.31,0-11.43,5.12-11.43,11.43v243.83c0,6.31,5.12,11.43,11.43,11.43h412.8
	c6.32,0,11.43-5.12,11.43-11.43V121.31C467.83,115,462.72,109.88,456.4,109.88z M446.56,157.11c0,6.31-5.12,11.43-11.43,11.43
	h-47.14c-6.31,0-11.43-5.12-11.43-11.43v-14.17c0-6.31,5.12-11.43,11.43-11.43h47.14c6.31,0,11.43,5.12,11.43,11.43V157.11z"/>
<line class="st1" x1="19" y1="194.57" x2="481" y2="194.57"/>
<ellipse transform="matrix(0.7071 -0.7071 0.7071 0.7071 -128.2895 260.246)" class="st2" cx="250" cy="284.98" rx="126.56" ry="126.56"/>
<ellipse transform="matrix(0.9884 -0.1521 0.1521 0.9884 -40.436 41.3395)" class="st3" cx="250" cy="284.98" rx="112.65" ry="112.65"/>
<circle class="st4" cx="250" cy="284.98" r="88.75"/>
<ellipse transform="matrix(0.9885 -0.1515 0.1515 0.9885 -40.2892 41.1646)" class="st5" cx="250" cy="284.98" rx="62.2" ry="62.2"/>
<path class="st3" d="M276.36,284.98c0-14.55-11.8-26.36-26.36-26.36c-14.55,0-26.36,11.8-26.36,26.36
	c0,14.56,11.8,26.36,26.36,26.36C264.55,311.34,276.36,299.54,276.36,284.98z"/>
<ellipse transform="matrix(0.431 -0.9024 0.9024 0.431 -114.9021 387.7501)" class="st6" cx="250" cy="284.98" rx="38.3" ry="38.3"/>
<path class="st5" d="M297.99,84.79c0,1.93-1.56,3.49-3.49,3.49h-89.02c-1.92,0-3.48-1.56-3.48-3.49l0,0c0-1.92,1.56-3.48,3.48-3.48
	h89.02C296.43,81.31,297.99,82.87,297.99,84.79L297.99,84.79z"/>
</svg>
