<?xml version="1.0" encoding="utf-8"?>
<!-- Generator: Adobe Illustrator 23.0.5, SVG Export Plug-In . SVG Version: 6.00 Build 0)  -->
<svg version="1.1" id="Layer_1" xmlns="http://www.w3.org/2000/svg" xmlns:xlink="http://www.w3.org/1999/xlink" x="0px" y="0px"
	 viewBox="0 0 500 500" style="enable-background:new 0 0 500 500;" xml:space="preserve">
<style type="text/css">
	.st0{fill:#FFFFFF;}
	.st1{fill:#E6E6E6;}
</style>
<g>
	<g>
		<rect x="188.3" y="100.64" class="st0" width="11.84" height="42.13"/>
	</g>
</g>
<g>
	<g>
		<rect x="218.12" y="165.02" class="st0" width="63.91" height="15.15"/>
	</g>
</g>
<g>
	<g>
		<rect x="219.54" y="203.84" class="st0" width="42.61" height="14.68"/>
	</g>
</g>
<g>
	<g>
		<rect x="169.83" y="103.95" class="st0" width="19.41" height="31.25"/>
	</g>
</g>
<g>
	<g>
		<path class="st0" d="M205.81,168.81H321.8c5.75,0,10.42-4.66,10.42-10.42V92.12c0-5.75-4.66-10.42-10.42-10.42H205.81
			c-5.75,0-10.42,4.66-10.42,10.42v66.28C195.4,164.15,200.06,168.81,205.81,168.81z"/>
	</g>
</g>
<g>
	<g>
		<polygon class="st1" points="129.59,160.41 174.57,135.2 174.57,103.95 129.59,79.21 		"/>
	</g>
</g>
<g>
	<g>
		<path class="st0" d="M269.01,47.14c0,18.3,14.84,33.14,33.14,33.14c18.3,0,33.14-14.84,33.14-33.14
			c0-18.3-14.84-33.14-33.14-33.14C283.85,14,269.01,28.84,269.01,47.14z"/>
	</g>
</g>
<g>
	<g>
		<path class="st0" d="M302.16,54.71c4.17,0,7.57-3.4,7.57-7.58c0-4.18-3.4-7.57-7.57-7.57c-4.18,0-7.58,3.4-7.58,7.57
			C294.58,51.32,297.98,54.71,302.16,54.71z"/>
	</g>
</g>
<g>
	<path class="st1" d="M302.16,51.87c2.61,0,4.73-2.13,4.73-4.74s-2.12-4.73-4.73-4.73c-2.61,0-4.74,2.12-4.74,4.73
		S299.54,51.87,302.16,51.87z"/>
</g>
<g>
	<g>
		<path class="st0" d="M292.45,68.21c3.13,0,5.68-2.55,5.68-5.68c0-3.13-2.55-5.68-5.68-5.68c-3.13,0-5.68,2.55-5.68,5.68
			C286.77,65.66,289.32,68.21,292.45,68.21z"/>
	</g>
</g>
<g>
	<g>
		<path class="st0" d="M292.45,66.08c1.96,0,3.55-1.59,3.55-3.55c0-1.96-1.59-3.55-3.55-3.55c-1.96,0-3.55,1.59-3.55,3.55
			C288.9,64.48,290.49,66.08,292.45,66.08z"/>
	</g>
</g>
<g>
	<g>
		<circle class="st0" cx="241.08" cy="48.09" r="33.14"/>
	</g>
</g>
<g>
	<g>
		<path class="st0" d="M241.08,55.66c4.18,0,7.58-3.4,7.58-7.58c0-4.18-3.4-7.57-7.58-7.57c-4.18,0-7.58,3.4-7.58,7.57
			C233.51,52.26,236.9,55.66,241.08,55.66z"/>
	</g>
</g>
<g>
	<g>
		<path class="st1" d="M241.08,52.82c2.61,0,4.74-2.12,4.74-4.73c0-2.61-2.12-4.73-4.74-4.73s-4.74,2.12-4.74,4.73
			C236.35,50.7,238.47,52.82,241.08,52.82z"/>
	</g>
</g>
<g>
	<g>
		<path class="st0" d="M263.1,80.28h13.26c4.31,0,7.81-4.29,7.81-9.58V59.09c0-5.29-3.5-9.58-7.81-9.58H263.1
			c-4.31,0-7.81,4.29-7.81,9.58V70.7C255.29,75.99,258.78,80.28,263.1,80.28z"/>
	</g>
</g>
<g>
	<g>
		<rect x="238.24" y="74.6" class="st0" width="96.58" height="7.1"/>
	</g>
</g>
<g>
	<g>
		<g>
			
				<rect x="325.6" y="100.76" transform="matrix(0.9285 -0.3714 0.3714 0.9285 -14.4313 135.1156)" class="st0" width="35.98" height="8.52"/>
		</g>
	</g>
	<g>
		<g>
			<polygon class="st0" points="361.87,102.3 371.54,103.53 364.51,85.95 358.71,94.39 			"/>
		</g>
	</g>
</g>
<g>
	<g>
		<path class="st0" d="M223.33,191.06c0,8.89,7.21,16.1,16.1,16.1c8.89,0,16.1-7.21,16.1-16.1c0-8.89-7.21-16.1-16.1-16.1
			C230.54,174.96,223.33,182.17,223.33,191.06z"/>
	</g>
</g>
<g>
	<g>
		<rect x="240.85" y="195.2" class="st0" width="67.7" height="5.68"/>
	</g>
</g>
<g>
	<g>
		<path class="st0" d="M305.39,205.38h15.77c4.01,0,7.26-3.25,7.26-7.26v-0.15c0-4.01-3.25-7.26-7.26-7.26h-15.77
			c-4.01,0-12.95,3.25-12.95,7.26v0.15C292.45,202.13,301.38,205.38,305.39,205.38z"/>
	</g>
</g>
<g>
	<g>
		<path class="st0" d="M239.43,198.64c4.18,0,7.58-3.4,7.58-7.58c0-4.18-3.4-7.57-7.58-7.57c-4.18,0-7.58,3.4-7.58,7.57
			C231.85,195.24,235.25,198.64,239.43,198.64z"/>
	</g>
</g>
<g>
	<g>
		<path class="st0" d="M214.34,143.72v-37.87c0-4.7,3.82-8.52,8.52-8.52h32.67c4.7,0,8.52,3.82,8.52,8.52v37.87
			c0,4.7-3.82,8.52-8.52,8.52h-32.67C218.16,152.24,214.34,148.42,214.34,143.72z M222.86,100.17c-3.13,0-5.68,2.55-5.68,5.68v37.87
			c0,3.13,2.55,5.68,5.68,5.68h32.67c3.13,0,5.68-2.55,5.68-5.68v-37.87c0-3.13-2.55-5.68-5.68-5.68H222.86z"/>
	</g>
</g>
<g>
	<g>
		<path class="st0" d="M323.64,120.58c4.17,0,7.57-3.4,7.57-7.58c0-4.18-3.4-7.57-7.57-7.57c-4.18,0-7.58,3.4-7.58,7.57
			C316.06,117.18,319.46,120.58,323.64,120.58z"/>
	</g>
</g>
<g>
	<g>
		<path class="st0" d="M323.64,116.32c1.83,0,3.31-1.49,3.31-3.31c0-1.83-1.49-3.31-3.31-3.31c-1.83,0-3.31,1.49-3.31,3.31
			C320.32,114.83,321.81,116.32,323.64,116.32z"/>
	</g>
</g>
<g>
	<g>
		<rect x="234.27" y="214.75" class="st0" width="12.31" height="270.8"/>
	</g>
	<g>
		<polygon class="st0" points="169.59,485.55 182.22,485.55 234.27,266.93 240.81,239.37 246.46,215.77 242.22,214.75 
			240.81,214.43 234.47,212.89 		"/>
	</g>
	<g>
		<polygon class="st0" points="235.24,215.77 240.81,239.37 246.58,263.41 299.47,485.55 312.1,485.55 247.22,212.89 240.81,214.43 
			239.47,214.75 		"/>
	</g>
</g>
</svg>
